# Blender 5.1.0
# www.blender.org
mtllib bar stand.mtl
o bar_table
v 3.005628 2.000000 1.559323
v 3.005628 0.000000 1.559323
v 3.005628 2.000000 2.014684
v 3.005628 0.000000 2.014684
v -3.005628 2.000000 1.559323
v -3.005628 0.000000 1.559323
v -3.005628 2.000000 2.014684
v -3.005628 0.000000 2.014684
v 3.005628 0.000000 1.031549
v -3.005628 0.000000 1.031549
v 3.005628 2.000000 1.031549
v -3.005628 2.000000 1.031549
v 3.005628 2.612535 2.014684
v -3.005628 2.612535 2.014684
v 3.005628 2.612535 1.559323
v -3.005628 2.612535 1.559323
v 3.127856 2.612535 2.466691
v -3.127856 2.612535 2.466691
v 3.127856 2.612535 1.461664
v -3.127856 2.612535 1.461664
v 3.127856 2.695127 2.466691
v -3.127856 2.695127 2.466691
v 3.127856 2.695127 1.461664
v -3.127856 2.695127 1.461664
v -3.081174 2.000000 1.634869
v 3.081174 2.000000 1.634869
v -3.081174 2.000000 0.818266
v 3.081174 2.000000 0.818266
v -3.081174 2.082592 1.634869
v 3.081174 2.082592 1.634869
v -3.081174 2.082592 0.818266
v 3.081174 2.082592 0.818266
v -3.137934 -0.000000 -1.639950
v -3.137934 2.000000 -1.639950
v -3.137934 -0.000000 -2.496129
v -3.137934 2.000000 -2.496129
v 3.137934 -0.000000 -1.639950
v 3.137934 2.000000 -1.639950
v 3.137934 -0.000000 -2.496129
v 3.137934 2.000000 -2.496129
v -3.137934 2.078682 -1.639950
v -3.137934 2.078682 -2.496129
v 3.137934 2.078682 -2.496129
v 3.137934 2.078682 -1.639950
v -3.137934 3.367940 -1.639950
v -3.137934 3.367940 -2.496129
v 3.137934 3.367940 -2.496129
v 3.137934 3.367940 -1.639950
v 3.033434 2.094023 -1.639950
v -3.033434 2.094023 -1.639950
v 3.033434 3.334509 -1.639950
v -3.033434 3.334509 -1.639950
v 3.033434 2.094023 -2.415924
v -3.033434 2.094023 -2.415924
v 3.033434 3.334509 -2.415924
v -3.033434 3.334509 -2.415924
v -3.137934 4.509546 -1.639950
v -3.137934 4.509546 -2.496129
v 3.137934 4.509546 -2.496129
v 3.137934 4.509546 -1.639950
v 3.028049 3.417580 -1.639950
v -3.028049 3.417580 -1.639950
v 3.028049 4.431251 -1.639950
v -3.028049 4.431251 -1.639950
v 3.028049 3.417580 -2.409610
v -3.028049 3.417580 -2.409610
v 3.028049 4.431251 -2.409610
v -3.028049 4.431251 -2.409610
v 3.137934 2.000000 -1.244957
v -3.137934 2.000000 -1.244957
v 3.137934 2.078682 -1.244957
v -3.137934 2.078682 -1.244957
vn 0.6883 -0.6882 -0.2294
vn -0.6883 -0.6882 -0.2294
vn -0.3015 -0.9045 -0.3015
vn 0.3015 -0.9045 -0.3015
vn 0.7071 -0.0000 0.7071
vn -0.7071 -0.0000 0.7071
vn -1.0000 -0.0000 -0.0000
vn 1.0000 -0.0000 -0.0000
vn -0.7071 -0.0000 -0.7071
vn 0.7071 -0.0000 -0.7071
vn 0.3015 -0.9045 0.3015
vn 0.5773 -0.5774 -0.5773
vn 0.5774 -0.5773 0.5774
vn -0.5773 -0.5774 0.5773
vn -0.5774 -0.5773 -0.5774
vn -0.3015 -0.9045 0.3015
vn 0.5774 0.5774 -0.5774
vn -0.5774 0.5774 -0.5774
vn -0.5774 0.5774 0.5774
vn 0.5774 0.5774 0.5774
vn 0.5774 -0.5773 -0.5774
vn -0.5773 -0.5774 -0.5773
vn -0.5774 -0.5773 0.5774
vn 0.5773 -0.5774 0.5773
vn -0.9045 -0.3015 0.3015
vn 0.9045 -0.3015 0.3015
vn 0.9045 0.3015 0.3015
vn -0.9045 0.3015 0.3015
vn 0.5773 0.5773 0.5774
vn -0.3015 -0.3015 0.9045
vn -0.3015 0.3015 0.9045
vn -0.5774 -0.5774 0.5774
vn 0.3015 -0.3015 0.9045
vn 0.3015 0.3015 0.9045
vn 0.5774 -0.5774 0.5774
vn -0.5773 0.5773 0.5774
vt 0.561772 0.465777
vt 0.561772 0.048975
vt 0.604243 0.048975
vt 0.604243 0.465777
vt 0.241425 0.048975
vt 0.380098 0.048975
vt 0.380098 0.465777
vt 0.241425 0.465777
vt 0.309592 0.466041
vt 0.309592 0.604715
vt 0.278019 0.604715
vt 0.278019 0.466041
vt 0.341430 0.466041
vt 0.341430 0.604715
vt 0.309856 0.604715
vt 0.309856 0.466041
vt 0.241425 0.604715
vt 0.241425 0.466041
vt 0.561508 0.465777
vt 0.422834 0.465777
vt 0.422834 0.048975
vt 0.561508 0.048975
vt 0.084388 0.511130
vt 0.052815 0.511130
vt 0.046043 0.502655
vt 0.115729 0.502655
vt 0.378024 0.466041
vt 0.378024 0.604715
vt 0.383526 0.480829
vt 0.383526 0.517424
vt 0.378288 0.522662
vt 0.378288 0.466041
vt 0.422570 0.048975
vt 0.422570 0.465777
vt 0.309592 0.647186
vt 0.278019 0.647186
vt 0.341430 0.647186
vt 0.309856 0.647186
vt 0.220646 0.059940
vt 0.220646 0.487218
vt 0.164025 0.487218
vt 0.164025 0.059940
vt 0.241161 0.065178
vt 0.241161 0.481980
vt 0.226372 0.487218
vt 0.226372 0.059940
vt 0.033545 0.488454
vt 0.033545 0.071652
vt 0.040317 0.063177
vt 0.040317 0.496929
vt 0.115729 0.063177
vt 0.115729 0.496929
vt 0.046043 0.496929
vt 0.046043 0.063177
vt 0.046043 0.057450
vt 0.115729 0.057450
vt 0.121455 0.063177
vt 0.121455 0.496929
vt 0.052815 0.048975
vt 0.084388 0.048975
vt 0.152796 0.071652
vt 0.152796 0.488454
vt 0.220646 0.492945
vt 0.164025 0.492945
vt 0.158298 0.487218
vt 0.158298 0.059940
vt 0.164025 0.054213
vt 0.220646 0.054213
vt 0.153060 0.481980
vt 0.153060 0.065178
vt 0.169263 0.048975
vt 0.205857 0.048975
vt 0.985307 0.580162
vt 0.932733 0.580162
vt 0.932733 0.473117
vt 0.985307 0.473117
vt 0.984407 0.983771
vt 0.864861 0.983771
vt 0.864861 0.608643
vt 0.984407 0.608643
vt 0.583251 0.473117
vt 0.635825 0.473117
vt 0.635825 0.580162
vt 0.583251 0.580162
vt 0.864812 0.608763
vt 0.984441 0.608763
vt 0.984441 0.983548
vt 0.864812 0.983548
vt 0.860158 0.983771
vt 0.860158 0.608643
vt 0.637893 0.580162
vt 0.637893 0.473117
vt 0.671783 0.473117
vt 0.671783 0.580162
vt 0.930665 0.580162
vt 0.930665 0.473117
vt 0.230201 0.921298
vt 0.695112 0.921298
vt 0.695112 0.950559
vt 0.230201 0.950559
vt 0.701792 0.473117
vt 0.701792 0.580162
vt 0.896774 0.580162
vt 0.896774 0.473117
vt 0.704629 0.594807
vt 0.704629 0.668646
vt 0.698644 0.666731
vt 0.698644 0.598496
vt 0.783096 0.983771
vt 0.783096 0.608643
vt 0.217192 0.909696
vt 0.217192 0.768189
vt 0.324657 0.768189
vt 0.324657 0.909696
vt 0.345199 0.668646
vt 0.351184 0.666731
vt 0.345199 0.594808
vt 0.351184 0.598496
vt 0.703522 0.864005
vt 0.337193 0.864005
vt 0.337193 0.792064
vt 0.703522 0.792064
vt 0.703522 0.910859
vt 0.337193 0.910859
vt 0.217597 0.909679
vt 0.217182 0.768189
vt 0.324657 0.909662
vt 0.337193 0.745210
vt 0.703522 0.745210
vt 0.866765 0.473117
vt 0.866765 0.580162
vt 0.704629 0.734028
vt 0.698336 0.729543
vt 0.698336 0.671489
vt 0.714858 0.983771
vt 0.714858 0.608643
vt 0.217185 0.909679
vt 0.217185 0.768198
vt 0.324658 0.768198
vt 0.324658 0.909566
vt 0.345199 0.734028
vt 0.351492 0.729543
vt 0.351492 0.671489
vt 0.337844 0.792655
vt 0.703522 0.792655
vt 0.703522 0.863900
vt 0.337844 0.863900
vt 0.703522 0.910373
vt 0.337844 0.910373
vt 0.217185 0.909680
vt 0.217185 0.768186
vt 0.324658 0.768186
vt 0.324658 0.909567
vt 0.337844 0.745823
vt 0.703522 0.745823
vt 0.695112 0.956387
vt 0.230201 0.956387
vt 0.695112 0.985648
vt 0.230201 0.985648
vt 0.224372 0.985648
vt 0.224372 0.956387
vt 0.700941 0.985648
vt 0.700941 0.956387
s 1
usemtl bar
f 1/1/1 5/2/2 16/3/3 15/4/4
f 4/5/5 3/6/5 7/7/6 8/8/6
f 8/9/6 7/10/6 5/11/2 6/12/7
f 2/13/8 1/14/1 3/15/5 4/16/5
f 6/12/7 5/11/2 12/17/3 10/18/9
f 10/19/9 12/20/3 11/21/4 9/22/10
f 13/23/11 15/24/4 19/25/12 17/26/13
f 1/14/1 2/13/8 9/27/10 11/28/4
f 12/29/3 5/30/2 25/31/14 27/32/15
f 7/7/6 3/6/5 13/33/11 14/34/16
f 5/11/2 7/10/6 14/35/16 16/36/3
f 3/15/5 1/14/1 15/37/4 13/38/11
f 32/39/17 31/40/18 29/41/19 30/42/20
f 11/43/4 12/44/3 27/45/15 28/46/21
f 15/47/4 16/48/3 20/49/22 19/50/12
f 22/51/19 21/52/20 23/53/17 24/54/18
f 19/50/12 20/49/22 24/54/18 23/53/17
f 17/26/13 19/25/12 23/53/17 21/52/20
f 20/55/22 18/56/23 22/51/19 24/54/18
f 18/57/23 17/58/13 21/52/20 22/51/19
f 16/59/3 14/60/16 18/56/23 20/55/22
f 14/61/16 13/62/11 17/58/13 18/57/23
f 27/63/15 25/64/14 29/41/19 31/40/18
f 25/65/14 26/66/24 30/42/20 29/41/19
f 26/67/24 28/68/21 32/39/17 30/42/20
f 28/46/21 27/45/15 31/40/18 32/39/17
f 5/69/2 1/70/1 26/66/24 25/65/14
f 1/71/1 11/72/4 28/68/21 26/67/24
f 33/73/6 34/74/25 36/75/9 35/76/9
f 35/77/9 36/78/9 40/79/10 39/80/10
f 39/81/10 40/82/10 38/83/26 37/84/5
f 37/85/5 38/86/26 34/87/25 33/88/6
f 40/79/10 36/78/9 42/89/9 43/90/10
f 44/91/27 43/92/10 47/93/10 48/94/5
f 38/83/26 40/82/10 43/92/10 44/91/27
f 36/75/9 34/74/25 41/95/28 42/96/9
f 44/97/27 41/98/28 72/99/19 71/100/20
f 48/94/5 47/93/10 59/101/17 60/102/29
f 42/96/9 41/95/28 45/103/6 46/104/9
f 44/105/27 48/106/5 51/107/30 49/108/31
f 43/90/10 42/89/9 46/109/9 47/110/10
f 49/111/31 51/112/30 55/113/32 53/114/19
f 48/106/5 45/115/6 52/116/33 51/107/30
f 41/117/28 44/105/27 49/108/31 50/118/34
f 45/115/6 41/117/28 50/118/34 52/116/33
f 54/119/20 53/120/19 55/121/32 56/122/35
f 50/123/34 49/124/31 53/120/19 54/119/20
f 52/125/33 50/126/34 54/113/20 56/127/35
f 51/128/30 52/129/33 56/122/35 55/121/32
f 59/101/17 58/130/18 57/131/36 60/102/29
f 46/104/9 45/103/6 57/131/36 58/130/18
f 48/106/5 60/132/29 63/133/30 61/134/31
f 47/110/10 46/109/9 58/135/18 59/136/17
f 64/137/33 62/138/34 66/139/20 68/140/35
f 60/132/29 57/141/36 64/142/33 63/133/30
f 45/115/6 48/106/5 61/134/31 62/143/34
f 57/141/36 45/115/6 62/143/34 64/142/33
f 66/144/20 65/145/19 67/146/32 68/147/35
f 63/148/30 64/149/33 68/147/35 67/146/32
f 61/150/31 63/151/30 67/152/32 65/153/19
f 62/154/34 61/155/31 65/145/19 66/144/20
f 70/156/32 69/157/35 71/100/20 72/99/19
f 34/158/25 38/159/26 69/157/35 70/156/32
f 38/159/26 44/160/27 71/161/20 69/157/35
f 41/162/28 34/158/25 70/156/32 72/163/19
o Cylinder
v -2.706533 2.086676 -2.073728
v -2.706533 2.618049 -2.073728
v -2.652762 2.086676 -2.061455
v -2.652762 2.618049 -2.061455
v -2.609641 2.086676 -2.027068
v -2.609641 2.618049 -2.027068
v -2.585711 2.086676 -1.977376
v -2.585711 2.618049 -1.977376
v -2.585711 2.086676 -1.922222
v -2.585711 2.618049 -1.922222
v -2.609641 2.086676 -1.872530
v -2.609641 2.618049 -1.872530
v -2.652762 2.086676 -1.838143
v -2.652762 2.618049 -1.838143
v -2.706533 2.086676 -1.825870
v -2.706533 2.618049 -1.825870
v -2.760304 2.086676 -1.838143
v -2.760304 2.618049 -1.838143
v -2.803425 2.086676 -1.872530
v -2.803425 2.618049 -1.872530
v -2.827355 2.086676 -1.922222
v -2.827355 2.618049 -1.922222
v -2.827355 2.086676 -1.977376
v -2.827355 2.618049 -1.977376
v -2.803425 2.086676 -2.027068
v -2.803425 2.618049 -2.027068
v -2.760304 2.086676 -2.061455
v -2.760304 2.618049 -2.061455
v -2.706533 2.665288 -2.052020
v -2.662181 2.665288 -2.041897
v -2.626613 2.665288 -2.013533
v -2.606874 2.665288 -1.972546
v -2.606874 2.665288 -1.927053
v -2.626613 2.665288 -1.886065
v -2.662181 2.665288 -1.857701
v -2.706533 2.665288 -1.847578
v -2.750885 2.665288 -1.857701
v -2.786453 2.665288 -1.886065
v -2.806191 2.665288 -1.927053
v -2.806191 2.665288 -1.972546
v -2.786453 2.665288 -2.013533
v -2.750885 2.665288 -2.041897
v -2.706533 2.698894 -2.021613
v -2.675374 2.698894 -2.014501
v -2.650386 2.698894 -1.994575
v -2.636519 2.698894 -1.965779
v -2.636519 2.698894 -1.933819
v -2.650386 2.698894 -1.905024
v -2.675374 2.698894 -1.885097
v -2.706533 2.698894 -1.877985
v -2.737692 2.698894 -1.885097
v -2.762679 2.698894 -1.905024
v -2.776546 2.698894 -1.933819
v -2.776546 2.698894 -1.965779
v -2.762679 2.698894 -1.994575
v -2.737692 2.698894 -2.014501
v -2.706533 2.720336 -1.998970
v -2.685198 2.720336 -1.994101
v -2.668089 2.720336 -1.980457
v -2.658595 2.720336 -1.960741
v -2.658595 2.720336 -1.938857
v -2.668089 2.720336 -1.919141
v -2.685198 2.720336 -1.905498
v -2.706533 2.720336 -1.900628
v -2.727867 2.720336 -1.905498
v -2.744976 2.720336 -1.919141
v -2.754471 2.720336 -1.938857
v -2.754471 2.720336 -1.960741
v -2.744976 2.720336 -1.980457
v -2.727867 2.720336 -1.994101
v -2.706533 2.747787 -1.990042
v -2.689072 2.747787 -1.986057
v -2.675069 2.747787 -1.974890
v -2.667298 2.747787 -1.958754
v -2.667298 2.747787 -1.940844
v -2.675069 2.747787 -1.924708
v -2.689072 2.747787 -1.913541
v -2.706533 2.747787 -1.909556
v -2.723994 2.747787 -1.913541
v -2.737996 2.747787 -1.924708
v -2.745767 2.747787 -1.940844
v -2.745767 2.747787 -1.958754
v -2.737996 2.747787 -1.974890
v -2.723994 2.747787 -1.986057
v -2.706533 2.925710 -1.990042
v -2.689072 2.925710 -1.986057
v -2.675069 2.925710 -1.974890
v -2.667298 2.925710 -1.958754
v -2.667298 2.925710 -1.940844
v -2.675069 2.925710 -1.924708
v -2.689072 2.925710 -1.913541
v -2.706533 2.925710 -1.909556
v -2.723994 2.925710 -1.913541
v -2.737996 2.925710 -1.924708
v -2.745767 2.925710 -1.940844
v -2.745767 2.925710 -1.958754
v -2.737996 2.925710 -1.974890
v -2.723994 2.925710 -1.986057
v -2.706533 2.925710 -2.000371
v -2.684590 2.925710 -1.995363
v -2.666994 2.925710 -1.981330
v -2.657228 2.925710 -1.961052
v -2.657228 2.925710 -1.938546
v -2.666994 2.925710 -1.918268
v -2.684590 2.925710 -1.904235
v -2.706533 2.925710 -1.899227
v -2.728475 2.925710 -1.904235
v -2.746072 2.925710 -1.918268
v -2.755837 2.925710 -1.938546
v -2.755837 2.925710 -1.961052
v -2.746072 2.925710 -1.981330
v -2.728475 2.925710 -1.995363
v -2.706533 2.945027 -2.000371
v -2.684590 2.945027 -1.995363
v -2.666994 2.945027 -1.981330
v -2.657228 2.945027 -1.961052
v -2.657228 2.945027 -1.938546
v -2.666994 2.945027 -1.918268
v -2.684590 2.945027 -1.904235
v -2.706533 2.945027 -1.899227
v -2.728475 2.945027 -1.904235
v -2.746072 2.945027 -1.918268
v -2.755837 2.945027 -1.938546
v -2.755837 2.945027 -1.961052
v -2.746072 2.945027 -1.981330
v -2.728475 2.945027 -1.995363
v -2.706533 2.072082 -2.051182
v -2.662544 2.072082 -2.041142
v -2.627268 2.072082 -2.013011
v -2.607691 2.072082 -1.972359
v -2.607691 2.072082 -1.927239
v -2.627268 2.072082 -1.886588
v -2.662544 2.072082 -1.858456
v -2.706533 2.072082 -1.848416
v -2.750521 2.072082 -1.858456
v -2.785797 2.072082 -1.886588
v -2.805374 2.072082 -1.927239
v -2.805374 2.072082 -1.972359
v -2.785797 2.072082 -2.013011
v -2.750521 2.072082 -2.041142
v -2.706533 2.072082 -1.949799
v -2.706533 2.945027 -1.979481
v -2.693654 2.945027 -1.976542
v -2.683326 2.945027 -1.968306
v -2.677595 2.945027 -1.956404
v -2.677595 2.945027 -1.943194
v -2.683326 2.945027 -1.931293
v -2.693654 2.945027 -1.923056
v -2.706533 2.945027 -1.920117
v -2.719411 2.945027 -1.923056
v -2.729739 2.945027 -1.931293
v -2.735471 2.945027 -1.943194
v -2.735471 2.945027 -1.956404
v -2.729739 2.945027 -1.968306
v -2.719411 2.945027 -1.976542
v -2.706533 2.985611 -1.982348
v -2.692410 2.985611 -1.979125
v -2.681085 2.985611 -1.970093
v -2.674800 2.985611 -1.957042
v -2.674800 2.985611 -1.942556
v -2.681085 2.985611 -1.929505
v -2.692410 2.985611 -1.920474
v -2.706533 2.985611 -1.917250
v -2.720655 2.985611 -1.920474
v -2.731980 2.985611 -1.929505
v -2.738265 2.985611 -1.942556
v -2.738265 2.985611 -1.957042
v -2.731980 2.985611 -1.970093
v -2.720655 2.985611 -1.979125
v -2.706533 2.985611 -1.949799
vn 0.2225 -0.0000 -0.9749
vn 0.6235 -0.0000 -0.7818
vn 0.9010 -0.0000 -0.4339
vn 1.0000 -0.0000 -0.0000
vn 0.9010 -0.0000 0.4339
vn 0.6235 -0.0000 0.7818
vn 0.2225 -0.0000 0.9749
vn -0.2225 -0.0000 0.9749
vn -0.6235 -0.0000 0.7818
vn -0.9010 -0.0000 0.4339
vn -1.0000 -0.0000 -0.0000
vn -0.9010 -0.0000 -0.4339
vn -0.5690 0.4089 0.7135
vn -0.6235 -0.0000 -0.7818
vn -0.2225 -0.0000 -0.9749
vn 0.9126 0.4089 -0.0000
vn -0.2031 0.4089 -0.8897
vn 0.5690 0.4089 -0.7135
vn 0.2031 0.4089 0.8897
vn -0.8222 0.4089 -0.3960
vn 0.8222 0.4089 0.3960
vn -0.8222 0.4089 0.3960
vn 0.8222 0.4089 -0.3960
vn -0.2031 0.4089 0.8897
vn 0.2031 0.4089 -0.8897
vn -0.5690 0.4089 -0.7135
vn 0.5690 0.4089 0.7135
vn -0.9126 0.4089 -0.0000
vn 0.1669 0.6615 0.7311
vn -0.1669 0.6615 0.7311
vn 0.1669 0.6615 -0.7311
vn -0.4676 0.6615 0.5863
vn 0.4676 0.6615 -0.5863
vn -0.6757 0.6615 0.3254
vn 0.6757 0.6615 -0.3254
vn -0.7499 0.6615 -0.0000
vn 0.7499 0.6615 -0.0000
vn -0.6757 0.6615 -0.3254
vn 0.6757 0.6615 0.3254
vn -0.4676 0.6615 -0.5863
vn 0.4676 0.6615 0.5863
vn -0.1669 0.6615 -0.7311
vn -0.4344 0.7173 0.5447
vn 0.4344 0.7173 -0.5447
vn -0.6277 0.7173 0.3023
vn 0.6277 0.7173 -0.3023
vn -0.6967 0.7173 -0.0000
vn 0.6967 0.7173 -0.0000
vn -0.6277 0.7173 -0.3023
vn 0.6277 0.7173 0.3023
vn -0.4344 0.7173 -0.5447
vn 0.4344 0.7173 0.5447
vn -0.1550 0.7173 -0.6793
vn 0.1550 0.7173 0.6793
vn -0.1550 0.7173 0.6793
vn 0.1550 0.7173 -0.6793
vn 0.8588 0.3022 -0.4136
vn -0.9532 0.3022 -0.0000
vn 0.9532 0.3022 -0.0000
vn -0.8588 0.3022 -0.4136
vn 0.8588 0.3022 0.4136
vn -0.5943 0.3022 -0.7453
vn 0.5943 0.3022 0.7453
vn -0.2121 0.3022 -0.9293
vn 0.2121 0.3022 0.9293
vn -0.2121 0.3022 0.9293
vn 0.2121 0.3022 -0.9293
vn -0.5943 0.3022 0.7453
vn 0.5943 0.3022 -0.7453
vn -0.8588 0.3022 0.4136
vn -0.0000 -1.0000 -0.0000
vn 0.5531 -0.8331 -0.0000
vn -0.3449 -0.8331 0.4325
vn -0.1231 -0.8331 -0.5393
vn 0.3449 -0.8331 -0.4325
vn 0.1231 -0.8331 0.5393
vn -0.4984 -0.8331 -0.2400
vn 0.4984 -0.8331 0.2400
vn -0.4984 -0.8331 0.2400
vn 0.4984 -0.8331 -0.2400
vn -0.1231 -0.8331 0.5393
vn 0.1231 -0.8331 -0.5393
vn -0.3449 -0.8331 -0.4325
vn 0.3449 -0.8331 0.4325
vn -0.5531 -0.8331 -0.0000
vn -0.0000 1.0000 -0.0000
vn -0.9976 -0.0687 -0.0000
vn 0.9976 -0.0687 -0.0000
vn -0.8988 -0.0687 -0.4328
vn 0.8988 -0.0687 0.4329
vn -0.6220 -0.0687 -0.7800
vn 0.6220 -0.0687 0.7800
vn -0.2220 -0.0687 -0.9726
vn 0.2220 -0.0687 0.9726
vn -0.2220 -0.0687 0.9726
vn 0.2220 -0.0687 -0.9726
vn -0.6220 -0.0687 0.7800
vn 0.6220 -0.0687 -0.7800
vn -0.8988 -0.0687 0.4329
vn 0.8988 -0.0687 -0.4328
vt 1.000000 0.500000
vt 1.000000 1.000000
vt 0.928571 1.000000
vt 0.928571 0.500000
vt 0.857143 1.000000
vt 0.857143 0.500000
vt 0.785714 1.000000
vt 0.785714 0.500000
vt 0.714286 1.000000
vt 0.714286 0.500000
vt 0.642857 1.000000
vt 0.642857 0.500000
vt 0.571428 1.000000
vt 0.571428 0.500000
vt 0.500000 1.000000
vt 0.500000 0.500000
vt 0.428571 1.000000
vt 0.428571 0.500000
vt 0.357143 1.000000
vt 0.357143 0.500000
vt 0.285714 1.000000
vt 0.285714 0.500000
vt 0.214286 1.000000
vt 0.214286 0.500000
vt 0.142857 1.000000
vt 0.142857 0.500000
vt 0.071428 1.000000
vt 0.071428 0.500000
vt -0.000000 1.000000
vt -0.000000 0.500000
s 0
f 73/164/37 74/165/37 76/166/37 75/167/37
f 75/167/38 76/166/38 78/168/38 77/169/38
f 77/169/39 78/168/39 80/170/39 79/171/39
f 79/171/40 80/170/40 82/172/40 81/173/40
f 81/173/41 82/172/41 84/174/41 83/175/41
f 83/175/42 84/174/42 86/176/42 85/177/42
f 85/177/43 86/176/43 88/178/43 87/179/43
f 87/179/44 88/178/44 90/180/44 89/181/44
f 89/181/45 90/180/45 92/182/45 91/183/45
f 91/183/46 92/182/46 94/184/46 93/185/46
f 93/185/47 94/184/47 96/186/47 95/187/47
f 95/187/48 96/186/48 98/188/48 97/189/48
f 92/182/49 90/180/49 109/180/49 110/182/49
f 97/189/50 98/188/50 100/190/50 99/191/50
f 99/191/51 100/190/51 74/192/51 73/193/51
f 82/172/52 80/170/52 104/170/52 105/172/52
f 74/192/53 100/190/53 114/190/53 101/192/53
f 78/168/54 76/166/54 102/166/54 103/168/54
f 88/178/55 86/176/55 107/176/55 108/178/55
f 98/188/56 96/186/56 112/186/56 113/188/56
f 84/174/57 82/172/57 105/172/57 106/174/57
f 94/184/58 92/182/58 110/182/58 111/184/58
f 80/170/59 78/168/59 103/168/59 104/170/59
f 90/180/60 88/178/60 108/178/60 109/180/60
f 76/166/61 74/165/61 101/165/61 102/166/61
f 100/190/62 98/188/62 113/188/62 114/190/62
f 86/176/63 84/174/63 106/174/63 107/176/63
f 96/186/64 94/184/64 111/184/64 112/186/64
f 108/178/65 107/176/65 121/176/65 122/178/65
f 109/180/66 108/178/66 122/178/66 123/180/66
f 102/166/67 101/165/67 115/165/67 116/166/67
f 110/182/68 109/180/68 123/180/68 124/182/68
f 103/168/69 102/166/69 116/166/69 117/168/69
f 111/184/70 110/182/70 124/182/70 125/184/70
f 104/170/71 103/168/71 117/168/71 118/170/71
f 112/186/72 111/184/72 125/184/72 126/186/72
f 105/172/73 104/170/73 118/170/73 119/172/73
f 113/188/74 112/186/74 126/186/74 127/188/74
f 106/174/75 105/172/75 119/172/75 120/174/75
f 114/190/76 113/188/76 127/188/76 128/190/76
f 107/176/77 106/174/77 120/174/77 121/176/77
f 101/192/78 114/190/78 128/190/78 115/192/78
f 124/182/79 123/180/79 137/180/79 138/182/79
f 117/168/80 116/166/80 130/166/80 131/168/80
f 125/184/81 124/182/81 138/182/81 139/184/81
f 118/170/82 117/168/82 131/168/82 132/170/82
f 126/186/83 125/184/83 139/184/83 140/186/83
f 119/172/84 118/170/84 132/170/84 133/172/84
f 127/188/85 126/186/85 140/186/85 141/188/85
f 120/174/86 119/172/86 133/172/86 134/174/86
f 128/190/87 127/188/87 141/188/87 142/190/87
f 121/176/88 120/174/88 134/174/88 135/176/88
f 115/192/89 128/190/89 142/190/89 129/192/89
f 122/178/90 121/176/90 135/176/90 136/178/90
f 123/180/91 122/178/91 136/178/91 137/180/91
f 116/166/92 115/165/92 129/165/92 130/166/92
f 132/170/93 131/168/93 145/168/93 146/170/93
f 140/186/94 139/184/94 153/184/94 154/186/94
f 133/172/95 132/170/95 146/170/95 147/172/95
f 141/188/96 140/186/96 154/186/96 155/188/96
f 134/174/97 133/172/97 147/172/97 148/174/97
f 142/190/98 141/188/98 155/188/98 156/190/98
f 135/176/99 134/174/99 148/174/99 149/176/99
f 129/192/100 142/190/100 156/190/100 143/192/100
f 136/178/101 135/176/101 149/176/101 150/178/101
f 137/180/102 136/178/102 150/178/102 151/180/102
f 130/166/103 129/165/103 143/165/103 144/166/103
f 138/182/104 137/180/104 151/180/104 152/182/104
f 131/168/105 130/166/105 144/166/105 145/168/105
f 139/184/106 138/182/106 152/182/106 153/184/106
f 155/188/48 154/186/48 168/186/48 169/188/48
f 148/174/41 147/172/41 161/172/41 162/174/41
f 156/190/50 155/188/50 169/188/50 170/190/50
f 149/176/42 148/174/42 162/174/42 163/176/42
f 143/192/51 156/190/51 170/190/51 157/192/51
f 150/178/43 149/176/43 163/176/43 164/178/43
f 151/180/44 150/178/44 164/178/44 165/180/44
f 144/166/37 143/165/37 157/165/37 158/166/37
f 152/182/45 151/180/45 165/180/45 166/182/45
f 145/168/38 144/166/38 158/166/38 159/168/38
f 153/184/46 152/182/46 166/182/46 167/184/46
f 146/170/39 145/168/39 159/168/39 160/170/39
f 154/186/47 153/184/47 167/184/47 168/186/47
f 147/172/40 146/170/40 160/170/40 161/172/40
f 161/172/107 160/170/107 174/170/107 175/172/107
f 169/188/107 168/186/107 182/186/107 183/188/107
f 162/174/107 161/172/107 175/172/107 176/174/107
f 170/190/107 169/188/107 183/188/107 184/190/107
f 163/176/107 162/174/107 176/174/107 177/176/107
f 157/192/107 170/190/107 184/190/107 171/192/107
f 164/178/107 163/176/107 177/176/107 178/178/107
f 165/180/107 164/178/107 178/178/107 179/180/107
f 158/166/107 157/165/107 171/165/107 172/166/107
f 166/182/107 165/180/107 179/180/107 180/182/107
f 159/168/107 158/166/107 172/166/107 173/168/107
f 167/184/107 166/182/107 180/182/107 181/184/107
f 160/170/107 159/168/107 173/168/107 174/170/107
f 168/186/107 167/184/107 181/184/107 182/186/107
f 184/190/50 183/188/50 197/188/50 198/190/50
f 177/176/42 176/174/42 190/174/42 191/176/42
f 171/192/51 184/190/51 198/190/51 185/192/51
f 178/178/43 177/176/43 191/176/43 192/178/43
f 179/180/44 178/178/44 192/178/44 193/180/44
f 172/166/37 171/165/37 185/165/37 186/166/37
f 180/182/45 179/180/45 193/180/45 194/182/45
f 173/168/38 172/166/38 186/166/38 187/168/38
f 181/184/46 180/182/46 194/182/46 195/184/46
f 174/170/39 173/168/39 187/168/39 188/170/39
f 182/186/47 181/184/47 195/184/47 196/186/47
f 175/172/40 174/170/40 188/170/40 189/172/40
f 183/188/48 182/186/48 196/186/48 197/188/48
f 176/174/41 175/172/41 189/172/41 190/174/41
f 79/171/108 81/173/108 203/173/108 202/171/108
f 89/181/109 91/183/109 208/183/109 207/181/109
f 99/191/110 73/193/110 199/193/110 212/191/110
f 75/167/111 77/169/111 201/169/111 200/167/111
f 85/177/112 87/179/112 206/179/112 205/177/112
f 95/187/113 97/189/113 211/189/113 210/187/113
f 81/173/114 83/175/114 204/175/114 203/173/114
f 91/183/115 93/185/115 209/185/115 208/183/115
f 77/169/116 79/171/116 202/171/116 201/169/116
f 87/179/117 89/181/117 207/181/117 206/179/117
f 73/164/118 75/167/118 200/167/118 199/164/118
f 97/189/119 99/191/119 212/191/119 211/189/119
f 83/175/120 85/177/120 205/177/120 204/175/120
f 93/185/121 95/187/121 210/187/121 209/185/121
f 200/167/107 201/169/107 213/167/107
f 208/183/107 209/185/107 213/183/107
f 201/169/107 202/171/107 213/169/107
f 209/185/107 210/187/107 213/185/107
f 202/171/107 203/173/107 213/171/107
f 210/187/107 211/189/107 213/187/107
f 203/173/107 204/175/107 213/173/107
f 211/189/107 212/191/107 213/189/107
f 204/175/107 205/177/107 213/175/107
f 212/191/107 199/193/107 213/191/107
f 205/177/107 206/179/107 213/177/107
f 206/179/107 207/181/107 213/179/107
f 199/164/107 200/167/107 213/164/107
f 207/181/107 208/183/107 213/181/107
f 192/178/122 191/176/122 220/176/122 221/178/122
f 193/180/122 192/178/122 221/178/122 222/180/122
f 186/166/122 185/165/122 214/165/122 215/166/122
f 194/182/122 193/180/122 222/180/122 223/182/122
f 187/168/122 186/166/122 215/166/122 216/168/122
f 195/184/122 194/182/122 223/182/122 224/184/122
f 188/170/122 187/168/122 216/168/122 217/170/122
f 196/186/122 195/184/122 224/184/122 225/186/122
f 189/172/122 188/170/122 217/170/122 218/172/122
f 197/188/122 196/186/122 225/186/122 226/188/122
f 190/174/122 189/172/122 218/172/122 219/174/122
f 198/190/122 197/188/122 226/188/122 227/190/122
f 191/176/122 190/174/122 219/174/122 220/176/122
f 185/192/122 198/190/122 227/190/122 214/192/122
f 225/186/123 224/184/123 238/184/123 239/186/123
f 218/172/124 217/170/124 231/170/124 232/172/124
f 226/188/125 225/186/125 239/186/125 240/188/125
f 219/174/126 218/172/126 232/172/126 233/174/126
f 227/190/127 226/188/127 240/188/127 241/190/127
f 220/176/128 219/174/128 233/174/128 234/176/128
f 214/192/129 227/190/129 241/190/129 228/192/129
f 221/178/130 220/176/130 234/176/130 235/178/130
f 222/180/131 221/178/131 235/178/131 236/180/131
f 215/166/132 214/165/132 228/165/132 229/166/132
f 223/182/133 222/180/133 236/180/133 237/182/133
f 216/168/134 215/166/134 229/166/134 230/168/134
f 224/184/135 223/182/135 237/182/135 238/184/135
f 217/170/136 216/168/136 230/168/136 231/170/136
f 241/190/122 240/188/122 242/190/122
f 234/176/122 233/174/122 242/176/122
f 228/192/122 241/190/122 242/192/122
f 235/178/122 234/176/122 242/178/122
f 236/180/122 235/178/122 242/180/122
f 229/166/122 228/165/122 242/166/122
f 237/182/122 236/180/122 242/182/122
f 230/168/122 229/166/122 242/168/122
f 238/184/122 237/182/122 242/184/122
f 231/170/122 230/168/122 242/170/122
f 239/186/122 238/184/122 242/186/122
f 232/172/122 231/170/122 242/172/122
f 240/188/122 239/186/122 242/188/122
f 233/174/122 232/172/122 242/174/122
o Cube
v -2.430984 2.070939 -1.827674
v -2.442087 2.445597 -1.816571
v -2.430984 2.070939 -2.125861
v -2.442087 2.445597 -2.136964
v -2.132797 2.070939 -1.827674
v -2.121695 2.445597 -1.816571
v -2.132797 2.070939 -2.125861
v -2.121695 2.445597 -2.136964
v -2.431032 2.481181 -1.827626
v -2.431032 2.481181 -2.125909
v -2.132749 2.481181 -1.827626
v -2.132749 2.481181 -2.125909
v -2.392384 2.527895 -1.866275
v -2.392384 2.527895 -2.087260
v -2.171398 2.527895 -1.866275
v -2.171398 2.527895 -2.087260
v -2.349581 2.576831 -1.909078
v -2.349581 2.576831 -2.044458
v -2.214201 2.576831 -1.909078
v -2.214201 2.576831 -2.044458
v -2.316328 2.621318 -1.942332
v -2.316328 2.621318 -2.011204
v -2.247455 2.621318 -1.942332
v -2.247455 2.621318 -2.011204
v -2.316328 2.791739 -1.942332
v -2.316328 2.791739 -2.011204
v -2.247455 2.791739 -1.942332
v -2.247455 2.791739 -2.011204
v -2.332270 2.791739 -1.926389
v -2.332270 2.791739 -2.027147
v -2.231512 2.791739 -1.926389
v -2.231512 2.791739 -2.027147
v -2.332270 2.819467 -1.926389
v -2.332270 2.819467 -2.027147
v -2.231512 2.819467 -1.926389
v -2.231512 2.819467 -2.027147
v -2.309007 2.819467 -1.949652
v -2.309007 2.819467 -2.003884
v -2.254776 2.819467 -1.949652
v -2.254776 2.819467 -2.003884
v -2.315837 2.880845 -1.942822
v -2.315837 2.880845 -2.010714
v -2.247946 2.880845 -1.942822
v -2.247946 2.880845 -2.010714
vn -0.9996 -0.0296 -0.0000
vn -0.0000 -0.0296 -0.9996
vn 0.9996 -0.0296 -0.0000
vn -0.0000 -0.0296 0.9996
vn -0.9550 0.2967 -0.0000
vn -0.0000 0.2967 0.9550
vn -0.0000 0.2967 -0.9550
vn 0.9550 0.2967 -0.0000
vn 0.7705 0.6375 -0.0000
vn -0.7705 0.6375 -0.0000
vn -0.0000 0.6375 0.7705
vn -0.0000 0.6375 -0.7705
vn -0.0000 0.6584 0.7527
vn -0.0000 0.6584 -0.7527
vn 0.7527 0.6584 -0.0000
vn -0.7527 0.6584 -0.0000
vn 0.8010 0.5987 -0.0000
vn -0.8010 0.5987 -0.0000
vn -0.0000 0.5987 0.8010
vn -0.0000 0.5987 -0.8010
vn -0.0000 -0.0000 1.0000
vn -0.0000 -0.0000 -1.0000
vn 1.0000 -0.0000 -0.0000
vn -1.0000 -0.0000 -0.0000
vn -0.0000 -1.0000 -0.0000
vn -0.0000 1.0000 -0.0000
vn 0.9939 -0.1106 -0.0000
vn -0.9939 -0.1106 -0.0000
vn -0.0000 -0.1106 0.9939
vn -0.0000 -0.1106 -0.9939
vt 0.375000 0.000000
vt 0.625000 0.000000
vt 0.625000 0.250000
vt 0.375000 0.250000
vt 0.625000 0.500000
vt 0.375000 0.500000
vt 0.625000 0.750000
vt 0.375000 0.750000
vt 0.625000 1.000000
vt 0.375000 1.000000
s 0
f 243/194/137 244/195/137 246/196/137 245/197/137
f 245/197/138 246/196/138 250/198/138 249/199/138
f 249/199/139 250/198/139 248/200/139 247/201/139
f 247/201/140 248/200/140 244/202/140 243/203/140
f 246/196/141 244/195/141 251/195/141 252/196/141
f 244/202/142 248/200/142 253/200/142 251/202/142
f 250/198/143 246/196/143 252/196/143 254/198/143
f 248/200/144 250/198/144 254/198/144 253/200/144
f 253/200/145 254/198/145 258/198/145 257/200/145
f 252/196/146 251/195/146 255/195/146 256/196/146
f 251/202/147 253/200/147 257/200/147 255/202/147
f 254/198/148 252/196/148 256/196/148 258/198/148
f 255/202/149 257/200/149 261/200/149 259/202/149
f 258/198/150 256/196/150 260/196/150 262/198/150
f 257/200/151 258/198/151 262/198/151 261/200/151
f 256/196/152 255/195/152 259/195/152 260/196/152
f 261/200/153 262/198/153 266/198/153 265/200/153
f 260/196/154 259/195/154 263/195/154 264/196/154
f 259/202/155 261/200/155 265/200/155 263/202/155
f 262/198/156 260/196/156 264/196/156 266/198/156
f 263/202/157 265/200/157 269/200/157 267/202/157
f 266/198/158 264/196/158 268/196/158 270/198/158
f 265/200/159 266/198/159 270/198/159 269/200/159
f 264/196/160 263/195/160 267/195/160 268/196/160
f 270/198/161 268/196/161 272/196/161 274/198/161
f 269/200/161 270/198/161 274/198/161 273/200/161
f 268/196/161 267/195/161 271/195/161 272/196/161
f 267/202/161 269/200/161 273/200/161 271/202/161
f 273/200/159 274/198/159 278/198/159 277/200/159
f 272/196/160 271/195/160 275/195/160 276/196/160
f 271/202/157 273/200/157 277/200/157 275/202/157
f 274/198/158 272/196/158 276/196/158 278/198/158
f 275/202/162 277/200/162 281/200/162 279/202/162
f 278/198/162 276/196/162 280/196/162 282/198/162
f 277/200/162 278/198/162 282/198/162 281/200/162
f 276/196/162 275/195/162 279/195/162 280/196/162
f 281/200/163 282/198/163 286/198/163 285/200/163
f 280/196/164 279/195/164 283/195/164 284/196/164
f 279/202/165 281/200/165 285/200/165 283/202/165
f 282/198/166 280/196/166 284/196/166 286/198/166
f 283/202/162 285/200/162 286/198/162 284/196/162
o Cylinder.001
v -1.841248 2.098893 -2.113374
v -1.841248 2.536512 -2.141021
v -1.774573 2.098893 -2.095509
v -1.760750 2.536512 -2.119451
v -1.725763 2.098893 -2.046700
v -1.701821 2.536512 -2.060523
v -1.707898 2.098893 -1.980024
v -1.680252 2.536512 -1.980024
v -1.725763 2.098893 -1.913350
v -1.701821 2.536512 -1.899526
v -1.774573 2.098893 -1.864540
v -1.760750 2.536512 -1.840598
v -1.841248 2.098893 -1.846675
v -1.841248 2.536512 -1.819028
v -1.907923 2.098893 -1.864540
v -1.921746 2.536512 -1.840598
v -1.956732 2.098893 -1.913350
v -1.980674 2.536512 -1.899526
v -1.974598 2.098893 -1.980024
v -2.002244 2.536512 -1.980024
v -1.956732 2.098893 -2.046700
v -1.980674 2.536512 -2.060523
v -1.907923 2.098893 -2.095509
v -1.921746 2.536512 -2.119451
v -1.841248 2.578200 -2.117848
v -1.772336 2.578200 -2.099384
v -1.721889 2.578200 -2.048936
v -1.703424 2.578200 -1.980024
v -1.721889 2.578200 -1.911113
v -1.772336 2.578200 -1.860666
v -1.841248 2.578200 -1.842201
v -1.910159 2.578200 -1.860666
v -1.960607 2.578200 -1.911113
v -1.979071 2.578200 -1.980024
v -1.960607 2.578200 -2.048936
v -1.910159 2.578200 -2.099384
v -1.841248 2.628225 -2.062505
v -1.800007 2.628225 -2.051455
v -1.769818 2.628225 -2.021265
v -1.758767 2.628225 -1.980024
v -1.769818 2.628225 -1.938784
v -1.800007 2.628225 -1.908594
v -1.841248 2.628225 -1.897544
v -1.882488 2.628225 -1.908594
v -1.912678 2.628225 -1.938784
v -1.923729 2.628225 -1.980024
v -1.912678 2.628225 -2.021265
v -1.882488 2.628225 -2.051455
v -1.841248 2.665744 -2.037550
v -1.812485 2.665744 -2.029843
v -1.791429 2.665744 -2.008788
v -1.783722 2.665744 -1.980024
v -1.791429 2.665744 -1.951262
v -1.812485 2.665744 -1.930205
v -1.841248 2.665744 -1.922499
v -1.870011 2.665744 -1.930205
v -1.891067 2.665744 -1.951262
v -1.898773 2.665744 -1.980024
v -1.891067 2.665744 -2.008788
v -1.870011 2.665744 -2.029843
v -1.841248 2.724107 -2.024993
v -1.818763 2.724107 -2.018968
v -1.802304 2.724107 -2.002509
v -1.796279 2.724107 -1.980024
v -1.802304 2.724107 -1.957540
v -1.818763 2.724107 -1.941081
v -1.841248 2.724107 -1.935056
v -1.863732 2.724107 -1.941081
v -1.880192 2.724107 -1.957540
v -1.886217 2.724107 -1.980024
v -1.880192 2.724107 -2.002509
v -1.863732 2.724107 -2.018968
v -1.841248 2.936713 -2.024993
v -1.818763 2.936713 -2.018968
v -1.802304 2.936713 -2.002509
v -1.796279 2.936713 -1.980024
v -1.802304 2.936713 -1.957540
v -1.818763 2.936713 -1.941081
v -1.841248 2.936713 -1.935056
v -1.863732 2.936713 -1.941081
v -1.880192 2.936713 -1.957540
v -1.886217 2.936713 -1.980024
v -1.880192 2.936713 -2.002509
v -1.863732 2.936713 -2.018968
v -1.841248 2.936713 -2.044982
v -1.808769 2.936713 -2.036279
v -1.784993 2.936713 -2.012503
v -1.776290 2.936713 -1.980024
v -1.784993 2.936713 -1.947546
v -1.808769 2.936713 -1.923769
v -1.841248 2.936713 -1.915067
v -1.873727 2.936713 -1.923769
v -1.897503 2.936713 -1.947546
v -1.906205 2.936713 -1.980024
v -1.897503 2.936713 -2.012503
v -1.873727 2.936713 -2.036279
v -1.841248 2.962494 -2.044982
v -1.808769 2.962494 -2.036279
v -1.784993 2.962494 -2.012503
v -1.776290 2.962494 -1.980024
v -1.784993 2.962494 -1.947546
v -1.808769 2.962494 -1.923769
v -1.841248 2.962494 -1.915067
v -1.873727 2.962494 -1.923769
v -1.897503 2.962494 -1.947546
v -1.906205 2.962494 -1.980024
v -1.897503 2.962494 -2.012503
v -1.873727 2.962494 -2.036279
v -1.841248 2.962494 -1.980024
v -1.941904 2.079692 -2.038139
v -1.957476 2.079692 -1.980024
v -1.941904 2.079692 -1.921911
v -1.899362 2.079692 -1.879368
v -1.841248 2.079692 -1.863796
v -1.783134 2.079692 -1.879368
v -1.740592 2.079692 -1.921911
v -1.725020 2.079692 -1.980024
v -1.740592 2.079692 -2.038139
v -1.783134 2.079692 -2.080681
v -1.841248 2.079692 -2.096253
v -1.899362 2.079692 -2.080681
vn 0.2583 -0.0609 -0.9641
vn 0.7058 -0.0609 -0.7058
vn 0.9641 -0.0609 -0.2583
vn 0.9641 -0.0609 0.2583
vn 0.7058 -0.0609 0.7058
vn 0.2583 -0.0609 0.9641
vn -0.2583 -0.0609 0.9641
vn -0.7058 -0.0609 0.7058
vn -0.9641 -0.0609 0.2583
vn -0.9641 -0.0609 -0.2583
vn -0.8510 0.4730 -0.2280
vn -0.7058 -0.0609 -0.7058
vn -0.2583 -0.0609 -0.9641
vn 0.6230 0.4730 -0.6230
vn -0.8510 0.4730 0.2280
vn -0.6230 0.4730 0.6230
vn -0.2280 0.4730 0.8510
vn 0.2280 0.4730 0.8510
vn 0.6230 0.4730 0.6230
vn 0.8510 0.4731 0.2280
vn -0.2280 0.4730 -0.8510
vn 0.2280 0.4730 -0.8510
vn 0.8510 0.4731 -0.2280
vn -0.6230 0.4730 -0.6230
vn 0.6600 0.7302 0.1768
vn -0.4832 0.7302 -0.4832
vn 0.1768 0.7302 -0.6600
vn -0.4832 0.7302 0.4832
vn 0.4832 0.7302 0.4832
vn -0.1768 0.7302 -0.6600
vn 0.4832 0.7302 -0.4832
vn -0.6600 0.7302 0.1768
vn 0.1768 0.7302 0.6600
vn 0.6600 0.7302 -0.1768
vn -0.6600 0.7302 -0.1768
vn -0.1768 0.7302 0.6600
vn 0.8127 0.5405 0.2178
vn -0.5949 0.5405 -0.5949
vn 0.2178 0.5405 -0.8127
vn -0.5949 0.5405 0.5949
vn 0.5949 0.5405 0.5949
vn -0.2178 0.5405 -0.8127
vn 0.5949 0.5405 -0.5949
vn -0.8127 0.5405 0.2178
vn 0.2178 0.5405 0.8127
vn 0.8127 0.5405 -0.2178
vn -0.8127 0.5405 -0.2178
vn -0.2178 0.5405 0.8127
vn -0.2534 0.2035 0.9457
vn 0.9457 0.2035 0.2534
vn -0.6923 0.2035 -0.6923
vn 0.2534 0.2035 -0.9457
vn -0.6923 0.2035 0.6923
vn 0.6923 0.2035 0.6923
vn -0.2534 0.2035 -0.9457
vn 0.6923 0.2035 -0.6923
vn -0.9457 0.2035 0.2534
vn 0.2534 0.2035 0.9457
vn 0.9457 0.2035 -0.2534
vn -0.9457 0.2035 -0.2534
vn -0.2588 -0.0000 0.9659
vn 0.9659 -0.0000 0.2588
vn -0.7071 -0.0000 -0.7071
vn 0.2588 -0.0000 -0.9659
vn -0.7071 -0.0000 0.7071
vn 0.7071 -0.0000 0.7071
vn -0.2588 -0.0000 -0.9659
vn 0.7071 -0.0000 -0.7071
vn -0.9659 -0.0000 0.2588
vn 0.2588 -0.0000 0.9659
vn 0.9659 -0.0000 -0.2588
vn -0.9659 -0.0000 -0.2588
vn -0.0000 -1.0000 -0.0000
vn -0.0000 1.0000 -0.0000
vn 0.5358 -0.6526 0.5358
vn 0.7319 -0.6526 0.1961
vn -0.1961 -0.6526 -0.7319
vn 0.1961 -0.6526 -0.7319
vn 0.7319 -0.6526 -0.1961
vn -0.5358 -0.6526 -0.5358
vn 0.5358 -0.6526 -0.5358
vn -0.7319 -0.6526 -0.1961
vn -0.7319 -0.6526 0.1961
vn -0.5358 -0.6526 0.5358
vn -0.1961 -0.6526 0.7319
vn 0.1961 -0.6526 0.7319
vt 1.000000 0.500000
vt 1.000000 1.000000
vt 0.916667 1.000000
vt 0.916667 0.500000
vt 0.833333 1.000000
vt 0.833333 0.500000
vt 0.750000 1.000000
vt 0.750000 0.500000
vt 0.666667 1.000000
vt 0.666667 0.500000
vt 0.583333 1.000000
vt 0.583333 0.500000
vt 0.500000 1.000000
vt 0.500000 0.500000
vt 0.416667 1.000000
vt 0.416667 0.500000
vt 0.333333 1.000000
vt 0.333333 0.500000
vt 0.250000 1.000000
vt 0.250000 0.500000
vt 0.166667 1.000000
vt 0.166667 0.500000
vt 0.083333 1.000000
vt 0.083333 0.500000
vt 0.000000 1.000000
vt 0.000000 0.500000
s 0
f 287/204/167 288/205/167 290/206/167 289/207/167
f 289/207/168 290/206/168 292/208/168 291/209/168
f 291/209/169 292/208/169 294/210/169 293/211/169
f 293/211/170 294/210/170 296/212/170 295/213/170
f 295/213/171 296/212/171 298/214/171 297/215/171
f 297/215/172 298/214/172 300/216/172 299/217/172
f 299/217/173 300/216/173 302/218/173 301/219/173
f 301/219/174 302/218/174 304/220/174 303/221/174
f 303/221/175 304/220/175 306/222/175 305/223/175
f 305/223/176 306/222/176 308/224/176 307/225/176
f 308/224/177 306/222/177 320/222/177 321/224/177
f 307/225/178 308/224/178 310/226/178 309/227/178
f 309/227/179 310/226/179 288/228/179 287/229/179
f 292/208/180 290/206/180 312/206/180 313/208/180
f 306/222/181 304/220/181 319/220/181 320/222/181
f 304/220/182 302/218/182 318/218/182 319/220/182
f 302/218/183 300/216/183 317/216/183 318/218/183
f 300/216/184 298/214/184 316/214/184 317/216/184
f 298/214/185 296/212/185 315/212/185 316/214/185
f 296/212/186 294/210/186 314/210/186 315/212/186
f 288/228/187 310/226/187 322/226/187 311/228/187
f 290/206/188 288/205/188 311/205/188 312/206/188
f 294/210/189 292/208/189 313/208/189 314/210/189
f 310/226/190 308/224/190 321/224/190 322/226/190
f 315/212/191 314/210/191 326/210/191 327/212/191
f 322/226/192 321/224/192 333/224/192 334/226/192
f 312/206/193 311/205/193 323/205/193 324/206/193
f 319/220/194 318/218/194 330/218/194 331/220/194
f 316/214/195 315/212/195 327/212/195 328/214/195
f 311/228/196 322/226/196 334/226/196 323/228/196
f 313/208/197 312/206/197 324/206/197 325/208/197
f 320/222/198 319/220/198 331/220/198 332/222/198
f 317/216/199 316/214/199 328/214/199 329/216/199
f 314/210/200 313/208/200 325/208/200 326/210/200
f 321/224/201 320/222/201 332/222/201 333/224/201
f 318/218/202 317/216/202 329/216/202 330/218/202
f 327/212/203 326/210/203 338/210/203 339/212/203
f 334/226/204 333/224/204 345/224/204 346/226/204
f 324/206/205 323/205/205 335/205/205 336/206/205
f 331/220/206 330/218/206 342/218/206 343/220/206
f 328/214/207 327/212/207 339/212/207 340/214/207
f 323/228/208 334/226/208 346/226/208 335/228/208
f 325/208/209 324/206/209 336/206/209 337/208/209
f 332/222/210 331/220/210 343/220/210 344/222/210
f 329/216/211 328/214/211 340/214/211 341/216/211
f 326/210/212 325/208/212 337/208/212 338/210/212
f 333/224/213 332/222/213 344/222/213 345/224/213
f 330/218/214 329/216/214 341/216/214 342/218/214
f 342/218/215 341/216/215 353/216/215 354/218/215
f 339/212/216 338/210/216 350/210/216 351/212/216
f 346/226/217 345/224/217 357/224/217 358/226/217
f 336/206/218 335/205/218 347/205/218 348/206/218
f 343/220/219 342/218/219 354/218/219 355/220/219
f 340/214/220 339/212/220 351/212/220 352/214/220
f 335/228/221 346/226/221 358/226/221 347/228/221
f 337/208/222 336/206/222 348/206/222 349/208/222
f 344/222/223 343/220/223 355/220/223 356/222/223
f 341/216/224 340/214/224 352/214/224 353/216/224
f 338/210/225 337/208/225 349/208/225 350/210/225
f 345/224/226 344/222/226 356/222/226 357/224/226
f 354/218/227 353/216/227 365/216/227 366/218/227
f 351/212/228 350/210/228 362/210/228 363/212/228
f 358/226/229 357/224/229 369/224/229 370/226/229
f 348/206/230 347/205/230 359/205/230 360/206/230
f 355/220/231 354/218/231 366/218/231 367/220/231
f 352/214/232 351/212/232 363/212/232 364/214/232
f 347/228/233 358/226/233 370/226/233 359/228/233
f 349/208/234 348/206/234 360/206/234 361/208/234
f 356/222/235 355/220/235 367/220/235 368/222/235
f 353/216/236 352/214/236 364/214/236 365/216/236
f 350/210/237 349/208/237 361/208/237 362/210/237
f 357/224/238 356/222/238 368/222/238 369/224/238
f 369/224/239 368/222/239 380/222/239 381/224/239
f 366/218/239 365/216/239 377/216/239 378/218/239
f 363/212/239 362/210/239 374/210/239 375/212/239
f 370/226/239 369/224/239 381/224/239 382/226/239
f 360/206/239 359/205/239 371/205/239 372/206/239
f 367/220/239 366/218/239 378/218/239 379/220/239
f 364/214/239 363/212/239 375/212/239 376/214/239
f 359/228/239 370/226/239 382/226/239 371/228/239
f 361/208/239 360/206/239 372/206/239 373/208/239
f 368/222/239 367/220/239 379/220/239 380/222/239
f 365/216/239 364/214/239 376/214/239 377/216/239
f 362/210/239 361/208/239 373/208/239 374/210/239
f 377/216/236 376/214/236 388/214/236 389/216/236
f 374/210/237 373/208/237 385/208/237 386/210/237
f 381/224/238 380/222/238 392/222/238 393/224/238
f 378/218/227 377/216/227 389/216/227 390/218/227
f 375/212/228 374/210/228 386/210/228 387/212/228
f 382/226/229 381/224/229 393/224/229 394/226/229
f 372/206/230 371/205/230 383/205/230 384/206/230
f 379/220/231 378/218/231 390/218/231 391/220/231
f 376/214/232 375/212/232 387/212/232 388/214/232
f 371/228/233 382/226/233 394/226/233 383/228/233
f 373/208/234 372/206/234 384/206/234 385/208/234
f 380/222/235 379/220/235 391/220/235 392/222/235
f 387/212/240 386/210/240 395/212/240
f 394/226/240 393/224/240 395/226/240
f 384/206/240 383/205/240 395/206/240
f 391/220/240 390/218/240 395/220/240
f 388/214/240 387/212/240 395/214/240
f 383/228/240 394/226/240 395/228/240
f 385/208/240 384/206/240 395/208/240
f 392/222/240 391/220/240 395/222/240
f 389/216/240 388/214/240 395/216/240
f 386/210/240 385/208/240 395/210/240
f 393/224/240 392/222/240 395/224/240
f 390/218/240 389/216/240 395/218/240
f 295/213/241 297/215/241 401/215/241 402/213/241
f 293/211/242 295/213/242 402/213/242 403/211/242
f 309/227/243 287/229/243 406/229/243 407/227/243
f 287/204/244 289/207/244 405/207/244 406/204/244
f 291/209/245 293/211/245 403/211/245 404/209/245
f 307/225/246 309/227/246 407/227/246 396/225/246
f 289/207/247 291/209/247 404/209/247 405/207/247
f 305/223/248 307/225/248 396/225/248 397/223/248
f 303/221/249 305/223/249 397/223/249 398/221/249
f 301/219/250 303/221/250 398/221/250 399/219/250
f 299/217/251 301/219/251 399/219/251 400/217/251
f 297/215/252 299/217/252 400/217/252 401/215/252
