# Blender 5.0.1
# www.blender.org
mtllib bush3.mtl
o Plane.003
v -0.138337 0.762904 0.421868
v -0.410111 0.436449 0.421868
v -0.138337 0.762904 -0.463392
v -0.410111 0.436449 -0.463392
v -0.201941 0.024002 0.456305
v -0.201941 0.123465 0.641277
v -0.301405 0.123465 0.456305
v -0.201941 0.053134 0.572792
v -0.259367 0.066040 0.546122
v -0.272273 0.123465 0.572792
v -0.272273 0.053134 0.456305
v -0.201941 0.445774 0.574535
v -0.164621 0.656849 0.362583
v -0.301405 0.527348 0.362583
v -0.201941 0.516105 0.506050
v -0.259367 0.503199 0.479380
v -0.272273 0.597679 0.362583
v -0.272273 0.445774 0.506050
v 0.113251 0.024002 0.456305
v 0.212714 0.123465 0.456305
v 0.113251 0.123465 0.641277
v 0.183582 0.053134 0.456305
v 0.170676 0.066040 0.546122
v 0.183582 0.123465 0.572792
v 0.113251 0.053134 0.572792
v 0.075930 0.656849 0.362583
v 0.113251 0.445774 0.574535
v 0.212714 0.527348 0.362583
v 0.113251 0.516105 0.506050
v 0.170676 0.503199 0.479380
v 0.183582 0.445774 0.506050
v 0.183582 0.597679 0.362583
v -0.201941 0.024002 -0.456305
v -0.201941 0.123465 -0.641277
v -0.301405 0.123465 -0.456305
v -0.201941 0.053134 -0.572792
v -0.259367 0.066040 -0.546122
v -0.272273 0.123465 -0.572792
v -0.272273 0.053134 -0.456305
v -0.201941 0.445774 -0.574535
v -0.164621 0.656849 -0.362583
v -0.301405 0.527348 -0.362583
v -0.201941 0.516105 -0.506050
v -0.259367 0.503199 -0.479380
v -0.272273 0.597679 -0.362583
v -0.272273 0.445774 -0.506050
v 0.113251 0.024002 -0.456305
v 0.212714 0.123465 -0.456305
v 0.113251 0.123465 -0.641277
v 0.183582 0.053134 -0.456305
v 0.170676 0.066040 -0.546122
v 0.183582 0.123465 -0.572792
v 0.113251 0.053134 -0.572792
v 0.075930 0.656849 -0.362583
v 0.113251 0.445774 -0.574535
v 0.212714 0.527348 -0.362583
v 0.113251 0.516105 -0.506050
v 0.170676 0.503199 -0.479380
v 0.183582 0.445774 -0.506050
v 0.183582 0.597679 -0.362583
v -0.325387 0.048631 0.590715
v -0.317964 0.617688 0.590715
v -0.325387 0.048631 -0.595341
v -0.317964 0.617688 -0.595341
v 0.218077 0.022776 0.635078
v 0.225500 0.591833 0.635078
v 0.218077 0.022776 -0.550977
v 0.225500 0.591833 -0.550977
v 0.214849 0.667231 0.492763
v -0.283913 0.665240 0.492763
v 0.214849 0.667231 -0.546698
v -0.283913 0.665240 -0.546698
v 0.109597 0.755414 0.400453
v 0.303416 0.380817 0.400453
v 0.109597 0.755414 -0.478542
v 0.303416 0.380817 -0.478542
v -0.360259 0.727083 -0.369410
v -0.382890 0.486923 -0.580674
v 0.305883 0.708171 -0.419270
v 0.283251 0.468011 -0.630534
v -0.346560 0.683025 0.380056
v -0.345648 0.472532 0.581468
v 0.260257 0.698420 0.393396
v 0.261169 0.487927 0.594809
v -0.331759 0.032692 0.681237
v 0.250484 0.044686 0.655408
v -0.348233 0.605821 0.576022
v 0.234010 0.617815 0.550193
v -0.308060 0.046462 -0.670584
v 0.244792 0.067153 -0.687992
v -0.323702 0.581859 -0.531004
v 0.229150 0.602550 -0.548413
v -0.470228 0.054676 0.401912
v -0.154229 0.064666 0.770397
v -0.409705 0.532032 0.337068
v -0.093706 0.542022 0.705553
v 0.130341 0.169598 -0.704318
v 0.373704 0.175147 -0.395366
v 0.057192 0.552719 -0.653579
v 0.300555 0.558268 -0.344628
v 0.334999 0.163815 0.390248
v 0.163381 0.185243 0.743512
v 0.293133 0.552436 0.346337
v 0.121515 0.573864 0.699601
v -0.287510 0.071969 -0.687464
v -0.446267 0.140585 -0.334200
v -0.218906 0.456771 -0.731375
v -0.377662 0.525387 -0.378111
v 0.095400 0.339415 -0.275700
v -0.226782 0.408031 -0.060764
v 0.176851 0.724217 -0.276452
v -0.145332 0.792833 -0.061516
v -0.243732 0.649154 0.329854
v -0.103161 0.299471 0.217298
v 0.117997 0.801919 0.307015
v 0.258569 0.452237 0.194458
vn 0.7685 -0.6398 -0.0000
vn -0.2185 -0.9699 0.1079
vn -0.2773 -0.8378 0.4704
vn -0.6546 -0.6841 0.3217
vn -0.6821 -0.7243 0.1007
vn -0.3690 -0.3135 0.8749
vn -0.8317 -0.2565 0.4924
vn -0.9718 -0.2077 0.1120
vn -0.3068 0.4129 0.8576
vn -0.2297 0.6951 0.6812
vn -0.6701 0.5094 0.5399
vn -0.8451 0.2075 0.4926
vn -0.1692 0.9257 0.3383
vn -0.6717 0.6848 0.2826
vn -0.9616 0.2230 0.1599
vn 0.1538 -0.9813 0.1162
vn 0.6917 -0.7134 0.1125
vn 0.6440 -0.6515 0.4010
vn 0.1836 -0.8548 0.4854
vn 0.9826 -0.1415 0.1202
vn 0.8546 -0.1199 0.5052
vn 0.3240 -0.2188 0.9204
vn 0.2847 0.9203 0.2684
vn 0.2863 0.6699 0.6850
vn 0.6630 0.5314 0.5273
vn 0.6955 0.6884 0.2058
vn 0.3656 0.4483 0.8157
vn 0.8213 0.2847 0.4944
vn 0.9505 0.2603 0.1696
vn -0.9718 -0.2077 -0.1120
vn -0.6821 -0.7243 -0.1007
vn -0.1692 0.9257 -0.3383
vn -0.6717 0.6848 -0.2826
vn -0.9616 0.2230 -0.1599
vn 0.1538 -0.9813 -0.1162
vn 0.6917 -0.7134 -0.1125
vn 0.9826 -0.1415 -0.1202
vn 0.6955 0.6884 -0.2058
vn 0.2847 0.9203 -0.2684
vn 0.9505 0.2603 -0.1696
vn -0.2185 -0.9699 -0.1079
vn -0.6546 -0.6841 -0.3217
vn -0.2773 -0.8378 -0.4704
vn -0.3690 -0.3135 -0.8749
vn -0.8317 -0.2565 -0.4924
vn -0.3068 0.4129 -0.8576
vn -0.8451 0.2075 -0.4926
vn -0.6701 0.5094 -0.5399
vn -0.2297 0.6951 -0.6812
vn 0.1836 -0.8548 -0.4854
vn 0.6440 -0.6515 -0.4010
vn 0.8546 -0.1199 -0.5052
vn 0.3240 -0.2188 -0.9204
vn 0.6630 0.5314 -0.5273
vn 0.2863 0.6699 -0.6850
vn 0.3656 0.4483 -0.8157
vn 0.8213 0.2847 -0.4944
vn -0.9999 0.0130 -0.0000
vn 0.0040 -1.0000 -0.0000
vn 0.8882 0.4595 -0.0000
vn 0.0372 -0.6620 0.7486
vn -0.0334 0.6909 0.7222
vn 0.0398 0.1815 0.9826
vn 0.0398 -0.2510 0.9672
vn -0.7489 0.1815 0.6373
vn -0.7633 -0.2259 0.6053
vn -0.8935 -0.1443 -0.4253
vn -0.8981 0.1116 -0.4253
vn -0.5349 0.1116 -0.8375
vn 0.1628 -0.2424 0.9564
vt 0.170105 0.313318
vt 0.169665 0.140204
vt 0.506546 0.138785
vt 0.506985 0.311899
vt 0.215518 0.540403
vt 0.183263 0.526995
vt 0.197189 0.516019
vt 0.219436 0.519783
vt 0.164488 0.504773
vt 0.190651 0.501352
vt 0.220411 0.500529
vt 0.179540 0.414249
vt 0.198596 0.391680
vt 0.213542 0.402789
vt 0.206721 0.418410
vt 0.239129 0.348327
vt 0.245211 0.381430
vt 0.245475 0.400300
vt 0.215327 0.557365
vt 0.219287 0.577973
vt 0.197083 0.581802
vt 0.183124 0.570892
vt 0.220292 0.597186
vt 0.190617 0.596470
vt 0.164488 0.593193
vt 0.239688 0.748991
vt 0.199204 0.705791
vt 0.214078 0.694654
vt 0.245787 0.715920
vt 0.180102 0.683377
vt 0.207199 0.679081
vt 0.246052 0.697026
vt 0.447809 0.501111
vt 0.448793 0.520271
vt 0.430378 0.351025
vt 0.423707 0.382401
vt 0.423096 0.401566
vt 0.452414 0.557365
vt 0.448633 0.577510
vt 0.447684 0.596714
vt 0.424331 0.715775
vt 0.430992 0.747174
vt 0.423719 0.696636
vt 0.069166 0.545667
vt 0.131295 0.545667
vt 0.131295 0.569335
vt 0.069166 0.569335
vt 0.131295 0.588685
vt 0.069166 0.588685
vt 0.123939 0.712530
vt 0.076523 0.712530
vt 0.069166 0.672914
vt 0.131295 0.672914
vt 0.069166 0.653564
vt 0.131295 0.653564
vt 0.123939 0.855470
vt 0.076523 0.855470
vt 0.069166 0.365779
vt 0.131295 0.365779
vt 0.452620 0.540403
vt 0.470745 0.516521
vt 0.484448 0.527393
vt 0.503110 0.505495
vt 0.477251 0.502031
vt 0.488433 0.415843
vt 0.461523 0.419827
vt 0.454877 0.404288
vt 0.469719 0.393466
vt 0.484295 0.570251
vt 0.470628 0.581191
vt 0.477210 0.595676
vt 0.503099 0.592061
vt 0.455450 0.693789
vt 0.470363 0.704577
vt 0.489021 0.682041
vt 0.462031 0.678203
vt 0.069166 0.342110
vt 0.131295 0.342110
vt 0.069166 0.322760
vt 0.131295 0.322760
vt 0.123939 0.198916
vt 0.131295 0.238531
vt 0.069166 0.238531
vt 0.076523 0.198916
vt 0.131295 0.257881
vt 0.069166 0.257881
vt 0.161688 0.774979
vt 0.327616 0.774979
vt 0.327616 0.940907
vt 0.161688 0.940907
s 0
usemtl Material.002
f 1/1/1 2/2/1 4/3/1 3/4/1
f 61/1/58 62/2/58 64/3/58 63/4/58
f 65/1/58 66/2/58 68/3/58 67/4/58
f 69/1/59 70/2/59 72/3/59 71/4/59
f 73/1/60 74/2/60 76/3/60 75/4/60
f 77/1/61 78/2/61 80/3/61 79/4/61
f 81/1/62 82/2/62 84/3/62 83/4/62
s 1
usemtl Material.001
f 5/5/2 8/6/3 9/7/4 11/8/5
f 6/9/6 10/10/7 9/7/4 8/6/3
f 7/11/8 11/8/5 9/7/4 10/10/7
f 12/12/9 15/13/10 16/14/11 18/15/12
f 13/16/13 17/17/14 16/14/11 15/13/10
f 14/18/15 18/15/12 16/14/11 17/17/14
f 19/19/16 22/20/17 23/21/18 25/22/19
f 20/23/20 24/24/21 23/21/18 22/20/17
f 21/25/22 25/22/19 23/21/18 24/24/21
f 26/26/23 29/27/24 30/28/25 32/29/26
f 27/30/27 31/31/28 30/28/25 29/27/24
f 28/32/29 32/29/26 30/28/25 31/31/28
f 7/11/8 35/33/30 39/34/31 11/8/5
f 41/35/32 45/36/33 17/17/14 13/16/13
f 6/9/6 12/12/9 18/15/12 10/10/7
f 10/10/7 18/15/12 14/18/15 7/11/8
f 45/36/33 42/37/34 14/18/15 17/17/14
f 47/38/35 50/39/36 22/20/17 19/19/16
f 50/39/36 48/40/37 20/23/20 22/20/17
f 32/29/26 60/41/38 54/42/39 26/26/23
f 28/32/29 56/43/40 60/41/38 32/29/26
f 35/33/30 7/11/8 14/18/15 42/37/34
f 27/30/27 21/25/22 24/24/21 31/31/28
f 31/31/28 24/24/21 20/23/20 28/32/29
f 5/44/2 19/45/16 25/46/19 8/47/3
f 8/47/3 25/46/19 21/48/22 6/49/6
f 26/50/23 13/51/13 15/52/10 29/53/24
f 29/53/24 15/52/10 12/54/9 27/55/27
f 26/50/23 54/56/39 41/57/32 13/51/13
f 5/44/2 33/58/41 47/59/35 19/45/16
f 21/48/22 27/55/27 12/54/9 6/49/6
f 20/23/20 48/40/37 56/43/40 28/32/29
f 33/60/41 39/34/31 37/61/42 36/62/43
f 34/63/44 36/62/43 37/61/42 38/64/45
f 35/33/30 38/64/45 37/61/42 39/34/31
f 40/65/46 46/66/47 44/67/48 43/68/49
f 41/35/32 43/68/49 44/67/48 45/36/33
f 42/37/34 45/36/33 44/67/48 46/66/47
f 47/38/35 53/69/50 51/70/51 50/39/36
f 48/40/37 50/39/36 51/70/51 52/71/52
f 49/72/53 52/71/52 51/70/51 53/69/50
f 54/42/39 60/41/38 58/73/54 57/74/55
f 55/75/56 57/74/55 58/73/54 59/76/57
f 56/43/40 59/76/57 58/73/54 60/41/38
f 34/63/44 38/64/45 46/66/47 40/65/46
f 38/64/45 35/33/30 42/37/34 46/66/47
f 55/75/56 59/76/57 52/71/52 49/72/53
f 59/76/57 56/43/40 48/40/37 52/71/52
f 33/58/41 36/77/43 53/78/50 47/59/35
f 36/77/43 34/79/44 49/80/53 53/78/50
f 54/81/39 57/82/55 43/83/49 41/84/32
f 57/82/55 55/85/56 40/86/46 43/83/49
f 49/80/53 34/79/44 40/86/46 55/85/56
f 11/8/5 39/34/31 33/60/41 5/5/2
s 0
usemtl Material.003
f 85/87/63 86/88/63 88/89/63 87/90/63
f 89/87/64 90/88/64 92/89/64 91/90/64
f 93/87/65 94/88/65 96/89/65 95/90/65
f 97/87/66 98/88/66 100/89/66 99/90/66
f 101/87/67 102/88/67 104/89/67 103/90/67
f 105/87/68 106/88/68 108/89/68 107/90/68
f 109/87/69 110/88/69 112/89/69 111/90/69
f 113/87/70 114/88/70 116/89/70 115/90/70
