# Blender 5.0.1
# www.blender.org
mtllib bush2_flower3.mtl
o bush_base
v -0.918799 -0.063983 -0.148910
v -0.567964 0.407473 0.645752
v 0.005190 -0.242994 -0.450640
v 0.356028 0.228463 0.344022
v -0.648613 0.131119 -0.715322
v -0.826488 -0.486692 0.035353
v 0.224257 0.365701 -0.315431
v 0.046383 -0.252111 0.435244
v 0.105299 0.859582 0.118762
v 0.802496 0.329159 -0.338854
v -0.505684 0.083324 0.087662
v 0.191513 -0.447098 -0.369954
v 0.099247 0.748097 -0.227553
v 0.907348 0.179578 -0.202977
v -0.456411 -0.031042 0.019487
v 0.351688 -0.599562 0.044063
v 0.481160 -0.517498 -0.376831
v -0.479258 -0.485988 -0.608026
v 0.386056 0.323903 0.132918
v -0.574360 0.355414 -0.098277
v 0.119401 0.483648 0.686495
v 0.697832 -0.285689 0.462034
v -0.348425 0.384262 -0.178435
v 0.230003 -0.385076 -0.402896
v 0.589316 0.611749 -0.092348
v 0.729646 -0.313252 0.226282
v -0.388867 0.473321 -0.063405
v -0.248538 -0.451680 0.255225
v 0.623774 -0.062128 -0.474110
v 0.764102 0.060821 0.496475
v -0.354411 -0.062073 -0.332689
v -0.214081 0.060876 0.637896
v -0.103310 0.578534 -0.528589
v -0.159196 -0.396599 -0.679708
v 0.244149 0.417421 0.382542
v 0.188261 -0.557712 0.231423
v -0.213355 0.782695 -0.323699
v -0.837306 0.261561 0.238393
v 0.426342 0.029370 -0.312035
v -0.197610 -0.491763 0.250058
v 0.131765 0.045381 -0.895859
v 0.605763 0.491980 -0.152408
v -0.311969 -0.557684 -0.250680
v 0.162028 -0.111084 0.492771
v -0.625071 0.561162 -0.060887
v -0.326230 0.414585 0.869732
v 0.027700 -0.110585 -0.376307
v 0.326541 -0.257162 0.554313
v 0.429965 0.433466 0.546580
v -0.189243 -0.319876 0.707520
v 0.382862 0.264393 -0.426065
v -0.236348 -0.488950 -0.265126
v -0.973911 0.024836 -0.063882
v -0.547866 0.025343 0.827930
v -0.093942 -0.135936 -0.484178
v 0.332104 -0.135429 0.407634
v -0.455180 0.331484 -0.493195
v -0.523882 0.076825 -0.540254
v -0.437902 0.278398 -0.231147
v -0.506604 0.023739 -0.278205
v -0.642523 0.073573 -0.407954
v -0.377347 0.041629 -0.429099
v -0.607474 0.335573 -0.364211
v -0.342298 0.303628 -0.385356
v -0.654078 0.138063 -0.313989
v -0.475910 0.026552 -0.480143
v -0.502527 0.358532 -0.299443
v -0.324359 0.247021 -0.465598
v -0.531356 0.020129 -0.456655
v -0.331113 0.114584 -0.305769
v -0.633814 0.266996 -0.475222
v -0.433571 0.361452 -0.324336
v -0.631152 0.188622 -0.516179
v -0.365976 0.156678 -0.537323
v -0.609029 0.195591 -0.249256
v -0.343853 0.163647 -0.270400
v -0.001374 0.480911 0.087725
v -0.080138 0.439798 -0.271347
v 0.048975 0.843580 0.035156
v -0.029789 0.802467 -0.323917
v 0.111450 0.575084 -0.343478
v -0.233057 0.643593 -0.227510
v 0.233471 0.598971 0.004901
v -0.111037 0.667481 0.120868
v 0.197763 0.684341 -0.268485
v -0.142844 0.544784 -0.305062
v 0.145307 0.716775 0.096239
v -0.195300 0.577218 0.059662
v -0.070830 0.558043 -0.345412
v -0.200066 0.810102 -0.107522
v 0.183796 0.454843 -0.097738
v 0.054561 0.706902 0.140152
v 0.120775 0.415256 -0.194587
v -0.223732 0.483765 -0.078619
v 0.200938 0.775477 -0.169251
v -0.143570 0.843986 -0.053283
v -0.489664 0.427583 0.218634
v -0.268400 0.335466 0.015755
v -0.568971 0.662217 0.025604
v -0.347708 0.570100 -0.177275
v -0.196300 0.528901 -0.012081
v -0.431660 0.357233 -0.129292
v -0.387386 0.637887 0.211998
v -0.622746 0.466219 0.094786
v -0.252456 0.649214 0.007800
v -0.309157 0.353776 -0.082221
v -0.525174 0.654150 0.163374
v -0.581875 0.358712 0.073353
v -0.259492 0.404445 -0.080443
v -0.559244 0.478892 -0.137092
v -0.285951 0.519360 0.210585
v -0.585703 0.593807 0.153936
v -0.231995 0.452060 0.153050
v -0.467355 0.280392 0.035838
v -0.350186 0.708236 0.015181
v -0.585546 0.536568 -0.102031
v 0.460113 0.346869 0.207898
v 0.121060 0.374266 0.091582
v 0.347709 0.392528 0.546303
v 0.008656 0.419924 0.429986
v 0.076161 0.566649 0.225162
v 0.077697 0.210999 0.277577
v 0.420390 0.583216 0.327477
v 0.421927 0.227566 0.379892
v 0.143601 0.621610 0.351870
v 0.051571 0.320634 0.178144
v 0.455557 0.470869 0.447772
v 0.363528 0.169892 0.274046
v 0.030665 0.398221 0.190193
v 0.160058 0.201441 0.461803
v 0.344725 0.571493 0.166111
v 0.474118 0.374713 0.437721
v 0.248513 0.541222 0.103519
v 0.250050 0.185572 0.155934
v 0.215409 0.593275 0.457682
v 0.216946 0.237625 0.510098
v 0.645940 0.422510 0.113653
v 0.637237 0.419214 -0.178944
v 0.353335 0.425154 0.122326
v 0.344633 0.421858 -0.170271
v 0.504464 0.560652 -0.187821
v 0.500037 0.270752 -0.147344
v 0.520915 0.600823 0.101687
v 0.516489 0.310924 0.142165
v 0.421648 0.602900 -0.104024
v 0.557475 0.363281 -0.203189
v 0.450423 0.505574 0.170566
v 0.586251 0.265955 0.071401
v 0.534895 0.422902 -0.220895
v 0.384050 0.258571 -0.031314
v 0.623503 0.594961 -0.001249
v 0.472658 0.430630 0.188332
v 0.647226 0.565399 -0.090172
v 0.642800 0.275500 -0.049695
v 0.364088 0.579908 -0.017222
v 0.359661 0.290008 0.023255
v 0.223528 0.112663 -0.631016
v -0.015894 0.223270 -0.599545
v 0.335150 0.318711 -0.505988
v 0.095728 0.429318 -0.474518
v 0.039171 0.382015 -0.652574
v 0.043200 0.245220 -0.424938
v 0.277227 0.282955 -0.716317
v 0.281257 0.146160 -0.488681
v 0.142531 0.428845 -0.656961
v -0.013557 0.264576 -0.518399
v 0.349127 0.266990 -0.616118
v 0.193039 0.102720 -0.477556
v -0.013788 0.312805 -0.554146
v 0.179217 0.280450 -0.374564
v 0.154885 0.244717 -0.747693
v 0.347890 0.212362 -0.568112
v 0.069677 0.247240 -0.727075
v 0.073706 0.110444 -0.499439
v 0.232400 0.428434 -0.621068
v 0.236429 0.291638 -0.393433
v -0.226153 0.511586 0.343368
v -0.302522 0.228507 0.291057
v -0.206946 0.452576 0.634661
v -0.283315 0.169497 0.582350
v -0.434404 0.224892 0.438121
v -0.139634 0.189383 0.414617
v -0.395443 0.516131 0.486746
v -0.100673 0.480621 0.463242
v -0.447248 0.296579 0.542574
v -0.249197 0.172623 0.357876
v -0.278784 0.541652 0.558742
v -0.080733 0.417697 0.374045
v -0.310830 0.165483 0.383985
v -0.088240 0.270480 0.551710
v -0.424722 0.439901 0.363346
v -0.202132 0.544898 0.531071
v -0.421763 0.352781 0.317819
v -0.126994 0.317272 0.294315
v -0.397171 0.360527 0.614530
v -0.102402 0.325018 0.591026
vn -0.0000 0.8600 -0.5102
vn -0.4332 0.7436 0.5093
vn -0.3468 0.3084 -0.8858
vn -0.1242 -0.2183 -0.9679
vn 0.2156 0.5237 -0.8242
vn 0.6584 0.6197 -0.4273
vn 0.0177 -0.3232 -0.9462
vn 0.0177 -0.9922 0.1231
vn -0.9345 -0.0016 0.3561
vn 0.4273 0.3755 0.8224
vn 0.7539 -0.6508 -0.0898
vn 0.6873 0.7184 -0.1076
vn 0.7780 -0.6243 0.0708
vn 0.1466 0.9867 -0.0706
vn 0.9644 -0.2395 -0.1121
vn -0.0577 0.1719 -0.9834
vn -0.4877 0.3869 -0.7826
vn 0.5433 0.1636 -0.8234
vn 0.1167 0.9925 -0.0356
vn -0.9675 0.1624 0.1936
vn -0.1542 -0.9806 0.1212
vn 0.3633 -0.9219 0.1342
vn -0.6357 -0.6766 0.3716
vn 0.2926 -0.1317 0.9471
vn -0.6631 -0.5963 -0.4524
vn 0.2606 -0.7620 0.5928
vn 0.4616 -0.3384 0.8200
vn -0.2858 -0.8999 0.3294
vn -0.5446 0.1886 0.8172
vn -0.1128 -0.9890 0.0960
vn 0.2883 -0.1384 -0.9475
vn 0.4260 0.3511 -0.8339
vn 0.3275 -0.6842 -0.6517
vn 0.9957 0.0176 0.0905
vn -0.0087 -0.9999 0.0115
vn 0.9983 -0.0227 -0.0536
vn 0.8804 0.4685 0.0738
vn 0.8018 -0.5826 0.1329
vn 0.2536 0.1300 0.9585
vn -0.1041 -0.4741 0.8743
vn -0.4432 -0.7718 -0.4559
vn -0.2228 -0.4961 -0.8392
vn -0.2621 -0.9589 0.1089
vn 0.7902 -0.5190 -0.3259
vt 0.528608 0.100252
vt 0.915284 0.100252
vt 0.915284 0.486928
vt 0.528608 0.486928
vt 0.715844 0.720495
vt 0.715844 0.911985
vt 0.907335 0.911985
vt 0.907335 0.720495
s 1
usemtl bush_base
f 1/1/1 2/2/1 4/3/1 3/4/1
f 5/1/2 6/2/2 8/3/2 7/4/2
f 9/1/3 10/2/3 12/3/3 11/4/3
f 13/1/4 14/2/4 16/3/4 15/4/4
f 17/1/5 18/2/5 20/3/5 19/4/5
f 21/1/6 22/2/6 24/3/6 23/4/6
f 25/1/7 26/2/7 28/3/7 27/4/7
f 29/1/8 30/2/8 32/3/8 31/4/8
f 33/1/9 34/2/9 36/3/9 35/4/9
f 37/1/10 38/2/10 40/3/10 39/4/10
f 41/1/11 42/2/11 44/3/11 43/4/11
f 45/1/12 46/2/12 48/3/12 47/4/12
f 49/1/13 50/2/13 52/3/13 51/4/13
f 53/1/14 54/2/14 56/3/14 55/4/14
s 0
usemtl bush_flower
f 57/5/15 59/6/15 60/7/15 58/8/15
f 61/5/16 63/6/16 64/7/16 62/8/16
f 65/5/17 67/6/17 68/7/17 66/8/17
f 69/5/18 71/6/18 72/7/18 70/8/18
f 73/5/19 75/6/19 76/7/19 74/8/19
f 77/5/20 79/6/20 80/7/20 78/8/20
f 81/5/21 83/6/21 84/7/21 82/8/21
f 85/5/22 87/6/22 88/7/22 86/8/22
f 89/5/23 91/6/23 92/7/23 90/8/23
f 93/5/24 95/6/24 96/7/24 94/8/24
f 97/5/25 99/6/25 100/7/25 98/8/25
f 101/5/26 103/6/26 104/7/26 102/8/26
f 105/5/27 107/6/27 108/7/27 106/8/27
f 109/5/28 111/6/28 112/7/28 110/8/28
f 113/5/29 115/6/29 116/7/29 114/8/29
f 117/5/30 119/6/30 120/7/30 118/8/30
f 121/5/31 123/6/31 124/7/31 122/8/31
f 125/5/32 127/6/32 128/7/32 126/8/32
f 129/5/33 131/6/33 132/7/33 130/8/33
f 133/5/34 135/6/34 136/7/34 134/8/34
f 137/5/35 139/6/35 140/7/35 138/8/35
f 141/5/36 143/6/36 144/7/36 142/8/36
f 145/5/37 147/6/37 148/7/37 146/8/37
f 149/5/38 151/6/38 152/7/38 150/8/38
f 153/5/39 155/6/39 156/7/39 154/8/39
f 157/5/40 159/6/40 160/7/40 158/8/40
f 161/5/41 163/6/41 164/7/41 162/8/41
f 165/5/42 167/6/42 168/7/42 166/8/42
f 169/5/43 171/6/43 172/7/43 170/8/43
f 173/5/44 175/6/44 176/7/44 174/8/44
f 177/5/15 179/6/15 180/7/15 178/8/15
f 181/5/16 183/6/16 184/7/16 182/8/16
f 185/5/17 187/6/17 188/7/17 186/8/17
f 189/5/18 191/6/18 192/7/18 190/8/18
f 193/5/19 195/6/19 196/7/19 194/8/19
