# Blender 5.0.1
# www.blender.org
mtllib bush2.mtl
o bush_base
v -0.918799 -0.063983 -0.148910
v -0.567964 0.407473 0.645752
v 0.005190 -0.242994 -0.450640
v 0.356028 0.228463 0.344022
v -0.648613 0.131119 -0.715322
v -0.826488 -0.486692 0.035353
v 0.224257 0.365701 -0.315431
v 0.046383 -0.252111 0.435244
v 0.105299 0.859582 0.118762
v 0.802496 0.329159 -0.338854
v -0.505684 0.083324 0.087662
v 0.191513 -0.447098 -0.369954
v 0.099247 0.748097 -0.227553
v 0.907348 0.179578 -0.202977
v -0.456411 -0.031042 0.019487
v 0.351688 -0.599562 0.044063
v 0.481160 -0.517498 -0.376831
v -0.479258 -0.485988 -0.608026
v 0.386056 0.323903 0.132918
v -0.574360 0.355414 -0.098277
v 0.119401 0.483648 0.686495
v 0.697832 -0.285689 0.462034
v -0.348425 0.384262 -0.178435
v 0.230003 -0.385076 -0.402896
v 0.589316 0.611749 -0.092348
v 0.729646 -0.313252 0.226282
v -0.388867 0.473321 -0.063405
v -0.248538 -0.451680 0.255225
v 0.623774 -0.062128 -0.474110
v 0.764102 0.060821 0.496475
v -0.354411 -0.062073 -0.332689
v -0.214081 0.060876 0.637896
v -0.103310 0.578534 -0.528589
v -0.159196 -0.396599 -0.679708
v 0.244149 0.417421 0.382542
v 0.188261 -0.557712 0.231423
v -0.213355 0.782695 -0.323699
v -0.837306 0.261561 0.238393
v 0.426342 0.029370 -0.312035
v -0.197610 -0.491763 0.250058
v 0.131765 0.045381 -0.895859
v 0.605763 0.491980 -0.152408
v -0.311969 -0.557684 -0.250680
v 0.162028 -0.111084 0.492771
v -0.625071 0.561162 -0.060887
v -0.326230 0.414585 0.869732
v 0.027700 -0.110585 -0.376307
v 0.326541 -0.257162 0.554313
v 0.429965 0.433466 0.546580
v -0.189243 -0.319876 0.707520
v 0.382862 0.264393 -0.426065
v -0.236348 -0.488950 -0.265126
v -0.973911 0.024836 -0.063882
v -0.547866 0.025343 0.827930
v -0.093942 -0.135936 -0.484178
v 0.332104 -0.135429 0.407634
vn -0.0000 0.8600 -0.5102
vn -0.4332 0.7436 0.5093
vn -0.3468 0.3084 -0.8858
vn -0.1242 -0.2183 -0.9679
vn 0.2156 0.5237 -0.8242
vn 0.6584 0.6197 -0.4273
vn 0.0177 -0.3232 -0.9462
vn 0.0177 -0.9922 0.1231
vn -0.9345 -0.0016 0.3561
vn 0.4273 0.3755 0.8224
vn 0.7539 -0.6508 -0.0898
vn 0.6873 0.7184 -0.1076
vn 0.7780 -0.6243 0.0708
vn 0.1466 0.9867 -0.0706
vt 0.528608 0.100252
vt 0.915284 0.100252
vt 0.915284 0.486928
vt 0.528608 0.486928
s 1
usemtl bush_base
f 1/1/1 2/2/1 4/3/1 3/4/1
f 5/1/2 6/2/2 8/3/2 7/4/2
f 9/1/3 10/2/3 12/3/3 11/4/3
f 13/1/4 14/2/4 16/3/4 15/4/4
f 17/1/5 18/2/5 20/3/5 19/4/5
f 21/1/6 22/2/6 24/3/6 23/4/6
f 25/1/7 26/2/7 28/3/7 27/4/7
f 29/1/8 30/2/8 32/3/8 31/4/8
f 33/1/9 34/2/9 36/3/9 35/4/9
f 37/1/10 38/2/10 40/3/10 39/4/10
f 41/1/11 42/2/11 44/3/11 43/4/11
f 45/1/12 46/2/12 48/3/12 47/4/12
f 49/1/13 50/2/13 52/3/13 51/4/13
f 53/1/14 54/2/14 56/3/14 55/4/14
