# Blender 5.0.1
# www.blender.org
mtllib chair1.mtl
o chair
v 0.461739 0.971315 -5.032665
v 0.461739 1.024215 -5.032665
v -0.538935 0.999301 -4.957940
v -0.538935 1.052200 -4.957940
v 0.461739 0.971315 -5.883890
v 0.461739 1.024215 -5.883890
v -0.538935 0.999301 -5.958614
v -0.538935 1.052200 -5.958614
v 0.516591 0.971315 -5.032665
v 0.516591 1.024215 -5.032665
v 0.516591 1.024215 -5.883890
v 0.516591 0.971315 -5.883890
v -0.593793 1.052200 -4.957940
v -0.593793 0.999301 -4.957940
v -0.593793 0.999301 -5.958614
v -0.593793 1.052200 -5.958614
v -0.538935 0.999301 -4.897685
v 0.461739 0.971315 -4.981409
v 0.461739 1.024215 -4.981409
v -0.538935 1.052200 -4.897685
v -0.538935 1.052200 -6.018869
v -0.538935 0.999301 -6.018869
v 0.461739 0.971315 -5.935146
v 0.461739 1.024215 -5.935146
v 0.516591 0.971315 -4.981409
v 0.516591 1.024215 -4.981409
v 0.516591 1.024215 -5.935146
v 0.516591 0.971315 -5.935146
v -0.593794 1.052200 -4.897685
v -0.593794 0.999301 -4.897685
v -0.593794 1.052200 -6.018869
v -0.593794 0.999301 -6.018869
v -0.564376 0.037627 -6.044562
v -0.564376 0.037627 -5.981544
v -0.619235 0.037627 -5.981544
v -0.619235 0.037627 -6.044562
v 0.666480 0.037627 -4.929523
v 0.666480 0.037627 -4.986356
v 0.611628 0.037627 -4.986356
v 0.611628 0.037627 -5.930199
v 0.666480 0.037627 -5.930199
v -0.619235 0.037627 -4.935010
v -0.564376 0.037627 -4.935010
v 0.611628 0.037627 -4.929523
v 0.611628 0.037627 -5.987032
v 0.666480 0.037627 -5.987032
v -0.619235 0.037627 -4.871993
v -0.564376 0.037627 -4.871993
v 0.539017 1.449461 -5.026339
v 0.539017 1.449461 -4.974320
v 0.484165 1.449461 -5.026339
v 0.539017 1.449461 -5.890373
v 0.484165 1.449461 -5.890373
v 0.484165 1.449461 -4.974320
v 0.539017 1.449461 -5.942235
v 0.484165 1.449461 -5.942235
v 0.575460 1.785856 -4.999116
v 0.575460 1.785856 -4.943819
v 0.520608 1.785856 -4.999116
v 0.575460 1.785856 -5.918419
v 0.520607 1.785856 -5.918419
v 0.520608 1.785856 -4.943819
v 0.575460 1.785856 -5.972736
v 0.520607 1.785856 -5.972736
v 0.623115 2.004511 -4.982269
v 0.623115 2.004511 -4.924943
v 0.568263 2.004511 -4.982269
v 0.623115 2.004511 -5.935712
v 0.568263 2.004511 -5.935712
v 0.568263 2.004511 -4.924943
v 0.623115 2.004511 -5.991625
v 0.568263 2.004511 -5.991625
v 0.682202 2.189317 -4.972250
v 0.682202 2.189317 -4.913080
v 0.626720 2.189317 -4.972250
v 0.682202 2.189317 -5.944255
v 0.626720 2.189317 -5.944255
v 0.626720 2.189317 -4.913080
v 0.682202 2.189317 -6.003484
v 0.626720 2.189317 -6.003484
v 0.699215 2.226178 -4.972250
v 0.699215 2.226178 -4.913080
v 0.643733 2.226178 -4.972250
v 0.699215 2.226178 -5.944883
v 0.643733 2.226178 -5.944883
v 0.643733 2.226178 -4.913080
v 0.699215 2.226178 -6.003484
v 0.643733 2.226178 -6.003484
vn -0.0280 -0.9996 -0.0000
vn -0.0000 1.0000 -0.0000
vn 1.0000 -0.0000 -0.0000
vn 0.0280 0.9996 -0.0000
vn -0.0000 -1.0000 -0.0000
vn -1.0000 -0.0000 -0.0000
vn 0.9874 0.1585 -0.0000
vn 0.0834 -0.0000 0.9965
vn 0.0834 -0.0000 -0.9965
vn -0.0000 -0.0000 1.0000
vn -0.0000 -0.0000 -1.0000
vn -0.0000 0.0152 0.9999
vn -0.0000 -0.0238 0.9997
vn -0.0000 -0.0238 -0.9997
vn -0.0000 -0.0167 -0.9999
vn -0.9874 -0.1585 -0.0000
vn 0.9997 -0.0264 -0.0000
vn -0.0000 0.0555 0.9985
vn -0.0000 -0.0495 -0.9988
vn -0.0000 0.0267 0.9996
vn -0.0000 0.0267 -0.9996
vn -0.9997 0.0264 -0.0000
vn -0.0000 0.0555 -0.9985
vn -0.0000 -0.0495 0.9988
vn -0.0000 -0.0903 -0.9959
vn -0.9942 0.1077 -0.0000
vn -0.0000 0.0149 -0.9999
vn -0.0000 -0.0167 0.9999
vn -0.9986 0.0527 -0.0000
vn 0.9986 -0.0527 -0.0000
vn -0.0000 -0.0861 -0.9963
vn -0.9771 0.2129 -0.0000
vn 0.9942 -0.1077 -0.0000
vn -0.0000 -0.0903 0.9959
vn -0.9534 0.3016 -0.0000
vn 0.9771 -0.2129 -0.0000
vn -0.0000 -0.0860 0.9963
vn -0.9080 0.4191 -0.0000
vn -0.0000 -0.0640 -0.9979
vn 0.9525 -0.3045 -0.0000
vn -0.0000 -0.0641 0.9979
vn 0.9080 -0.4191 -0.0000
vt 0.501747 0.412255
vt 0.494547 0.532768
vt 0.503869 0.532153
vt 0.512706 0.411531
vt 0.537056 0.425122
vt 0.592439 0.430739
vt 0.595058 0.423297
vt 0.535248 0.417190
vt 0.627389 0.543043
vt 0.627055 0.425739
vt 0.618952 0.424010
vt 0.618814 0.541743
vt 0.594197 0.526430
vt 0.609893 0.547079
vt 0.614975 0.544092
vt 0.598963 0.525189
vt 0.611204 0.723773
vt 0.481901 0.735093
vt 0.478751 0.587965
vt 0.588743 0.578337
vt 0.481869 0.734722
vt 0.611171 0.723403
vt 0.588710 0.577966
vt 0.478719 0.587595
vt 0.528427 0.521214
vt 0.514361 0.539429
vt 0.514663 0.548712
vt 0.610196 0.556362
vt 0.592177 0.516953
vt 0.531156 0.512827
vt 0.521462 0.402386
vt 0.516406 0.407519
vt 0.531006 0.417759
vt 0.607905 0.412441
vt 0.415671 0.465301
vt 0.414839 0.471570
vt 0.298225 0.456998
vt 0.299147 0.450047
vt 0.524004 0.519770
vt 0.509930 0.536445
vt 0.607178 0.402557
vt 0.520735 0.392503
vt 0.523104 0.515339
vt 0.530187 0.421316
vt 0.599807 0.427732
vt 0.600401 0.520654
vt 0.613106 0.417670
vt 0.599192 0.424102
vt 0.592180 0.516945
vt 0.414838 0.471576
vt 0.415670 0.465307
vt 0.299148 0.450043
vt 0.298226 0.456995
vt 0.531154 0.512819
vt 0.487094 0.545098
vt 0.488380 0.537136
vt 0.410630 0.521978
vt 0.409344 0.529940
vt 0.304994 0.471962
vt 0.304054 0.479057
vt 0.420743 0.494152
vt 0.421682 0.487057
vt 0.304083 0.478839
vt 0.305023 0.471744
vt 0.421616 0.487553
vt 0.420677 0.494648
vt 0.484587 0.560494
vt 0.485884 0.552536
vt 0.408118 0.537464
vt 0.406817 0.545426
vt 0.416562 0.458599
vt 0.417391 0.452330
vt 0.300959 0.436383
vt 0.300039 0.443335
vt 0.306027 0.464169
vt 0.422762 0.478907
vt 0.418278 0.445614
vt 0.417392 0.452324
vt 0.300959 0.436387
vt 0.301845 0.429678
vt 0.416562 0.458593
vt 0.300039 0.443339
vt 0.302111 0.493727
vt 0.303051 0.486632
vt 0.419598 0.502799
vt 0.418657 0.509893
vt 0.306056 0.463951
vt 0.422697 0.479403
vt 0.303023 0.486850
vt 0.302082 0.493945
vt 0.418723 0.509397
vt 0.419663 0.502302
vt 0.418277 0.445620
vt 0.301845 0.429674
vt 0.368880 0.530080
vt 0.367575 0.538031
vt 0.370164 0.522206
vt 0.488398 0.537023
vt 0.487112 0.544984
vt 0.409370 0.529773
vt 0.410657 0.521812
vt 0.485903 0.552422
vt 0.484605 0.560381
vt 0.406840 0.545282
vt 0.408140 0.537321
vt 0.483399 0.567819
vt 0.405621 0.552832
vt 0.483381 0.567933
vt 0.405602 0.552953
vt 0.339740 0.525878
vt 0.338427 0.533822
vt 0.341055 0.517774
vt 0.492810 0.864522
vt 0.492727 0.863517
vt 0.653598 0.850244
vt 0.653681 0.851249
vt 0.366314 0.545879
vt 0.367601 0.537863
vt 0.368906 0.529912
vt 0.370213 0.521896
vt 0.366311 0.545905
vt 0.478304 0.788835
vt 0.473406 0.752237
vt 0.654380 0.737305
vt 0.655822 0.774188
vt 0.316647 0.514636
vt 0.315264 0.523217
vt 0.484430 0.824807
vt 0.655591 0.810685
vt 0.337126 0.541942
vt 0.338456 0.533639
vt 0.339768 0.525694
vt 0.341117 0.517386
vt 0.337130 0.541921
vt 0.490822 0.940558
vt 0.490970 0.904068
vt 0.662131 0.889946
vt 0.668340 0.925912
vt 0.313929 0.531242
vt 0.309831 0.522876
vt 0.308491 0.530898
vt 0.311194 0.514374
vt 0.491990 0.977464
vt 0.672964 0.962532
vt 0.312587 0.539612
vt 0.313960 0.531045
vt 0.315295 0.523020
vt 0.316677 0.514448
vt 0.312555 0.539818
vt 0.307148 0.539268
vt 0.300331 0.538208
vt 0.301706 0.529637
vt 0.308523 0.530697
vt 0.300316 0.538322
vt 0.307131 0.539381
vt 0.301676 0.529838
vt 0.309862 0.522675
vt 0.311239 0.514090
vt 0.445121 0.477208
vt 0.451009 0.478367
vt 0.443505 0.517367
vt 0.437612 0.516233
vt 0.440855 0.476387
vt 0.433346 0.515412
vt 0.434958 0.475279
vt 0.427454 0.514278
s 0
usemtl chair
f 3/1/1 1/2/1 18/3/1 17/4/1
f 4/5/2 8/6/2 16/7/2 13/8/2
f 5/9/1 7/10/1 22/11/1 23/12/1
f 11/13/3 12/14/3 28/15/3 27/16/3
f 3/17/1 7/18/1 5/19/1 1/20/1
f 8/21/4 4/22/4 2/23/4 6/24/4
f 12/14/3 11/13/3 10/25/3 9/26/3
f 1/27/5 5/28/5 12/14/5 9/26/5
f 6/29/2 2/30/2 10/25/2 11/13/2
f 13/8/6 14/31/6 30/32/6 29/33/6
f 14/31/6 13/8/6 16/7/6 15/34/6
f 9/35/7 25/36/7 37/37/7 38/38/7
f 9/26/3 10/25/3 26/39/3 25/40/3
f 7/41/5 3/42/5 14/31/5 15/34/5
f 18/3/8 19/43/8 20/44/8 17/4/8
f 22/11/9 21/45/9 24/46/9 23/12/9
f 19/43/10 18/3/10 25/40/10 26/39/10
f 23/12/11 24/46/11 27/16/11 28/15/11
f 17/4/10 20/44/10 29/33/10 30/32/10
f 21/45/11 22/11/11 32/47/11 31/48/11
f 8/6/4 6/49/4 24/46/4 21/45/4
f 15/34/6 16/7/6 31/48/6 32/47/6
f 28/50/7 12/51/7 41/52/7 46/53/7
f 16/7/2 8/6/2 21/45/2 31/48/2
f 2/54/4 4/5/4 20/44/4 19/43/4
f 6/55/12 11/56/12 52/57/12 53/58/12
f 4/5/2 13/8/2 29/33/2 20/44/2
f 7/59/13 15/60/13 35/61/13 34/62/13
f 14/63/14 3/64/14 43/65/14 42/66/14
f 27/67/15 24/68/15 56/69/15 55/70/15
f 5/71/16 23/72/16 45/73/16 40/74/16
f 22/75/17 7/59/17 34/62/17 33/76/17
f 25/77/18 18/78/18 44/79/18 37/80/18
f 18/78/16 1/81/16 39/82/16 44/79/16
f 1/81/19 9/35/19 38/38/19 39/82/19
f 17/83/20 30/84/20 47/85/20 48/86/20
f 3/64/17 17/87/17 48/88/17 43/65/17
f 32/89/21 22/90/21 33/91/21 36/92/21
f 15/60/22 32/89/22 36/92/22 35/61/22
f 23/72/23 28/93/23 46/94/23 45/73/23
f 12/51/24 5/71/24 40/74/24 41/52/24
f 30/84/22 14/63/22 42/66/22 47/85/22
f 55/70/25 56/69/25 64/95/25 63/96/25
f 56/69/26 53/58/26 61/97/26 64/95/26
f 10/98/27 2/99/27 51/100/27 49/101/27
f 19/102/28 26/103/28 50/104/28 54/105/28
f 2/99/29 19/102/29 54/105/29 51/100/29
f 24/68/29 6/55/29 53/58/29 56/69/29
f 26/103/30 10/106/30 49/107/30 50/104/30
f 11/108/30 27/67/30 55/70/30 52/109/30
f 63/96/31 64/95/31 72/110/31 71/111/31
f 64/95/32 61/97/32 69/112/32 72/110/32
f 49/113/5 51/114/5 53/115/5 52/116/5
f 50/104/33 49/107/33 57/117/33 58/118/33
f 51/100/26 54/105/26 62/119/26 59/120/26
f 52/109/33 55/70/33 63/96/33 60/121/33
f 54/105/34 50/104/34 58/118/34 62/119/34
f 67/122/35 75/123/35 77/124/35 69/125/35
f 72/110/35 69/112/35 77/126/35 80/127/35
f 59/128/32 67/122/32 69/125/32 61/129/32
f 51/114/26 59/128/26 61/129/26 53/115/26
f 58/118/36 57/117/36 65/130/36 66/131/36
f 59/120/32 62/119/32 70/132/32 67/133/32
f 60/121/36 63/96/36 71/111/36 68/134/36
f 62/119/37 58/118/37 66/131/37 70/132/37
f 65/135/36 57/136/36 60/137/36 68/138/36
f 79/139/11 80/127/11 88/140/11 87/141/11
f 80/127/38 77/126/38 85/142/38 88/140/38
f 71/111/39 72/110/39 80/127/39 79/139/39
f 73/143/40 65/135/40 68/138/40 76/144/40
f 66/131/40 65/130/40 73/145/40 74/146/40
f 67/133/35 70/132/35 78/147/35 75/148/35
f 68/134/40 71/111/40 79/139/40 76/149/40
f 70/132/41 66/131/41 74/146/41 78/147/41
f 81/150/2 83/151/2 86/152/2 82/153/2
f 85/154/2 84/155/2 87/141/2 88/156/2
f 74/146/42 73/145/42 81/150/42 82/153/42
f 75/148/38 78/147/38 86/157/38 83/158/38
f 76/149/42 79/139/42 87/141/42 84/155/42
f 78/147/10 74/146/10 82/153/10 86/157/10
f 57/136/33 49/113/33 52/116/33 60/137/33
f 85/159/38 77/160/38 75/161/38 83/162/38
f 84/163/2 85/159/2 83/162/2 81/164/2
f 76/165/42 84/163/42 81/164/42 73/166/42
