# Blender 5.1.0
# www.blender.org
mtllib DOILY TRASH!!!.mtl
o Plane.013
v -5.820902 1.442927 0.423631
v -5.614412 1.442927 0.586212
v -5.820902 1.705739 0.423631
v -5.614412 1.705739 0.586212
v -5.300000 0.076794 -0.617002
v -5.300000 1.704318 -0.617002
v -5.032293 0.076794 -0.555900
v -5.032293 1.704318 -0.555900
v -4.817609 0.076794 -0.384695
v -4.817609 1.704318 -0.384694
v -4.698468 0.076794 -0.137296
v -4.698468 1.704318 -0.137296
v -4.698468 0.076794 0.137296
v -4.698468 1.704318 0.137296
v -4.817609 0.076794 0.384695
v -4.817609 1.704318 0.384695
v -5.032293 0.076794 0.555900
v -5.032293 1.704318 0.555900
v -5.300000 0.076794 0.617002
v -5.300000 1.704318 0.617002
v -5.567708 0.076794 0.555900
v -5.567708 1.704318 0.555900
v -5.782392 0.076794 0.384695
v -5.782392 1.704318 0.384695
v -5.901533 0.076794 0.137296
v -5.901533 1.704318 0.137296
v -5.901533 0.076794 -0.137296
v -5.901533 1.704318 -0.137296
v -5.782392 0.076794 -0.384694
v -5.782392 1.704318 -0.384694
v -5.567708 0.076794 -0.555900
v -5.567708 1.704318 -0.555900
v -5.292429 2.217677 0.000000
v -5.292429 2.199971 -0.134488
v -5.292429 2.148061 -0.259811
v -5.292429 2.065483 -0.367428
v -5.292429 1.832543 -0.501916
v -5.292429 1.698055 -0.519622
v -5.225185 2.199971 -0.116470
v -5.162524 2.148061 -0.225003
v -5.108715 2.065483 -0.318202
v -5.067427 1.957866 -0.389716
v -5.041471 1.832543 -0.434672
v -5.032619 1.698055 -0.450006
v -5.175960 2.199971 -0.067244
v -5.067427 2.148061 -0.129905
v -4.974227 2.065483 -0.183714
v -4.902713 1.957866 -0.225003
v -4.857758 1.832543 -0.250958
v -4.842424 1.698055 -0.259811
v -5.157941 2.199971 0.000000
v -5.032619 2.148061 0.000000
v -4.925001 2.065483 0.000000
v -4.842424 1.957866 0.000000
v -4.790514 1.832543 0.000000
v -4.772808 1.698055 0.000000
v -5.175960 2.199971 0.067244
v -5.067427 2.148061 0.129905
v -4.974227 2.065483 0.183714
v -4.902713 1.957866 0.225003
v -4.857758 1.832543 0.250958
v -4.842424 1.698055 0.259811
v -5.225185 2.199971 0.116470
v -5.162524 2.148061 0.225003
v -5.108716 2.065483 0.318202
v -5.093400 1.957866 0.389716
v -5.004338 1.832543 0.408820
v -4.954474 1.698055 0.381066
v -5.292429 2.199971 0.134488
v -5.292429 2.148061 0.259811
v -5.292429 2.065483 0.367428
v -5.292429 2.006081 0.381066
v -5.359674 2.199971 0.116470
v -5.422335 2.148061 0.225003
v -5.476143 2.065483 0.318202
v -5.491459 1.957866 0.389716
v -5.580521 1.832543 0.408820
v -5.630384 1.698055 0.381066
v -5.408899 2.199971 0.067244
v -5.517432 2.148061 0.129905
v -5.610631 2.065483 0.183714
v -5.682146 1.957866 0.225003
v -5.727101 1.832543 0.250958
v -5.742435 1.698055 0.259811
v -5.426918 2.199971 -0.000000
v -5.552240 2.148061 0.000000
v -5.659857 2.065483 -0.000000
v -5.742435 1.957866 -0.000000
v -5.794345 1.832543 -0.000000
v -5.812051 1.698055 -0.000000
v -5.408899 2.199971 -0.067244
v -5.517432 2.148061 -0.129905
v -5.610631 2.065483 -0.183714
v -5.682146 1.957866 -0.225003
v -5.727101 1.832543 -0.250958
v -5.742435 1.698055 -0.259811
v -5.359674 2.199971 -0.116470
v -5.422335 2.148061 -0.225003
v -5.476143 2.065483 -0.318202
v -5.517432 1.957866 -0.389716
v -5.543387 1.832543 -0.434672
v -5.552240 1.698055 -0.450006
v -5.292429 1.957866 -0.450006
v -5.310087 1.707192 -0.709548
v -5.002226 1.707192 -0.639281
v -4.755341 1.707192 -0.442396
v -4.618329 1.707192 -0.157889
v -4.618329 1.707192 0.157889
v -4.755341 1.707192 0.442396
v -5.002226 1.707192 0.639281
v -5.310087 1.707191 0.709548
v -5.617949 1.707192 0.639281
v -5.864834 1.707192 0.442396
v -6.001846 1.707191 0.157889
v -6.001846 1.707192 -0.157889
v -5.864834 1.707192 -0.442396
v -5.617949 1.707192 -0.639281
v -5.655967 1.707192 -0.078945
v -5.156157 1.707192 -0.319640
v -4.964209 1.707191 0.078945
v -5.587461 1.707192 -0.221198
v -5.310088 1.707192 -0.354774
v -5.587461 1.707192 0.221198
v -5.464018 1.707191 -0.319640
v -5.032714 1.707192 -0.221198
v -5.032714 1.707192 0.221198
v -4.964209 1.707192 -0.078945
v -5.156157 1.707192 0.319640
v -5.310088 1.707192 0.354774
v -5.655967 1.707192 0.078945
v -5.464018 1.707192 0.319640
v -5.310087 1.453339 -0.709548
v -5.002226 1.453339 -0.639281
v -4.755341 1.453339 -0.442396
v -4.618329 1.453339 -0.157889
v -4.618329 1.453339 0.157889
v -4.755341 1.453339 0.442396
v -5.002226 1.453339 0.639281
v -5.310087 1.453339 0.709548
v -5.617949 1.453339 0.639281
v -5.864834 1.453339 0.442396
v -6.001846 1.453339 0.157889
v -6.001846 1.453339 -0.157889
v -5.864834 1.453339 -0.442396
v -5.617949 1.453339 -0.639281
v -5.310088 1.453339 -0.000000
v -5.310087 0.081234 -0.709548
v -5.002226 0.081234 -0.639281
v -4.755341 0.081234 -0.442396
v -4.618329 0.081234 -0.157889
v -4.618329 0.081234 0.157889
v -4.755341 0.081234 0.442396
v -5.002226 0.081234 0.639281
v -5.310087 0.081234 0.709548
v -5.617949 0.081234 0.639281
v -5.864834 0.081234 0.442396
v -6.001846 0.081234 0.157889
v -6.001846 0.081234 -0.157889
v -5.864834 0.081234 -0.442396
v -5.617949 0.081234 -0.639281
v -5.310088 0.081234 -0.000000
v -5.592615 1.445053 0.599546
v -5.336632 1.445053 0.659065
v -5.592615 1.707866 0.599546
v -5.336632 1.707866 0.659065
v -5.298603 1.445053 0.658999
v -5.041145 1.445053 0.606221
v -5.298603 1.707866 0.658999
v -5.041145 1.707866 0.606221
v -5.008355 1.445053 0.588841
v -4.797455 1.445053 0.432025
v -5.008355 1.707866 0.588841
v -4.797455 1.707866 0.432025
v -4.662274 1.442926 0.121587
v -4.663295 1.442926 -0.141224
v -4.662274 1.705739 0.121587
v -4.663295 1.705739 -0.141224
v -4.776239 1.445053 0.401474
v -4.664623 1.445053 0.163541
v -4.776239 1.707866 0.401474
v -4.664623 1.707866 0.163541
v -4.664262 1.442926 -0.157821
v -4.777316 1.442926 -0.395074
v -4.664262 1.705739 -0.157821
v -4.777316 1.705739 -0.395074
v -4.798425 1.442926 -0.412400
v -5.000297 1.442926 -0.580680
v -4.798425 1.705739 -0.412400
v -5.000297 1.705739 -0.580680
v -5.027080 1.442926 -0.596139
v -5.281459 1.442926 -0.662182
v -5.027080 1.705739 -0.596139
v -5.281459 1.705739 -0.662182
v -5.325353 1.442926 -0.665410
v -5.581290 1.442926 -0.605691
v -5.325353 1.705739 -0.665410
v -5.581290 1.705739 -0.605691
v -5.609796 1.442926 -0.589407
v -5.818547 1.442926 -0.429742
v -5.609796 1.705739 -0.589407
v -5.818547 1.705739 -0.429742
v -5.831054 1.442926 -0.409653
v -5.945002 1.442926 -0.172828
v -5.831054 1.705739 -0.409653
v -5.945002 1.705739 -0.172828
v -5.956868 1.442926 -0.131221
v -5.959677 1.442926 0.131576
v -5.956868 1.705739 -0.131221
v -5.959677 1.705739 0.131576
v -5.947129 1.442926 0.166836
v -5.830911 1.442926 0.402556
v -5.947129 1.705739 0.166836
v -5.830911 1.705739 0.402556
vn -0.6186 -0.0000 0.7857
vn -0.0000 -0.0000 -1.0000
vn 0.4339 -0.0000 -0.9010
vn 0.7818 -0.0000 -0.6235
vn 0.9749 -0.0000 -0.2225
vn 0.9749 -0.0000 0.2225
vn 0.7818 -0.0000 0.6235
vn 0.4339 -0.0000 0.9010
vn -0.0000 -0.0000 1.0000
vn -0.4339 -0.0000 0.9010
vn -0.7818 -0.0000 0.6235
vn -0.9749 -0.0000 0.2225
vn -0.9749 -0.0000 -0.2225
vn -0.7818 -0.0000 -0.6235
vn -0.4339 -0.0000 -0.9010
vn -0.0000 0.1305 -0.9914
vn -0.0000 0.2536 -0.9673
vn 0.4837 0.2536 -0.8377
vn 0.4957 0.1305 -0.8586
vn -0.0000 0.6965 -0.7176
vn -0.0000 0.8566 -0.5159
vn 0.2580 0.8566 -0.4468
vn 0.3588 0.6965 -0.6215
vn -0.0000 0.4909 -0.8712
vn 0.4356 0.4909 -0.7545
vn -0.0000 0.9603 -0.2789
vn -0.0000 1.0000 -0.0000
vn 0.1394 0.9603 -0.2415
vn 0.6215 0.6965 -0.3588
vn 0.7545 0.4909 -0.4356
vn 0.2415 0.9603 -0.1394
vn 0.8377 0.2536 -0.4837
vn 0.4468 0.8566 -0.2580
vn 0.8586 0.1305 -0.4957
vn 0.5159 0.8566 -0.0000
vn 0.7176 0.6965 -0.0000
vn 0.8712 0.4909 -0.0000
vn 0.2789 0.9603 -0.0000
vn 0.9673 0.2536 -0.0000
vn 0.9914 0.1305 -0.0000
vn 0.7436 0.5005 0.4433
vn 0.8363 0.2741 0.4748
vn 0.2415 0.9603 0.1394
vn 0.4468 0.8566 0.2580
vn 0.8676 0.1313 0.4795
vn 0.6236 0.6866 0.3738
vn 0.3579 0.6565 0.6640
vn 0.4596 0.5020 0.7327
vn 0.1394 0.9603 0.2415
vn 0.6698 0.3279 0.6662
vn 0.2580 0.8566 0.4468
vn 0.7274 0.1290 0.6740
vn -0.0000 0.8566 0.5159
vn -0.0000 0.6292 0.7772
vn -0.0000 0.4653 0.8852
vn -0.0000 0.9603 0.2789
vn -0.1394 0.9603 0.2415
vn -0.2580 0.8566 0.4468
vn -0.3579 0.6565 0.6640
vn -0.4596 0.5020 0.7327
vn -0.6236 0.6866 0.3738
vn -0.7436 0.5005 0.4433
vn -0.2415 0.9603 0.1394
vn -0.6698 0.3279 0.6662
vn -0.8363 0.2741 0.4748
vn -0.4468 0.8566 0.2580
vn -0.7274 0.1290 0.6740
vn -0.8676 0.1313 0.4795
vn -0.9673 0.2536 -0.0000
vn -0.9914 0.1305 -0.0000
vn -0.5159 0.8566 -0.0000
vn -0.7176 0.6965 -0.0000
vn -0.8712 0.4909 -0.0000
vn -0.2789 0.9603 -0.0000
vn -0.7545 0.4909 -0.4356
vn -0.8377 0.2536 -0.4837
vn -0.2415 0.9603 -0.1394
vn -0.4468 0.8566 -0.2580
vn -0.8586 0.1305 -0.4957
vn -0.6215 0.6965 -0.3588
vn -0.3588 0.6965 -0.6215
vn -0.4356 0.4909 -0.7545
vn -0.1394 0.9603 -0.2415
vn -0.4837 0.2536 -0.8377
vn -0.2580 0.8566 -0.4468
vn -0.4957 0.1305 -0.8586
vn -0.2265 -0.0000 0.9740
vn 0.2008 -0.0000 0.9796
vn 0.5967 -0.0000 0.8025
vn 1.0000 -0.0000 -0.0039
vn 0.9053 -0.0000 0.4247
vn 0.9027 -0.0000 -0.4302
vn 0.6403 -0.0000 -0.7681
vn 0.2513 -0.0000 -0.9679
vn -0.2272 -0.0000 -0.9738
vn -0.6075 -0.0000 -0.7943
vn -0.9011 -0.0000 -0.4336
vn -0.9999 -0.0000 -0.0107
vn -0.8969 -0.0000 0.4422
vt 0.800519 0.044502
vt 0.963291 0.044502
vt 0.963291 0.207275
vt 0.800519 0.207275
vt 0.095574 0.014331
vt 0.095574 0.441018
vt 0.023584 0.441018
vt 0.023584 0.014331
vt 0.096317 0.014331
vt 0.096317 0.441018
vt 0.024327 0.441018
vt 0.024327 0.014331
vt 0.095336 0.014331
vt 0.095336 0.441018
vt 0.023347 0.441018
vt 0.023347 0.014331
vt 0.095974 0.014331
vt 0.095974 0.441018
vt 0.023984 0.441018
vt 0.023984 0.014331
vt 0.095574 0.013913
vt 0.095574 0.440600
vt 0.023584 0.440600
vt 0.023584 0.013913
vt 0.096211 0.013913
vt 0.096211 0.440600
vt 0.024222 0.440600
vt 0.024222 0.013913
vt 0.095425 0.014331
vt 0.095425 0.441018
vt 0.023436 0.441018
vt 0.023436 0.014331
vt 0.096554 0.013913
vt 0.096554 0.440600
vt 0.024565 0.440600
vt 0.024565 0.013913
vt 0.096211 0.014331
vt 0.096211 0.441018
vt 0.024222 0.441018
vt 0.024222 0.014331
vt 0.096465 0.014331
vt 0.096465 0.441018
vt 0.024476 0.441018
vt 0.024476 0.014331
vt 0.096406 0.014331
vt 0.096406 0.441018
vt 0.024416 0.441018
vt 0.024416 0.014331
vt 0.096122 0.014331
vt 0.096122 0.441018
vt 0.024133 0.441018
vt 0.024133 0.014331
vt 0.096554 0.014331
vt 0.096554 0.441018
vt 0.024565 0.441018
vt 0.024565 0.014331
vt 0.096063 0.014331
vt 0.096063 0.441018
vt 0.024073 0.441018
vt 0.024073 0.014331
vt 0.227638 0.462090
vt 0.268691 0.429799
vt 0.210828 0.353233
vt 0.165706 0.376499
vt 0.339054 0.350080
vt 0.365718 0.303047
vt 0.324682 0.272746
vt 0.288871 0.302387
vt 0.307024 0.392844
vt 0.250683 0.328143
vt 0.382729 0.251621
vt 0.392197 0.198819
vt 0.359538 0.238808
vt 0.260489 0.246833
vt 0.220933 0.256534
vt 0.345407 0.218253
vt 0.175181 0.267247
vt 0.302293 0.233851
vt 0.126013 0.278738
vt 0.296888 0.190573
vt 0.255411 0.185462
vt 0.212605 0.182601
vt 0.342194 0.194372
vt 0.168089 0.179135
vt 0.119665 0.174292
vt 0.227583 0.109711
vt 0.185868 0.091206
vt 0.349465 0.171321
vt 0.310485 0.145647
vt 0.139539 0.076534
vt 0.269117 0.128355
vt 0.307340 0.074739
vt 0.279298 0.033817
vt 0.367140 0.153339
vt 0.218787 0.020482
vt 0.338568 0.112769
vt 0.165814 0.017303
vt 0.385625 0.090924
vt 0.370048 0.038752
vt 0.359147 0.017303
vt 0.392519 0.145016
vt 0.386645 0.089886
vt 0.393654 0.143342
vt 0.368534 0.151671
vt 0.340171 0.111593
vt 0.371127 0.038440
vt 0.307231 0.074084
vt 0.360317 0.017303
vt 0.279543 0.033779
vt 0.391493 0.198839
vt 0.268826 0.126989
vt 0.227759 0.109524
vt 0.351005 0.169506
vt 0.219615 0.020069
vt 0.186493 0.091712
vt 0.310780 0.146622
vt 0.165320 0.017303
vt 0.140086 0.075951
vt 0.167805 0.178582
vt 0.118530 0.174898
vt 0.295126 0.190783
vt 0.255736 0.185704
vt 0.212807 0.182165
vt 0.343795 0.192458
vt 0.220091 0.256510
vt 0.175454 0.267074
vt 0.347065 0.216249
vt 0.300472 0.233925
vt 0.126196 0.278136
vt 0.262281 0.245236
vt 0.290432 0.300932
vt 0.252139 0.327571
vt 0.360996 0.236856
vt 0.210467 0.351832
vt 0.326751 0.271122
vt 0.164594 0.376673
vt 0.270455 0.430735
vt 0.227939 0.462087
vt 0.368168 0.301435
vt 0.341530 0.349606
vt 0.308495 0.392166
vt 0.384430 0.249489
vt 0.524968 0.188374
vt 0.453221 0.153823
vt 0.509003 0.083874
vt 0.544877 0.101150
vt 0.726000 0.091469
vt 0.743720 0.013832
vt 0.654253 0.013832
vt 0.645393 0.052651
vt 0.403570 0.091562
vt 0.385850 0.013925
vt 0.475318 0.013925
vt 0.484178 0.052744
vt 0.403570 0.091469
vt 0.453221 0.153729
vt 0.509003 0.083781
vt 0.484178 0.052651
vt 0.726000 0.091562
vt 0.676349 0.153823
vt 0.620567 0.083874
vt 0.645393 0.052744
vt 0.524968 0.188281
vt 0.604602 0.188281
vt 0.584694 0.101057
vt 0.544877 0.101057
vt 0.604602 0.188374
vt 0.584694 0.101150
vt 0.676349 0.153729
vt 0.620567 0.083781
vt 0.385850 0.013832
vt 0.475318 0.013832
vt 0.743720 0.013925
vt 0.654253 0.013925
vt 0.564785 0.013925
vt 0.564785 0.013833
s 0
usemtl Material.003
f 1/1/1 2/2/1 4/3/1 3/4/1
f 162/1/87 163/2/87 165/3/87 164/4/87
f 166/1/88 167/2/88 169/3/88 168/4/88
f 170/1/89 171/2/89 173/3/89 172/4/89
f 174/1/90 175/2/90 177/3/90 176/4/90
f 178/1/91 179/2/91 181/3/91 180/4/91
f 182/1/92 183/2/92 185/3/92 184/4/92
f 186/1/93 187/2/93 189/3/93 188/4/93
f 190/1/94 191/2/94 193/3/94 192/4/94
f 194/1/95 195/2/95 197/3/95 196/4/95
f 198/1/96 199/2/96 201/3/96 200/4/96
f 202/1/97 203/2/97 205/3/97 204/4/97
f 206/1/98 207/2/98 209/3/98 208/4/98
f 210/1/99 211/2/99 213/3/99 212/4/99
s 1
usemtl Material.002
f 5/5/2 6/6/2 8/7/3 7/8/3
f 7/9/3 8/10/3 10/11/4 9/12/4
f 9/13/4 10/14/4 12/15/5 11/16/5
f 11/17/5 12/18/5 14/19/6 13/20/6
f 13/21/6 14/22/6 16/23/7 15/24/7
f 15/25/7 16/26/7 18/27/8 17/28/8
f 17/29/8 18/30/8 20/31/9 19/32/9
f 19/33/9 20/34/9 22/35/10 21/36/10
f 21/37/10 22/38/10 24/39/11 23/40/11
f 23/41/11 24/42/11 26/43/12 25/44/12
f 25/45/12 26/46/12 28/47/13 27/48/13
f 27/49/13 28/50/13 30/51/14 29/52/14
f 29/53/14 30/54/14 32/55/15 31/56/15
f 31/57/15 32/58/15 6/59/2 5/60/2
usemtl Material.001
f 38/61/16 37/62/17 43/63/18 44/64/19
f 36/65/20 35/66/21 40/67/22 41/68/23
f 103/69/24 36/65/20 41/68/23 42/70/25
f 34/71/26 33/72/27 39/73/28
f 37/62/17 103/69/24 42/70/25 43/63/18
f 35/66/21 34/71/26 39/73/28 40/67/22
f 42/70/25 41/68/23 47/74/29 48/75/30
f 39/73/28 33/72/27 45/76/31
f 43/63/18 42/70/25 48/75/30 49/77/32
f 40/67/22 39/73/28 45/76/31 46/78/33
f 44/64/19 43/63/18 49/77/32 50/79/34
f 41/68/23 40/67/22 46/78/33 47/74/29
f 47/74/29 46/78/33 52/80/35 53/81/36
f 48/75/30 47/74/29 53/81/36 54/82/37
f 45/76/31 33/72/27 51/83/38
f 49/77/32 48/75/30 54/82/37 55/84/39
f 46/78/33 45/76/31 51/83/38 52/80/35
f 50/79/34 49/77/32 55/84/39 56/85/40
f 55/84/39 54/82/37 60/86/41 61/87/42
f 52/80/35 51/83/38 57/88/43 58/89/44
f 56/85/40 55/84/39 61/87/42 62/90/45
f 53/81/36 52/80/35 58/89/44 59/91/46
f 54/82/37 53/81/36 59/91/46 60/86/41
f 51/83/38 33/72/27 57/88/43
f 60/86/41 59/91/46 65/92/47 66/93/48
f 57/88/43 33/72/27 63/94/49
f 61/87/42 60/86/41 66/93/48 67/95/50
f 58/89/44 57/88/43 63/94/49 64/96/51
f 62/90/45 61/87/42 67/95/50 68/97/52
f 59/91/46 58/89/44 64/96/51 65/92/47
f 65/92/47 64/96/51 70/98/53 71/99/54
f 66/93/48 65/92/47 71/99/54 72/100/55
f 63/94/49 33/72/27 69/101/56
f 64/96/51 63/94/49 69/101/56 70/98/53
f 70/102/53 69/103/56 73/104/57 74/105/58
f 71/106/54 70/102/53 74/105/58 75/107/59
f 72/108/55 71/106/54 75/107/59 76/109/60
f 69/103/56 33/110/27 73/104/57
f 76/109/60 75/107/59 81/111/61 82/112/62
f 73/104/57 33/110/27 79/113/63
f 77/114/64 76/109/60 82/112/62 83/115/65
f 74/105/58 73/104/57 79/113/63 80/116/66
f 78/117/67 77/114/64 83/115/65 84/118/68
f 75/107/59 74/105/58 80/116/66 81/111/61
f 84/118/68 83/115/65 89/119/69 90/120/70
f 81/111/61 80/116/66 86/121/71 87/122/72
f 82/112/62 81/111/61 87/122/72 88/123/73
f 79/113/63 33/110/27 85/124/74
f 83/115/65 82/112/62 88/123/73 89/119/69
f 80/116/66 79/113/63 85/124/74 86/121/71
f 89/119/69 88/123/73 94/125/75 95/126/76
f 86/121/71 85/124/74 91/127/77 92/128/78
f 90/120/70 89/119/69 95/126/76 96/129/79
f 87/122/72 86/121/71 92/128/78 93/130/80
f 88/123/73 87/122/72 93/130/80 94/125/75
f 85/124/74 33/110/27 91/127/77
f 94/125/75 93/130/80 99/131/81 100/132/82
f 91/127/77 33/110/27 97/133/83
f 95/126/76 94/125/75 100/132/82 101/134/84
f 92/128/78 91/127/77 97/133/83 98/135/85
f 96/129/79 95/126/76 101/134/84 102/136/86
f 93/130/80 92/128/78 98/135/85 99/131/81
f 102/136/86 101/134/84 37/137/17 38/138/16
f 99/131/81 98/135/85 35/139/21 36/140/20
f 100/132/82 99/131/81 36/140/20 103/141/24
f 97/133/83 33/110/27 34/142/26
f 101/134/84 100/132/82 103/141/24 37/137/17
f 98/135/85 97/133/83 34/142/26 35/139/21
s 0
usemtl Material
f 107/143/27 106/144/27 125/145/27 127/146/27
f 112/147/27 111/148/27 129/149/27 131/150/27
f 105/151/27 104/152/27 122/153/27 119/154/27
f 117/155/27 116/156/27 121/157/27 124/158/27
f 110/159/27 109/160/27 126/161/27 128/162/27
f 115/163/27 114/164/27 130/165/27 118/166/27
f 108/167/27 107/143/27 127/146/27 120/168/27
f 113/169/27 112/147/27 131/150/27 123/170/27
f 104/171/27 117/155/27 124/158/27 122/172/27
f 106/144/27 105/151/27 119/154/27 125/145/27
f 111/173/27 110/159/27 128/162/27 129/174/27
f 116/156/27 115/163/27 118/166/27 121/157/27
f 109/160/27 108/167/27 120/168/27 126/161/27
f 114/164/27 113/169/27 123/170/27 130/165/27
f 135/143/27 134/144/27 146/175/27
f 140/147/27 139/148/27 146/176/27
f 133/151/27 132/152/27 146/175/27
f 145/155/27 144/156/27 146/176/27
f 138/159/27 137/160/27 146/175/27
f 143/163/27 142/164/27 146/176/27
f 136/167/27 135/143/27 146/175/27
f 141/169/27 140/147/27 146/176/27
f 132/171/27 145/155/27 146/176/27
f 134/144/27 133/151/27 146/175/27
f 139/173/27 138/159/27 146/175/27
f 144/156/27 143/163/27 146/176/27
f 137/160/27 136/167/27 146/175/27
f 142/164/27 141/169/27 146/176/27
f 150/143/27 149/144/27 161/175/27
f 155/147/27 154/148/27 161/176/27
f 148/151/27 147/152/27 161/175/27
f 160/155/27 159/156/27 161/176/27
f 153/159/27 152/160/27 161/175/27
f 158/163/27 157/164/27 161/176/27
f 151/167/27 150/143/27 161/175/27
f 156/169/27 155/147/27 161/176/27
f 147/171/27 160/155/27 161/176/27
f 149/144/27 148/151/27 161/175/27
f 154/173/27 153/159/27 161/175/27
f 159/156/27 158/163/27 161/176/27
f 152/160/27 151/167/27 161/175/27
f 157/164/27 156/169/27 161/176/27
o Cylinder.004
v -5.701142 1.127704 -0.608058
v -5.701142 1.555716 -0.608058
v -5.345640 1.127704 -0.718693
v -5.345640 1.555716 -0.718693
v -4.982450 1.127704 -0.636755
v -4.982450 1.555716 -0.636755
v -4.708886 1.127704 -0.384199
v -4.708886 1.555716 -0.384199
v -4.598250 1.127704 -0.028697
v -4.598250 1.555716 -0.028697
v -4.680189 1.127704 0.334494
v -4.680189 1.555716 0.334494
v -4.932745 1.127704 0.608058
v -4.932745 1.555716 0.608058
v -5.288246 1.127704 0.718693
v -5.288246 1.555716 0.718693
v -5.651437 1.127704 0.636755
v -5.651437 1.555716 0.636755
v -5.925001 1.127704 0.384199
v -5.925001 1.555716 0.384199
v -6.035636 1.127704 0.028697
v -6.035636 1.555716 0.028697
v -5.953698 1.127704 -0.334494
v -5.953698 1.555716 -0.334494
vn -0.2972 -0.0000 -0.9548
vn 0.2201 -0.0000 -0.9755
vn 0.6783 -0.0000 -0.7348
vn 0.9548 -0.0000 -0.2972
vn 0.9755 -0.0000 0.2201
vn 0.7348 -0.0000 0.6783
vn 0.2972 -0.0000 0.9548
vn -0.2201 -0.0000 0.9755
vn -0.6783 -0.0000 0.7348
vn -0.9548 -0.0000 0.2972
vn -0.9755 -0.0000 -0.2201
vn -0.7348 -0.0000 -0.6783
vt 0.184876 0.789640
vt 0.184337 0.979733
vt 0.018980 0.979264
vt 0.019519 0.789172
vt 0.515588 0.791653
vt 0.515049 0.981745
vt 0.349692 0.981276
vt 0.350231 0.791184
vt 0.184335 0.980808
vt 0.184873 0.790716
vt 0.018977 0.980339
vt 0.019516 0.790247
vt 0.515592 0.790335
vt 0.515053 0.980428
vt 0.349696 0.979959
vt 0.350234 0.789867
vt 0.184338 0.979491
vt 0.184877 0.789398
vt 0.018981 0.979022
vt 0.019520 0.788930
vt 0.019519 0.789293
vt 0.018980 0.979385
vt 0.184337 0.979854
vt 0.184876 0.789762
vt 0.349695 0.980322
vt 0.350233 0.790230
vt 0.515052 0.980791
vt 0.515591 0.790699
vt 0.515591 0.790577
vt 0.515052 0.980670
vt 0.349695 0.980201
vt 0.350234 0.790109
s 0
usemtl Material.004
f 214/177/100 215/178/100 217/179/100 216/180/100
f 216/181/101 217/182/101 219/183/101 218/184/101
f 218/184/102 219/183/102 221/185/102 220/186/102
f 220/186/103 221/185/103 223/187/103 222/188/103
f 222/189/104 223/190/104 225/191/104 224/192/104
f 224/192/105 225/191/105 227/193/105 226/194/105
f 226/194/106 227/193/106 229/195/106 228/196/106
f 228/197/107 229/198/107 231/199/107 230/200/107
f 230/200/108 231/199/108 233/201/108 232/202/108
f 232/202/109 233/201/109 235/203/109 234/204/109
f 234/205/110 235/206/110 237/207/110 236/208/110
f 236/208/111 237/207/111 215/178/111 214/177/111
o Cylinder.013
v -5.239169 1.447221 0.684743
v -5.310268 1.403209 0.723754
v -5.156738 1.222550 0.668032
v -5.352928 1.257553 0.791341
v -5.119620 1.031541 0.760253
v -5.315810 1.066544 0.883562
v -4.975590 0.919660 0.810784
v -5.171781 0.954663 0.934093
v -5.297207 1.435200 0.823347
v -5.242150 1.417745 0.619265
v -5.093945 1.192868 0.922038
v -5.059613 1.225019 0.684994
v -4.945603 1.329981 0.961918
v -4.992691 1.277536 0.702708
v -5.281067 1.441914 0.827127
v -5.226009 1.424458 0.623045
v -5.318151 1.448470 0.684743
v -5.251707 1.397703 0.723754
v -5.422199 1.232956 0.668032
v -5.223523 1.248568 0.791341
v -5.477853 1.046503 0.760253
v -5.279178 1.062115 0.883562
v -5.632152 0.949272 0.810784
v -5.433476 0.964884 0.934093
v -5.261570 1.430820 0.823347
v -5.318073 1.418843 0.619265
v -5.487598 1.209570 0.922038
v -5.518615 1.244930 0.684994
v -5.621792 1.360557 0.961918
v -5.580069 1.303751 0.702708
v -5.276975 1.439083 0.827127
v -5.333478 1.427106 0.623045
vn 0.5073 0.1705 0.8448
vn 0.5314 0.4498 0.7178
vn 0.4327 0.7693 0.4700
vn -0.7058 -0.6887 -0.1660
vn 0.6589 -0.7521 0.0138
vn 0.4498 0.8842 -0.1257
vn 0.4881 -0.2194 -0.8448
vn 0.4848 -0.4997 -0.7178
vn 0.3552 -0.8080 -0.4700
vn -0.6350 0.7545 0.1660
vn 0.7294 0.6840 -0.0138
vn 0.3610 -0.9241 0.1257
vt 0.515592 0.790335
vt 0.515053 0.980428
vt 0.349696 0.979959
vt 0.350234 0.789867
vt 0.184338 0.979491
vt 0.184877 0.789398
vt 0.018981 0.979022
vt 0.019520 0.788930
vt 0.019519 0.789293
vt 0.018980 0.979385
vt 0.184337 0.979854
vt 0.184876 0.789762
vt 0.349695 0.980322
vt 0.350233 0.790230
vt 0.515052 0.980791
vt 0.515591 0.790699
s 0
usemtl Material.004
f 238/209/112 239/210/112 241/211/112 240/212/112
f 240/212/113 241/211/113 243/213/113 242/214/113
f 242/214/114 243/213/114 245/215/114 244/216/114
f 246/217/115 247/218/115 249/219/115 248/220/115
f 248/220/116 249/219/116 251/221/116 250/222/116
f 250/222/117 251/221/117 253/223/117 252/224/117
f 254/209/118 255/210/118 257/211/118 256/212/118
f 256/212/119 257/211/119 259/213/119 258/214/119
f 258/214/120 259/213/120 261/215/120 260/216/120
f 262/217/121 263/218/121 265/219/121 264/220/121
f 264/220/122 265/219/122 267/221/122 266/222/122
f 266/222/123 267/221/123 269/223/123 268/224/123
o Cylinder.008
v -5.983936 1.448617 0.090424
v -6.033535 1.404605 0.026261
v -5.954603 1.223946 0.169251
v -6.106937 1.258949 -0.005363
v -6.039926 1.032937 0.220267
v -6.192259 1.067940 0.045653
v -6.067430 0.921056 0.370405
v -6.219765 0.956059 0.195791
v -6.129883 1.436596 0.054660
v -5.919720 1.419141 0.077292
v -6.195745 1.194264 0.270802
v -5.956245 1.226415 0.267833
v -6.212058 1.331377 0.423543
v -5.963331 1.278932 0.336696
v -6.131106 1.443310 0.071192
v -5.920943 1.425854 0.093824
v -5.996226 1.449866 0.012404
v -6.024423 1.399099 0.084110
v -5.995909 1.234352 -0.092976
v -6.086802 1.249964 0.122466
v -6.095666 1.047899 -0.133604
v -6.186559 1.063511 0.081839
v -6.169590 0.950668 -0.278160
v -6.260484 0.966280 -0.062718
v -6.124338 1.432216 0.089863
v -5.931533 1.420239 0.002293
v -6.256997 1.210966 -0.118056
v -6.027666 1.246326 -0.185579
v -6.317272 1.361953 -0.244411
v -6.054727 1.305147 -0.243528
v -6.130469 1.440479 0.075233
v -5.937665 1.428502 -0.012336
vn -0.7555 0.1705 0.6325
vn -0.6264 0.4498 0.6366
vn -0.3970 0.7693 0.5006
vn 0.0541 -0.6887 -0.7231
vn 0.0889 -0.7521 0.6530
vn 0.1941 0.8842 0.4248
vn 0.9104 -0.2194 0.3507
vn 0.7845 -0.4997 0.3672
vn 0.5196 -0.8080 0.2778
vn -0.2628 0.7545 -0.6014
vn 0.1271 0.6840 0.7184
vn -0.0680 -0.9241 0.3762
vt 0.515592 0.790335
vt 0.515053 0.980428
vt 0.349696 0.979959
vt 0.350234 0.789867
vt 0.184338 0.979491
vt 0.184877 0.789398
vt 0.018981 0.979022
vt 0.019520 0.788930
vt 0.019519 0.789293
vt 0.018980 0.979385
vt 0.184337 0.979854
vt 0.184876 0.789762
vt 0.349695 0.980322
vt 0.350233 0.790230
vt 0.515052 0.980791
vt 0.515591 0.790699
s 0
usemtl Material.004
f 270/225/124 271/226/124 273/227/124 272/228/124
f 272/228/125 273/227/125 275/229/125 274/230/125
f 274/230/126 275/229/126 277/231/126 276/232/126
f 278/233/127 279/234/127 281/235/127 280/236/127
f 280/236/128 281/235/128 283/237/128 282/238/128
f 282/238/129 283/237/129 285/239/129 284/240/129
f 286/225/130 287/226/130 289/227/130 288/228/130
f 288/228/131 289/227/131 291/229/131 290/230/131
f 290/230/132 291/229/132 293/231/132 292/232/132
f 294/233/133 295/234/133 297/235/133 296/236/133
f 296/236/134 297/235/134 299/237/134 298/238/134
f 298/238/135 299/237/135 301/239/135 300/240/135
o Cylinder.009
v -5.440824 1.447221 -0.679267
v -5.373634 1.403209 -0.724681
v -5.521358 1.222550 -0.655011
v -5.337402 1.257553 -0.795921
v -5.566839 1.031541 -0.743407
v -5.382884 1.066544 -0.884318
v -5.714922 0.919660 -0.780413
v -5.530966 0.954663 -0.921324
v -5.395843 1.435200 -0.822641
v -5.431806 1.417745 -0.614345
v -5.607355 1.192868 -0.902127
v -5.619635 1.225019 -0.662924
v -5.758748 1.329981 -0.928129
v -5.687908 1.277536 -0.674379
v -5.412263 1.441914 -0.824914
v -5.448226 1.424458 -0.616617
v -5.362180 1.448470 -0.686565
v -5.431945 1.397703 -0.719270
v -5.257033 1.232956 -0.679541
v -5.466254 1.248568 -0.783963
v -5.210139 1.046503 -0.776510
v -5.419359 1.062115 -0.880932
v -5.061170 0.949272 -0.841084
v -5.270390 0.964884 -0.945506
v -5.431327 1.430820 -0.819348
v -5.356207 1.418843 -0.621361
v -5.215386 1.209570 -0.938503
v -5.162597 1.244930 -0.705339
v -5.085451 1.360557 -0.990614
v -5.103043 1.303751 -0.728657
v -5.416337 1.439083 -0.824536
v -5.341218 1.427106 -0.626548
vn -0.5831 0.1705 -0.7943
vn -0.5955 0.4498 -0.6656
vn -0.4743 0.7693 -0.4280
vn 0.7182 -0.6887 0.1000
vn -0.6573 -0.7521 0.0471
vn -0.4363 0.8842 0.1667
vn -0.4080 -0.2194 0.8862
vn -0.4164 -0.4997 0.7595
vn -0.3103 -0.8080 0.5009
vn 0.6169 0.7545 -0.2239
vn -0.7250 0.6840 0.0812
vn -0.3711 -0.9241 -0.0918
vt 0.515592 0.790335
vt 0.515053 0.980428
vt 0.349696 0.979959
vt 0.350234 0.789867
vt 0.184338 0.979491
vt 0.184877 0.789398
vt 0.018981 0.979022
vt 0.019520 0.788930
vt 0.019519 0.789293
vt 0.018980 0.979385
vt 0.184337 0.979854
vt 0.184876 0.789762
vt 0.349695 0.980322
vt 0.350233 0.790230
vt 0.515052 0.980791
vt 0.515591 0.790699
s 0
usemtl Material.004
f 302/241/136 303/242/136 305/243/136 304/244/136
f 304/244/137 305/243/137 307/245/137 306/246/137
f 306/246/138 307/245/138 309/247/138 308/248/138
f 310/249/139 311/250/139 313/251/139 312/252/139
f 312/252/140 313/251/140 315/253/140 314/254/140
f 314/254/141 315/253/141 317/255/141 316/256/141
f 318/241/142 319/242/142 321/243/142 320/244/142
f 320/244/143 321/243/143 323/245/143 322/246/143
f 322/246/144 323/245/144 325/247/144 324/248/144
f 326/249/145 327/250/145 329/251/145 328/252/145
f 328/252/146 329/251/146 331/253/146 330/254/146
f 330/254/147 331/253/147 333/255/147 332/256/147
o Cylinder.014
v -4.644324 1.448617 -0.156313
v -4.589008 1.404605 -0.097008
v -4.680816 1.223946 -0.232092
v -4.512999 1.258949 -0.072302
v -4.600573 1.032937 -0.290774
v -4.432755 1.067940 -0.130984
v -4.587059 0.921056 -0.442811
v -4.419242 0.956059 -0.283021
v -4.495697 1.436596 -0.134188
v -4.707052 1.419141 -0.137303
v -4.450090 1.194264 -0.355492
v -4.688291 1.226415 -0.330404
v -4.447962 1.331377 -0.509087
v -4.687598 1.278932 -0.399627
v -4.496007 1.443310 -0.150762
v -4.707363 1.425854 -0.153877
v -4.624878 1.449866 -0.079763
v -4.603427 1.399099 -0.153767
v -4.615456 1.234352 0.025196
v -4.544860 1.249964 -0.197724
v -4.512371 1.047899 0.056431
v -4.441775 1.063511 -0.166489
v -4.425405 0.950668 0.193539
v -4.354809 0.966280 -0.029381
v -4.504471 1.432216 -0.168728
v -4.688359 1.420239 -0.063717
v -4.353168 1.210966 0.026042
v -4.575278 1.246326 0.114468
v -4.281474 1.361953 0.146287
v -4.542978 1.305147 0.169669
v -4.497015 1.440479 -0.154728
v -4.680902 1.428502 -0.049717
vn 0.6939 0.1705 -0.6996
vn 0.5649 0.4498 -0.6918
vn 0.3490 0.7693 -0.5351
vn 0.0129 -0.6887 0.7250
vn -0.1488 -0.7521 -0.6420
vn -0.2326 0.8842 -0.4050
vn -0.9389 -0.2194 -0.2651
vn -0.8151 -0.4997 -0.2931
vn -0.5430 -0.8080 -0.2286
vn 0.3172 0.7545 0.5746
vn -0.1930 0.6840 -0.7035
vn 0.0329 -0.9241 -0.3808
vt 0.515592 0.790335
vt 0.515053 0.980428
vt 0.349696 0.979959
vt 0.350234 0.789867
vt 0.184338 0.979491
vt 0.184877 0.789398
vt 0.018981 0.979022
vt 0.019520 0.788930
vt 0.019519 0.789293
vt 0.018980 0.979385
vt 0.184337 0.979854
vt 0.184876 0.789762
vt 0.349695 0.980322
vt 0.350233 0.790230
vt 0.515052 0.980791
vt 0.515591 0.790699
s 0
usemtl Material.004
f 334/257/148 335/258/148 337/259/148 336/260/148
f 336/260/149 337/259/149 339/261/149 338/262/149
f 338/262/150 339/261/150 341/263/150 340/264/150
f 342/265/151 343/266/151 345/267/151 344/268/151
f 344/268/152 345/267/152 347/269/152 346/270/152
f 346/270/153 347/269/153 349/271/153 348/272/153
f 350/257/154 351/258/154 353/259/154 352/260/154
f 352/260/155 353/259/155 355/261/155 354/262/155
f 354/262/156 355/261/156 357/263/156 356/264/156
f 358/265/157 359/266/157 361/267/157 360/268/157
f 360/268/158 361/267/158 363/269/158 362/270/158
f 362/270/159 363/269/159 365/271/159 364/272/159
