# Blender 5.1.0
# www.blender.org
mtllib donut stand.mtl
o donut_stand
v -1.522452 0.595910 7.977799
v -1.431781 0.595910 7.977799
v -1.522452 0.321995 8.040318
v -1.431781 0.321995 8.040318
v -1.522452 0.102332 8.215493
v -1.431781 0.102332 8.215493
v -1.522452 -0.019572 8.468629
v -1.431781 -0.019572 8.468629
v -1.522452 -0.019572 8.749588
v -1.431781 -0.019572 8.749588
v -1.522452 0.102332 9.002724
v -1.431781 0.102332 9.002724
v -1.522452 0.321995 9.177898
v -1.431781 0.321995 9.177898
v -1.522452 0.595910 9.240417
v -1.431781 0.595910 9.240417
v -1.522452 0.869825 9.177898
v -1.431781 0.869825 9.177898
v -1.522452 1.089487 9.002724
v -1.431781 1.089487 9.002724
v -1.522452 1.211391 8.749588
v -1.431781 1.211391 8.749588
v -1.522452 1.211391 8.468629
v -1.431781 1.211391 8.468629
v -1.522452 1.089487 8.215493
v -1.431781 1.089487 8.215493
v -1.522452 0.869825 8.040318
v -1.431781 0.869825 8.040318
v -1.518826 0.595910 8.028285
v -1.518826 0.343900 8.085804
v -1.435406 0.343900 8.085804
v -1.435406 0.595910 8.028285
v -1.518826 0.141803 8.246970
v -1.435406 0.141803 8.246970
v -1.518826 0.029648 8.479863
v -1.435406 0.029648 8.479863
v -1.518826 0.029648 8.738354
v -1.435406 0.029648 8.738354
v -1.518826 0.141803 8.971246
v -1.435406 0.141803 8.971246
v -1.518826 0.343900 9.132412
v -1.435406 0.343900 9.132412
v -1.518826 0.595910 9.189932
v -1.435406 0.595910 9.189932
v -1.518826 0.847920 9.132412
v -1.435406 0.847920 9.132412
v -1.518826 1.050016 8.971246
v -1.435406 1.050016 8.971246
v -1.518826 1.162171 8.738354
v -1.435406 1.162171 8.738354
v -1.518826 1.162171 8.479863
v -1.435406 1.162171 8.479863
v -1.518826 1.050016 8.246970
v -1.435406 1.050016 8.246970
v -1.518826 0.847920 8.085804
v -1.435406 0.847920 8.085804
v -1.476457 0.595910 8.028285
v -1.476457 0.343900 8.085804
v -1.476457 0.141803 8.246970
v -1.476457 0.029648 8.479863
v -1.476457 0.029648 8.738354
v -1.476457 0.141803 8.971246
v -1.476457 0.343900 9.132412
v -1.476457 0.595910 9.189932
v -1.476457 0.847920 9.132412
v -1.476457 1.050016 8.971246
v -1.476457 1.162171 8.738354
v -1.476457 1.162171 8.479863
v -1.476457 1.050016 8.246970
v -1.476457 0.847920 8.085804
v -1.476457 0.595910 8.568784
v -1.476457 0.578414 8.572777
v -1.476457 0.564383 8.583966
v -1.476457 0.556596 8.600135
v -1.476457 0.556596 8.618081
v -1.476457 0.564383 8.634251
v -1.476457 0.578414 8.645439
v -1.476457 0.595910 8.649433
v -1.476457 0.613406 8.645439
v -1.476457 0.627437 8.634251
v -1.476457 0.635223 8.618081
v -1.476457 0.635223 8.600135
v -1.476457 0.627437 8.583966
v -1.476457 0.613406 8.572777
v -1.494578 0.595910 8.575774
v -1.494578 0.581446 8.579075
v -1.494578 0.569848 8.588325
v -1.494578 0.563411 8.601690
v -1.494578 0.563411 8.616526
v -1.494578 0.569848 8.629892
v -1.494578 0.581446 8.639142
v -1.494578 0.595910 8.642443
v -1.494578 0.610373 8.639142
v -1.494578 0.621972 8.629892
v -1.494578 0.628408 8.616526
v -1.494578 0.628408 8.601690
v -1.494578 0.621972 8.588325
v -1.494578 0.610373 8.579075
v -1.494578 0.595910 8.609108
v -0.212243 0.595910 7.977799
v -0.302914 0.595910 7.977799
v -0.212243 0.321995 8.040318
v -0.302914 0.321995 8.040318
v -0.212243 0.102332 8.215493
v -0.302914 0.102332 8.215493
v -0.212243 -0.019572 8.468629
v -0.302914 -0.019572 8.468629
v -0.212243 -0.019572 8.749588
v -0.302914 -0.019572 8.749588
v -0.212243 0.102332 9.002724
v -0.302914 0.102332 9.002724
v -0.212243 0.321995 9.177898
v -0.302914 0.321995 9.177898
v -0.212243 0.595910 9.240417
v -0.302914 0.595910 9.240417
v -0.212243 0.869825 9.177898
v -0.302914 0.869825 9.177898
v -0.212243 1.089487 9.002724
v -0.302914 1.089487 9.002724
v -0.212243 1.211391 8.749588
v -0.302914 1.211391 8.749588
v -0.212243 1.211391 8.468629
v -0.302914 1.211391 8.468629
v -0.212243 1.089487 8.215493
v -0.302914 1.089487 8.215493
v -0.212243 0.869825 8.040318
v -0.302914 0.869825 8.040318
v -0.215868 0.595910 8.028285
v -0.215868 0.343900 8.085804
v -0.299288 0.343900 8.085804
v -0.299288 0.595910 8.028285
v -0.215868 0.141803 8.246970
v -0.299288 0.141803 8.246970
v -0.215868 0.029648 8.479863
v -0.299288 0.029648 8.479863
v -0.215868 0.029648 8.738354
v -0.299288 0.029648 8.738354
v -0.215868 0.141803 8.971246
v -0.299288 0.141803 8.971246
v -0.215868 0.343900 9.132412
v -0.299288 0.343900 9.132412
v -0.215868 0.595910 9.189932
v -0.299288 0.595910 9.189932
v -0.215868 0.847920 9.132412
v -0.299288 0.847920 9.132412
v -0.215868 1.050016 8.971246
v -0.299288 1.050016 8.971246
v -0.215868 1.162171 8.738354
v -0.299288 1.162171 8.738354
v -0.215868 1.162171 8.479863
v -0.299288 1.162171 8.479863
v -0.215868 1.050016 8.246970
v -0.299288 1.050016 8.246970
v -0.215868 0.847920 8.085804
v -0.299288 0.847920 8.085804
v -0.258237 0.595910 8.028285
v -0.258237 0.343900 8.085804
v -0.258237 0.141803 8.246970
v -0.258237 0.029648 8.479863
v -0.258237 0.029648 8.738354
v -0.258237 0.141803 8.971246
v -0.258237 0.343900 9.132412
v -0.258237 0.595910 9.189932
v -0.258237 0.847920 9.132412
v -0.258237 1.050016 8.971246
v -0.258237 1.162171 8.738354
v -0.258237 1.162171 8.479863
v -0.258237 1.050016 8.246970
v -0.258237 0.847920 8.085804
v -0.258237 0.595910 8.568784
v -0.258237 0.578414 8.572777
v -0.258237 0.564383 8.583966
v -0.258237 0.556596 8.600135
v -0.258237 0.556596 8.618081
v -0.258237 0.564383 8.634251
v -0.258237 0.578414 8.645439
v -0.258237 0.595910 8.649433
v -0.258237 0.613406 8.645439
v -0.258237 0.627437 8.634251
v -0.258237 0.635223 8.618081
v -0.258237 0.635223 8.600135
v -0.258237 0.627437 8.583966
v -0.258237 0.613406 8.572777
v -0.240117 0.595910 8.575774
v -0.240117 0.581446 8.579075
v -0.240117 0.569848 8.588325
v -0.240117 0.563411 8.601690
v -0.240117 0.563411 8.616526
v -0.240117 0.569848 8.629892
v -0.240117 0.581446 8.639142
v -0.240117 0.595910 8.642443
v -0.240117 0.610373 8.639142
v -0.240117 0.621972 8.629892
v -0.240117 0.628408 8.616526
v -0.240117 0.628408 8.601690
v -0.240117 0.621972 8.588325
v -0.240117 0.610373 8.579075
v -0.240117 0.595910 8.609108
v -0.363776 2.091778 5.962386
v -0.364758 0.663747 5.962386
v -0.363776 2.091778 9.018860
v -0.363776 0.663747 9.018860
v -1.375857 2.091778 5.962386
v -1.374689 0.663747 5.962386
v -1.375857 2.091778 9.018860
v -1.375857 0.663747 9.018860
v -0.302336 2.085990 9.092070
v -1.692480 2.085990 9.092070
v -0.302336 2.085990 5.889176
v -1.692480 2.085990 5.889176
v -0.302336 2.146436 9.092070
v -1.692480 2.146436 9.092070
v -0.302336 2.146436 5.889176
v -1.692480 2.146436 5.889176
v -0.363218 0.663747 6.249682
v -1.376826 0.663747 6.251089
v -1.692480 2.085990 6.245419
v -1.376606 2.091374 6.241891
v -1.692480 2.146436 6.245323
v -0.426309 0.663747 6.065790
v -0.302336 2.146436 6.250731
v -0.363776 2.091778 6.253499
v -0.302336 2.085990 6.251026
v -1.313323 0.663747 6.065790
v -0.426309 0.663747 6.146740
v -1.313323 0.663747 6.147228
v -0.439029 -0.017459 6.146740
v -1.233466 -0.017459 6.147168
v -0.439029 -0.017459 6.065790
v -1.217004 0.663747 6.065790
v -1.297101 -0.017459 6.065790
v -0.514606 0.663746 6.065790
v -0.501888 -0.017459 6.065790
v -0.501897 -0.017459 6.146808
v -0.514619 0.663748 6.146808
v -1.233275 -0.017459 6.065790
v -1.297101 -0.017459 6.147228
v -1.217292 0.663747 6.147168
v -0.497867 1.956550 5.407067
v -0.497867 1.926674 5.432685
v -0.497867 1.933922 5.471367
v -0.497867 1.971045 5.484431
v -0.497867 2.000921 5.458814
v -0.497867 1.993673 5.420131
v -0.497867 1.952731 5.386690
v -0.497867 1.907117 5.425803
v -0.497867 1.918183 5.484863
v -0.497867 1.974863 5.504809
v -0.497867 2.030496 5.470795
v -0.497867 2.009412 5.406636
v -0.436070 1.952731 5.386690
v -0.436070 1.907117 5.425803
v -0.436070 1.918183 5.484863
v -0.436070 1.974863 5.504809
v -0.436070 2.030496 5.470795
v -0.436070 2.009412 5.406636
v -0.436070 1.963797 5.445749
v -0.497867 1.987345 5.650295
v -0.497867 1.930554 5.656706
v -0.497867 2.042866 5.642638
v -0.436070 1.987345 5.650295
v -0.436070 1.930554 5.656706
v -0.436070 2.042866 5.642638
v -0.497867 1.932317 5.964573
v -0.497867 1.875637 5.963964
v -0.497867 1.987949 5.963820
v -0.436070 1.932317 5.964573
v -0.436070 1.875637 5.963964
v -0.436070 1.987949 5.963820
v -1.216085 1.956684 5.406734
v -1.216085 1.926808 5.432352
v -1.216085 1.934056 5.471034
v -1.216085 1.971179 5.484098
v -1.216085 2.001055 5.458480
v -1.216085 1.993808 5.419798
v -1.216085 1.952866 5.386356
v -1.216085 1.907252 5.425469
v -1.216085 1.918317 5.484529
v -1.216085 1.974998 5.504476
v -1.216085 2.030630 5.470461
v -1.216085 2.009546 5.406303
v -1.277882 1.952866 5.386356
v -1.277882 1.907252 5.425469
v -1.277882 1.918317 5.484529
v -1.277882 1.974998 5.504476
v -1.277882 2.030630 5.470461
v -1.277882 2.009546 5.406303
v -1.277882 1.963932 5.445415
v -1.216085 1.987480 5.649962
v -1.216085 1.930688 5.656373
v -1.216085 2.043000 5.642304
v -1.277882 1.987480 5.649962
v -1.277882 1.930688 5.656373
v -1.277882 2.043000 5.642304
v -1.216085 1.932451 5.964240
v -1.216085 1.875771 5.963632
v -1.216085 1.988083 5.963487
v -1.277882 1.932451 5.964240
v -1.277882 1.875771 5.963632
v -1.277882 1.988083 5.963487
v -1.306708 2.854820 6.299670
v -1.355340 2.174564 6.245986
v -0.680159 2.854820 6.299670
v -0.674964 2.174564 6.245986
v -1.386480 2.145721 6.200054
v -0.628632 2.145721 6.200054
v -1.337340 2.145721 6.272534
v -0.663287 2.145721 6.272534
v -1.306708 2.854820 8.715328
v -1.355340 2.174564 8.769012
v -0.680159 2.854820 8.715328
v -0.674964 2.174564 8.769012
v -1.386480 2.145721 8.814944
v -0.628632 2.145721 8.814944
v -1.337340 2.145721 8.742464
v -0.663287 2.145721 8.742464
v -1.377211 2.870378 8.804013
v -1.377211 2.905212 8.804013
v -1.377211 2.870378 6.210859
v -1.377211 2.905212 6.210859
v -0.601563 2.870378 8.804013
v -0.601563 2.905212 8.804013
v -0.601563 2.870378 6.210859
v -0.601563 2.905212 6.210859
v -1.307877 2.171985 8.150808
v -1.307877 2.150193 8.150808
v -0.491757 2.171985 8.150808
v -0.491757 2.150193 8.150808
v -1.307877 2.171985 8.727966
v -1.307877 2.150193 8.727966
v -0.491757 2.171985 8.727967
v -0.491757 2.150193 8.727967
v -0.542374 2.159776 8.186604
v -1.257260 2.159776 8.186604
v -0.542374 2.159776 8.692170
v -1.257260 2.159776 8.692170
v -1.307877 2.171985 7.540794
v -1.307877 2.150193 7.540794
v -0.491757 2.171985 7.540794
v -0.491757 2.150193 7.540794
v -1.307877 2.171985 8.117952
v -1.307877 2.150193 8.117952
v -0.491757 2.171985 8.117952
v -0.491757 2.150193 8.117952
v -0.542374 2.159776 7.576591
v -1.257260 2.159776 7.576591
v -0.542374 2.159776 8.082156
v -1.257260 2.159776 8.082156
v -1.307877 2.171985 6.921597
v -1.307877 2.150193 6.921597
v -0.491757 2.171985 6.921597
v -0.491757 2.150193 6.921597
v -1.307877 2.171985 7.498755
v -1.307877 2.150193 7.498755
v -0.491757 2.171985 7.498755
v -0.491757 2.150193 7.498755
v -0.542374 2.159776 6.957394
v -1.257260 2.159776 6.957394
v -0.542374 2.159776 7.462959
v -1.257260 2.159776 7.462959
v -1.307877 2.171985 6.305457
v -1.307877 2.150193 6.305457
v -0.491757 2.171985 6.305457
v -0.491757 2.150193 6.305457
v -1.307877 2.171985 6.882615
v -1.307877 2.150193 6.882615
v -0.491757 2.171985 6.882615
v -0.491757 2.150193 6.882615
v -0.542374 2.159776 6.341253
v -1.257260 2.159776 6.341253
v -0.542374 2.159776 6.846819
v -1.257260 2.159776 6.846819
v -1.062972 2.907636 6.398217
v -1.062972 2.907636 6.654642
v -0.729383 2.907636 6.398217
v -0.729383 2.907636 6.654642
v -0.635501 3.030748 6.326051
v -1.156855 3.030748 6.326051
v -1.156855 3.030748 6.726808
v -0.635501 3.030748 6.726808
v -0.452789 2.132699 5.997407
v -0.452789 5.331395 5.997407
v -0.452789 2.132699 6.030188
v -0.452789 5.331395 6.030188
v -0.420008 2.132699 5.997407
v -0.420008 5.331395 5.997407
v -0.420008 2.132699 6.030188
v -0.420008 5.331395 6.030188
v -0.452789 2.132699 8.998349
v -0.452789 5.331395 8.998349
v -0.452789 2.132699 8.965569
v -0.452789 5.331395 8.965569
v -0.420008 2.132699 8.998349
v -0.420008 5.331395 8.998349
v -0.420008 2.132699 8.965569
v -0.420008 5.331395 8.965569
v -1.331989 2.137063 8.998349
v -1.331989 4.949586 8.998349
v -1.331989 2.137063 8.965569
v -1.331989 4.949586 8.965569
v -1.299208 2.137063 8.998349
v -1.299208 4.949586 8.998349
v -1.299208 2.137063 8.965569
v -1.299208 4.949586 8.965569
v -1.331989 2.137063 5.997407
v -1.331989 4.949586 5.997407
v -1.331989 2.137063 6.030188
v -1.331989 4.949586 6.030188
v -1.299208 2.137063 5.997407
v -1.299208 4.949586 5.997407
v -1.299208 2.137063 6.030188
v -1.299208 4.949586 6.030188
v -1.779094 4.790684 9.067122
v -0.204871 5.447062 9.067122
v -1.779094 4.790684 9.067122
v -1.779094 4.375413 9.067122
v -0.204871 5.031791 9.067122
v -1.779094 4.375413 9.067122
v -1.779094 4.790684 5.928637
v -0.204871 5.447062 5.928637
v -1.779094 4.790684 5.928637
v -1.779094 4.375413 5.928637
v -0.204871 5.031791 5.928637
v -1.779094 4.375413 5.928637
v -0.846454 3.402837 8.173639
v -1.194177 2.911955 8.058375
v -0.979767 3.402837 8.575811
v -1.327490 2.911955 8.460547
v -0.745879 2.907864 8.206979
v -0.879192 2.907864 8.609151
vn -0.0000 -0.2225 -0.9749
vn -0.0000 -0.6235 -0.7818
vn -0.0000 -0.9010 -0.4339
vn -0.0000 -1.0000 -0.0000
vn -0.0000 -0.9010 0.4339
vn -0.0000 -0.6235 0.7818
vn -0.0000 -0.2225 0.9749
vn -0.0000 0.2225 0.9749
vn -0.0000 0.6235 0.7818
vn -0.0000 0.9010 0.4339
vn -0.0000 1.0000 -0.0000
vn -0.0000 0.9010 -0.4339
vn 0.9973 -0.0662 0.0319
vn -0.0000 0.6235 -0.7818
vn -0.0000 0.2225 -0.9749
vn 0.9973 0.0662 0.0319
vn -0.9973 -0.0163 -0.0716
vn 0.9973 -0.0163 -0.0716
vn -0.9973 0.0735 -0.0000
vn -0.9973 -0.0458 0.0574
vn 0.9973 0.0735 -0.0000
vn 0.9973 -0.0458 0.0574
vn -0.9973 -0.0458 -0.0574
vn 0.9973 -0.0458 -0.0574
vn -0.9973 0.0662 -0.0319
vn -0.9973 -0.0163 0.0716
vn -0.9973 0.0163 0.0716
vn 0.9973 0.0662 -0.0319
vn 0.9973 -0.0163 0.0716
vn 0.9973 0.0163 0.0716
vn -0.9973 -0.0662 -0.0319
vn 0.9973 -0.0662 -0.0319
vn -0.9973 0.0458 -0.0574
vn 0.9973 0.0458 -0.0574
vn -0.9973 0.0458 0.0574
vn -0.9973 -0.0735 -0.0000
vn 0.9973 0.0458 0.0574
vn 0.9973 -0.0735 -0.0000
vn -0.9973 0.0163 -0.0716
vn 0.9973 0.0163 -0.0716
vn -0.9973 0.0662 0.0319
vn -0.9973 -0.0662 0.0319
vn -1.0000 -0.0000 -0.0000
vn -0.3520 0.8433 0.4061
vn -0.3520 -0.5836 -0.7318
vn -0.3520 0.5836 0.7318
vn -0.3520 -0.2083 -0.9125
vn -0.3520 0.2083 0.9125
vn -0.3520 -0.2083 0.9125
vn -0.3520 0.2083 -0.9125
vn -0.3520 -0.5836 0.7318
vn -0.3520 0.5836 -0.7318
vn -0.3520 -0.8433 0.4061
vn -0.3520 0.8433 -0.4061
vn -0.3520 -0.9360 -0.0000
vn -0.3520 0.9360 -0.0000
vn -0.3520 -0.8433 -0.4061
vn 1.0000 -0.0000 -0.0000
vn 0.3520 0.8433 0.4061
vn 0.3520 -0.5836 -0.7318
vn 0.3520 0.5836 0.7318
vn 0.3520 -0.2083 -0.9125
vn 0.3520 0.2083 0.9125
vn 0.3520 -0.2083 0.9125
vn 0.3520 0.2083 -0.9125
vn 0.3520 -0.5836 0.7318
vn 0.3520 0.5836 -0.7318
vn 0.3520 -0.8433 0.4061
vn 0.3520 0.8433 -0.4061
vn 0.3520 -0.9360 -0.0000
vn 0.3520 0.9360 -0.0000
vn 0.3520 -0.8433 -0.4061
vn -0.0000 -0.0000 1.0000
vn -1.0000 0.0001 0.0003
vn 1.0000 -0.0001 -0.0027
vn -0.0000 -0.0000 -1.0000
vn -0.0938 -0.9956 -0.0000
vn 0.0177 -0.9998 -0.0006
vn -0.0000 -0.9969 0.0788
vn -0.0000 -0.9969 -0.0788
vn 0.0177 -0.9998 0.0001
vn -1.0000 -0.0003 -0.0051
vn 1.0000 0.0002 0.0001
vn 0.0009 -0.0000 1.0000
vn 0.9998 -0.0187 -0.0000
vn 0.0008 -0.0000 1.0000
vn 0.9997 -0.0238 0.0029
vn -0.9997 -0.0238 -0.0000
vn -0.9998 -0.0187 -0.0001
vn -0.0003 -0.9829 0.1842
vn -0.0005 -0.3320 0.9433
vn -0.0002 0.6509 0.7591
vn 0.0003 0.9829 -0.1842
vn 0.0005 0.3320 -0.9433
vn -0.0000 -0.9829 0.1842
vn -0.0000 0.9500 -0.3122
vn -0.0000 -0.6509 -0.7591
vn -0.0000 0.3320 -0.9433
vn -0.0000 -0.9974 0.0718
vn -0.0000 -0.9844 -0.1759
vn -0.0000 0.9974 -0.0718
vn -0.0000 -0.0107 0.9999
vn -0.0000 0.0135 0.9999
vn -0.0000 0.9857 0.1685
vn 0.0002 -0.6509 -0.7591
vn -0.6795 0.7337 -0.0000
vn -0.0000 0.0787 -0.9969
vn -0.0000 0.8469 -0.5318
vn 0.8484 0.5294 -0.0000
vn -0.0000 0.6772 0.7358
vn 0.7175 0.6062 0.3431
vn -0.0000 0.0787 0.9969
vn -0.0000 0.8469 0.5318
vn -0.0000 0.6772 -0.7358
vn 0.7175 0.6062 -0.3431
vn -0.9975 0.0713 -0.0000
vn -0.2345 0.9721 -0.0000
vn -0.0000 0.9465 0.3228
vn -0.0000 0.9465 -0.3228
vn 0.2345 0.9721 -0.0000
vn 0.7952 -0.6064 -0.0000
vn -0.7952 -0.6064 -0.0000
vn -0.0000 -0.5057 0.8627
vn -0.0000 -0.5057 -0.8627
vn -0.3848 0.9230 -0.0000
vn -0.7607 0.5981 -0.2522
vn 0.9282 0.2093 0.3077
vt 0.480005 0.091659
vt 0.479956 0.117180
vt 0.515855 0.118463
vt 0.516053 0.093397
vt 0.479742 0.142396
vt 0.516053 0.142939
vt 0.479141 0.167689
vt 0.516831 0.167530
vt 0.477250 0.193671
vt 0.519533 0.193009
vt 0.476678 0.016101
vt 0.478717 0.041337
vt 0.516721 0.042698
vt 0.519228 0.016621
vt 0.479696 0.066787
vt 0.516109 0.067765
vt 0.479926 0.092318
vt 0.516052 0.092929
vt 0.479941 0.117487
vt 0.516064 0.118430
vt 0.479730 0.142686
vt 0.516347 0.143533
vt 0.479095 0.168002
vt 0.517060 0.168365
vt 0.477138 0.193989
vt 0.519665 0.193989
vt 0.476567 0.015895
vt 0.478646 0.041056
vt 0.517097 0.041965
vt 0.519543 0.015546
vt 0.533430 0.042431
vt 0.536372 0.017435
vt 0.479556 0.066155
vt 0.516353 0.067716
vt 0.532946 0.166916
vt 0.531748 0.142790
vt 0.463000 0.066974
vt 0.434143 0.067955
vt 0.434410 0.092072
vt 0.463644 0.092337
vt 0.463468 0.142232
vt 0.433754 0.139998
vt 0.432805 0.164102
vt 0.462862 0.167286
vt 0.463713 0.117412
vt 0.532484 0.118406
vt 0.532237 0.092916
vt 0.460735 0.192059
vt 0.462375 0.041549
vt 0.463225 0.066372
vt 0.536372 0.191037
vt 0.532927 0.067882
vt 0.463456 0.142514
vt 0.532228 0.143416
vt 0.460211 0.017682
vt 0.462395 0.041814
vt 0.463348 0.091719
vt 0.463672 0.117117
vt 0.532824 0.043178
vt 0.535890 0.018529
vt 0.532249 0.093511
vt 0.531826 0.118499
vt 0.462805 0.167583
vt 0.533278 0.167784
vt 0.532208 0.067860
vt 0.460604 0.192355
vt 0.536579 0.192048
vt 0.460108 0.017494
vt 0.432866 0.164318
vt 0.431450 0.189124
vt 0.431450 0.188965
vt 0.434341 0.116204
vt 0.432708 0.020425
vt 0.433739 0.043736
vt 0.434339 0.091511
vt 0.434219 0.115792
vt 0.432497 0.020658
vt 0.433559 0.044103
vt 0.433861 0.140292
vt 0.434222 0.067411
vt 0.050878 0.854985
vt 0.109164 0.824215
vt 0.110591 0.825875
vt 0.071427 0.878887
vt 0.050932 0.854938
vt 0.109219 0.824168
vt 0.108654 0.822054
vt 0.042789 0.824487
vt 0.112596 0.826751
vt 0.100312 0.891506
vt 0.109061 0.819904
vt 0.048664 0.793519
vt 0.114783 0.826670
vt 0.131811 0.890342
vt 0.110362 0.818144
vt 0.067394 0.768166
vt 0.116719 0.825649
vt 0.159687 0.875627
vt 0.067339 0.768213
vt 0.110307 0.818191
vt 0.109007 0.819951
vt 0.048609 0.793566
vt 0.159741 0.875580
vt 0.116773 0.825602
vt 0.114838 0.826623
vt 0.131866 0.890295
vt 0.108599 0.822102
vt 0.042734 0.824534
vt 0.112651 0.826704
vt 0.100367 0.891459
vt 0.110646 0.825828
vt 0.071482 0.878840
vt 0.030133 0.882229
vt 0.032929 0.865166
vt 0.036317 0.864787
vt 0.034473 0.883352
vt 0.025921 0.880900
vt 0.030015 0.864789
vt 0.032997 0.865068
vt 0.030229 0.882121
vt 0.025825 0.881008
vt 0.029930 0.864880
vt 0.021648 0.879581
vt 0.027255 0.863966
vt 0.021550 0.879689
vt 0.027153 0.864052
vt 0.017310 0.878274
vt 0.024471 0.862638
vt 0.017408 0.878167
vt 0.024592 0.862558
vt 0.013092 0.876761
vt 0.021811 0.860424
vt 0.013191 0.876655
vt 0.021950 0.860345
vt 0.009130 0.875253
vt 0.019194 0.856892
vt 0.008999 0.875059
vt 0.019450 0.856912
vt 0.034568 0.883245
vt 0.036369 0.864680
vt 0.040367 0.863222
vt 0.038944 0.884275
vt 0.040468 0.863315
vt 0.038608 0.884326
vt 0.763077 0.393346
vt 0.763077 0.386758
vt 0.969032 0.386757
vt 0.969032 0.393345
vt 0.763077 0.353818
vt 0.763077 0.347230
vt 0.969032 0.347229
vt 0.969032 0.353817
vt 0.763077 0.307701
vt 0.763077 0.301113
vt 0.969032 0.301113
vt 0.969032 0.307701
vt 0.763077 0.360406
vt 0.969032 0.360405
vt 0.763077 0.314289
vt 0.969032 0.314289
vt 0.763077 0.366994
vt 0.969032 0.366993
vt 0.763077 0.320878
vt 0.969032 0.320877
vt 0.763077 0.327465
vt 0.969032 0.327465
vt 0.763077 0.334053
vt 0.969032 0.334053
vt 0.763077 0.380170
vt 0.763077 0.373582
vt 0.969032 0.373581
vt 0.969032 0.380169
vt 0.763077 0.340642
vt 0.969032 0.340641
vt 0.031162 0.855724
vt 0.031223 0.855743
vt 0.480674 0.118510
vt 0.516902 0.116894
vt 0.516882 0.092261
vt 0.480804 0.093816
vt 0.517102 0.066903
vt 0.480643 0.068195
vt 0.518006 0.041681
vt 0.479778 0.042315
vt 0.520444 0.016352
vt 0.477663 0.016089
vt 0.476782 0.194023
vt 0.520051 0.194544
vt 0.517312 0.167411
vt 0.478960 0.168272
vt 0.516484 0.141851
vt 0.479813 0.142712
vt 0.516366 0.117163
vt 0.480093 0.117976
vt 0.516337 0.092241
vt 0.480457 0.093282
vt 0.516630 0.067029
vt 0.480540 0.067726
vt 0.517573 0.042424
vt 0.479935 0.041958
vt 0.520180 0.017473
vt 0.478107 0.015855
vt 0.477896 0.194299
vt 0.520470 0.193557
vt 0.517852 0.167331
vt 0.480007 0.168646
vt 0.537435 0.191617
vt 0.534275 0.166817
vt 0.517018 0.141882
vt 0.480631 0.143194
vt 0.533700 0.067070
vt 0.534246 0.042190
vt 0.463590 0.142530
vt 0.464374 0.117880
vt 0.435249 0.117519
vt 0.434765 0.141115
vt 0.464078 0.068367
vt 0.463520 0.042769
vt 0.433206 0.046838
vt 0.434571 0.071108
vt 0.464351 0.093229
vt 0.532231 0.117166
vt 0.532744 0.092302
vt 0.461172 0.017775
vt 0.464605 0.143088
vt 0.463581 0.168182
vt 0.537435 0.018255
vt 0.533576 0.141709
vt 0.463976 0.067814
vt 0.532783 0.067178
vt 0.462269 0.167761
vt 0.460190 0.192396
vt 0.465084 0.118488
vt 0.464763 0.093839
vt 0.537435 0.192469
vt 0.533882 0.166800
vt 0.532884 0.116845
vt 0.533139 0.092334
vt 0.463740 0.042328
vt 0.533584 0.042989
vt 0.532655 0.141662
vt 0.461730 0.017446
vt 0.536999 0.019427
vt 0.461554 0.192697
vt 0.432220 0.020594
vt 0.433599 0.045555
vt 0.431450 0.021783
vt 0.435157 0.093797
vt 0.435266 0.166202
vt 0.434136 0.189607
vt 0.435503 0.095221
vt 0.435976 0.118980
vt 0.433702 0.164725
vt 0.432220 0.189012
vt 0.434597 0.069744
vt 0.435891 0.142592
vt 0.071498 0.878688
vt 0.050948 0.854786
vt 0.109235 0.824016
vt 0.110661 0.825676
vt 0.050637 0.854861
vt 0.042494 0.824410
vt 0.108358 0.821978
vt 0.108924 0.824091
vt 0.042805 0.824335
vt 0.108669 0.821902
vt 0.048368 0.793442
vt 0.108766 0.819828
vt 0.048680 0.793366
vt 0.109077 0.819752
vt 0.067099 0.768089
vt 0.110067 0.818067
vt 0.067409 0.768014
vt 0.110378 0.817992
vt 0.159757 0.875428
vt 0.131882 0.890143
vt 0.114854 0.826471
vt 0.116789 0.825449
vt 0.159446 0.875503
vt 0.131571 0.890218
vt 0.114543 0.826546
vt 0.116478 0.825525
vt 0.100383 0.891307
vt 0.112667 0.826552
vt 0.100071 0.891382
vt 0.112356 0.826627
vt 0.071186 0.878763
vt 0.110350 0.825751
vt 0.017083 0.878199
vt 0.012868 0.876682
vt 0.021701 0.860404
vt 0.024342 0.862634
vt 0.021307 0.879614
vt 0.017059 0.878196
vt 0.024403 0.862528
vt 0.027033 0.863979
vt 0.021320 0.879618
vt 0.027006 0.864060
vt 0.025581 0.880933
vt 0.029789 0.864857
vt 0.025590 0.880936
vt 0.029763 0.864926
vt 0.029889 0.882159
vt 0.032750 0.865230
vt 0.029885 0.882157
vt 0.032774 0.865171
vt 0.034227 0.883283
vt 0.036189 0.864888
vt 0.034226 0.883282
vt 0.036208 0.864840
vt 0.038349 0.884267
vt 0.040339 0.863428
vt 0.038351 0.884267
vt 0.040354 0.863393
vt 0.012840 0.876678
vt 0.008643 0.875063
vt 0.019340 0.856853
vt 0.021829 0.860306
vt 0.008678 0.875081
vt 0.019205 0.856953
vt 0.031057 0.855797
vt 0.031126 0.855773
vt 0.958146 0.048793
vt 0.760362 0.054332
vt 0.765737 0.210530
vt 0.961772 0.208045
vt 0.401263 0.014292
vt 0.269066 0.014292
vt 0.269066 0.197233
vt 0.401263 0.197233
vt 0.019592 0.012954
vt 0.018266 0.284990
vt 0.212860 0.286843
vt 0.214245 0.013903
vt 0.019596 0.012077
vt 0.019459 0.040315
vt 0.214110 0.041638
vt 0.214249 0.013025
vt 0.400960 0.014292
vt 0.269044 0.014292
vt 0.268911 0.197233
vt 0.401108 0.197233
vt 0.979591 0.228438
vt 0.969856 0.221055
vt 0.706101 0.220397
vt 0.701758 0.235423
vt 0.677789 0.053073
vt 0.684730 0.051294
vt 0.700243 0.046744
vt 0.694812 0.032423
vt 0.695777 0.056086
vt 0.689755 0.216590
vt 0.700585 0.211229
vt 0.966361 0.036057
vt 0.682805 0.215276
vt 0.976280 0.026642
vt 0.249587 0.249773
vt 0.242834 0.235606
vt 0.237544 0.235604
vt 0.230810 0.250120
vt 0.018128 0.313367
vt 0.212781 0.314315
vt 0.018132 0.312490
vt 0.212785 0.313438
vt 0.237547 0.215282
vt 0.249678 0.017371
vt 0.242915 0.031490
vt 0.242906 0.053654
vt 0.230810 0.016872
vt 0.237592 0.031488
vt 0.648539 0.229405
vt 0.648943 0.217911
vt 0.586047 0.217358
vt 0.585760 0.225541
vt 0.237587 0.053586
vt 0.242842 0.215288
vt 0.648970 0.214917
vt 0.648779 0.202181
vt 0.585930 0.206179
vt 0.586074 0.214364
vt 0.648624 0.202030
vt 0.649045 0.214567
vt 0.586133 0.214564
vt 0.585854 0.206257
vt 0.649045 0.217579
vt 0.648624 0.230079
vt 0.585854 0.225860
vt 0.586133 0.217577
vt 0.648423 0.233083
vt 0.585653 0.228863
vt 0.648355 0.232397
vt 0.585576 0.228532
vt 0.530282 0.692548
vt 0.530282 0.549612
vt 0.540135 0.549615
vt 0.540135 0.692551
vt 0.549989 0.549615
vt 0.549989 0.692550
vt 0.559843 0.549611
vt 0.559843 0.692547
vt 0.500720 0.692547
vt 0.500720 0.549611
vt 0.510574 0.549608
vt 0.510574 0.692544
vt 0.520428 0.549608
vt 0.520428 0.692544
vt 0.642521 0.039415
vt 0.642173 0.041479
vt 0.647852 0.039200
vt 0.646046 0.037973
vt 0.643669 0.031871
vt 0.644055 0.029515
vt 0.638937 0.032362
vt 0.640279 0.033401
vt 0.639646 0.036925
vt 0.636612 0.037964
vt 0.647969 0.033856
vt 0.646387 0.034420
vt 0.654951 0.038622
vt 0.653339 0.031424
vt 0.633728 0.028813
vt 0.630538 0.035952
vt 0.634418 0.055373
vt 0.640518 0.056634
vt 0.649781 0.025856
vt 0.639163 0.023487
vt 0.646232 0.057891
vt 0.653754 0.058531
vt 0.627031 0.184986
vt 0.634798 0.178350
vt 0.623466 0.174071
vt 0.632935 0.168306
vt 0.642565 0.171714
vt 0.644428 0.181758
vt 0.636661 0.188394
vt 0.640511 0.142497
vt 0.649398 0.090516
vt 0.640314 0.092014
vt 0.630860 0.143580
vt 0.645149 0.084630
vt 0.627666 0.055084
vt 0.621419 0.144852
vt 0.640976 0.084419
vt 0.636717 0.083008
vt 0.631002 0.090295
vt 0.642015 0.039600
vt 0.645627 0.038128
vt 0.647477 0.039343
vt 0.641697 0.041695
vt 0.643054 0.032087
vt 0.639697 0.033636
vt 0.638336 0.032601
vt 0.643378 0.029730
vt 0.639045 0.037178
vt 0.636036 0.038267
vt 0.645868 0.034510
vt 0.647445 0.033900
vt 0.652813 0.031276
vt 0.654678 0.038597
vt 0.629668 0.036353
vt 0.632969 0.029010
vt 0.640152 0.056969
vt 0.633991 0.055764
vt 0.649001 0.025809
vt 0.638476 0.023644
vt 0.653494 0.058775
vt 0.645916 0.058182
vt 0.627617 0.185092
vt 0.624003 0.174236
vt 0.635319 0.178436
vt 0.633405 0.168438
vt 0.643020 0.171779
vt 0.644934 0.181777
vt 0.637232 0.188434
vt 0.640809 0.142677
vt 0.631198 0.143811
vt 0.640316 0.092371
vt 0.649372 0.090818
vt 0.645082 0.084975
vt 0.627402 0.055653
vt 0.621797 0.145132
vt 0.640916 0.084798
vt 0.636646 0.083427
vt 0.631036 0.090713
vt 0.656808 0.406781
vt 0.656808 0.563823
vt 0.589519 0.566682
vt 0.589519 0.403922
vt 0.073117 0.898831
vt 0.008557 0.899102
vt 0.016155 0.989330
vt 0.075909 0.989080
vt 0.661482 0.694031
vt 0.594609 0.702030
vt 0.589389 0.635533
vt 0.656796 0.634332
vt 0.585194 0.562170
vt 0.585194 0.408433
vt 0.589773 0.698071
vt 0.585130 0.638927
vt 0.656736 0.406732
vt 0.656736 0.563879
vt 0.589484 0.566612
vt 0.589484 0.403888
vt 0.661482 0.574633
vt 0.589669 0.630094
vt 0.594311 0.570950
vt 0.204310 0.898831
vt 0.201519 0.989080
vt 0.261273 0.989330
vt 0.268870 0.899102
vt 0.661521 0.694245
vt 0.656835 0.634546
vt 0.589429 0.635746
vt 0.594648 0.702243
vt 0.585170 0.639140
vt 0.589812 0.698284
vt 0.661521 0.574847
vt 0.594350 0.571163
vt 0.589708 0.630307
vt 0.568974 0.802540
vt 0.568974 0.712452
vt 0.478886 0.712452
vt 0.478886 0.802540
vt 0.478886 0.622364
vt 0.388797 0.622364
vt 0.388797 0.712452
vt 0.298709 0.712452
vt 0.298709 0.802540
vt 0.388797 0.802540
vt 0.388798 0.892628
vt 0.478886 0.892628
vt 0.659062 0.802540
vt 0.659062 0.712452
vt 0.326696 0.378699
vt 0.311083 0.424730
vt 0.277644 0.402903
vt 0.280666 0.363086
vt 0.256962 0.413108
vt 0.224744 0.378131
vt 0.265119 0.459958
vt 0.194904 0.443729
vt 0.372726 0.394313
vt 0.357113 0.440343
vt 0.219731 0.345676
vt 0.268716 0.332497
vt 0.312052 0.435526
vt 0.367046 0.470949
vt 0.331622 0.525943
vt 0.276629 0.490519
vt 0.292322 0.338108
vt 0.332642 0.351784
vt 0.159778 0.422841
vt 0.185916 0.365380
vt 0.338352 0.353721
vt 0.378673 0.367398
vt 0.110304 0.426665
vt 0.110304 0.366406
vt 0.050044 0.366406
vt 0.050044 0.426665
vt 0.022077 0.349447
vt 0.022077 0.443624
vt 0.138271 0.443624
vt 0.138271 0.349447
vt 0.127263 0.338439
vt 0.033085 0.338439
vt 0.033085 0.454633
vt 0.127263 0.454633
vt 0.492860 0.884486
vt 0.659594 0.884486
vt 0.659594 0.907010
vt 0.492860 0.907010
vt 0.492860 0.816915
vt 0.659594 0.816915
vt 0.659594 0.839438
vt 0.492860 0.839438
vt 0.659594 0.861962
vt 0.492860 0.861962
vt 0.493073 0.839439
vt 0.493073 0.816915
vt 0.659807 0.816915
vt 0.659807 0.839439
vt 0.493073 0.907010
vt 0.493073 0.884486
vt 0.659807 0.884486
vt 0.659807 0.907010
vt 0.493073 0.861962
vt 0.659807 0.861962
vt 0.660125 0.861962
vt 0.660125 0.884486
vt 0.491961 0.884486
vt 0.491961 0.861962
vt 0.660125 0.907010
vt 0.491960 0.907010
vt 0.660127 0.816915
vt 0.660127 0.839438
vt 0.491961 0.839438
vt 0.491961 0.816915
vt 0.491701 0.861962
vt 0.660804 0.861962
vt 0.660804 0.884486
vt 0.491701 0.884486
vt 0.660804 0.907010
vt 0.492339 0.907010
vt 0.492063 0.816915
vt 0.660804 0.816915
vt 0.660804 0.839438
vt 0.492063 0.839438
vt 0.673973 0.985118
vt 0.673974 0.412659
vt 0.721938 0.412659
vt 0.721938 0.985118
vt 0.722640 0.985327
vt 0.989293 0.985327
vt 0.989293 0.412926
vt 0.722486 0.412659
vt 0.722640 0.412926
vt 0.722667 0.985375
vt 0.674680 0.412926
vt 0.674680 0.985327
vt 0.659636 0.981393
vt 0.659080 0.923135
vt 0.279600 0.923135
vt 0.280156 0.981393
vt 0.279600 0.923840
vt 0.659080 0.923840
vt 0.659636 0.982098
vt 0.280156 0.982098
vt 0.270556 0.755555
vt 0.154252 0.759060
vt 0.167185 0.640031
vt 0.283490 0.636526
vt 0.283490 0.877958
vt 0.167185 0.881463
s 0
usemtl donut_stand
f 1/1/1 2/4/1 4/3/1 3/2/1
f 3/2/2 4/3/2 6/6/2 5/5/2
f 5/5/3 6/6/3 8/8/3 7/7/3
f 7/7/4 8/8/4 10/10/4 9/9/4
f 9/11/5 10/14/5 12/13/5 11/12/5
f 11/12/6 12/13/6 14/16/6 13/15/6
f 13/15/7 14/16/7 16/18/7 15/17/7
f 15/17/8 16/18/8 18/20/8 17/19/8
f 17/19/9 18/20/9 20/22/9 19/21/9
f 19/21/10 20/22/10 22/24/10 21/23/10
f 21/23/11 22/24/11 24/26/11 23/25/11
f 23/27/12 24/30/12 26/29/12 25/28/12
f 26/29/13 24/30/13 52/32/13 54/31/13
f 25/28/14 26/29/14 28/34/14 27/33/14
f 27/33/15 28/34/15 2/4/15 1/1/15
f 8/8/16 6/6/16 34/36/16 36/35/16
f 41/37/15 43/40/15 64/39/15 63/38/15
f 33/41/10 35/44/10 60/43/10 59/42/10
f 15/17/17 17/19/17 45/45/17 43/40/17
f 18/20/18 16/18/18 44/47/18 46/46/18
f 7/7/19 9/9/19 37/48/19 35/44/19
f 25/28/20 27/33/20 55/50/20 53/49/20
f 10/10/21 8/8/21 36/35/21 38/51/21
f 28/34/22 26/29/22 54/31/22 56/52/22
f 17/19/23 19/21/23 47/53/23 45/45/23
f 20/22/24 18/20/24 46/46/24 48/54/24
f 9/11/25 11/12/25 39/56/25 37/55/25
f 27/33/26 1/1/26 29/57/26 55/50/26
f 1/1/27 3/2/27 30/58/27 29/57/27
f 12/13/28 10/14/28 38/60/28 40/59/28
f 2/4/29 28/34/29 56/52/29 32/61/29
f 4/3/30 2/4/30 32/61/30 31/62/30
f 19/21/31 21/23/31 49/63/31 47/53/31
f 22/24/32 20/22/32 48/54/32 50/64/32
f 11/12/33 13/15/33 41/37/33 39/56/33
f 14/16/34 12/13/34 40/59/34 42/65/34
f 3/2/35 5/5/35 33/41/35 30/58/35
f 21/23/36 23/25/36 51/66/36 49/63/36
f 6/6/37 4/3/37 31/62/37 34/36/37
f 24/26/38 22/24/38 50/64/38 52/67/38
f 13/15/39 15/17/39 43/40/39 41/37/39
f 16/18/40 14/16/40 42/65/40 44/47/40
f 5/5/41 7/7/41 35/44/41 33/41/41
f 23/27/42 25/28/42 53/49/42 51/68/42
f 49/63/4 51/66/4 68/70/4 67/69/4
f 35/44/11 37/48/11 61/71/11 60/43/11
f 43/40/1 45/45/1 65/72/1 64/39/1
f 51/68/5 53/49/5 69/74/5 68/73/5
f 29/57/8 30/58/8 58/76/8 57/75/8
f 37/55/12 39/56/12 62/78/12 61/77/12
f 45/45/2 47/53/2 66/79/2 65/72/2
f 53/49/6 55/50/6 70/80/6 69/74/6
f 30/58/9 33/41/9 59/42/9 58/76/9
f 39/56/14 41/37/14 63/38/14 62/78/14
f 47/53/3 49/63/3 67/69/3 66/79/3
f 55/50/7 29/57/7 57/75/7 70/80/7
f 57/81/43 58/84/43 72/83/43 71/82/43
f 65/85/43 66/88/43 80/87/43 79/86/43
f 58/84/43 59/90/43 73/89/43 72/83/43
f 66/88/43 67/92/43 81/91/43 80/87/43
f 59/90/43 60/94/43 74/93/43 73/89/43
f 67/92/43 68/96/43 82/95/43 81/91/43
f 60/94/43 61/98/43 75/97/43 74/93/43
f 68/99/43 69/102/43 83/101/43 82/100/43
f 61/103/43 62/106/43 76/105/43 75/104/43
f 69/102/43 70/108/43 84/107/43 83/101/43
f 62/106/43 63/110/43 77/109/43 76/105/43
f 70/108/43 57/81/43 71/82/43 84/107/43
f 63/110/43 64/112/43 78/111/43 77/109/43
f 64/112/43 65/85/43 79/86/43 78/111/43
f 80/113/44 81/116/44 95/115/44 94/114/44
f 72/117/45 73/120/45 87/119/45 86/118/45
f 79/121/46 80/113/46 94/114/46 93/122/46
f 71/123/47 72/117/47 86/118/47 85/124/47
f 78/125/48 79/121/48 93/122/48 92/126/48
f 77/127/49 78/125/49 92/126/49 91/128/49
f 84/129/50 71/123/50 85/124/50 98/130/50
f 76/131/51 77/127/51 91/128/51 90/132/51
f 83/133/52 84/129/52 98/130/52 97/134/52
f 75/135/53 76/131/53 90/132/53 89/136/53
f 82/137/54 83/133/54 97/134/54 96/138/54
f 74/139/55 75/142/55 89/141/55 88/140/55
f 81/116/56 82/144/56 96/143/56 95/115/56
f 73/120/57 74/139/57 88/140/57 87/119/57
f 174/145/4 75/148/4 74/147/4 173/146/4
f 182/149/12 83/152/12 82/151/12 181/150/12
f 175/153/5 76/156/5 75/155/5 174/154/5
f 183/157/14 84/158/14 83/152/14 182/149/14
f 176/159/6 77/160/6 76/156/6 175/153/6
f 170/161/15 71/162/15 84/158/15 183/157/15
f 177/163/7 78/164/7 77/160/7 176/159/7
f 178/165/8 79/166/8 78/164/8 177/163/8
f 179/167/9 80/168/9 79/166/9 178/165/9
f 172/169/2 73/172/2 72/171/2 171/170/2
f 180/173/10 81/174/10 80/168/10 179/167/10
f 173/146/3 74/147/3 73/172/3 172/169/3
f 181/150/11 82/151/11 81/174/11 180/173/11
f 95/115/43 96/143/43 99/175/43
f 88/140/43 89/141/43 99/176/43
f 96/138/43 97/134/43 99/176/43
f 89/136/43 90/132/43 99/175/43
f 97/134/43 98/130/43 99/176/43
f 90/132/43 91/128/43 99/175/43
f 98/130/43 85/124/43 99/176/43
f 91/128/43 92/126/43 99/175/43
f 92/126/43 93/122/43 99/175/43
f 85/124/43 86/118/43 99/176/43
f 93/122/43 94/114/43 99/175/43
f 86/118/43 87/119/43 99/176/43
f 94/114/43 95/115/43 99/175/43
f 87/119/43 88/140/43 99/176/43
f 100/177/1 102/180/1 103/179/1 101/178/1
f 102/180/2 104/182/2 105/181/2 103/179/2
f 104/182/3 106/184/3 107/183/3 105/181/3
f 106/184/4 108/186/4 109/185/4 107/183/4
f 108/187/5 110/190/5 111/189/5 109/188/5
f 110/190/6 112/192/6 113/191/6 111/189/6
f 112/192/7 114/194/7 115/193/7 113/191/7
f 114/194/8 116/196/8 117/195/8 115/193/8
f 116/196/9 118/198/9 119/197/9 117/195/9
f 118/198/10 120/200/10 121/199/10 119/197/10
f 120/200/11 122/202/11 123/201/11 121/199/11
f 122/203/12 124/206/12 125/205/12 123/204/12
f 125/205/42 153/208/42 151/207/42 123/204/42
f 124/206/14 126/210/14 127/209/14 125/205/14
f 126/210/15 100/177/15 101/178/15 127/209/15
f 107/183/41 135/212/41 133/211/41 105/181/41
f 140/213/15 162/216/15 163/215/15 142/214/15
f 132/217/10 158/220/10 159/219/10 134/218/10
f 114/194/18 142/214/18 144/221/18 116/196/18
f 117/195/17 145/223/17 143/222/17 115/193/17
f 106/184/21 134/218/21 136/224/21 108/186/21
f 124/206/22 152/226/22 154/225/22 126/210/22
f 109/185/19 137/227/19 135/212/19 107/183/19
f 127/209/20 155/228/20 153/208/20 125/205/20
f 116/196/24 144/221/24 146/229/24 118/198/24
f 119/197/23 147/230/23 145/223/23 117/195/23
f 108/187/28 136/232/28 138/231/28 110/190/28
f 126/210/29 154/225/29 128/233/29 100/177/29
f 100/177/30 128/233/30 129/234/30 102/180/30
f 111/189/25 139/236/25 137/235/25 109/188/25
f 101/178/26 131/237/26 155/228/26 127/209/26
f 103/179/27 130/238/27 131/237/27 101/178/27
f 118/198/32 146/229/32 148/239/32 120/200/32
f 121/199/31 149/240/31 147/230/31 119/197/31
f 110/190/34 138/231/34 140/213/34 112/192/34
f 113/191/33 141/241/33 139/236/33 111/189/33
f 102/180/37 129/234/37 132/217/37 104/182/37
f 120/200/38 148/239/38 150/242/38 122/202/38
f 105/181/35 133/211/35 130/238/35 103/179/35
f 123/201/36 151/243/36 149/240/36 121/199/36
f 112/192/40 140/213/40 142/214/40 114/194/40
f 115/193/39 143/222/39 141/241/39 113/191/39
f 104/182/16 132/217/16 134/218/16 106/184/16
f 122/203/13 150/244/13 152/226/13 124/206/13
f 148/239/4 166/246/4 167/245/4 150/242/4
f 134/218/11 159/219/11 160/247/11 136/224/11
f 142/214/1 163/215/1 164/248/1 144/221/1
f 150/244/5 167/250/5 168/249/5 152/226/5
f 128/233/8 156/252/8 157/251/8 129/234/8
f 136/232/12 160/254/12 161/253/12 138/231/12
f 144/221/2 164/248/2 165/255/2 146/229/2
f 152/226/6 168/249/6 169/256/6 154/225/6
f 129/234/9 157/251/9 158/220/9 132/217/9
f 138/231/14 161/253/14 162/216/14 140/213/14
f 146/229/3 165/255/3 166/246/3 148/239/3
f 154/225/7 169/256/7 156/252/7 128/233/7
f 156/257/58 170/260/58 171/259/58 157/258/58
f 164/261/58 178/264/58 179/263/58 165/262/58
f 157/258/58 171/259/58 172/266/58 158/265/58
f 165/262/58 179/263/58 180/268/58 166/267/58
f 158/265/58 172/266/58 173/270/58 159/269/58
f 166/267/58 180/268/58 181/272/58 167/271/58
f 159/269/58 173/270/58 174/274/58 160/273/58
f 167/275/58 181/278/58 182/277/58 168/276/58
f 160/279/58 174/282/58 175/281/58 161/280/58
f 168/276/58 182/277/58 183/284/58 169/283/58
f 161/280/58 175/281/58 176/286/58 162/285/58
f 169/283/58 183/284/58 170/260/58 156/257/58
f 162/285/58 176/286/58 177/288/58 163/287/58
f 163/287/58 177/288/58 178/264/58 164/261/58
f 179/289/59 193/292/59 194/291/59 180/290/59
f 171/293/60 185/296/60 186/295/60 172/294/60
f 178/297/61 192/298/61 193/292/61 179/289/61
f 170/299/62 184/300/62 185/296/62 171/293/62
f 177/301/63 191/302/63 192/298/63 178/297/63
f 176/303/64 190/304/64 191/302/64 177/301/64
f 183/305/65 197/306/65 184/300/65 170/299/65
f 175/307/66 189/308/66 190/304/66 176/303/66
f 182/309/67 196/310/67 197/306/67 183/305/67
f 174/311/68 188/312/68 189/308/68 175/307/68
f 181/313/69 195/314/69 196/310/69 182/309/69
f 173/315/70 187/318/70 188/317/70 174/316/70
f 180/290/71 194/291/71 195/320/71 181/319/71
f 172/294/72 186/295/72 187/318/72 173/315/72
f 194/291/58 198/321/58 195/320/58
f 187/318/58 198/322/58 188/317/58
f 195/314/58 198/322/58 196/310/58
f 188/312/58 198/321/58 189/308/58
f 196/310/58 198/322/58 197/306/58
f 189/308/58 198/321/58 190/304/58
f 197/306/58 198/322/58 184/300/58
f 190/304/58 198/321/58 191/302/58
f 191/302/58 198/321/58 192/298/58
f 184/300/58 198/322/58 185/296/58
f 192/298/58 198/321/58 193/292/58
f 185/296/58 198/322/58 186/295/58
f 193/292/58 198/321/58 194/291/58
f 186/295/58 198/322/58 187/318/58
f 171/170/1 72/171/1 71/162/1 170/161/1
f 212/323/11 211/326/11 221/325/11 219/324/11
f 202/327/73 201/330/73 205/329/73 206/328/73
f 206/331/74 205/334/74 218/333/74 216/332/74
f 200/335/75 199/338/75 222/337/75 215/336/75
f 204/339/76 203/342/76 199/341/76 200/340/76
f 201/343/77 222/346/77 223/345/77 207/344/77
f 203/347/78 218/350/78 217/349/78 210/348/78
f 210/348/43 217/349/43 219/324/43 214/351/43
f 207/344/58 223/345/58 221/325/58 211/326/58
f 209/352/76 210/348/76 214/351/76 213/353/76
f 208/354/73 207/344/73 211/326/73 212/323/73
f 199/355/79 203/347/79 210/348/79 209/352/79
f 205/356/80 201/343/80 207/344/80 208/354/80
f 200/357/4 215/360/4 225/359/4 220/358/4
f 217/349/81 218/350/81 205/356/81 208/354/81
f 216/332/82 218/333/82 203/362/82 204/361/82
f 219/324/43 217/349/43 208/354/43 212/323/43
f 219/324/11 221/325/11 213/353/11 214/351/11
f 221/325/58 223/345/58 209/352/58 213/353/58
f 223/345/77 222/346/77 199/355/77 209/352/77
f 215/336/83 222/337/83 201/364/83 202/363/83
f 215/360/4 235/365/4 225/359/4
f 204/366/4 230/368/4 224/367/4
f 216/369/4 204/366/4 224/367/4 226/370/4
f 235/371/84 234/374/84 227/373/84 225/372/84
f 230/368/4 232/376/4 235/365/4 238/375/4
f 220/377/76 229/380/76 233/379/76 232/378/76
f 225/372/85 227/373/85 229/380/85 220/377/85
f 230/381/76 236/384/76 231/383/76 224/382/76
f 230/368/4 204/366/4 200/357/4 232/376/4
f 226/385/86 237/388/86 228/387/86 238/386/86
f 228/387/87 236/390/87 230/389/87 238/386/87
f 232/376/4 200/357/4 220/358/4
f 235/365/4 215/360/4 216/369/4 238/375/4
f 238/375/4 216/369/4 226/370/4
f 224/382/88 231/383/88 237/388/88 226/385/88
f 232/391/89 233/392/89 234/374/89 235/371/89
f 240/393/90 241/396/90 272/395/90 271/394/90
f 241/396/91 242/398/91 273/397/91 272/395/91
f 242/398/92 243/400/92 274/399/92 273/397/92
f 243/401/93 244/404/93 275/403/93 274/402/93
f 244/404/94 239/406/94 270/405/94 275/403/94
f 242/407/43 241/410/43 247/409/43 248/408/43
f 239/411/43 244/414/43 250/413/43 245/412/43
f 243/415/43 242/407/43 248/408/43 249/416/43
f 241/410/43 240/418/43 246/417/43 247/409/43
f 244/414/43 243/415/43 249/416/43 250/413/43
f 240/418/43 239/411/43 245/412/43 246/417/43
f 247/409/95 246/417/95 252/420/95 253/419/95
f 250/413/96 249/416/96 255/422/96 256/421/96
f 249/416/43 248/408/43 258/424/43 260/423/43
f 246/417/97 245/412/97 251/425/97 252/420/97
f 245/412/98 250/413/98 256/421/98 251/426/98
f 247/409/99 253/419/99 262/428/99 259/427/99
f 256/429/58 255/431/58 257/430/58
f 254/432/58 253/433/58 257/430/58
f 252/434/58 251/435/58 257/430/58
f 251/435/58 256/429/58 257/430/58
f 255/431/58 254/432/58 257/430/58
f 253/433/58 252/434/58 257/430/58
f 262/436/58 261/439/58 267/438/58 268/437/58
f 259/427/100 262/428/100 268/437/100 265/440/100
f 253/433/58 254/432/58 261/439/58 262/436/58
f 255/422/101 249/416/101 260/423/101 263/441/101
f 254/432/58 255/431/58 263/442/58 261/439/58
f 248/408/43 247/409/43 259/427/43 258/424/43
f 264/443/102 265/440/102 268/437/102 267/438/102
f 266/444/103 264/443/103 267/438/103 269/445/103
f 258/424/43 259/427/43 265/440/43 264/443/43
f 263/441/104 260/423/104 266/444/104 269/445/104
f 261/439/58 263/442/58 269/445/58 267/438/58
f 260/423/43 258/424/43 264/443/43 266/444/43
f 273/446/58 279/449/58 278/448/58 272/447/58
f 270/450/58 276/453/58 281/452/58 275/451/58
f 274/454/58 280/455/58 279/449/58 273/446/58
f 272/447/58 278/448/58 277/457/58 271/456/58
f 275/451/58 281/452/58 280/455/58 274/454/58
f 271/456/58 277/457/58 276/453/58 270/450/58
f 278/448/95 284/459/95 283/458/95 277/457/95
f 281/452/96 287/461/96 286/460/96 280/455/96
f 280/455/58 291/463/58 289/462/58 279/449/58
f 277/457/97 283/458/97 282/464/97 276/453/97
f 276/453/98 282/465/98 287/461/98 281/452/98
f 278/448/99 290/467/99 293/466/99 284/459/99
f 287/468/43 288/470/43 286/469/43
f 285/471/43 288/470/43 284/472/43
f 283/473/43 288/470/43 282/474/43
f 282/474/43 288/470/43 287/468/43
f 286/469/43 288/470/43 285/471/43
f 284/472/43 288/470/43 283/473/43
f 293/475/43 299/478/43 298/477/43 292/476/43
f 290/467/100 296/479/100 299/478/100 293/466/100
f 284/472/43 293/475/43 292/476/43 285/471/43
f 286/460/101 294/480/101 291/463/101 280/455/101
f 285/471/43 292/476/43 294/481/43 286/469/43
f 279/449/58 289/462/58 290/467/58 278/448/58
f 295/482/102 298/477/102 299/478/102 296/479/102
f 297/483/103 300/484/103 298/477/103 295/482/103
f 289/462/58 295/482/58 296/479/58 290/467/58
f 294/480/104 300/484/104 297/483/104 291/463/104
f 292/476/43 298/477/43 300/484/43 294/481/43
f 291/463/58 297/483/58 295/482/58 289/462/58
f 239/406/105 240/393/105 271/394/105 270/405/105
f 302/485/106 305/488/106 313/487/106 310/486/106
f 302/489/107 301/492/107 303/491/107 304/490/107
f 302/493/108 304/496/108 306/495/108 305/494/108
f 305/488/4 307/498/4 315/497/4 313/487/4
f 305/494/4 306/495/4 308/500/4 307/499/4
f 307/501/109 302/504/109 310/503/109 315/502/109
f 302/505/110 307/507/110 308/506/110 304/496/110
f 306/495/111 304/496/111 308/506/111
f 310/508/112 312/511/112 311/510/112 309/509/112
f 310/512/113 313/515/113 314/514/113 312/513/113
f 313/515/4 315/517/4 316/516/4 314/514/4
f 310/518/114 312/513/114 316/520/114 315/519/114
f 314/514/115 316/520/115 312/513/115
f 309/509/116 301/492/116 302/489/116 310/508/116
f 317/521/43 318/524/43 320/523/43 319/522/43
f 319/525/76 320/523/76 324/527/76 323/526/76
f 323/528/58 324/527/58 322/530/58 321/529/58
f 321/531/73 322/530/73 318/524/73 317/532/73
f 319/522/4 323/534/4 321/533/4 317/521/4
f 324/527/11 320/523/11 318/524/11 322/530/11
f 325/535/76 327/538/76 328/537/76 326/536/76
f 327/538/58 331/540/58 332/539/58 328/537/58
f 331/540/73 329/542/73 330/541/73 332/539/73
f 329/543/43 325/535/43 326/536/43 330/544/43
f 327/538/117 333/546/117 335/545/117 331/540/117
f 332/539/4 330/541/4 326/536/4 328/537/4
f 333/547/11 334/550/11 336/549/11 335/548/11
f 325/535/118 334/552/118 333/551/118 327/538/118
f 331/540/119 335/554/119 336/553/119 329/542/119
f 329/543/120 336/556/120 334/555/120 325/535/120
f 337/535/76 339/538/76 340/537/76 338/536/76
f 339/538/58 343/540/58 344/539/58 340/537/58
f 343/540/73 341/542/73 342/541/73 344/539/73
f 341/543/43 337/535/43 338/536/43 342/544/43
f 339/538/117 345/546/117 347/545/117 343/540/117
f 344/539/4 342/541/4 338/536/4 340/537/4
f 345/547/11 346/550/11 348/549/11 347/548/11
f 337/535/118 346/552/118 345/551/118 339/538/118
f 343/540/119 347/554/119 348/553/119 341/542/119
f 341/543/120 348/556/120 346/555/120 337/535/120
f 349/535/76 351/538/76 352/537/76 350/536/76
f 351/538/58 355/540/58 356/539/58 352/537/58
f 355/540/73 353/542/73 354/541/73 356/539/73
f 353/543/43 349/535/43 350/536/43 354/544/43
f 351/538/117 357/546/117 359/545/117 355/540/117
f 356/539/4 354/541/4 350/536/4 352/537/4
f 357/547/11 358/550/11 360/549/11 359/548/11
f 349/535/118 358/552/118 357/551/118 351/538/118
f 355/540/119 359/554/119 360/553/119 353/542/119
f 353/543/120 360/556/120 358/555/120 349/535/120
f 361/535/76 363/538/76 364/537/76 362/536/76
f 363/538/58 367/540/58 368/539/58 364/537/58
f 367/540/73 365/542/73 366/541/73 368/539/73
f 365/543/43 361/535/43 362/536/43 366/544/43
f 363/538/117 369/546/117 371/545/117 367/540/117
f 368/539/4 366/541/4 362/536/4 364/537/4
f 369/547/11 370/550/11 372/549/11 371/548/11
f 361/535/118 370/552/118 369/551/118 363/538/118
f 367/540/119 371/554/119 372/553/119 365/542/119
f 365/543/120 372/556/120 370/555/120 361/535/120
f 373/557/4 375/560/4 376/559/4 374/558/4
f 376/559/121 375/560/121 377/562/121 380/561/121
f 373/557/122 374/558/122 379/564/122 378/563/122
f 374/558/123 376/559/123 380/566/123 379/565/123
f 375/560/124 373/557/124 378/568/124 377/567/124
f 381/569/43 383/572/43 384/571/43 382/570/43
f 383/573/73 387/576/73 388/575/73 384/574/73
f 387/576/58 385/578/58 386/577/58 388/575/58
f 385/578/76 381/569/76 382/570/76 386/577/76
f 389/579/43 390/582/43 392/581/43 391/580/43
f 391/583/76 392/586/76 396/585/76 395/584/76
f 395/584/58 396/585/58 394/588/58 393/587/58
f 393/587/73 394/588/73 390/582/73 389/579/73
f 397/589/43 398/592/43 400/591/43 399/590/43
f 399/590/76 400/591/76 404/594/76 403/593/76
f 403/595/58 404/598/58 402/597/58 401/596/58
f 401/596/73 402/597/73 398/592/73 397/589/73
f 405/599/43 407/602/43 408/601/43 406/600/43
f 407/602/73 411/604/73 412/603/73 408/601/73
f 411/605/58 409/608/58 410/607/58 412/606/58
f 409/608/76 405/599/76 406/600/76 410/607/76
f 414/609/58 417/612/58 423/611/58 420/610/58
f 419/613/125 415/617/125 413/616/125 414/615/125 420/614/125
f 421/618/43 424/620/43 418/619/43 415/617/43 419/613/43
f 414/621/73 413/624/73 416/623/73 417/622/73
f 420/625/76 423/628/76 422/627/76 419/626/76
f 425/629/126 426/632/126 428/631/126 427/630/126
f 425/629/127 427/630/127 430/634/127 429/633/127
