# Blender 5.0.1
# www.blender.org
mtllib fountain.mtl
o fountain
v 9.840383 0.625434 -1.301673
v 9.186255 0.625434 -1.126400
v 8.707401 0.625434 -0.647546
v 8.532128 0.625434 0.006581
v 8.707401 0.625434 0.660708
v 9.186255 0.625434 1.139562
v 9.840383 0.625434 1.314835
v 10.494510 0.625434 1.139562
v 10.973364 0.625434 0.660708
v 11.148637 0.625434 0.006581
v 10.973364 0.625434 -0.647546
v 10.494510 0.625434 -1.126400
v 9.203346 0.419069 -1.096798
v 9.840383 0.419068 -1.267491
v 8.737003 0.419069 -0.630455
v 8.566310 0.419069 0.006581
v 8.737003 0.419069 0.643617
v 9.203346 0.419069 1.109960
v 9.840383 0.419069 1.280654
v 10.477419 0.419069 1.109960
v 10.943762 0.419069 0.643617
v 11.114455 0.419069 0.006581
v 10.943762 0.419069 -0.630455
v 10.477419 0.419069 -1.096798
v 9.837665 0.489258 -1.468444
v 9.100420 0.489258 -1.270899
v 8.560719 0.489258 -0.731199
v 8.363174 0.489258 0.006046
v 8.560719 0.489258 0.743291
v 9.100420 0.489258 1.282992
v 9.837665 0.489258 1.480537
v 10.574910 0.489258 1.282992
v 11.114611 0.489258 0.743291
v 11.312155 0.489258 0.006046
v 11.114611 0.489258 -0.731199
v 10.574910 0.489258 -1.270899
v 9.092159 0.641878 -1.289379
v 9.840383 0.641878 -1.489865
v 8.544422 0.641878 -0.741642
v 8.343937 0.641878 0.006581
v 8.555201 0.625308 0.749138
v 9.097799 0.625308 1.291737
v 9.840383 0.641878 1.503027
v 10.588606 0.641878 1.302541
v 11.136343 0.641878 0.754804
v 11.336829 0.641878 0.006581
v 11.136343 0.641878 -0.741642
v 10.588606 0.641878 -1.289379
v 10.691875 0.204583 -1.465168
v 9.840383 0.327176 -1.563517
v 11.313200 0.204583 -0.843842
v 9.055333 0.327176 -1.353164
v 11.540621 0.204583 0.004904
v 8.480638 0.327176 -0.778468
v 11.338326 0.197370 0.866803
v 8.270284 0.327176 0.006581
v 10.705018 0.197370 1.500110
v 8.480638 0.327176 0.791630
v 9.843129 0.204583 1.702396
v 9.055333 0.327176 1.366326
v 8.994383 0.204583 1.474976
v 9.840383 0.327176 1.576680
v 8.373057 0.204583 0.853650
v 10.625432 0.327176 1.366326
v 8.145637 0.204583 0.004904
v 11.200129 0.327176 0.791630
v 8.373057 0.204583 -0.843842
v 11.410481 0.327176 0.006581
v 8.994383 0.204583 -1.465168
v 11.200129 0.327176 -0.778468
v 9.843129 0.204583 -1.692588
v 10.625432 0.327176 -1.353164
v 9.082722 0.534604 -1.305726
v 9.084566 0.622707 -1.302531
v 9.077004 0.579175 -1.315629
v 9.840383 0.622707 -1.505052
v 9.840383 0.534604 -1.508740
v 9.840383 0.579174 -1.520176
v 8.531270 0.622707 -0.749235
v 8.528076 0.534604 -0.751080
v 8.518172 0.579175 -0.756798
v 8.325061 0.534604 0.006581
v 8.328750 0.622707 0.006581
v 8.313625 0.579175 0.006581
v 8.528076 0.534604 0.764242
v 8.531270 0.622708 0.762397
v 8.518172 0.579175 0.769959
v 9.082722 0.534605 1.318888
v 9.084566 0.622708 1.315693
v 9.077004 0.579175 1.328791
v 9.840383 0.534605 1.521903
v 9.840383 0.622708 1.518214
v 9.840383 0.579175 1.533338
v 10.598043 0.534605 1.318888
v 10.596199 0.622708 1.315693
v 10.603761 0.579175 1.328791
v 11.152689 0.534604 0.764242
v 11.149495 0.622708 0.762397
v 11.162593 0.579175 0.769959
v 11.355704 0.534604 0.006581
v 11.352015 0.622707 0.006581
v 11.367140 0.579175 0.006581
v 11.152689 0.534604 -0.751080
v 11.149495 0.622707 -0.749235
v 11.162593 0.579175 -0.756798
v 10.598043 0.534604 -1.305726
v 10.596199 0.622707 -1.302531
v 10.603761 0.579175 -1.315629
v 9.840383 0.431025 -1.543956
v 9.840383 0.360297 -1.581316
v 9.840383 0.396516 -1.577851
v 9.046433 0.360297 -1.368578
v 9.065114 0.431025 -1.336224
v 9.048166 0.396516 -1.365577
v 8.465223 0.360297 -0.787368
v 8.497578 0.431025 -0.768688
v 8.468225 0.396516 -0.785635
v 8.252485 0.360297 0.006581
v 8.289845 0.431025 0.006581
v 8.255951 0.396516 0.006581
v 8.465223 0.360297 0.800530
v 8.497578 0.431025 0.781850
v 8.468225 0.396516 0.798797
v 9.046434 0.360297 1.381741
v 9.065114 0.431025 1.349386
v 9.048166 0.396516 1.378739
v 9.840383 0.360297 1.594479
v 9.840383 0.431025 1.557119
v 9.840383 0.396516 1.591013
v 10.634331 0.360297 1.381741
v 10.615651 0.431025 1.349386
v 10.632599 0.396516 1.378739
v 11.215542 0.360297 0.800530
v 11.183187 0.431025 0.781850
v 11.212542 0.396516 0.798797
v 11.428280 0.360297 0.006581
v 11.390920 0.431025 0.006581
v 11.424814 0.396516 0.006581
v 11.215542 0.360297 -0.787368
v 11.183187 0.431025 -0.768688
v 11.212542 0.396516 -0.785635
v 10.634331 0.360297 -1.368578
v 10.615651 0.431025 -1.336224
v 10.632599 0.396516 -1.365577
v 9.844888 0.261127 -1.522903
v 9.074742 0.261127 -1.316543
v 8.510958 0.261127 -0.752758
v 8.304598 0.261127 0.017388
v 8.510958 0.261127 0.787533
v 9.074742 0.261127 1.351318
v 9.844888 0.261127 1.557678
v 10.615033 0.261127 1.351318
v 11.178819 0.261127 0.787533
v 11.385179 0.261127 0.017388
v 11.178819 0.261127 -0.752758
v 10.615033 0.261127 -1.316543
v 9.841900 0.248118 -1.611721
v 9.842016 0.219450 -1.683015
v 9.841306 0.236985 -1.651285
v 8.997692 0.219386 -1.456855
v 9.030883 0.248104 -1.394504
v 9.011965 0.236962 -1.429114
v 8.379539 0.219320 -0.838804
v 8.437274 0.248121 -0.800739
v 8.404855 0.236948 -0.821987
v 8.153240 0.219271 0.005561
v 8.220250 0.248163 0.010245
v 8.182699 0.236946 0.007356
v 8.366106 0.215720 0.857640
v 8.405283 0.247465 0.838679
v 8.377581 0.236070 0.852086
v 8.997622 0.219246 1.468119
v 9.031725 0.248354 1.413709
v 9.012192 0.236995 1.443489
v 9.842029 0.219281 1.694339
v 9.841964 0.248398 1.630558
v 9.841328 0.237018 1.665571
v 10.688167 0.222218 1.473229
v 10.652037 0.248404 1.413463
v 10.670923 0.237880 1.444914
v 11.308881 0.222266 0.852411
v 11.245234 0.248369 0.820541
v 11.278663 0.237883 0.837225
v 11.530540 0.219500 0.005571
v 11.462719 0.248303 0.010323
v 11.499594 0.237054 0.007381
v 11.304305 0.219515 -0.838684
v 11.245970 0.248228 -0.800345
v 11.277538 0.237036 -0.821837
v 10.686278 0.219497 -1.456740
v 10.652744 0.248161 -1.394162
v 10.670577 0.237011 -1.428980
v 9.798650 0.410825 -0.123515
v 9.726801 0.410825 -0.104263
v 9.674204 0.410825 -0.051667
v 9.654952 0.410825 0.020182
v 9.674204 0.410825 0.092031
v 9.726801 0.410825 0.144627
v 9.798650 0.410825 0.163879
v 9.870498 0.410825 0.144627
v 9.923095 0.410825 0.092031
v 9.942347 0.410825 0.020182
v 9.923095 0.410825 -0.051667
v 9.870498 0.410825 -0.104263
v 9.798650 0.951431 -0.092417
v 9.742351 0.951431 -0.077331
v 9.701137 0.951431 -0.036117
v 9.686050 0.951431 0.020182
v 9.701137 0.951431 0.076481
v 9.742351 0.951431 0.117695
v 9.798650 0.951431 0.132781
v 9.854949 0.951431 0.117695
v 9.896163 0.951431 0.076481
v 9.911248 0.951431 0.020182
v 9.896163 0.951431 -0.036117
v 9.854949 0.951431 -0.077331
v 9.828282 1.276408 -0.853871
v 9.397301 1.276408 -0.738390
v 9.081800 1.276408 -0.422889
v 8.966320 1.276408 0.008093
v 9.081800 1.276408 0.439074
v 9.397301 1.276408 0.754574
v 9.828282 1.276408 0.870056
v 10.259264 1.276408 0.754574
v 10.574765 1.276408 0.439074
v 10.690246 1.276408 0.008093
v 10.574765 1.276408 -0.422889
v 10.259264 1.276408 -0.738390
v 9.820179 1.069897 -0.560948
v 9.828224 1.215270 -0.876631
v 9.823228 1.094370 -0.638006
v 9.825828 1.130591 -0.725058
v 9.827582 1.173046 -0.808852
v 9.385602 1.215287 -0.758055
v 9.533968 1.069657 -0.483321
v 9.418617 1.173038 -0.699214
v 9.458406 1.130526 -0.626341
v 9.498913 1.094223 -0.550529
v 9.061537 1.215323 -0.434058
v 9.325203 1.069430 -0.273376
v 9.119266 1.173043 -0.399815
v 9.189645 1.130470 -0.357253
v 9.261960 1.094086 -0.312854
v 8.942867 1.215368 0.008589
v 9.249192 1.069281 0.012359
v 9.009692 1.173059 0.009129
v 9.091373 1.130440 0.010036
v 9.175474 1.093998 0.011170
v 9.061431 1.215410 0.451297
v 9.325748 1.069258 0.297753
v 9.119242 1.173084 0.418085
v 9.189774 1.130446 0.377242
v 9.262289 1.093987 0.334987
v 9.385496 1.215439 0.775416
v 9.534477 1.069368 0.507037
v 9.418591 1.173110 0.717510
v 9.458525 1.130486 0.646172
v 9.499219 1.094057 0.572264
v 9.828224 1.215446 0.894054
v 9.820120 1.069575 0.584357
v 9.827578 1.173129 0.827162
v 9.825810 1.130548 0.744818
v 9.823192 1.094185 0.659555
v 10.270946 1.215429 0.775403
v 10.106646 1.069818 0.508524
v 10.236628 1.173138 0.717615
v 10.193352 1.130615 0.646604
v 10.147709 1.094334 0.573181
v 10.594996 1.215392 0.451284
v 10.317121 1.070031 0.299205
v 10.536100 1.173131 0.418187
v 10.462611 1.130667 0.377664
v 10.385715 1.094463 0.335883
v 10.713552 1.215347 0.008589
v 10.394528 1.070163 0.012301
v 10.645710 1.173114 0.009125
v 10.561258 1.130692 0.010018
v 10.473055 1.094540 0.011134
v 10.594890 1.215305 -0.434045
v 10.317657 1.070183 -0.274890
v 10.536076 1.173089 -0.399922
v 10.462737 1.130685 -0.357693
v 10.386039 1.094549 -0.313788
v 10.270839 1.215277 -0.758042
v 10.107217 1.070087 -0.484799
v 10.236605 1.173064 -0.699319
v 10.193488 1.130649 -0.626770
v 10.148053 1.094488 -0.551440
v 9.342999 1.276408 -0.832443
v 9.828282 1.276408 -0.962474
v 8.987747 1.276408 -0.477191
v 8.857716 1.276408 0.008093
v 8.987747 1.276408 0.493376
v 9.342999 1.276408 0.848628
v 9.828282 1.276408 0.978660
v 10.313566 1.276408 0.848628
v 10.668818 1.276408 0.493376
v 10.798850 1.276408 0.008093
v 10.668818 1.276408 -0.477191
v 10.313566 1.276408 -0.832443
v 9.478088 1.191057 -0.608320
v 9.832905 1.191057 -0.703392
v 9.218345 1.191057 -0.348576
v 9.123272 1.191057 0.006241
v 9.218345 1.191057 0.361058
v 9.478088 1.191057 0.620802
v 9.832905 1.191057 0.715874
v 10.187722 1.191057 0.620802
v 10.447466 1.191057 0.361058
v 10.542539 1.191057 0.006241
v 10.447466 1.191057 -0.348576
v 10.187722 1.191057 -0.608320
v 9.690315 0.368586 -0.167459
v 9.798650 0.368586 -0.196487
v 9.906984 0.368586 -0.167459
v 9.611009 0.368586 -0.088152
v 9.581981 0.368586 0.020182
v 9.611009 0.368586 0.128516
v 9.690315 0.368586 0.207823
v 9.798650 0.368586 0.236851
v 9.906984 0.368586 0.207823
v 9.986290 0.368586 0.128516
v 10.015318 0.368586 0.020182
v 9.986290 0.368586 -0.088152
v 9.832906 1.191057 0.006241
v 9.802612 1.062620 -0.246910
v 9.669837 1.062620 -0.211333
v 9.572639 1.062619 -0.114136
v 9.537063 1.062619 0.018639
v 9.572639 1.062619 0.151414
v 9.669837 1.062619 0.248612
v 9.802612 1.062619 0.284189
v 9.935387 1.062619 0.248612
v 10.032584 1.062619 0.151414
v 10.068162 1.062619 0.018639
v 10.032584 1.062619 -0.114136
v 9.935387 1.062620 -0.211333
v 9.802612 1.221869 -0.082729
v 9.751927 1.221869 -0.069148
v 9.714825 1.221869 -0.032045
v 9.701243 1.221869 0.018639
v 9.714825 1.221869 0.069323
v 9.751927 1.221869 0.106427
v 9.802612 1.221869 0.120008
v 9.853296 1.221869 0.106427
v 9.890400 1.221869 0.069323
v 9.903980 1.221869 0.018639
v 9.890400 1.221869 -0.032045
v 9.853296 1.221869 -0.069148
v 9.802612 1.099060 -0.246910
v 9.802612 1.122223 -0.242375
v 9.802612 1.147111 -0.229459
v 9.669837 1.099060 -0.211333
v 9.678563 1.147111 -0.196220
v 9.672105 1.122223 -0.207405
v 9.572639 1.099060 -0.114136
v 9.587752 1.147111 -0.105410
v 9.576567 1.122223 -0.111868
v 9.537063 1.099060 0.018639
v 9.554514 1.147111 0.018639
v 9.541597 1.122223 0.018639
v 9.572639 1.099060 0.151414
v 9.587753 1.147111 0.142688
v 9.576567 1.122223 0.149146
v 9.669837 1.099060 0.248612
v 9.678563 1.147111 0.233498
v 9.672105 1.122223 0.244684
v 9.802612 1.099060 0.284189
v 9.802612 1.147111 0.266737
v 9.802612 1.122223 0.279653
v 9.935387 1.099060 0.248612
v 9.926661 1.147111 0.233498
v 9.933119 1.122223 0.244684
v 10.032584 1.099060 0.151414
v 10.017471 1.147111 0.142688
v 10.028657 1.122223 0.149146
v 10.068162 1.099060 0.018639
v 10.050710 1.147111 0.018639
v 10.063626 1.122223 0.018639
v 10.032584 1.099060 -0.114136
v 10.017471 1.147111 -0.105410
v 10.028657 1.122223 -0.111868
v 9.935387 1.099060 -0.211333
v 9.926661 1.147111 -0.196220
v 9.933119 1.122223 -0.207406
v 9.802612 1.603229 -0.060791
v 9.762897 1.603229 -0.050150
v 9.733823 1.603229 -0.021076
v 9.723182 1.603229 0.018639
v 9.733823 1.603229 0.058355
v 9.762897 1.603229 0.087428
v 9.802612 1.603229 0.098070
v 9.842327 1.603229 0.087428
v 9.871401 1.603229 0.058355
v 9.882043 1.603229 0.018639
v 9.871401 1.603229 -0.021076
v 9.842327 1.603229 -0.050150
v 9.823516 1.832477 -0.597944
v 9.519488 1.832477 -0.516480
v 9.296926 1.832477 -0.293916
v 9.215462 1.832477 0.010111
v 9.296926 1.832477 0.314138
v 9.519488 1.832477 0.536702
v 9.823516 1.832477 0.618166
v 10.127543 1.832477 0.536702
v 10.350107 1.832477 0.314138
v 10.431571 1.832477 0.010111
v 10.350107 1.832477 -0.293916
v 10.127543 1.832477 -0.516480
v 9.817800 1.686798 -0.391307
v 9.823475 1.789348 -0.614000
v 9.819950 1.704062 -0.445666
v 9.821784 1.729614 -0.507076
v 9.823022 1.759562 -0.566186
v 9.511236 1.789360 -0.530352
v 9.615898 1.686628 -0.336547
v 9.534526 1.759557 -0.488844
v 9.562594 1.729568 -0.437437
v 9.591168 1.703958 -0.383958
v 9.282631 1.789386 -0.301795
v 9.468628 1.686468 -0.188445
v 9.323354 1.759560 -0.277639
v 9.373001 1.729528 -0.247615
v 9.424015 1.703861 -0.216294
v 9.198917 1.789418 0.010461
v 9.415009 1.686363 0.013121
v 9.246058 1.759572 0.010842
v 9.303678 1.729507 0.011482
v 9.363006 1.703799 0.012282
v 9.282556 1.789447 0.322761
v 9.469013 1.686347 0.214446
v 9.323338 1.759589 0.299332
v 9.373093 1.729511 0.270520
v 9.424247 1.703792 0.240713
v 9.511161 1.789467 0.551404
v 9.616257 1.686424 0.362081
v 9.534507 1.759607 0.510555
v 9.562677 1.729539 0.460231
v 9.591385 1.703840 0.408094
v 9.823475 1.789472 0.635095
v 9.817758 1.686570 0.416625
v 9.823019 1.759621 0.587907
v 9.821772 1.729583 0.529819
v 9.819924 1.703931 0.469673
v 10.135783 1.789460 0.551395
v 10.019881 1.686742 0.363130
v 10.111574 1.759627 0.510630
v 10.081047 1.729630 0.460536
v 10.048849 1.704036 0.408741
v 10.364379 1.789435 0.322752
v 10.168357 1.686893 0.215471
v 10.322832 1.759623 0.299404
v 10.270990 1.729667 0.270818
v 10.216746 1.704127 0.241344
v 10.448012 1.789403 0.010461
v 10.222963 1.686985 0.013080
v 10.400154 1.759610 0.010839
v 10.340579 1.729685 0.011470
v 10.278358 1.704182 0.012256
v 10.364304 1.789373 -0.301786
v 10.168736 1.686999 -0.189513
v 10.322815 1.759592 -0.277715
v 10.271079 1.729680 -0.247925
v 10.216974 1.704188 -0.216953
v 10.135709 1.789353 -0.530343
v 10.020285 1.686932 -0.337589
v 10.111559 1.759575 -0.488918
v 10.081143 1.729654 -0.437740
v 10.049091 1.704145 -0.384600
v 9.481182 1.832477 -0.582828
v 9.823516 1.832477 -0.674556
v 9.230577 1.832477 -0.332223
v 9.138849 1.832477 0.010111
v 9.230577 1.832477 0.352445
v 9.481182 1.832477 0.603050
v 9.823516 1.832477 0.694778
v 10.165850 1.832477 0.603050
v 10.416455 1.832477 0.352445
v 10.508183 1.832477 0.010111
v 10.416455 1.832477 -0.332223
v 10.165850 1.832477 -0.582828
v 9.576479 1.772268 -0.424725
v 9.826777 1.772268 -0.491792
v 9.393248 1.772268 -0.241493
v 9.326180 1.772268 0.008805
v 9.393248 1.772268 0.259103
v 9.576479 1.772268 0.442335
v 9.826777 1.772268 0.509402
v 10.077075 1.772268 0.442335
v 10.260306 1.772268 0.259103
v 10.327374 1.772268 0.008805
v 10.260306 1.772268 -0.241493
v 10.077075 1.772268 -0.424725
v 9.826777 1.772268 0.008805
v 9.806431 1.766709 -0.141529
v 9.727090 1.766709 -0.120270
v 9.669008 1.766709 -0.062188
v 9.647749 1.766709 0.017153
v 9.669008 1.766709 0.096493
v 9.727090 1.766709 0.154575
v 9.806431 1.766709 0.175834
v 9.885772 1.766709 0.154575
v 9.943853 1.766709 0.096493
v 9.965113 1.766709 0.017153
v 9.943853 1.766709 -0.062188
v 9.885772 1.766709 -0.120270
v 9.806431 1.791060 -0.043421
v 9.776144 1.791060 -0.035306
v 9.753972 1.791060 -0.013134
v 9.745857 1.791060 0.017153
v 9.753972 1.791060 0.047439
v 9.776144 1.791060 0.069611
v 9.806431 1.791060 0.077726
v 9.836718 1.791060 0.069611
v 9.858889 1.791060 0.047439
v 9.867004 1.791060 0.017153
v 9.858889 1.791060 -0.013134
v 9.836718 1.791060 -0.035306
v 9.806431 1.788485 -0.141529
v 9.806431 1.802326 -0.138819
v 9.727090 1.788485 -0.120270
v 9.728445 1.802326 -0.117923
v 9.669008 1.788485 -0.062188
v 9.671355 1.802326 -0.060833
v 9.647749 1.788485 0.017153
v 9.650459 1.802326 0.017153
v 9.669008 1.788485 0.096493
v 9.671355 1.802326 0.095138
v 9.727090 1.788485 0.154575
v 9.728445 1.802326 0.152228
v 9.806431 1.788485 0.175834
v 9.806431 1.802326 0.173124
v 9.885772 1.788485 0.154575
v 9.884417 1.802326 0.152228
v 9.943853 1.788485 0.096493
v 9.941506 1.802326 0.095138
v 9.965113 1.788485 0.017153
v 9.962402 1.802326 0.017153
v 9.943853 1.788485 -0.062188
v 9.941506 1.802326 -0.060833
v 9.885772 1.788485 -0.120270
v 9.884417 1.802326 -0.117923
v 9.806431 2.018945 -0.030312
v 9.782699 2.018945 -0.023953
v 9.765326 2.018945 -0.006580
v 9.758966 2.018945 0.017153
v 9.765326 2.018945 0.040885
v 9.782699 2.018945 0.058258
v 9.806431 2.018945 0.064617
v 9.830163 2.018945 0.058258
v 9.847536 2.018945 0.040885
v 9.853895 2.018945 0.017153
v 9.847536 2.018945 -0.006580
v 9.830163 2.018945 -0.023953
v 9.818922 2.155935 -0.351293
v 9.637248 2.155935 -0.302613
v 9.504252 2.155935 -0.169618
v 9.455573 2.155935 0.012056
v 9.504252 2.155935 0.193731
v 9.637248 2.155935 0.326726
v 9.818922 2.155935 0.375406
v 10.000597 2.155935 0.326726
v 10.133592 2.155935 0.193731
v 10.182272 2.155935 0.012056
v 10.133592 2.155935 -0.169618
v 10.000597 2.155935 -0.302613
v 9.815506 2.068883 -0.227815
v 9.818897 2.130163 -0.360887
v 9.816792 2.079199 -0.260298
v 9.817887 2.094468 -0.296994
v 9.818626 2.112364 -0.332316
v 9.632316 2.130170 -0.310903
v 9.694858 2.068781 -0.195093
v 9.646234 2.112361 -0.286099
v 9.663006 2.094440 -0.255381
v 9.680080 2.079138 -0.223423
v 9.495710 2.130185 -0.174326
v 9.606855 2.068686 -0.106593
v 9.520045 2.112362 -0.159891
v 9.549713 2.094417 -0.141950
v 9.580196 2.079079 -0.123234
v 9.445687 2.130204 0.012266
v 9.574815 2.068624 0.013855
v 9.473856 2.112370 0.012493
v 9.508287 2.094404 0.012875
v 9.543739 2.079042 0.013354
v 9.495666 2.130223 0.198883
v 9.607085 2.068614 0.134159
v 9.520035 2.112380 0.184883
v 9.549767 2.094407 0.167667
v 9.580335 2.079038 0.149855
v 9.632272 2.130234 0.335511
v 9.695072 2.068660 0.222380
v 9.646222 2.112391 0.311102
v 9.663055 2.094423 0.281030
v 9.680209 2.079067 0.249875
v 9.818897 2.130237 0.385522
v 9.815481 2.068747 0.254973
v 9.818624 2.112400 0.357325
v 9.817880 2.094450 0.322613
v 9.816776 2.079121 0.286672
v 10.005521 2.130230 0.335506
v 9.936262 2.068849 0.223007
v 9.991055 2.112403 0.311146
v 9.972813 2.094478 0.281212
v 9.953572 2.079184 0.250262
v 10.142120 2.130215 0.198878
v 10.024985 2.068940 0.134771
v 10.117293 2.112400 0.184927
v 10.086315 2.094500 0.167844
v 10.053901 2.079238 0.150232
v 10.192096 2.130195 0.012266
v 10.057615 2.068995 0.013830
v 10.163498 2.112392 0.012492
v 10.127898 2.094510 0.012868
v 10.090717 2.079271 0.013338
v 10.142076 2.130178 -0.174321
v 10.025211 2.069003 -0.107231
v 10.117283 2.112382 -0.159937
v 10.086369 2.094507 -0.142136
v 10.054037 2.079275 -0.123628
v 10.005476 2.130166 -0.310898
v 9.936503 2.068963 -0.195715
v 9.991045 2.112372 -0.286143
v 9.972870 2.094493 -0.255561
v 9.953717 2.079249 -0.223807
v 9.614357 2.155935 -0.342260
v 9.818922 2.155935 -0.397073
v 9.464605 2.155935 -0.192508
v 9.409793 2.155935 0.012056
v 9.464605 2.155935 0.216621
v 9.614357 2.155935 0.366373
v 9.818922 2.155935 0.421186
v 10.023487 2.155935 0.366373
v 10.173239 2.155935 0.216621
v 10.228052 2.155935 0.012056
v 10.173239 2.155935 -0.192508
v 10.023487 2.155935 -0.342260
v 9.806926 2.119957 0.016968
v 9.760764 1.773255 -0.061945
v 9.806431 1.773255 -0.074181
v 9.852098 1.773255 -0.061945
v 9.727333 1.773255 -0.028514
v 9.715096 1.773255 0.017153
v 9.727333 1.773255 0.062819
v 9.760764 1.773255 0.096250
v 9.806431 1.773255 0.108486
v 9.852098 1.773255 0.096250
v 9.885529 1.773255 0.062819
v 9.897764 1.773255 0.017153
v 9.885529 1.773255 -0.028514
v 9.671303 2.119956 -0.247784
v 9.820870 2.119956 -0.287861
v 9.561810 2.119956 -0.138292
v 9.521734 2.119956 0.011276
v 9.561810 2.119956 0.160844
v 9.671303 2.119956 0.270336
v 9.820870 2.119956 0.310413
v 9.970439 2.119956 0.270336
v 10.079931 2.119956 0.160844
v 10.120008 2.119956 0.011276
v 10.079931 2.119956 -0.138292
v 9.970439 2.119956 -0.247784
v 9.803962 1.195693 -0.137301
v 9.726511 1.195693 -0.116548
v 9.669813 1.195693 -0.059850
v 9.649060 1.195693 0.017601
v 9.669813 1.195693 0.095052
v 9.726511 1.195693 0.151751
v 9.803962 1.195693 0.172504
v 9.881413 1.195693 0.151751
v 9.938111 1.195693 0.095052
v 9.958864 1.195693 0.017601
v 9.938111 1.195693 -0.059850
v 9.881413 1.195693 -0.116548
vn -0.3082 0.7874 -0.5339
vn -0.5339 0.7874 -0.3082
vn -0.6074 0.7128 -0.3507
vn -0.3507 0.7128 -0.6074
vn 0.3507 0.7128 0.6074
vn 0.6074 0.7128 0.3507
vn 0.7013 0.7128 -0.0000
vn 0.6074 0.7128 -0.3507
vn 0.3507 0.7128 -0.6074
vn -0.0000 0.7128 -0.7013
vn -0.7013 0.7128 -0.0000
vn -0.6074 0.7128 0.3507
vn -0.3507 0.7128 0.6074
vn -0.0000 0.7128 0.7013
vn 0.5108 0.8109 -0.2854
vn 0.2854 0.8109 -0.5108
vn -0.3082 0.7874 0.5339
vn -0.0000 0.7874 0.6165
vn 0.3082 0.7874 0.5339
vn 0.5339 0.7874 0.3082
vn -0.6165 0.7874 -0.0000
vn -0.0077 0.7944 -0.6073
vn 0.6073 0.7944 0.0077
vn -0.5339 0.7874 0.3082
vn -0.2290 0.8889 -0.3967
vn -0.3967 0.8889 -0.2290
vn 0.2290 0.8889 -0.3967
vn -0.0000 0.8889 -0.4581
vn 0.3967 0.8889 -0.2290
vn 0.4581 0.8889 -0.0000
vn 0.3967 0.8889 0.2290
vn 0.2290 0.8889 0.3967
vn 0.0177 0.9371 0.3485
vn -0.0599 0.9881 0.1419
vn -0.1420 0.9881 0.0599
vn -0.3485 0.9371 -0.0176
vn -0.4320 -0.5002 -0.7504
vn -0.4404 0.4831 -0.7568
vn -0.7598 0.4944 -0.4222
vn -0.7520 -0.4905 -0.4403
vn -0.8512 0.5246 0.0176
vn -0.8833 -0.4688 -0.0087
vn -0.7049 0.5616 0.4333
vn -0.7834 -0.4384 0.4405
vn -0.3871 0.5819 0.7152
vn -0.4645 -0.4066 0.7867
vn 0.0089 0.5940 0.8044
vn -0.0046 -0.3836 0.9235
vn 0.3982 0.5979 0.6957
vn 0.4642 -0.3784 0.8009
vn 0.6942 0.5867 0.4170
vn 0.7998 -0.3931 0.4536
vn 0.8261 0.5632 0.0215
vn 0.9066 -0.4218 -0.0100
vn 0.7440 0.5332 -0.4027
vn 0.7666 -0.4541 -0.4540
vn 0.4476 0.5053 -0.7378
vn 0.4341 -0.4813 -0.7616
vn 0.0091 0.4870 -0.8734
vn -0.0033 -0.4969 -0.8678
vn -0.4413 0.4701 -0.7644
vn -0.0000 0.4701 -0.8826
vn -0.0000 0.0397 -0.9992
vn -0.4996 0.0397 -0.8653
vn 0.0023 -0.4543 -0.8909
vn -0.4455 -0.4478 -0.7752
vn -0.8324 0.5539 -0.0179
vn -0.7644 0.4701 -0.4413
vn -0.8653 0.0398 -0.4996
vn -0.9992 0.0398 -0.0000
vn -0.7758 -0.4436 -0.4488
vn -0.8965 -0.4431 0.0005
vn -0.6431 0.6829 0.3465
vn -0.8653 0.0397 0.4996
vn -0.7742 -0.4464 0.4488
vn -0.3465 0.6828 0.6432
vn -0.4996 0.0397 0.8653
vn -0.4440 -0.4525 0.7734
vn 0.0179 0.5539 0.8324
vn -0.0000 0.0398 0.9992
vn 0.0022 -0.4595 0.8882
vn 0.4413 0.4701 0.7644
vn 0.4996 0.0397 0.8653
vn 0.4440 -0.4655 0.7656
vn 0.7644 0.4701 0.4413
vn 0.8653 0.0397 0.4996
vn 0.7652 -0.4691 0.4410
vn 0.8826 0.4701 -0.0000
vn 0.9992 0.0398 -0.0000
vn 0.8829 -0.4696 0.0004
vn 0.7644 0.4701 -0.4413
vn 0.8653 0.0398 -0.4996
vn 0.7666 -0.4667 -0.4410
vn 0.4413 0.4701 -0.7644
vn 0.4996 0.0397 -0.8653
vn 0.4455 -0.4612 -0.7674
vn -0.0074 0.1073 -0.9942
vn -0.5018 0.1115 -0.8577
vn -0.8616 0.1141 -0.4946
vn 0.4912 0.1027 -0.8649
vn -0.9934 0.1144 -0.0015
vn -0.8630 0.1123 0.4925
vn -0.5032 0.1085 0.8573
vn -0.0073 0.1039 0.9946
vn 0.4927 0.0999 0.8645
vn 0.8607 0.0974 0.4997
vn 0.9953 0.0971 -0.0014
vn 0.8593 0.0990 -0.5017
vn -0.3356 0.7400 -0.5829
vn 0.0011 0.7425 -0.6699
vn -0.0000 0.4025 -0.9154
vn -0.4577 0.4025 -0.7928
vn -0.0000 -0.1889 -0.9820
vn -0.4910 -0.1889 -0.8504
vn -0.5838 0.7385 -0.3375
vn -0.7928 0.4025 -0.4577
vn -0.8504 -0.1889 -0.4910
vn -0.6745 0.7383 0.0002
vn -0.9154 0.4025 -0.0000
vn -0.9820 -0.1889 -0.0000
vn -0.5826 0.7395 0.3372
vn -0.7928 0.4025 0.4577
vn -0.8504 -0.1889 0.4910
vn -0.3344 0.7418 0.5813
vn -0.4577 0.4025 0.7928
vn -0.4910 -0.1889 0.8504
vn 0.0010 0.7444 0.6677
vn -0.0000 0.4025 0.9154
vn -0.0000 -0.1889 0.9820
vn 0.3332 0.7468 0.5756
vn 0.4577 0.4025 0.7928
vn 0.4910 -0.1889 0.8504
vn 0.5748 0.7482 0.3315
vn 0.7928 0.4025 0.4577
vn 0.8504 -0.1889 0.4910
vn 0.6633 0.7483 0.0002
vn 0.9154 0.4025 -0.0000
vn 0.9820 -0.1889 -0.0000
vn 0.5759 0.7472 -0.3317
vn 0.7928 0.4025 -0.4577
vn 0.8504 -0.1889 -0.4910
vn 0.3343 0.7451 -0.5771
vn 0.4577 0.4025 -0.7928
vn 0.4910 -0.1889 -0.8504
vn -0.0053 0.7105 -0.7037
vn -0.3644 0.6951 -0.6197
vn -0.2024 0.9161 -0.3461
vn -0.0015 0.9183 -0.3959
vn -0.1100 0.9758 -0.1891
vn 0.0002 0.9758 -0.2185
vn -0.6391 0.6777 -0.3637
vn -0.3561 0.9122 -0.2028
vn -0.1939 0.9748 -0.1103
vn -0.8513 0.5244 0.0133
vn -0.4733 0.8809 0.0076
vn -0.2326 0.9726 -0.0017
vn -0.7949 0.3999 0.4562
vn -0.4581 0.8480 0.2665
vn -0.2094 0.9699 0.1239
vn -0.4418 0.5157 0.7341
vn -0.2491 0.8728 0.4197
vn -0.1197 0.9687 0.2176
vn -0.0238 0.7284 0.6848
vn -0.0074 0.9080 0.4190
vn -0.0013 0.9689 0.2473
vn 0.2743 0.8185 0.5047
vn 0.1850 0.9244 0.3335
vn 0.1173 0.9713 0.2071
vn 0.4903 0.8279 0.2723
vn 0.3246 0.9279 0.1836
vn 0.2018 0.9725 0.1166
vn 0.6398 0.7683 -0.0162
vn 0.3943 0.9190 -0.0037
vn 0.2338 0.9723 0.0005
vn 0.5987 0.7220 -0.3468
vn 0.3477 0.9160 -0.1999
vn 0.1996 0.9733 -0.1133
vn 0.3439 0.7201 -0.6026
vn 0.1976 0.9183 -0.3431
vn 0.1120 0.9750 -0.1920
vn 0.4177 0.5606 -0.7151
vn 0.0076 0.5416 -0.8406
vn -0.4209 0.5139 -0.7475
vn -0.7536 0.4838 -0.4450
vn -0.9711 0.2385 0.0039
vn -0.8657 -0.0219 0.5001
vn -0.4894 0.2365 0.8394
vn -0.0182 0.5997 0.8000
vn 0.3188 0.7524 0.5764
vn 0.5691 0.7630 0.3065
vn 0.7569 0.6529 -0.0276
vn 0.7133 0.5670 -0.4120
vn -0.2505 0.8655 -0.4339
vn -0.4134 0.5624 -0.7161
vn -0.0000 0.5624 -0.8269
vn -0.0000 0.8655 -0.5010
vn 0.4134 0.5624 -0.7161
vn 0.2505 0.8655 -0.4339
vn -0.4339 0.8655 -0.2505
vn -0.7161 0.5624 -0.4134
vn -0.5010 0.8655 -0.0000
vn -0.8269 0.5624 -0.0000
vn -0.4339 0.8655 0.2505
vn -0.7161 0.5624 0.4134
vn -0.2505 0.8655 0.4339
vn -0.4134 0.5624 0.7161
vn -0.0000 0.8655 0.5010
vn -0.0000 0.5624 0.8269
vn 0.2505 0.8655 0.4339
vn 0.4134 0.5624 0.7161
vn 0.4339 0.8655 0.2505
vn 0.7161 0.5624 0.4134
vn 0.5010 0.8655 -0.0000
vn 0.8269 0.5624 -0.0000
vn 0.4339 0.8655 -0.2505
vn 0.7161 0.5624 -0.4134
vn 0.6577 -0.6504 -0.3800
vn 0.7598 -0.6502 0.0006
vn 0.3801 -0.6462 0.6618
vn -0.0018 -0.6434 0.7656
vn -0.6658 -0.6397 0.3840
vn -0.7684 -0.6400 0.0007
vn 0.3793 -0.6493 -0.6592
vn -0.3840 -0.6443 -0.6614
vn -0.0017 -0.6471 -0.7624
vn 0.6584 -0.6487 0.3817
vn -0.3849 -0.6410 0.6641
vn -0.6650 -0.6417 -0.3822
vn 0.0008 0.9767 0.2146
vn -0.0016 0.9558 0.2940
vn -0.1496 0.9548 0.2568
vn -0.1081 0.9762 0.1882
vn -0.1431 -0.9587 -0.2460
vn -0.1785 -0.9347 -0.3075
vn -0.0008 -0.9367 -0.3501
vn -0.0009 -0.9604 -0.2787
vn -0.2144 -0.9038 -0.3702
vn -0.0005 -0.9059 -0.4234
vn -0.2497 -0.8665 -0.4322
vn -0.0000 -0.8681 -0.4963
vn -0.2795 -0.8290 -0.4845
vn 0.0002 -0.8297 -0.5582
vn -0.2517 -0.9570 -0.1444
vn -0.3128 -0.9327 -0.1797
vn -0.3746 -0.9018 -0.2157
vn -0.4349 -0.8648 -0.2509
vn -0.4857 -0.8279 -0.2804
vn -0.2939 -0.9558 0.0004
vn -0.3643 -0.9313 0.0004
vn -0.4353 -0.9003 0.0003
vn -0.5044 -0.8635 0.0002
vn -0.5623 -0.8269 0.0001
vn -0.2551 -0.9556 0.1471
vn -0.3162 -0.9310 0.1825
vn -0.3777 -0.8999 0.2181
vn -0.4376 -0.8629 0.2528
vn -0.4878 -0.8262 0.2819
vn -0.1465 -0.9564 0.2525
vn -0.1819 -0.9318 0.3140
vn -0.2176 -0.9006 0.3763
vn -0.2523 -0.8632 0.4372
vn -0.2816 -0.8260 0.4883
vn -0.0009 -0.9580 0.2868
vn -0.0008 -0.9336 0.3583
vn -0.0005 -0.9023 0.4311
vn -0.0000 -0.8644 0.5028
vn 0.0002 -0.8263 0.5633
vn 0.1396 -0.9597 0.2437
vn 0.1757 -0.9357 0.3060
vn 0.2128 -0.9044 0.3698
vn 0.2499 -0.8660 0.4331
vn 0.2812 -0.8270 0.4868
vn 0.2383 -0.9613 0.1384
vn 0.3009 -0.9376 0.1745
vn 0.3656 -0.9064 0.2117
vn 0.4304 -0.8677 0.2487
vn 0.4856 -0.8280 0.2803
vn 0.2723 -0.9622 0.0003
vn 0.3446 -0.9387 0.0004
vn 0.4196 -0.9077 0.0003
vn 0.4949 -0.8690 0.0002
vn 0.5592 -0.8290 0.0001
vn 0.2353 -0.9624 -0.1360
vn 0.2978 -0.9390 -0.1720
vn 0.3626 -0.9081 -0.2093
vn 0.4278 -0.8695 -0.2468
vn 0.4835 -0.8297 -0.2789
vn 0.1365 -0.9617 -0.2376
vn 0.1725 -0.9383 -0.2998
vn 0.2098 -0.9075 -0.3640
vn 0.2473 -0.8692 -0.4282
vn 0.2791 -0.8300 -0.4830
vn -0.4815 0.2671 -0.8347
vn 0.0001 0.2669 -0.9637
vn 0.4816 0.2670 -0.8347
vn -0.8341 0.2676 -0.4823
vn -0.9634 0.2682 -0.0006
vn -0.8344 0.2688 0.4812
vn -0.4818 0.2692 0.8339
vn 0.0001 0.2693 0.9631
vn 0.4819 0.2690 0.8339
vn 0.8345 0.2685 0.4811
vn 0.9634 0.2679 -0.0006
vn 0.8342 0.2674 -0.4822
vn 0.1065 0.9774 0.1828
vn 0.1812 0.9779 0.1039
vn 0.2072 0.9783 -0.0003
vn 0.1792 0.9784 -0.1033
vn 0.1044 0.9781 -0.1799
vn 0.0008 0.9776 -0.2103
vn -0.1059 0.9770 -0.1851
vn -0.1868 0.9764 -0.1086
vn -0.2179 0.9760 -0.0003
vn -0.1890 0.9759 0.1092
vn 0.2475 0.9581 0.1444
vn 0.1436 0.9570 0.2521
vn -0.2983 0.9545 0.0007
vn -0.2570 0.9552 -0.1467
vn -0.0016 0.9575 -0.2884
vn 0.1417 0.9584 -0.2476
vn 0.2842 0.9588 0.0006
vn -0.2589 0.9543 0.1492
vn -0.1476 0.9563 -0.2522
vn 0.2456 0.9589 -0.1421
vn -0.0000 1.0000 -0.0000
vn 0.6920 0.6014 -0.3993
vn 0.7998 0.6003 0.0010
vn 0.4005 0.5949 0.6969
vn -0.0014 0.5920 0.8059
vn -0.6993 0.5897 0.4040
vn -0.8067 0.5909 0.0011
vn 0.3991 0.6010 -0.6925
vn -0.4027 0.5965 -0.6943
vn -0.3839 -0.6443 -0.6614
vn -0.0013 0.5992 -0.8006
vn 0.6934 0.5979 0.4021
vn -0.4042 0.5901 0.6988
vn -0.6979 0.5934 -0.4011
vn -0.2795 -0.8290 -0.4844
vn -0.4857 -0.8280 -0.2804
vn -0.4338 0.8655 -0.2505
vn -0.1819 -0.9319 0.3140
vn -0.0016 0.9575 -0.2883
vn 0.0013 0.9017 -0.4325
vn -0.2174 0.8991 -0.3799
vn 0.2218 0.8976 0.3808
vn 0.3775 0.9004 0.2161
vn -0.3904 0.8927 0.2251
vn -0.2244 0.8931 0.3900
vn 0.2151 0.9033 -0.3713
vn -0.3833 0.8962 -0.2232
vn 0.4305 0.9026 -0.0010
vn 0.0014 0.8949 0.4462
vn -0.4484 0.8939 -0.0011
vn 0.3708 0.9036 -0.2143
vt 0.262602 0.261549
vt 0.259741 0.213473
vt 0.272892 0.216141
vt 0.275682 0.257187
vt 0.425070 0.203337
vt 0.428103 0.243968
vt 0.410626 0.280676
vt 0.377455 0.304443
vt 0.336530 0.308695
vt 0.298878 0.291442
vt 0.290639 0.179443
vt 0.324034 0.156175
vt 0.364636 0.152302
vt 0.401827 0.169539
vt 0.382266 0.317001
vt 0.334325 0.322321
vt 0.366915 0.138872
vt 0.410880 0.158912
vt 0.437941 0.198940
vt 0.441152 0.246488
vt 0.280585 0.170784
vt 0.289726 0.302178
vt 0.420806 0.289189
vt 0.319433 0.143640
vt 0.450769 0.194604
vt 0.454058 0.248984
vt 0.369080 0.125474
vt 0.419956 0.148200
vt 0.314813 0.131275
vt 0.270648 0.162250
vt 0.246729 0.210792
vt 0.249556 0.265851
vt 0.280524 0.313006
vt 0.332420 0.335040
vt 0.386783 0.328560
vt 0.430878 0.297513
vt 0.489926 0.182168
vt 0.500016 0.179310
vt 0.501372 0.259368
vt 0.491872 0.256690
vt 0.466894 0.328593
vt 0.460116 0.321738
vt 0.404430 0.374399
vt 0.401657 0.365045
vt 0.325134 0.387033
vt 0.327088 0.376937
vt 0.243024 0.357069
vt 0.250538 0.348800
vt 0.199369 0.281421
vt 0.209136 0.278443
vt 0.198390 0.200764
vt 0.207926 0.202276
vt 0.233466 0.131379
vt 0.241284 0.136865
vt 0.296284 0.085853
vt 0.300809 0.094545
vt 0.375612 0.073942
vt 0.375153 0.084390
vt 0.456573 0.104537
vt 0.449543 0.113461
vt 0.452515 0.194018
vt 0.421396 0.146510
vt 0.423846 0.143627
vt 0.455730 0.192948
vt 0.426269 0.140771
vt 0.458913 0.191883
vt 0.432099 0.298516
vt 0.455663 0.249296
vt 0.458756 0.249903
vt 0.434483 0.300483
vt 0.461819 0.250501
vt 0.436841 0.302431
vt 0.387536 0.330314
vt 0.388726 0.333296
vt 0.389904 0.336249
vt 0.332082 0.337151
vt 0.331593 0.340583
vt 0.331109 0.343982
vt 0.279068 0.314745
vt 0.276588 0.317690
vt 0.274133 0.320606
vt 0.247754 0.266438
vt 0.244460 0.267507
vt 0.241199 0.268565
vt 0.245096 0.210432
vt 0.241963 0.209760
vt 0.238860 0.209096
vt 0.269441 0.161195
vt 0.267085 0.159155
vt 0.264750 0.157137
vt 0.314233 0.129725
vt 0.313117 0.126751
vt 0.312012 0.123806
vt 0.369381 0.123644
vt 0.369919 0.120283
vt 0.370453 0.116955
vt 0.431336 0.135136
vt 0.465713 0.189839
vt 0.468423 0.251897
vt 0.371749 0.109868
vt 0.441982 0.306659
vt 0.392571 0.342560
vt 0.330333 0.351195
vt 0.269332 0.326662
vt 0.234264 0.270960
vt 0.232007 0.207717
vt 0.259579 0.152635
vt 0.309700 0.117281
vt 0.475191 0.186709
vt 0.438153 0.126808
vt 0.442231 0.122034
vt 0.480513 0.185067
vt 0.445923 0.117709
vt 0.485277 0.183600
vt 0.477710 0.253746
vt 0.482837 0.254811
vt 0.487413 0.255762
vt 0.449143 0.312664
vt 0.453115 0.315952
vt 0.456660 0.318884
vt 0.396064 0.351506
vt 0.398083 0.356408
vt 0.399890 0.360783
vt 0.328890 0.361306
vt 0.328231 0.366950
vt 0.327648 0.372004
vt 0.262082 0.334995
vt 0.257952 0.339929
vt 0.254209 0.344403
vt 0.224266 0.273863
vt 0.218803 0.275517
vt 0.213911 0.276998
vt 0.222325 0.205517
vt 0.217113 0.204346
vt 0.212461 0.203298
vt 0.252181 0.146306
vt 0.248236 0.142888
vt 0.244716 0.139837
vt 0.306057 0.108175
vt 0.304159 0.103241
vt 0.302466 0.098836
vt 0.372989 0.099757
vt 0.373775 0.094207
vt 0.374476 0.089239
vt 0.471590 0.087296
vt 0.518044 0.174201
vt 0.513787 0.175448
vt 0.467876 0.091797
vt 0.509364 0.176688
vt 0.463985 0.096287
vt 0.518252 0.262400
vt 0.514272 0.261657
vt 0.510146 0.260914
vt 0.480141 0.338240
vt 0.477021 0.335862
vt 0.473770 0.333487
vt 0.412730 0.391064
vt 0.411342 0.388022
vt 0.409774 0.384901
vt 0.324624 0.403927
vt 0.324936 0.399652
vt 0.325057 0.395380
vt 0.229961 0.373056
vt 0.233655 0.368792
vt 0.237173 0.364514
vt 0.183104 0.285415
vt 0.187415 0.284400
vt 0.191609 0.283383
vt 0.183211 0.196263
vt 0.187192 0.197416
vt 0.191077 0.198572
vt 0.222188 0.120259
vt 0.225137 0.123005
vt 0.227977 0.125800
vt 0.290963 0.070044
vt 0.292450 0.073911
vt 0.293789 0.077845
vt 0.378176 0.055671
vt 0.377765 0.060147
vt 0.377160 0.064677
vt 0.378369 0.052515
vt 0.474369 0.083830
vt 0.520979 0.173323
vt 0.520979 0.262929
vt 0.482258 0.339912
vt 0.413384 0.392605
vt 0.324323 0.406899
vt 0.227074 0.376294
vt 0.177208 0.286748
vt 0.177775 0.194716
vt 0.220050 0.118343
vt 0.289832 0.067334
vt 0.735591 0.383797
vt 0.737707 0.393596
vt 0.748308 0.392748
vt 0.747470 0.383048
vt 0.758997 0.392521
vt 0.758691 0.383042
vt 0.723489 0.386862
vt 0.727772 0.395213
vt 0.782499 0.383498
vt 0.780700 0.393866
vt 0.791018 0.395662
vt 0.795730 0.386367
vt 0.770140 0.382875
vt 0.769939 0.392859
vt 0.758964 0.382767
vt 0.759056 0.392457
vt 0.747883 0.383134
vt 0.748251 0.392865
vt 0.735960 0.384007
vt 0.737724 0.393787
vt 0.723700 0.386728
vt 0.727758 0.395252
vt 0.782502 0.383093
vt 0.780634 0.393460
vt 0.790929 0.395227
vt 0.795644 0.386006
vt 0.770097 0.382339
vt 0.769836 0.392481
vt 0.766489 0.471828
vt 0.774863 0.472241
vt 0.740626 0.472579
vt 0.749123 0.472210
vt 0.766006 0.472296
vt 0.774410 0.472768
vt 0.758085 0.471702
vt 0.741172 0.472272
vt 0.749645 0.471851
vt 0.732079 0.473202
vt 0.757579 0.472110
vt 0.732658 0.472944
vt 0.783240 0.472944
vt 0.782803 0.473528
vt 0.200298 0.638572
vt 0.226860 0.630228
vt 0.224354 0.571436
vt 0.197246 0.566613
vt 0.584638 0.683766
vt 0.595765 0.696503
vt 0.639009 0.639968
vt 0.623060 0.633907
vt 0.608689 0.711552
vt 0.657567 0.647235
vt 0.621560 0.726729
vt 0.676078 0.654664
vt 0.632488 0.739838
vt 0.691859 0.661187
vt 0.526625 0.709265
vt 0.530135 0.726125
vt 0.534441 0.745835
vt 0.538927 0.765549
vt 0.542914 0.782421
vt 0.567325 0.472547
vt 0.575051 0.458154
vt 0.506163 0.439927
vt 0.506591 0.456938
vt 0.584261 0.441199
vt 0.506141 0.419993
vt 0.593641 0.424142
vt 0.506543 0.400020
vt 0.601810 0.409463
vt 0.507291 0.382906
vt 0.612885 0.514856
vt 0.626586 0.506139
vt 0.642737 0.495803
vt 0.659024 0.485331
vt 0.673081 0.476241
vt 0.633030 0.573479
vt 0.649324 0.572585
vt 0.668517 0.571373
vt 0.687862 0.570016
vt 0.704552 0.568709
vt 0.622958 0.634704
vt 0.637852 0.641901
vt 0.655427 0.650151
vt 0.673167 0.658268
vt 0.688499 0.665078
vt 0.584776 0.683991
vt 0.594696 0.697660
vt 0.606483 0.713485
vt 0.618455 0.729167
vt 0.628860 0.742435
vt 0.527058 0.709129
vt 0.529403 0.726657
vt 0.532604 0.746880
vt 0.536213 0.766880
vt 0.539687 0.783773
vt 0.564713 0.470834
vt 0.573061 0.455530
vt 0.502932 0.438998
vt 0.502751 0.456840
vt 0.582748 0.437752
vt 0.503353 0.418351
vt 0.592394 0.420069
vt 0.503958 0.397872
vt 0.600584 0.405034
vt 0.504629 0.380510
vt 0.611855 0.512678
vt 0.626196 0.502929
vt 0.642898 0.491649
vt 0.659574 0.480455
vt 0.673810 0.470962
vt 0.632930 0.571876
vt 0.650052 0.569820
vt 0.670002 0.567576
vt 0.689933 0.565465
vt 0.706962 0.563793
vt 0.646960 0.757448
vt 0.712872 0.670051
vt 0.518833 0.607520
vt 0.526640 0.597556
vt 0.729675 0.561660
vt 0.528719 0.584991
vt 0.507375 0.612517
vt 0.548313 0.804673
vt 0.523339 0.557638
vt 0.511133 0.554599
vt 0.612798 0.389863
vt 0.508649 0.360308
vt 0.532605 0.566236
vt 0.691877 0.464048
vt 0.536785 0.578141
vt 0.726852 0.566867
vt 0.534738 0.590632
vt 0.708995 0.674011
vt 0.526934 0.600587
vt 0.642829 0.759933
vt 0.515353 0.605492
vt 0.544625 0.805817
vt 0.514941 0.564673
vt 0.502751 0.561971
vt 0.611409 0.385079
vt 0.505655 0.357784
vt 0.524480 0.572959
vt 0.692758 0.458354
vt 0.183546 0.643375
vt 0.223038 0.713211
vt 0.235762 0.701276
vt 0.290258 0.757278
vt 0.295696 0.740768
vt 0.352667 0.442337
vt 0.353933 0.424986
vt 0.274884 0.440100
vt 0.282129 0.456001
vt 0.211697 0.489818
vt 0.225428 0.500614
vt 0.178202 0.562906
vt 0.195351 0.566237
vt 0.181799 0.643250
vt 0.198585 0.638381
vt 0.221679 0.713137
vt 0.234402 0.701125
vt 0.289272 0.757080
vt 0.294661 0.740505
vt 0.353821 0.442476
vt 0.354983 0.425184
vt 0.276305 0.440703
vt 0.283605 0.456516
vt 0.213484 0.490413
vt 0.227188 0.501149
vt 0.180151 0.563278
vt 0.304976 0.713888
vt 0.255841 0.681472
vt 0.294866 0.481487
vt 0.352415 0.469939
vt 0.226100 0.631167
vt 0.223446 0.572193
vt 0.294362 0.482054
vt 0.352242 0.470801
vt 0.248794 0.517952
vt 0.255373 0.682443
vt 0.248026 0.518546
vt 0.304797 0.714778
vt 0.716468 0.762650
vt 0.662953 0.855341
vt 0.755644 0.801826
vt 0.769983 0.855341
vt 0.755644 0.908856
vt 0.716468 0.948031
vt 0.662953 0.962371
vt 0.662953 0.748311
vt 0.662954 0.855341
vt 0.769983 0.855341
vt 0.928197 0.528189
vt 0.924718 0.609294
vt 0.933200 0.609607
vt 0.938887 0.529647
vt 0.894378 0.527507
vt 0.898207 0.609302
vt 0.906893 0.609108
vt 0.905633 0.526971
vt 0.927798 0.527876
vt 0.924356 0.609605
vt 0.933127 0.610269
vt 0.938725 0.528911
vt 0.917159 0.527651
vt 0.916202 0.609302
vt 0.895035 0.528606
vt 0.899044 0.609784
vt 0.907631 0.609629
vt 0.906063 0.527668
vt 0.883714 0.529129
vt 0.889545 0.609784
vt 0.916809 0.527176
vt 0.915608 0.609211
vt 0.884830 0.530447
vt 0.890481 0.610238
vt 0.941667 0.610238
vt 0.948700 0.531677
vt 0.941965 0.611216
vt 0.948999 0.530810
vt 0.886095 0.776415
vt 0.867054 0.788044
vt 0.879295 0.833173
vt 0.901376 0.832727
vt 0.425256 0.547170
vt 0.415505 0.537196
vt 0.382506 0.585749
vt 0.395919 0.590004
vt 0.404167 0.525400
vt 0.366888 0.580622
vt 0.392867 0.513496
vt 0.351301 0.575359
vt 0.383262 0.503205
vt 0.338004 0.570716
vt 0.471851 0.523492
vt 0.468183 0.509771
vt 0.463726 0.493739
vt 0.459121 0.477712
vt 0.455059 0.464002
vt 0.447357 0.715780
vt 0.441718 0.728017
vt 0.499344 0.739569
vt 0.498139 0.725586
vt 0.434986 0.742437
vt 0.500362 0.755978
vt 0.428119 0.756950
vt 0.501032 0.772442
vt 0.422129 0.769444
vt 0.501274 0.786569
vt 0.407728 0.683233
vt 0.396885 0.691097
vt 0.384107 0.700416
vt 0.371224 0.709853
vt 0.360108 0.718042
vt 0.388204 0.635981
vt 0.374834 0.637534
vt 0.359095 0.639495
vt 0.343237 0.641582
vt 0.329562 0.643494
vt 0.393427 0.585073
vt 0.380804 0.579895
vt 0.365922 0.573984
vt 0.350910 0.568191
vt 0.337947 0.563353
vt 0.422389 0.542583
vt 0.413537 0.531827
vt 0.403039 0.519390
vt 0.392397 0.507080
vt 0.383166 0.496678
vt 0.468645 0.518994
vt 0.465836 0.504681
vt 0.462187 0.488193
vt 0.458213 0.471909
vt 0.454506 0.458176
vt 0.451499 0.721597
vt 0.445332 0.734585
vt 0.503846 0.744960
vt 0.503171 0.730259
vt 0.438176 0.749673
vt 0.504453 0.761982
vt 0.431049 0.764680
vt 0.504901 0.778874
vt 0.424999 0.777440
vt 0.505150 0.793202
vt 0.410746 0.689317
vt 0.399387 0.698007
vt 0.386154 0.708067
vt 0.372938 0.718056
vt 0.361653 0.726531
vt 0.390657 0.641541
vt 0.376652 0.644025
vt 0.360327 0.646795
vt 0.344012 0.649454
vt 0.330065 0.651617
vt 0.370532 0.489372
vt 0.320290 0.564388
vt 0.482968 0.606919
vt 0.476999 0.615484
vt 0.311460 0.654423
vt 0.475868 0.625927
vt 0.492173 0.602274
vt 0.449585 0.445927
vt 0.479303 0.643523
vt 0.489503 0.645413
vt 0.414066 0.786131
vt 0.501289 0.805240
vt 0.471243 0.636910
vt 0.345244 0.729022
vt 0.467205 0.627318
vt 0.311296 0.646129
vt 0.468264 0.616933
vt 0.320625 0.557026
vt 0.474189 0.608346
vt 0.370789 0.482973
vt 0.483477 0.603726
vt 0.449336 0.440275
vt 0.488152 0.642023
vt 0.498315 0.643684
vt 0.417007 0.794372
vt 0.505355 0.811965
vt 0.479913 0.635640
vt 0.346632 0.737789
vt 0.898368 0.769312
vt 0.852096 0.722965
vt 0.844938 0.735171
vt 0.789277 0.705309
vt 0.789116 0.719433
vt 0.790118 0.947007
vt 0.790272 0.961085
vt 0.852993 0.943539
vt 0.845844 0.931334
vt 0.899266 0.897194
vt 0.886995 0.890087
vt 0.916512 0.833854
vt 0.902319 0.833781
vt 0.899920 0.770345
vt 0.887580 0.777329
vt 0.854093 0.723567
vt 0.846818 0.735692
vt 0.791517 0.705311
vt 0.791217 0.719418
vt 0.790185 0.946992
vt 0.790472 0.961087
vt 0.853113 0.942924
vt 0.845846 0.930775
vt 0.898978 0.896158
vt 0.886641 0.889169
vt 0.915568 0.832658
vt 0.788583 0.742475
vt 0.833979 0.754922
vt 0.834687 0.911838
vt 0.789425 0.924680
vt 0.867529 0.788050
vt 0.879343 0.833321
vt 0.833997 0.911588
vt 0.788586 0.924026
vt 0.867480 0.878428
vt 0.834751 0.754600
vt 0.867073 0.878454
vt 0.789450 0.741716
vt 0.788583 0.833592
vt 0.788586 0.832879
vt 0.793907 0.503057
vt 0.796068 0.513728
vt 0.807670 0.512564
vt 0.806948 0.501760
vt 0.819554 0.512366
vt 0.819186 0.501854
vt 0.780594 0.506225
vt 0.785157 0.515445
vt 0.845419 0.501761
vt 0.843494 0.513443
vt 0.854760 0.515531
vt 0.860234 0.505562
vt 0.831656 0.501761
vt 0.831499 0.512693
vt 0.819156 0.501853
vt 0.819666 0.512420
vt 0.806839 0.502040
vt 0.807857 0.512693
vt 0.793852 0.502905
vt 0.796196 0.513636
vt 0.780594 0.506250
vt 0.785277 0.515400
vt 0.845252 0.501760
vt 0.843367 0.513417
vt 0.854636 0.515481
vt 0.860069 0.505494
vt 0.831553 0.501819
vt 0.831382 0.512675
vt 0.827679 0.599798
vt 0.836908 0.600254
vt 0.799838 0.600216
vt 0.809179 0.599764
vt 0.827719 0.599777
vt 0.836942 0.600243
vt 0.818419 0.599652
vt 0.799802 0.600271
vt 0.809127 0.599812
vt 0.790467 0.600937
vt 0.818465 0.599617
vt 0.790422 0.601007
vt 0.846129 0.601032
vt 0.846158 0.601032
vt 0.524444 0.936462
vt 0.531668 0.929584
vt 0.549730 0.940032
vt 0.547018 0.949522
vt 0.256633 0.856240
vt 0.246498 0.862984
vt 0.282781 0.899154
vt 0.288605 0.888342
vt 0.234545 0.870794
vt 0.275853 0.911715
vt 0.222505 0.878553
vt 0.268812 0.924228
vt 0.212123 0.885120
vt 0.262675 0.934877
vt 0.243885 0.812445
vt 0.231524 0.813366
vt 0.217054 0.814588
vt 0.202564 0.815938
vt 0.190149 0.817198
vt 0.410370 0.861071
vt 0.419899 0.867960
vt 0.439492 0.820558
vt 0.427315 0.819237
vt 0.431114 0.876152
vt 0.453714 0.822449
vt 0.442386 0.884475
vt 0.467925 0.824646
vt 0.452076 0.891707
vt 0.480063 0.826817
vt 0.375829 0.889527
vt 0.380738 0.900135
vt 0.386567 0.912646
vt 0.392479 0.925267
vt 0.397620 0.936164
vt 0.332081 0.898291
vt 0.331160 0.910002
vt 0.330189 0.923809
vt 0.329307 0.937740
vt 0.328643 0.949771
vt 0.289366 0.885250
vt 0.282808 0.895187
vt 0.275241 0.906936
vt 0.267754 0.918815
vt 0.261429 0.929102
vt 0.257857 0.853297
vt 0.247157 0.859067
vt 0.234740 0.865962
vt 0.222407 0.873003
vt 0.211947 0.879157
vt 0.245444 0.809717
vt 0.232715 0.809713
vt 0.217983 0.810062
vt 0.203369 0.810724
vt 0.190985 0.811587
vt 0.410459 0.862022
vt 0.420596 0.869416
vt 0.438981 0.820923
vt 0.426265 0.819118
vt 0.432373 0.877999
vt 0.453676 0.823163
vt 0.444086 0.886544
vt 0.468234 0.825518
vt 0.454047 0.893801
vt 0.480560 0.827628
vt 0.376170 0.891733
vt 0.381780 0.902883
vt 0.388261 0.915861
vt 0.394683 0.928813
vt 0.400120 0.939865
vt 0.331945 0.901212
vt 0.331804 0.913624
vt 0.331531 0.928072
vt 0.331166 0.942493
vt 0.330759 0.954803
vt 0.198197 0.893793
vt 0.254375 0.949040
vt 0.317225 0.816441
vt 0.323603 0.822948
vt 0.330148 0.971212
vt 0.332374 0.825612
vt 0.314735 0.807795
vt 0.173762 0.818960
vt 0.353874 0.821553
vt 0.357209 0.813136
vt 0.465008 0.901421
vt 0.496054 0.829948
vt 0.346854 0.827341
vt 0.404521 0.950740
vt 0.337961 0.829184
vt 0.327825 0.965857
vt 0.329246 0.826529
vt 0.253095 0.942870
vt 0.322890 0.820010
vt 0.198128 0.887449
vt 0.320498 0.811279
vt 0.174787 0.813001
vt 0.348168 0.817688
vt 0.351241 0.809243
vt 0.467270 0.903400
vt 0.496682 0.830495
vt 0.341359 0.823718
vt 0.407338 0.954571
vt 0.519952 0.940947
vt 0.505286 0.915514
vt 0.511417 0.913873
vt 0.505286 0.886154
vt 0.511420 0.887797
vt 0.519967 0.860696
vt 0.524463 0.865200
vt 0.545451 0.846058
vt 0.547086 0.852194
vt 0.574811 0.846081
vt 0.573164 0.852210
vt 0.600220 0.860772
vt 0.595731 0.865257
vt 0.614895 0.886198
vt 0.608763 0.887841
vt 0.614903 0.915570
vt 0.608765 0.913928
vt 0.600214 0.941045
vt 0.595714 0.936541
vt 0.574732 0.955704
vt 0.573098 0.949566
vt 0.545367 0.955652
vt 0.521248 0.890636
vt 0.521243 0.911508
vt 0.588695 0.929629
vt 0.599134 0.911552
vt 0.588713 0.872607
vt 0.570648 0.862162
vt 0.531695 0.872559
vt 0.570605 0.940060
vt 0.599139 0.890683
vt 0.549784 0.862151
vt 0.559406 0.899225
vt 0.906298 0.516968
vt 0.893398 0.518040
vt 0.892271 0.516897
vt 0.878655 0.519708
vt 0.928553 0.518205
vt 0.916821 0.517545
vt 0.918093 0.517648
vt 0.880355 0.522014
vt 0.953102 0.523754
vt 0.940991 0.519741
vt 0.905063 0.516913
vt 0.953865 0.522400
vt 0.941123 0.518956
vt 0.929244 0.518134
s 1
usemtl Fountain
f 8/1/1 9/2/2 21/3/3 20/4/4
f 13/5/5 15/6/6 16/7/7 17/8/8 18/9/9 19/10/10 20/4/4 21/3/3 22/11/11 23/12/12 24/13/13 14/14/14
f 5/15/15 6/16/16 18/9/9 17/8/8
f 12/17/17 1/18/18 14/14/14 24/13/13
f 2/19/19 3/20/20 15/6/6 13/5/5
f 9/2/2 10/21/21 22/11/11 21/3/3
f 6/16/16 7/22/22 19/10/10 18/9/9
f 3/20/20 4/23/23 16/7/7 15/6/6
f 10/21/21 11/24/24 23/12/12 22/11/11
f 7/22/22 8/1/1 20/4/4 19/10/10
f 4/23/23 5/15/15 17/8/8 16/7/7
f 11/24/24 12/17/17 24/13/13 23/12/12
f 1/18/18 2/19/19 13/5/5 14/14/14
f 3/20/20 2/19/19 37/25/25 39/26/26
f 1/18/18 12/17/17 48/27/27 38/28/28
f 12/17/17 11/24/24 47/29/29 48/27/27
f 11/24/24 10/21/21 46/30/30 47/29/29
f 10/21/21 9/2/2 45/31/31 46/30/30
f 9/2/2 8/1/1 44/32/32 45/31/31
f 8/1/1 7/22/22 43/33/33 44/32/32
f 7/22/22 6/16/16 42/34/34 43/33/33
f 6/16/16 5/15/15 41/35/35 42/34/34
f 5/15/15 4/23/23 40/36/36 41/35/35
f 4/23/23 3/20/20 39/26/26 40/36/36
f 2/19/19 1/18/18 38/28/28 37/25/25
f 52/37/37 146/38/38 147/39/39 54/40/40
f 54/40/40 147/39/39 148/41/41 56/42/42
f 56/42/42 148/41/41 149/43/43 58/44/44
f 58/44/44 149/43/43 150/45/45 60/46/46
f 60/46/46 150/45/45 151/47/47 62/48/48
f 62/48/48 151/47/47 152/49/49 64/50/50
f 64/50/50 152/49/49 153/51/51 66/52/52
f 66/52/52 153/51/51 154/53/53 68/54/54
f 68/54/54 154/53/53 155/55/55 70/56/56
f 70/56/56 155/55/55 156/57/57 72/58/58
f 72/58/58 156/57/57 145/59/59 50/60/60
f 50/60/60 145/59/59 146/38/38 52/37/37
f 74/61/61 76/62/62 78/63/63 75/64/64
f 75/64/64 78/63/63 77/65/65 73/66/66
f 83/67/67 79/68/68 81/69/69 84/70/70
f 84/70/70 81/69/69 80/71/71 82/72/72
f 86/73/73 83/67/67 84/70/70 87/74/74
f 87/74/74 84/70/70 82/72/72 85/75/75
f 89/76/76 86/73/73 87/74/74 90/77/77
f 90/77/77 87/74/74 85/75/75 88/78/78
f 92/79/79 89/76/76 90/77/77 93/80/80
f 93/80/80 90/77/77 88/78/78 91/81/81
f 95/82/82 92/79/79 93/80/80 96/83/83
f 96/83/83 93/80/80 91/81/81 94/84/84
f 98/85/85 95/82/82 96/83/83 99/86/86
f 99/86/86 96/83/83 94/84/84 97/87/87
f 101/88/88 98/85/85 99/86/86 102/89/89
f 102/89/89 99/86/86 97/87/87 100/90/90
f 104/91/91 101/88/88 102/89/89 105/92/92
f 105/92/92 102/89/89 100/90/90 103/93/93
f 107/94/94 104/91/91 105/92/92 108/95/95
f 108/95/95 105/92/92 103/93/93 106/96/96
f 76/62/62 107/94/94 108/95/95 78/63/63
f 78/63/63 108/95/95 106/96/96 77/65/65
f 73/66/66 80/71/71 81/69/69 75/64/64
f 75/64/64 81/69/69 79/68/68 74/61/61
f 25/97/97 26/98/98 73/66/66 77/65/65
f 39/26/26 37/25/25 74/61/61 79/68/68
f 73/66/66 26/98/98 27/99/99 80/71/71
f 37/25/25 38/28/28 76/62/62 74/61/61
f 36/100/100 25/97/97 77/65/65 106/96/96
f 38/28/28 48/27/27 107/94/94 76/62/62
f 27/99/99 28/101/101 82/72/72 80/71/71
f 40/36/36 39/26/26 79/68/68 83/67/67
f 41/35/35 40/36/36 83/67/67 86/73/73
f 28/101/101 29/102/102 85/75/75 82/72/72
f 42/34/34 41/35/35 86/73/73 89/76/76
f 29/102/102 30/103/103 88/78/78 85/75/75
f 43/33/33 42/34/34 89/76/76 92/79/79
f 30/103/103 31/104/104 91/81/81 88/78/78
f 44/32/32 43/33/33 92/79/79 95/82/82
f 31/104/104 32/105/105 94/84/84 91/81/81
f 45/31/31 44/32/32 95/82/82 98/85/85
f 32/105/105 33/106/106 97/87/87 94/84/84
f 46/30/30 45/31/31 98/85/85 101/88/88
f 33/106/106 34/107/107 100/90/90 97/87/87
f 47/29/29 46/30/30 101/88/88 104/91/91
f 34/107/107 35/108/108 103/93/93 100/90/90
f 48/27/27 47/29/29 104/91/91 107/94/94
f 35/108/108 36/100/100 106/96/96 103/93/93
f 113/109/109 109/110/110 111/111/111 114/112/112
f 114/112/112 111/111/111 110/113/113 112/114/114
f 116/115/115 113/109/109 114/112/112 117/116/116
f 117/116/116 114/112/112 112/114/114 115/117/117
f 119/118/118 116/115/115 117/116/116 120/119/119
f 120/119/119 117/116/116 115/117/117 118/120/120
f 122/121/121 119/118/118 120/119/119 123/122/122
f 123/122/122 120/119/119 118/120/120 121/123/123
f 125/124/124 122/121/121 123/122/122 126/125/125
f 126/125/125 123/122/122 121/123/123 124/126/126
f 128/127/127 125/124/124 126/125/125 129/128/128
f 129/128/128 126/125/125 124/126/126 127/129/129
f 131/130/130 128/127/127 129/128/128 132/131/131
f 132/131/131 129/128/128 127/129/129 130/132/132
f 134/133/133 131/130/130 132/131/131 135/134/134
f 135/134/134 132/131/131 130/132/132 133/135/135
f 137/136/136 134/133/133 135/134/134 138/137/137
f 138/137/137 135/134/134 133/135/135 136/138/138
f 140/139/139 137/136/136 138/137/137 141/140/140
f 141/140/140 138/137/137 136/138/138 139/141/141
f 143/142/142 140/139/139 141/140/140 144/143/143
f 144/143/143 141/140/140 139/141/141 142/144/144
f 109/110/110 143/142/142 144/143/143 111/111/111
f 111/111/111 144/143/143 142/144/144 110/113/113
f 72/58/58 50/60/60 110/113/113 142/144/144
f 25/97/97 36/100/100 143/142/142 109/110/110
f 50/60/60 52/37/37 112/114/114 110/113/113
f 26/98/98 25/97/97 109/110/110 113/109/109
f 52/37/37 54/40/40 115/117/117 112/114/114
f 27/99/99 26/98/98 113/109/109 116/115/115
f 54/40/40 56/42/42 118/120/120 115/117/117
f 28/101/101 27/99/99 116/115/115 119/118/118
f 56/42/42 58/44/44 121/123/123 118/120/120
f 29/102/102 28/101/101 119/118/118 122/121/121
f 58/44/44 60/46/46 124/126/126 121/123/123
f 30/103/103 29/102/102 122/121/121 125/124/124
f 60/46/46 62/48/48 127/129/129 124/126/126
f 31/104/104 30/103/103 125/124/124 128/127/127
f 62/48/48 64/50/50 130/132/132 127/129/129
f 32/105/105 31/104/104 128/127/127 131/130/130
f 64/50/50 66/52/52 133/135/135 130/132/132
f 33/106/106 32/105/105 131/130/130 134/133/133
f 66/52/52 68/54/54 136/138/138 133/135/135
f 34/107/107 33/106/106 134/133/133 137/136/136
f 68/54/54 70/56/56 139/141/141 136/138/138
f 35/108/108 34/107/107 137/136/136 140/139/139
f 70/56/56 72/58/58 142/144/144 139/141/141
f 36/100/100 35/108/108 140/139/139 143/142/142
f 158/145/145 160/146/146 162/147/147 159/148/148
f 159/148/148 162/147/147 161/149/149 157/150/150
f 160/146/146 163/151/151 165/152/152 162/147/147
f 162/147/147 165/152/152 164/153/153 161/149/149
f 163/151/151 166/154/154 168/155/155 165/152/152
f 165/152/152 168/155/155 167/156/156 164/153/153
f 166/154/154 169/157/157 171/158/158 168/155/155
f 168/155/155 171/158/158 170/159/159 167/156/156
f 169/157/157 172/160/160 174/161/161 171/158/158
f 171/158/158 174/161/161 173/162/162 170/159/159
f 172/160/160 175/163/163 177/164/164 174/161/161
f 174/161/161 177/164/164 176/165/165 173/162/162
f 175/163/163 178/166/166 180/167/167 177/164/164
f 177/164/164 180/167/167 179/168/168 176/165/165
f 178/166/166 181/169/169 183/170/170 180/167/167
f 180/167/167 183/170/170 182/171/171 179/168/168
f 181/169/169 184/172/172 186/173/173 183/170/170
f 183/170/170 186/173/173 185/174/174 182/171/171
f 184/172/172 187/175/175 189/176/176 186/173/173
f 186/173/173 189/176/176 188/177/177 185/174/174
f 187/175/175 190/178/178 192/179/179 189/176/176
f 189/176/176 192/179/179 191/180/180 188/177/177
f 190/178/178 158/145/145 159/148/148 192/179/179
f 192/179/179 159/148/148 157/150/150 191/180/180
f 161/149/149 146/38/38 145/59/59 157/150/150
f 158/145/145 190/178/178 49/181/181 71/182/182
f 160/146/146 158/145/145 71/182/182 69/183/183
f 157/150/150 145/59/59 156/57/57 191/180/180
f 164/153/153 147/39/39 146/38/38 161/149/149
f 163/151/151 160/146/146 69/183/183 67/184/184
f 167/156/156 148/41/41 147/39/39 164/153/153
f 166/154/154 163/151/151 67/184/184 65/185/185
f 170/159/159 149/43/43 148/41/41 167/156/156
f 169/157/157 166/154/154 65/185/185 63/186/186
f 173/162/162 150/45/45 149/43/43 170/159/159
f 172/160/160 169/157/157 63/186/186 61/187/187
f 176/165/165 151/47/47 150/45/45 173/162/162
f 175/163/163 172/160/160 61/187/187 59/188/188
f 179/168/168 152/49/49 151/47/47 176/165/165
f 178/166/166 175/163/163 59/188/188 57/189/189
f 182/171/171 153/51/51 152/49/49 179/168/168
f 181/169/169 178/166/166 57/189/189 55/190/190
f 185/174/174 154/53/53 153/51/51 182/171/171
f 184/172/172 181/169/169 55/190/190 53/191/191
f 188/177/177 155/55/55 154/53/53 185/174/174
f 187/175/175 184/172/172 53/191/191 51/192/192
f 191/180/180 156/57/57 155/55/55 188/177/177
f 190/178/178 187/175/175 51/192/192 49/181/181
f 313/193/193 194/194/194 193/195/195 314/196/196
f 314/196/196 193/195/195 204/197/197 315/198/198
f 316/199/199 195/200/200 194/194/194 313/193/193
f 317/201/201 196/202/202 195/203/200 316/204/199
f 318/205/203 197/206/204 196/202/202 317/201/201
f 319/207/205 198/208/206 197/206/204 318/205/203
f 320/209/207 199/210/208 198/208/206 319/207/205
f 321/211/209 200/212/210 199/210/208 320/209/207
f 322/213/211 201/214/212 200/212/210 321/211/209
f 323/215/213 202/216/214 201/217/212 322/218/211
f 324/219/215 203/220/216 202/216/214 323/215/213
f 315/198/198 204/197/197 203/220/216 324/219/215
f 203/220/216 215/221/217 214/222/218 202/216/214
f 200/212/210 212/223/219 211/224/220 199/210/208
f 197/206/204 209/225/221 208/226/222 196/202/202
f 204/197/197 216/227/223 215/221/217 203/220/216
f 194/194/194 206/228/224 205/229/225 193/195/195
f 201/214/212 213/230/226 212/223/219 200/212/210
f 198/208/206 210/231/227 209/225/221 197/206/204
f 193/195/195 205/229/225 216/227/223 204/197/197
f 195/200/200 207/232/228 206/228/224 194/194/194
f 202/216/214 214/222/218 213/233/226 201/217/212
f 199/210/208 211/224/220 210/231/227 198/208/206
f 196/202/202 208/226/222 207/234/228 195/203/200
f 217/235/229 302/236/230 312/237/231 228/238/232
f 235/239/233 238/240/234 231/241/235 229/242/236
f 238/240/234 237/243/237 232/244/238 231/241/235
f 237/243/237 236/245/239 233/246/240 232/244/238
f 236/245/239 234/247/241 230/248/242 233/246/240
f 240/249/243 243/250/244 238/240/234 235/239/233
f 243/250/244 242/251/245 237/243/237 238/240/234
f 242/251/245 241/252/246 236/245/239 237/243/237
f 241/252/246 239/253/247 234/247/241 236/245/239
f 245/254/248 248/255/249 243/256/244 240/257/243
f 248/255/249 247/258/250 242/259/245 243/256/244
f 247/258/250 246/260/251 241/261/246 242/259/245
f 246/260/251 244/262/252 239/263/247 241/261/246
f 250/264/253 253/265/254 248/255/249 245/254/248
f 253/265/254 252/266/255 247/258/250 248/255/249
f 252/266/255 251/267/256 246/260/251 247/258/250
f 251/267/256 249/268/257 244/262/252 246/260/251
f 255/269/258 258/270/259 253/265/254 250/264/253
f 258/270/259 257/271/260 252/266/255 253/265/254
f 257/271/260 256/272/261 251/267/256 252/266/255
f 256/272/261 254/273/262 249/268/257 251/267/256
f 260/274/263 263/275/264 258/270/259 255/269/258
f 263/275/264 262/276/265 257/271/260 258/270/259
f 262/276/265 261/277/266 256/272/261 257/271/260
f 261/277/266 259/278/267 254/273/262 256/272/261
f 265/279/268 268/280/269 263/275/264 260/274/263
f 268/280/269 267/281/270 262/276/265 263/275/264
f 267/281/270 266/282/271 261/277/266 262/276/265
f 266/282/271 264/283/272 259/278/267 261/277/266
f 270/284/273 273/285/274 268/280/269 265/279/268
f 273/285/274 272/286/275 267/281/270 268/280/269
f 272/286/275 271/287/276 266/282/271 267/281/270
f 271/287/276 269/288/277 264/283/272 266/282/271
f 275/289/278 278/290/279 273/291/274 270/292/273
f 278/290/279 277/293/280 272/294/275 273/291/274
f 277/293/280 276/295/281 271/296/276 272/294/275
f 276/295/281 274/297/282 269/298/277 271/296/276
f 280/299/283 283/300/284 278/290/279 275/289/278
f 283/300/284 282/301/285 277/293/280 278/290/279
f 282/301/285 281/302/286 276/295/281 277/293/280
f 281/302/286 279/303/287 274/297/282 276/295/281
f 285/304/288 288/305/289 283/300/284 280/299/283
f 288/305/289 287/306/290 282/301/285 283/300/284
f 287/306/290 286/307/291 281/302/286 282/301/285
f 286/307/291 284/308/292 279/303/287 281/302/286
f 229/242/236 231/241/235 288/305/289 285/304/288
f 231/241/235 232/244/238 287/306/290 288/305/289
f 232/244/238 233/246/240 286/307/291 287/306/290
f 233/246/240 230/248/242 284/308/292 286/307/291
f 234/247/241 289/309/293 290/310/294 230/248/242
f 206/311/224 235/239/233 229/242/236 205/312/225
f 230/248/242 290/310/294 300/313/295 284/308/292
f 205/312/225 229/242/236 285/304/288 216/314/223
f 207/315/228 240/249/243 235/239/233 206/311/224
f 239/253/247 291/316/296 289/309/293 234/247/241
f 208/317/222 245/254/248 240/257/243 207/318/228
f 244/262/252 292/319/297 291/320/296 239/263/247
f 209/321/221 250/264/253 245/254/248 208/317/222
f 249/268/257 293/322/298 292/319/297 244/262/252
f 210/323/227 255/269/258 250/264/253 209/321/221
f 254/273/262 294/324/299 293/322/298 249/268/257
f 211/325/220 260/274/263 255/269/258 210/323/227
f 259/278/267 295/326/300 294/324/299 254/273/262
f 212/327/219 265/279/268 260/274/263 211/325/220
f 264/283/272 296/328/301 295/326/300 259/278/267
f 213/329/226 270/284/273 265/279/268 212/327/219
f 269/288/277 297/330/302 296/328/301 264/283/272
f 214/331/218 275/289/278 270/292/273 213/332/226
f 274/297/282 298/333/303 297/334/302 269/298/277
f 215/335/217 280/299/283 275/289/278 214/331/218
f 279/303/287 299/336/304 298/333/303 274/297/282
f 216/314/223 285/304/288 280/299/283 215/335/217
f 284/308/292 300/313/295 299/336/304 279/303/287
f 217/235/229 290/337/294 289/338/293 218/339/305
f 218/339/305 289/338/293 291/340/296 219/341/306
f 219/342/306 291/343/296 292/344/297 220/345/307
f 220/345/307 292/344/297 293/346/298 221/347/308
f 221/347/308 293/346/298 294/348/299 222/349/309
f 222/349/309 294/348/299 295/350/300 223/351/310
f 223/351/310 295/350/300 296/352/301 224/353/311
f 224/353/311 296/352/301 297/354/302 225/355/312
f 225/356/312 297/357/302 298/358/303 226/359/313
f 226/359/313 298/358/303 299/360/304 227/361/314
f 227/361/314 299/360/304 300/362/295 228/238/232
f 228/238/232 300/362/295 290/337/294 217/235/229
f 219/341/306 303/363/315 301/364/316 218/339/305
f 226/359/313 310/365/317 309/366/318 225/356/312
f 223/351/310 307/367/319 306/368/320 222/349/309
f 220/345/307 304/369/321 303/370/315 219/342/306
f 227/361/314 311/371/322 310/365/317 226/359/313
f 224/353/311 308/372/323 307/367/319 223/351/310
f 221/347/308 305/373/324 304/369/321 220/345/307
f 228/238/232 312/237/231 311/371/322 227/361/314
f 218/339/305 301/364/316 302/236/230 217/235/229
f 225/355/312 309/374/318 308/372/323 224/353/311
f 222/349/309 306/368/320 305/373/324 221/347/308
f 301/375/316 325/376/325 302/377/230
f 302/377/230 325/376/325 312/378/231
f 312/378/231 325/376/325 311/379/322
f 311/379/322 325/376/325 310/380/317
f 310/380/317 325/376/325 309/381/318
f 309/382/318 325/383/325 308/375/323
f 308/375/323 325/383/325 307/377/319
f 307/377/319 325/383/325 306/384/320
f 306/384/320 325/383/325 305/379/324
f 305/379/324 325/383/325 304/380/321
f 304/380/321 325/383/325 303/381/315
f 303/382/315 325/376/325 301/375/316
f 348/385/326 396/386/217 395/387/218 347/388/327
f 345/389/328 393/390/219 392/391/220 344/392/329
f 342/393/330 390/394/221 389/395/222 341/396/331
f 349/397/332 397/398/223 396/386/217 348/385/326
f 339/399/333 387/400/334 386/401/225 338/402/335
f 346/403/336 394/404/226 393/390/219 345/389/328
f 343/405/337 391/406/227 390/394/221 342/393/330
f 338/402/335 386/401/225 397/398/223 349/397/332
f 340/407/338 388/408/228 387/400/334 339/399/333
f 347/388/327 395/387/218 394/409/226 346/410/336
f 344/392/329 392/391/220 391/406/227 343/405/337
f 341/396/331 389/395/222 388/411/228 340/412/338
f 398/413/229 483/414/230 493/415/231 409/416/232
f 416/417/233 419/418/234 412/419/235 410/420/236
f 419/418/234 418/421/237 413/422/238 412/419/235
f 418/421/237 417/423/239 414/424/240 413/422/238
f 417/423/239 415/425/339 411/426/242 414/424/240
f 421/427/243 424/428/244 419/418/234 416/417/233
f 424/428/244 423/429/245 418/421/237 419/418/234
f 423/429/245 422/430/246 417/423/239 418/421/237
f 422/430/246 420/431/340 415/425/339 417/423/239
f 426/432/248 429/433/249 424/434/244 421/435/243
f 429/433/249 428/436/250 423/437/245 424/434/244
f 428/436/250 427/438/251 422/439/246 423/437/245
f 427/438/251 425/440/252 420/441/340 422/439/246
f 431/442/253 434/443/254 429/433/249 426/432/248
f 434/443/254 433/444/255 428/436/250 429/433/249
f 433/444/255 432/445/256 427/438/251 428/436/250
f 432/445/256 430/446/257 425/440/252 427/438/251
f 436/447/258 439/448/259 434/443/254 431/442/253
f 439/448/259 438/449/260 433/444/255 434/443/254
f 438/449/260 437/450/261 432/445/256 433/444/255
f 437/450/261 435/451/262 430/446/257 432/445/256
f 441/452/263 444/453/264 439/448/259 436/447/258
f 444/453/264 443/454/265 438/449/260 439/448/259
f 443/454/265 442/455/266 437/450/261 438/449/260
f 442/455/266 440/456/267 435/451/262 437/450/261
f 446/457/268 449/458/269 444/453/264 441/452/263
f 449/458/269 448/459/270 443/454/265 444/453/264
f 448/459/270 447/460/271 442/455/266 443/454/265
f 447/460/271 445/461/272 440/456/267 442/455/266
f 451/462/273 454/463/274 449/458/269 446/457/268
f 454/463/274 453/464/275 448/459/270 449/458/269
f 453/464/275 452/465/276 447/460/271 448/459/270
f 452/465/276 450/466/277 445/461/272 447/460/271
f 456/467/278 459/468/279 454/469/274 451/470/273
f 459/468/279 458/471/280 453/472/275 454/469/274
f 458/471/280 457/473/281 452/474/276 453/472/275
f 457/473/281 455/475/282 450/476/277 452/474/276
f 461/477/283 464/478/284 459/468/279 456/467/278
f 464/478/284 463/479/285 458/471/280 459/468/279
f 463/479/285 462/480/286 457/473/281 458/471/280
f 462/480/286 460/481/287 455/475/282 457/473/281
f 466/482/288 469/483/289 464/478/284 461/477/283
f 469/483/289 468/484/290 463/479/285 464/478/284
f 468/484/290 467/485/291 462/480/286 463/479/285
f 467/485/291 465/486/292 460/481/287 462/480/286
f 410/420/236 412/419/235 469/483/289 466/482/288
f 412/419/235 413/422/238 468/484/290 469/483/289
f 413/422/238 414/424/240 467/485/291 468/484/290
f 414/424/240 411/426/242 465/486/292 467/485/291
f 415/425/339 470/487/293 471/488/294 411/426/242
f 387/489/334 416/417/233 410/420/236 386/490/225
f 411/426/242 471/488/294 481/491/295 465/486/292
f 386/490/225 410/420/236 466/482/288 397/492/223
f 388/493/228 421/427/243 416/417/233 387/489/334
f 420/431/340 472/494/296 470/487/293 415/425/339
f 389/495/222 426/432/248 421/435/243 388/496/228
f 425/440/252 473/497/297 472/498/296 420/441/340
f 390/499/221 431/442/253 426/432/248 389/495/222
f 430/446/257 474/500/298 473/497/297 425/440/252
f 391/501/227 436/447/258 431/442/253 390/499/221
f 435/451/262 475/502/299 474/500/298 430/446/257
f 392/503/220 441/452/263 436/447/258 391/501/227
f 440/456/267 476/504/300 475/502/299 435/451/262
f 393/505/219 446/457/268 441/452/263 392/503/220
f 445/461/272 477/506/301 476/504/300 440/456/267
f 394/507/226 451/462/273 446/457/268 393/505/219
f 450/466/277 478/508/302 477/506/301 445/461/272
f 395/509/218 456/467/278 451/470/273 394/510/226
f 455/475/282 479/511/303 478/512/302 450/476/277
f 396/513/217 461/477/283 456/467/278 395/509/218
f 460/481/287 480/514/304 479/511/303 455/475/282
f 397/492/223 466/482/288 461/477/283 396/513/217
f 465/486/292 481/491/295 480/514/304 460/481/287
f 398/413/229 471/515/294 470/516/293 399/517/305
f 399/517/305 470/516/293 472/518/296 400/519/306
f 400/520/306 472/521/296 473/522/297 401/523/307
f 401/523/307 473/522/297 474/524/298 402/525/308
f 402/525/308 474/524/298 475/526/299 403/527/309
f 403/527/309 475/526/299 476/528/300 404/529/310
f 404/529/310 476/528/300 477/530/301 405/531/311
f 405/531/311 477/530/301 478/532/302 406/533/312
f 406/534/312 478/535/302 479/536/303 407/537/313
f 407/537/313 479/536/303 480/538/304 408/539/314
f 408/539/314 480/538/304 481/540/295 409/416/232
f 409/416/232 481/540/295 471/515/294 398/413/229
f 400/519/306 484/541/315 482/542/316 399/517/305
f 407/537/313 491/543/317 490/544/318 406/534/312
f 404/529/310 488/545/319 487/546/320 403/527/309
f 401/523/307 485/547/321 484/548/315 400/520/306
f 408/539/314 492/549/322 491/543/317 407/537/313
f 405/531/311 489/550/323 488/545/319 404/529/310
f 402/525/308 486/551/324 485/547/321 401/523/307
f 409/416/232 493/415/231 492/549/322 408/539/314
f 399/517/305 482/542/316 483/414/230 398/413/229
f 406/533/312 490/552/318 489/550/323 405/531/311
f 403/527/309 487/546/320 486/551/324 402/525/308
f 482/542/316 494/553/325 483/414/230
f 483/414/230 494/553/325 493/415/231
f 493/415/231 494/553/325 492/549/322
f 492/549/322 494/553/325 491/543/317
f 491/543/317 494/553/325 490/544/318
f 490/552/318 494/554/325 489/550/323
f 489/550/323 494/554/325 488/545/319
f 488/545/319 494/554/325 487/546/320
f 487/546/320 494/554/325 486/551/324
f 486/551/324 494/554/325 485/547/321
f 485/547/321 494/554/325 484/548/315
f 484/541/315 494/553/325 482/542/316
f 640/555/193 508/556/194 507/557/195 641/558/196
f 641/558/196 507/557/195 518/559/197 642/560/198
f 643/561/341 509/562/200 508/556/194 640/555/193
f 644/563/201 510/564/202 509/565/200 643/566/341
f 645/567/203 511/568/204 510/564/202 644/563/201
f 646/569/205 512/570/206 511/568/204 645/567/203
f 647/571/207 513/572/208 512/570/206 646/569/205
f 648/573/209 514/574/210 513/572/208 647/571/207
f 649/575/211 515/576/212 514/574/210 648/573/209
f 650/577/213 516/578/214 515/579/212 649/580/211
f 651/581/215 517/582/216 516/578/214 650/577/213
f 642/560/198 518/559/197 517/582/216 651/581/215
f 517/582/216 553/583/217 552/584/218 516/578/214
f 514/574/210 550/585/219 549/586/220 513/572/208
f 511/568/204 547/587/221 546/588/222 510/564/202
f 518/559/197 554/589/223 553/583/217 517/582/216
f 508/556/194 544/590/224 543/591/225 507/557/195
f 515/576/212 551/592/226 550/585/219 514/574/210
f 512/570/206 548/593/227 547/587/221 511/568/204
f 507/557/195 543/591/225 554/589/223 518/559/197
f 509/562/200 545/594/228 544/590/224 508/556/194
f 516/578/214 552/584/218 551/595/226 515/579/212
f 513/572/208 549/586/220 548/593/227 512/570/206
f 510/564/202 546/588/222 545/596/228 509/565/200
f 555/597/229 653/598/230 663/599/231 566/600/232
f 573/601/233 576/602/234 569/603/235 567/604/236
f 576/602/234 575/605/237 570/606/238 569/603/235
f 575/605/237 574/607/239 571/608/240 570/606/238
f 574/607/239 572/609/241 568/610/242 571/608/240
f 578/611/243 581/612/244 576/602/234 573/601/233
f 581/612/244 580/613/245 575/605/237 576/602/234
f 580/613/245 579/614/246 574/607/239 575/605/237
f 579/614/246 577/615/247 572/609/241 574/607/239
f 583/616/248 586/617/249 581/618/244 578/619/243
f 586/617/249 585/620/250 580/621/245 581/618/244
f 585/620/250 584/622/251 579/623/246 580/621/245
f 584/622/251 582/624/252 577/625/247 579/623/246
f 588/626/253 591/627/254 586/617/249 583/616/248
f 591/627/254 590/628/255 585/620/250 586/617/249
f 590/628/255 589/629/256 584/622/251 585/620/250
f 589/629/256 587/630/257 582/624/252 584/622/251
f 593/631/258 596/632/342 591/627/254 588/626/253
f 596/632/342 595/633/260 590/628/255 591/627/254
f 595/633/260 594/634/261 589/629/256 590/628/255
f 594/634/261 592/635/262 587/630/257 589/629/256
f 598/636/263 601/637/264 596/632/342 593/631/258
f 601/637/264 600/638/265 595/633/260 596/632/342
f 600/638/265 599/639/266 594/634/261 595/633/260
f 599/639/266 597/640/267 592/635/262 594/634/261
f 603/641/268 606/642/269 601/637/264 598/636/263
f 606/642/269 605/643/270 600/638/265 601/637/264
f 605/643/270 604/644/271 599/639/266 600/638/265
f 604/644/271 602/645/272 597/640/267 599/639/266
f 608/646/273 611/647/274 606/642/269 603/641/268
f 611/647/274 610/648/275 605/643/270 606/642/269
f 610/648/275 609/649/276 604/644/271 605/643/270
f 609/649/276 607/650/277 602/645/272 604/644/271
f 613/651/278 616/652/279 611/653/274 608/654/273
f 616/652/279 615/655/280 610/656/275 611/653/274
f 615/655/280 614/657/281 609/658/276 610/656/275
f 614/657/281 612/659/282 607/660/277 609/658/276
f 618/661/283 621/662/284 616/652/279 613/651/278
f 621/662/284 620/663/285 615/655/280 616/652/279
f 620/663/285 619/664/286 614/657/281 615/655/280
f 619/664/286 617/665/287 612/659/282 614/657/281
f 623/666/288 626/667/289 621/662/284 618/661/283
f 626/667/289 625/668/290 620/663/285 621/662/284
f 625/668/290 624/669/291 619/664/286 620/663/285
f 624/669/291 622/670/292 617/665/287 619/664/286
f 567/604/236 569/603/235 626/667/289 623/666/288
f 569/603/235 570/606/238 625/668/290 626/667/289
f 570/606/238 571/608/240 624/669/291 625/668/290
f 571/608/240 568/610/242 622/670/292 624/669/291
f 572/609/241 627/671/293 628/672/294 568/610/242
f 544/673/224 573/601/233 567/604/236 543/674/225
f 568/610/242 628/672/294 638/675/295 622/670/292
f 543/674/225 567/604/236 623/666/288 554/676/223
f 545/677/228 578/611/243 573/601/233 544/673/224
f 577/615/247 629/678/296 627/671/293 572/609/241
f 546/679/222 583/616/248 578/619/243 545/680/228
f 582/624/252 630/681/297 629/682/296 577/625/247
f 547/683/221 588/626/253 583/616/248 546/679/222
f 587/630/257 631/684/298 630/681/297 582/624/252
f 548/685/227 593/631/258 588/626/253 547/683/221
f 592/635/262 632/686/299 631/684/298 587/630/257
f 549/687/220 598/636/263 593/631/258 548/685/227
f 597/640/267 633/688/300 632/686/299 592/635/262
f 550/689/219 603/641/268 598/636/263 549/687/220
f 602/645/272 634/690/301 633/688/300 597/640/267
f 551/691/226 608/646/273 603/641/268 550/689/219
f 607/650/277 635/692/302 634/690/301 602/645/272
f 552/693/218 613/651/278 608/654/273 551/694/226
f 612/659/282 636/695/303 635/696/302 607/660/277
f 553/697/217 618/661/283 613/651/278 552/693/218
f 617/665/287 637/698/304 636/695/303 612/659/282
f 554/676/223 623/666/288 618/661/283 553/697/217
f 622/670/292 638/675/295 637/698/304 617/665/287
f 555/597/229 628/699/294 627/700/293 556/701/305
f 556/701/305 627/700/293 629/702/296 557/703/306
f 557/703/306 629/702/296 630/704/297 558/705/307
f 558/705/307 630/704/297 631/706/298 559/707/308
f 559/707/308 631/706/298 632/708/299 560/709/309
f 560/709/309 632/708/299 633/710/300 561/711/310
f 561/711/310 633/710/300 634/712/301 562/713/311
f 562/713/311 634/712/301 635/714/302 563/715/312
f 563/715/312 635/714/302 636/716/303 564/717/313
f 564/717/313 636/716/303 637/718/304 565/719/314
f 565/719/314 637/718/304 638/720/295 566/600/232
f 566/600/232 638/720/295 628/699/294 555/597/229
f 557/703/306 654/721/315 652/722/316 556/701/305
f 564/717/313 661/723/317 660/724/318 563/715/312
f 561/711/310 658/725/343 657/726/320 560/709/309
f 558/705/307 655/727/321 654/721/315 557/703/306
f 565/719/314 662/728/322 661/723/317 564/717/313
f 562/713/311 659/729/323 658/725/343 561/711/310
f 559/707/308 656/730/324 655/727/321 558/705/307
f 566/600/232 663/599/231 662/728/322 565/719/314
f 556/701/305 652/722/316 653/598/230 555/597/229
f 563/715/312 660/724/318 659/729/323 562/713/311
f 560/709/309 657/726/320 656/730/324 559/707/308
f 639/731/325 653/598/230 652/722/316
f 639/731/325 652/722/316 654/721/315
f 639/731/325 654/721/315 655/727/321
f 639/731/325 655/727/321 656/730/324
f 639/731/325 656/730/324 657/726/320
f 639/731/325 657/726/320 658/725/343
f 639/731/325 658/725/343 659/729/323
f 639/731/325 659/729/323 660/724/318
f 639/731/325 660/724/318 661/723/317
f 639/731/325 661/723/317 662/728/322
f 639/731/325 662/728/322 663/599/231
f 639/731/325 663/599/231 653/598/230
f 338/402/335 664/732/344 665/733/345 339/399/333
f 345/389/328 671/734/346 672/735/347 346/403/336
f 342/393/330 668/736/348 669/737/349 343/405/337
f 349/397/332 675/738/350 664/732/344 338/402/335
f 339/399/333 665/733/345 666/739/351 340/407/338
f 346/410/336 672/740/347 673/741/352 347/388/327
f 343/405/337 669/737/349 670/742/353 344/392/329
f 340/412/338 666/743/351 667/744/354 341/396/331
f 347/388/327 673/741/352 674/745/355 348/385/326
f 344/392/329 670/742/353 671/734/346 345/389/328
f 341/396/331 667/744/354 668/736/348 342/393/330
f 348/385/326 674/745/355 675/738/350 349/397/332
o fountain_water
v 9.809233 1.366071 -0.011776
v 9.775953 0.558752 0.033489
v 9.159771 0.558749 -1.169370
v 9.839312 0.558749 -1.351452
v 8.662314 0.558750 -0.671912
v 8.480231 0.558750 0.007629
v 8.662314 0.558750 0.687169
v 9.159771 0.558750 1.184627
v 9.839312 0.558750 1.366709
v 10.518852 0.558750 1.184627
v 11.016310 0.558750 0.687169
v 11.198393 0.558750 0.007629
v 11.016310 0.558750 -0.671911
v 10.518852 0.558749 -1.169370
v 9.808403 2.149465 0.024710
v 9.648112 2.149464 -0.288195
v 9.824884 2.149464 -0.335561
v 9.518706 2.149464 -0.158789
v 9.471341 2.149464 0.017983
v 9.518706 2.149464 0.194755
v 9.648112 2.149464 0.324160
v 9.824884 2.149464 0.371526
v 10.001657 2.149464 0.324160
v 10.131063 2.149464 0.194754
v 10.178428 2.149464 0.017983
v 10.131063 2.149464 -0.158789
v 10.001657 2.149464 -0.288195
v 9.806584 1.805487 0.038950
v 9.544045 1.805485 -0.473556
v 9.833580 1.805485 -0.551136
v 9.332092 1.805485 -0.261602
v 9.254512 1.805485 0.027932
v 9.332092 1.805485 0.317466
v 9.544045 1.805486 0.529419
v 9.833580 1.805486 0.607000
v 10.123114 1.805486 0.529419
v 10.335068 1.805485 0.317466
v 10.412648 1.805485 0.027932
v 10.335068 1.805485 -0.261602
v 10.123114 1.805485 -0.473556
v 9.787650 1.714467 -0.000983
v 9.767807 1.233111 0.026005
v 9.400414 1.233109 -0.691188
v 9.805584 1.233109 -0.799753
v 9.103810 1.233109 -0.394584
v 8.995245 1.233109 0.010586
v 9.103810 1.233110 0.415756
v 9.400414 1.233110 0.712360
v 9.805584 1.233110 0.820925
v 10.210753 1.233110 0.712360
v 10.507359 1.233110 0.415756
v 10.615924 1.233109 0.010586
v 10.507359 1.233109 -0.394583
v 10.210753 1.233109 -0.691188
vn -0.0000 1.0000 -0.0000
vt 0.744968 0.208666
vt 0.720995 0.317881
vt 0.671857 0.289511
vt 0.643487 0.240373
vt 0.643487 0.183633
vt 0.671857 0.134495
vt 0.720995 0.106126
vt 0.777734 0.106126
vt 0.826872 0.134495
vt 0.855242 0.183633
vt 0.855242 0.240373
vt 0.826872 0.289511
vt 0.777734 0.317881
s 1
usemtl Fountain
f 677/746/356 679/747/356 678/748/356
f 677/746/356 678/748/356 680/749/356
f 677/746/356 680/749/356 681/750/356
f 677/746/356 681/750/356 682/751/356
f 677/746/356 682/751/356 683/752/356
f 677/746/356 683/752/356 684/753/356
f 677/746/356 684/753/356 685/754/356
f 677/746/356 685/754/356 686/755/356
f 677/746/356 686/755/356 687/756/356
f 677/746/356 687/756/356 688/757/356
f 677/746/356 688/757/356 689/758/356
f 677/746/356 689/758/356 679/747/356
f 690/746/356 692/747/356 691/748/356
f 690/746/356 691/748/356 693/749/356
f 690/746/356 693/749/356 694/750/356
f 690/746/356 694/750/356 695/751/356
f 690/746/356 695/751/356 696/752/356
f 690/746/356 696/752/356 697/753/356
f 690/746/356 697/753/356 698/754/356
f 690/746/356 698/754/356 699/755/356
f 690/746/356 699/755/356 700/756/356
f 690/746/356 700/756/356 701/757/356
f 690/746/356 701/757/356 702/758/356
f 690/746/356 702/758/356 692/747/356
f 703/746/356 705/747/356 704/748/356
f 703/746/356 704/748/356 706/749/356
f 703/746/356 706/749/356 707/750/356
f 703/746/356 707/750/356 708/751/356
f 703/746/356 708/751/356 709/752/356
f 703/746/356 709/752/356 710/753/356
f 703/746/356 710/753/356 711/754/356
f 703/746/356 711/754/356 712/755/356
f 703/746/356 712/755/356 713/756/356
f 703/746/356 713/756/356 714/757/356
f 703/746/356 714/757/356 715/758/356
f 703/746/356 715/758/356 705/747/356
f 717/746/356 719/747/356 718/748/356
f 717/746/356 718/748/356 720/749/356
f 717/746/356 720/749/356 721/750/356
f 717/746/356 721/750/356 722/751/356
f 717/746/356 722/751/356 723/752/356
f 717/746/356 723/752/356 724/753/356
f 717/746/356 724/753/356 725/754/356
f 717/746/356 725/754/356 726/755/356
f 717/746/356 726/755/356 727/756/356
f 717/746/356 727/756/356 728/757/356
f 717/746/356 728/757/356 729/758/356
f 717/746/356 729/758/356 719/747/356
