# Blender 5.0.1
# www.blender.org
mtllib FOUNTAIN.mtl
o Circle.002
v 9.840383 0.625434 -1.301673
v 9.186255 0.625434 -1.126400
v 8.707401 0.625434 -0.647546
v 8.532128 0.625434 0.006581
v 8.707401 0.625434 0.660708
v 9.186255 0.625434 1.139562
v 9.840383 0.625434 1.314835
v 10.494510 0.625434 1.139562
v 10.973364 0.625434 0.660708
v 11.148637 0.625434 0.006581
v 10.973364 0.625434 -0.647546
v 10.494510 0.625434 -1.126400
v 9.203346 0.419069 -1.096798
v 9.840383 0.419068 -1.267491
v 8.737003 0.419069 -0.630455
v 8.566310 0.419069 0.006581
v 8.737003 0.419069 0.643617
v 9.203346 0.419069 1.109960
v 9.840383 0.419069 1.280654
v 10.477419 0.419069 1.109960
v 10.943762 0.419069 0.643617
v 11.114455 0.419069 0.006581
v 10.943762 0.419069 -0.630455
v 10.477419 0.419069 -1.096798
v 9.837665 0.448944 -1.468444
v 9.100420 0.448944 -1.270899
v 8.560719 0.448944 -0.731199
v 8.363174 0.448944 0.006046
v 8.560719 0.448944 0.743291
v 9.100420 0.448944 1.282992
v 9.837665 0.448944 1.480537
v 10.574910 0.448944 1.282992
v 11.114611 0.448944 0.743291
v 11.312155 0.448944 0.006046
v 11.114611 0.448944 -0.731199
v 10.574910 0.448944 -1.270899
v 9.092159 0.641878 -1.289379
v 9.840383 0.641878 -1.489865
v 8.544422 0.641878 -0.741642
v 8.343937 0.641878 0.006581
v 8.555201 0.625308 0.749138
v 9.097799 0.625308 1.291737
v 9.840383 0.641878 1.503027
v 10.588606 0.641878 1.302541
v 11.136343 0.641878 0.754804
v 11.336829 0.641878 0.006581
v 11.136343 0.641878 -0.741642
v 10.588606 0.641878 -1.289379
v 10.695865 0.004581 -1.472119
v 9.840383 0.195901 -1.563517
v 11.320122 0.004581 -0.847862
v 9.055333 0.195901 -1.353164
v 11.548616 0.004581 0.004889
v 8.480638 0.195901 -0.778468
v 11.345366 -0.007110 0.870855
v 8.270284 0.195901 0.006581
v 10.709070 -0.007110 1.507150
v 8.480638 0.195901 0.791630
v 9.843114 0.004581 1.710391
v 9.055333 0.195901 1.366326
v 8.990363 0.004581 1.481897
v 9.840383 0.195901 1.576680
v 8.366106 0.004581 0.857640
v 10.625432 0.195901 1.366326
v 8.137612 0.004581 0.004889
v 11.200129 0.195901 0.791630
v 8.366106 0.004581 -0.847862
v 11.410481 0.195901 0.006581
v 8.990363 0.004581 -1.472119
v 11.200129 0.195901 -0.778468
v 9.843114 0.004581 -1.700613
v 10.625432 0.195901 -1.353164
v 9.082722 0.534604 -1.305726
v 9.084566 0.622707 -1.302531
v 9.077004 0.579175 -1.315629
v 9.840383 0.622707 -1.505052
v 9.840383 0.534604 -1.508740
v 9.840383 0.579174 -1.520176
v 8.531270 0.622707 -0.749235
v 8.528076 0.534604 -0.751080
v 8.518172 0.579175 -0.756798
v 8.325061 0.534604 0.006581
v 8.328750 0.622707 0.006581
v 8.313625 0.579175 0.006581
v 8.528076 0.534604 0.764242
v 8.531270 0.622708 0.762397
v 8.518172 0.579175 0.769959
v 9.082722 0.534605 1.318888
v 9.084566 0.622708 1.315693
v 9.077004 0.579175 1.328791
v 9.840383 0.534605 1.521903
v 9.840383 0.622708 1.518214
v 9.840383 0.579175 1.533338
v 10.598043 0.534605 1.318888
v 10.596199 0.622708 1.315693
v 10.603761 0.579175 1.328791
v 11.152689 0.534604 0.764242
v 11.149495 0.622708 0.762397
v 11.162593 0.579175 0.769959
v 11.355704 0.534604 0.006581
v 11.352015 0.622707 0.006581
v 11.367140 0.579175 0.006581
v 11.152689 0.534604 -0.751080
v 11.149495 0.622707 -0.749235
v 11.162593 0.579175 -0.756798
v 10.598043 0.534604 -1.305726
v 10.596199 0.622707 -1.302531
v 10.603761 0.579175 -1.315629
v 9.840383 0.358030 -1.543956
v 9.840383 0.247610 -1.581316
v 9.840383 0.304155 -1.577851
v 9.046433 0.247610 -1.368578
v 9.065114 0.358030 -1.336224
v 9.048166 0.304155 -1.365577
v 8.465223 0.247610 -0.787368
v 8.497578 0.358030 -0.768688
v 8.468225 0.304155 -0.785635
v 8.252485 0.247610 0.006581
v 8.289845 0.358030 0.006581
v 8.255951 0.304155 0.006581
v 8.465223 0.247610 0.800530
v 8.497578 0.358030 0.781850
v 8.468225 0.304155 0.798797
v 9.046434 0.247610 1.381741
v 9.065114 0.358030 1.349386
v 9.048166 0.304155 1.378739
v 9.840383 0.247610 1.594479
v 9.840383 0.358030 1.557119
v 9.840383 0.304155 1.591013
v 10.634331 0.247610 1.381741
v 10.615651 0.358030 1.349386
v 10.632599 0.304155 1.378739
v 11.215542 0.247610 0.800530
v 11.183187 0.358030 0.781850
v 11.212542 0.304155 0.798797
v 11.428280 0.247610 0.006581
v 11.390920 0.358030 0.006581
v 11.424814 0.304155 0.006581
v 11.215542 0.247610 -0.787368
v 11.183187 0.358030 -0.768688
v 11.212542 0.304155 -0.785635
v 10.634331 0.247610 -1.368578
v 10.615651 0.358030 -1.336224
v 10.632599 0.304155 -1.365577
v 9.844888 0.092785 -1.522903
v 9.074742 0.092785 -1.316543
v 8.510958 0.092786 -0.752757
v 8.304598 0.092786 0.017388
v 8.510958 0.092786 0.787533
v 9.074742 0.092786 1.351318
v 9.844888 0.092786 1.557678
v 10.615033 0.092786 1.351318
v 11.178819 0.092786 0.787533
v 11.385179 0.092786 0.017388
v 11.178819 0.092786 -0.752757
v 10.615033 0.092785 -1.316543
v 9.841900 0.072476 -1.611721
v 9.842016 0.027720 -1.683015
v 9.841306 0.055095 -1.651285
v 8.997692 0.027620 -1.456855
v 9.030883 0.072454 -1.394504
v 9.011965 0.055059 -1.429114
v 8.379539 0.027517 -0.838804
v 8.437274 0.072480 -0.800739
v 8.404855 0.055037 -0.821987
v 8.153240 0.027440 0.005561
v 8.220250 0.072546 0.010245
v 8.182699 0.055034 0.007356
v 8.366106 0.021896 0.857640
v 8.405283 0.071458 0.838679
v 8.377581 0.053666 0.852086
v 8.997622 0.027402 1.468119
v 9.031725 0.072845 1.413709
v 9.012192 0.055110 1.443489
v 9.842029 0.027457 1.694339
v 9.841964 0.072913 1.630558
v 9.841328 0.055146 1.665571
v 10.688167 0.032041 1.473229
v 10.652037 0.072924 1.413463
v 10.670923 0.056492 1.444914
v 11.308881 0.032116 0.852411
v 11.245234 0.072868 0.820541
v 11.278663 0.056498 0.837225
v 11.530540 0.027798 0.005571
v 11.462719 0.072766 0.010323
v 11.499594 0.055203 0.007381
v 11.304305 0.027821 -0.838684
v 11.245970 0.072647 -0.800345
v 11.277538 0.055175 -0.821837
v 10.686278 0.027793 -1.456740
v 10.652744 0.072544 -1.394162
v 10.670577 0.055136 -1.428980
v 9.798650 0.410825 -0.123515
v 9.726801 0.410825 -0.104263
v 9.674204 0.410825 -0.051667
v 9.654952 0.410825 0.020182
v 9.674204 0.410825 0.092031
v 9.726801 0.410825 0.144627
v 9.798650 0.410825 0.163879
v 9.870498 0.410825 0.144627
v 9.923095 0.410825 0.092031
v 9.942347 0.410825 0.020182
v 9.923095 0.410825 -0.051667
v 9.870498 0.410825 -0.104263
v 9.798650 0.951431 -0.092417
v 9.742351 0.951431 -0.077331
v 9.701137 0.951431 -0.036117
v 9.686050 0.951431 0.020182
v 9.701137 0.951431 0.076481
v 9.742351 0.951431 0.117695
v 9.798650 0.951431 0.132781
v 9.854949 0.951431 0.117695
v 9.896163 0.951431 0.076481
v 9.911248 0.951431 0.020182
v 9.896163 0.951431 -0.036117
v 9.854949 0.951431 -0.077331
v 9.828282 1.276408 -0.853871
v 9.397301 1.276408 -0.738390
v 9.081800 1.276408 -0.422889
v 8.966320 1.276408 0.008093
v 9.081800 1.276408 0.439074
v 9.397301 1.276408 0.754574
v 9.828282 1.276408 0.870056
v 10.259264 1.276408 0.754574
v 10.574765 1.276408 0.439074
v 10.690246 1.276408 0.008093
v 10.574765 1.276408 -0.422889
v 10.259264 1.276408 -0.738390
v 9.820179 1.069897 -0.560948
v 9.828224 1.215270 -0.876631
v 9.823228 1.094370 -0.638006
v 9.825828 1.130591 -0.725058
v 9.827582 1.173046 -0.808852
v 9.385602 1.215287 -0.758055
v 9.533968 1.069657 -0.483321
v 9.418617 1.173038 -0.699214
v 9.458406 1.130526 -0.626341
v 9.498913 1.094223 -0.550529
v 9.061537 1.215323 -0.434058
v 9.325203 1.069430 -0.273376
v 9.119266 1.173043 -0.399815
v 9.189645 1.130470 -0.357253
v 9.261960 1.094086 -0.312854
v 8.942867 1.215368 0.008589
v 9.249192 1.069281 0.012359
v 9.009692 1.173059 0.009129
v 9.091373 1.130440 0.010036
v 9.175474 1.093998 0.011170
v 9.061431 1.215410 0.451297
v 9.325748 1.069258 0.297753
v 9.119242 1.173084 0.418085
v 9.189774 1.130446 0.377242
v 9.262289 1.093987 0.334987
v 9.385496 1.215439 0.775416
v 9.534477 1.069368 0.507037
v 9.418591 1.173110 0.717510
v 9.458525 1.130486 0.646172
v 9.499219 1.094057 0.572264
v 9.828224 1.215446 0.894054
v 9.820120 1.069575 0.584357
v 9.827578 1.173129 0.827162
v 9.825810 1.130548 0.744818
v 9.823192 1.094185 0.659555
v 10.270946 1.215429 0.775403
v 10.106646 1.069818 0.508524
v 10.236628 1.173138 0.717615
v 10.193352 1.130615 0.646604
v 10.147709 1.094334 0.573181
v 10.594996 1.215392 0.451284
v 10.317121 1.070031 0.299205
v 10.536100 1.173131 0.418187
v 10.462611 1.130667 0.377664
v 10.385715 1.094463 0.335883
v 10.713552 1.215347 0.008589
v 10.394528 1.070163 0.012301
v 10.645710 1.173114 0.009125
v 10.561258 1.130692 0.010018
v 10.473055 1.094540 0.011134
v 10.594890 1.215305 -0.434045
v 10.317657 1.070183 -0.274890
v 10.536076 1.173089 -0.399922
v 10.462737 1.130685 -0.357693
v 10.386039 1.094549 -0.313788
v 10.270839 1.215277 -0.758042
v 10.107217 1.070087 -0.484799
v 10.236605 1.173064 -0.699319
v 10.193488 1.130649 -0.626770
v 10.148053 1.094488 -0.551440
v 9.342999 1.276408 -0.832443
v 9.828282 1.276408 -0.962474
v 8.987747 1.276408 -0.477191
v 8.857716 1.276408 0.008093
v 8.987747 1.276408 0.493376
v 9.342999 1.276408 0.848628
v 9.828282 1.276408 0.978660
v 10.313566 1.276408 0.848628
v 10.668818 1.276408 0.493376
v 10.798850 1.276408 0.008093
v 10.668818 1.276408 -0.477191
v 10.313566 1.276408 -0.832443
v 9.478088 1.191057 -0.608320
v 9.832905 1.191057 -0.703392
v 9.218345 1.191057 -0.348576
v 9.123272 1.191057 0.006241
v 9.218345 1.191057 0.361058
v 9.478088 1.191057 0.620802
v 9.832905 1.191057 0.715874
v 10.187722 1.191057 0.620802
v 10.447466 1.191057 0.361058
v 10.542539 1.191057 0.006241
v 10.447466 1.191057 -0.348576
v 10.187722 1.191057 -0.608320
v 9.690315 0.368586 -0.167459
v 9.798650 0.368586 -0.196487
v 9.906984 0.368586 -0.167459
v 9.611009 0.368586 -0.088152
v 9.581981 0.368586 0.020182
v 9.611009 0.368586 0.128516
v 9.690315 0.368586 0.207823
v 9.798650 0.368586 0.236851
v 9.906984 0.368586 0.207823
v 9.986290 0.368586 0.128516
v 10.015318 0.368586 0.020182
v 9.986290 0.368586 -0.088152
v 9.832906 1.191057 0.006241
v 9.802612 1.062620 -0.246910
v 9.669837 1.062620 -0.211333
v 9.572639 1.062619 -0.114136
v 9.537063 1.062619 0.018639
v 9.572639 1.062619 0.151414
v 9.669837 1.062619 0.248612
v 9.802612 1.062619 0.284189
v 9.935387 1.062619 0.248612
v 10.032584 1.062619 0.151414
v 10.068162 1.062619 0.018639
v 10.032584 1.062619 -0.114136
v 9.935387 1.062620 -0.211333
v 9.802612 1.221869 -0.082729
v 9.751927 1.221869 -0.069148
v 9.714825 1.221869 -0.032045
v 9.701243 1.221869 0.018639
v 9.714825 1.221869 0.069323
v 9.751927 1.221869 0.106427
v 9.802612 1.221869 0.120008
v 9.853296 1.221869 0.106427
v 9.890400 1.221869 0.069323
v 9.903980 1.221869 0.018639
v 9.890400 1.221869 -0.032045
v 9.853296 1.221869 -0.069148
v 9.802612 1.099060 -0.246910
v 9.802612 1.122223 -0.242375
v 9.802612 1.147111 -0.229459
v 9.669837 1.099060 -0.211333
v 9.678563 1.147111 -0.196220
v 9.672105 1.122223 -0.207405
v 9.572639 1.099060 -0.114136
v 9.587752 1.147111 -0.105410
v 9.576567 1.122223 -0.111868
v 9.537063 1.099060 0.018639
v 9.554514 1.147111 0.018639
v 9.541597 1.122223 0.018639
v 9.572639 1.099060 0.151414
v 9.587753 1.147111 0.142688
v 9.576567 1.122223 0.149146
v 9.669837 1.099060 0.248612
v 9.678563 1.147111 0.233498
v 9.672105 1.122223 0.244684
v 9.802612 1.099060 0.284189
v 9.802612 1.147111 0.266737
v 9.802612 1.122223 0.279653
v 9.935387 1.099060 0.248612
v 9.926661 1.147111 0.233498
v 9.933119 1.122223 0.244684
v 10.032584 1.099060 0.151414
v 10.017471 1.147111 0.142688
v 10.028657 1.122223 0.149146
v 10.068162 1.099060 0.018639
v 10.050710 1.147111 0.018639
v 10.063626 1.122223 0.018639
v 10.032584 1.099060 -0.114136
v 10.017471 1.147111 -0.105410
v 10.028657 1.122223 -0.111868
v 9.935387 1.099060 -0.211333
v 9.926661 1.147111 -0.196220
v 9.933119 1.122223 -0.207406
v 9.802612 1.603229 -0.060791
v 9.762897 1.603229 -0.050150
v 9.733823 1.603229 -0.021076
v 9.723182 1.603229 0.018639
v 9.733823 1.603229 0.058355
v 9.762897 1.603229 0.087428
v 9.802612 1.603229 0.098070
v 9.842327 1.603229 0.087428
v 9.871401 1.603229 0.058355
v 9.882043 1.603229 0.018639
v 9.871401 1.603229 -0.021076
v 9.842327 1.603229 -0.050150
v 9.823516 1.832477 -0.597944
v 9.519488 1.832477 -0.516480
v 9.296926 1.832477 -0.293916
v 9.215462 1.832477 0.010111
v 9.296926 1.832477 0.314138
v 9.519488 1.832477 0.536702
v 9.823516 1.832477 0.618166
v 10.127543 1.832477 0.536702
v 10.350107 1.832477 0.314138
v 10.431571 1.832477 0.010111
v 10.350107 1.832477 -0.293916
v 10.127543 1.832477 -0.516480
v 9.817800 1.686798 -0.391307
v 9.823475 1.789348 -0.614000
v 9.819950 1.704062 -0.445666
v 9.821784 1.729614 -0.507076
v 9.823022 1.759562 -0.566186
v 9.511236 1.789360 -0.530352
v 9.615898 1.686628 -0.336547
v 9.534526 1.759557 -0.488844
v 9.562594 1.729568 -0.437437
v 9.591168 1.703958 -0.383958
v 9.282631 1.789386 -0.301795
v 9.468628 1.686468 -0.188445
v 9.323354 1.759560 -0.277639
v 9.373001 1.729528 -0.247615
v 9.424015 1.703861 -0.216294
v 9.198917 1.789418 0.010461
v 9.415009 1.686363 0.013121
v 9.246058 1.759572 0.010842
v 9.303678 1.729507 0.011482
v 9.363006 1.703799 0.012282
v 9.282556 1.789447 0.322761
v 9.469013 1.686347 0.214446
v 9.323338 1.759589 0.299332
v 9.373093 1.729511 0.270520
v 9.424247 1.703792 0.240713
v 9.511161 1.789467 0.551404
v 9.616257 1.686424 0.362081
v 9.534507 1.759607 0.510555
v 9.562677 1.729539 0.460231
v 9.591385 1.703840 0.408094
v 9.823475 1.789472 0.635095
v 9.817758 1.686570 0.416625
v 9.823019 1.759621 0.587907
v 9.821772 1.729583 0.529819
v 9.819924 1.703931 0.469673
v 10.135783 1.789460 0.551395
v 10.019881 1.686742 0.363130
v 10.111574 1.759627 0.510630
v 10.081047 1.729630 0.460536
v 10.048849 1.704036 0.408741
v 10.364379 1.789435 0.322752
v 10.168357 1.686893 0.215471
v 10.322832 1.759623 0.299404
v 10.270990 1.729667 0.270818
v 10.216746 1.704127 0.241344
v 10.448012 1.789403 0.010461
v 10.222963 1.686985 0.013080
v 10.400154 1.759610 0.010839
v 10.340579 1.729685 0.011470
v 10.278358 1.704182 0.012256
v 10.364304 1.789373 -0.301786
v 10.168736 1.686999 -0.189513
v 10.322815 1.759592 -0.277715
v 10.271079 1.729680 -0.247925
v 10.216974 1.704188 -0.216953
v 10.135709 1.789353 -0.530343
v 10.020285 1.686932 -0.337589
v 10.111559 1.759575 -0.488918
v 10.081143 1.729654 -0.437740
v 10.049091 1.704145 -0.384600
v 9.481182 1.832477 -0.582828
v 9.823516 1.832477 -0.674556
v 9.230577 1.832477 -0.332223
v 9.138849 1.832477 0.010111
v 9.230577 1.832477 0.352445
v 9.481182 1.832477 0.603050
v 9.823516 1.832477 0.694778
v 10.165850 1.832477 0.603050
v 10.416455 1.832477 0.352445
v 10.508183 1.832477 0.010111
v 10.416455 1.832477 -0.332223
v 10.165850 1.832477 -0.582828
v 9.576479 1.772268 -0.424725
v 9.826777 1.772268 -0.491792
v 9.393248 1.772268 -0.241493
v 9.326180 1.772268 0.008805
v 9.393248 1.772268 0.259103
v 9.576479 1.772268 0.442335
v 9.826777 1.772268 0.509402
v 10.077075 1.772268 0.442335
v 10.260306 1.772268 0.259103
v 10.327374 1.772268 0.008805
v 10.260306 1.772268 -0.241493
v 10.077075 1.772268 -0.424725
v 9.826777 1.772268 0.008805
v 9.806431 1.766709 -0.141529
v 9.727090 1.766709 -0.120270
v 9.669008 1.766709 -0.062188
v 9.647749 1.766709 0.017153
v 9.669008 1.766709 0.096493
v 9.727090 1.766709 0.154575
v 9.806431 1.766709 0.175834
v 9.885772 1.766709 0.154575
v 9.943853 1.766709 0.096493
v 9.965113 1.766709 0.017153
v 9.943853 1.766709 -0.062188
v 9.885772 1.766709 -0.120270
v 9.806431 1.791060 -0.043421
v 9.776144 1.791060 -0.035306
v 9.753972 1.791060 -0.013134
v 9.745857 1.791060 0.017153
v 9.753972 1.791060 0.047439
v 9.776144 1.791060 0.069611
v 9.806431 1.791060 0.077726
v 9.836718 1.791060 0.069611
v 9.858889 1.791060 0.047439
v 9.867004 1.791060 0.017153
v 9.858889 1.791060 -0.013134
v 9.836718 1.791060 -0.035306
v 9.806431 1.788485 -0.141529
v 9.806431 1.802326 -0.138819
v 9.727090 1.788485 -0.120270
v 9.728445 1.802326 -0.117923
v 9.669008 1.788485 -0.062188
v 9.671355 1.802326 -0.060833
v 9.647749 1.788485 0.017153
v 9.650459 1.802326 0.017153
v 9.669008 1.788485 0.096493
v 9.671355 1.802326 0.095138
v 9.727090 1.788485 0.154575
v 9.728445 1.802326 0.152228
v 9.806431 1.788485 0.175834
v 9.806431 1.802326 0.173124
v 9.885772 1.788485 0.154575
v 9.884417 1.802326 0.152228
v 9.943853 1.788485 0.096493
v 9.941506 1.802326 0.095138
v 9.965113 1.788485 0.017153
v 9.962402 1.802326 0.017153
v 9.943853 1.788485 -0.062188
v 9.941506 1.802326 -0.060833
v 9.885772 1.788485 -0.120270
v 9.884417 1.802326 -0.117923
v 9.806431 2.018945 -0.030312
v 9.782699 2.018945 -0.023953
v 9.765326 2.018945 -0.006580
v 9.758966 2.018945 0.017153
v 9.765326 2.018945 0.040885
v 9.782699 2.018945 0.058258
v 9.806431 2.018945 0.064617
v 9.830163 2.018945 0.058258
v 9.847536 2.018945 0.040885
v 9.853895 2.018945 0.017153
v 9.847536 2.018945 -0.006580
v 9.830163 2.018945 -0.023953
v 9.818922 2.155935 -0.351293
v 9.637248 2.155935 -0.302613
v 9.504252 2.155935 -0.169618
v 9.455573 2.155935 0.012056
v 9.504252 2.155935 0.193731
v 9.637248 2.155935 0.326726
v 9.818922 2.155935 0.375406
v 10.000597 2.155935 0.326726
v 10.133592 2.155935 0.193731
v 10.182272 2.155935 0.012056
v 10.133592 2.155935 -0.169618
v 10.000597 2.155935 -0.302613
v 9.815506 2.068883 -0.227815
v 9.818897 2.130163 -0.360887
v 9.816792 2.079199 -0.260298
v 9.817887 2.094468 -0.296994
v 9.818626 2.112364 -0.332316
v 9.632316 2.130170 -0.310903
v 9.694858 2.068781 -0.195093
v 9.646234 2.112361 -0.286099
v 9.663006 2.094440 -0.255381
v 9.680080 2.079138 -0.223423
v 9.495710 2.130185 -0.174326
v 9.606855 2.068686 -0.106593
v 9.520045 2.112362 -0.159891
v 9.549713 2.094417 -0.141950
v 9.580196 2.079079 -0.123234
v 9.445687 2.130204 0.012266
v 9.574815 2.068624 0.013855
v 9.473856 2.112370 0.012493
v 9.508287 2.094404 0.012875
v 9.543739 2.079042 0.013354
v 9.495666 2.130223 0.198883
v 9.607085 2.068614 0.134159
v 9.520035 2.112380 0.184883
v 9.549767 2.094407 0.167667
v 9.580335 2.079038 0.149855
v 9.632272 2.130234 0.335511
v 9.695072 2.068660 0.222380
v 9.646222 2.112391 0.311102
v 9.663055 2.094423 0.281030
v 9.680209 2.079067 0.249875
v 9.818897 2.130237 0.385522
v 9.815481 2.068747 0.254973
v 9.818624 2.112400 0.357325
v 9.817880 2.094450 0.322613
v 9.816776 2.079121 0.286672
v 10.005521 2.130230 0.335506
v 9.936262 2.068849 0.223007
v 9.991055 2.112403 0.311146
v 9.972813 2.094478 0.281212
v 9.953572 2.079184 0.250262
v 10.142120 2.130215 0.198878
v 10.024985 2.068940 0.134771
v 10.117293 2.112400 0.184927
v 10.086315 2.094500 0.167844
v 10.053901 2.079238 0.150232
v 10.192096 2.130195 0.012266
v 10.057615 2.068995 0.013830
v 10.163498 2.112392 0.012492
v 10.127898 2.094510 0.012868
v 10.090717 2.079271 0.013338
v 10.142076 2.130178 -0.174321
v 10.025211 2.069003 -0.107231
v 10.117283 2.112382 -0.159937
v 10.086369 2.094507 -0.142136
v 10.054037 2.079275 -0.123628
v 10.005476 2.130166 -0.310898
v 9.936503 2.068963 -0.195715
v 9.991045 2.112372 -0.286143
v 9.972870 2.094493 -0.255561
v 9.953717 2.079249 -0.223807
v 9.614357 2.155935 -0.342260
v 9.818922 2.155935 -0.397073
v 9.464605 2.155935 -0.192508
v 9.409793 2.155935 0.012056
v 9.464605 2.155935 0.216621
v 9.614357 2.155935 0.366373
v 9.818922 2.155935 0.421186
v 10.023487 2.155935 0.366373
v 10.173239 2.155935 0.216621
v 10.228052 2.155935 0.012056
v 10.173239 2.155935 -0.192508
v 10.023487 2.155935 -0.342260
v 9.779724 2.119956 -0.030146
v 9.806926 2.119956 -0.037435
v 9.759811 2.119956 -0.010234
v 9.752523 2.119956 0.016968
v 9.759811 2.119956 0.044169
v 9.779724 2.119956 0.064082
v 9.806926 2.119956 0.071371
v 9.834127 2.119956 0.064082
v 9.854040 2.119956 0.044169
v 9.861328 2.119956 0.016968
v 9.854040 2.119956 -0.010234
v 9.834127 2.119956 -0.030146
v 9.760764 1.773255 -0.061945
v 9.806431 1.773255 -0.074181
v 9.852098 1.773255 -0.061945
v 9.727333 1.773255 -0.028514
v 9.715096 1.773255 0.017153
v 9.727333 1.773255 0.062819
v 9.760764 1.773255 0.096250
v 9.806431 1.773255 0.108486
v 9.852098 1.773255 0.096250
v 9.885529 1.773255 0.062819
v 9.897764 1.773255 0.017153
v 9.885529 1.773255 -0.028514
v 9.671303 2.119956 -0.247784
v 9.820870 2.119956 -0.287861
v 9.561810 2.119956 -0.138292
v 9.521734 2.119956 0.011276
v 9.561810 2.119956 0.160844
v 9.671303 2.119956 0.270336
v 9.820870 2.119956 0.310413
v 9.970439 2.119956 0.270336
v 10.079931 2.119956 0.160844
v 10.120008 2.119956 0.011276
v 10.079931 2.119956 -0.138292
v 9.970439 2.119956 -0.247784
v 9.803962 1.195693 -0.137301
v 9.726511 1.195693 -0.116548
v 9.669813 1.195693 -0.059850
v 9.649060 1.195693 0.017601
v 9.669813 1.195693 0.095052
v 9.726511 1.195693 0.151751
v 9.803962 1.195693 0.172504
v 9.881413 1.195693 0.151751
v 9.938111 1.195693 0.095052
v 9.958864 1.195693 0.017601
v 9.938111 1.195693 -0.059850
v 9.881413 1.195693 -0.116548
vn -0.3082 0.7874 -0.5339
vn -0.5339 0.7874 -0.3082
vn -0.6074 0.7128 -0.3507
vn -0.3507 0.7128 -0.6074
vn 0.3507 0.7128 0.6074
vn 0.6074 0.7128 0.3507
vn 0.7013 0.7128 -0.0000
vn 0.6074 0.7128 -0.3507
vn 0.3507 0.7128 -0.6074
vn -0.0000 0.7128 -0.7013
vn -0.7013 0.7128 -0.0000
vn -0.6074 0.7128 0.3507
vn -0.3507 0.7128 0.6074
vn -0.0000 0.7128 0.7013
vn 0.5108 0.8109 -0.2854
vn 0.2854 0.8109 -0.5108
vn -0.3082 0.7874 0.5339
vn -0.0000 0.7874 0.6165
vn 0.3082 0.7874 0.5339
vn 0.5339 0.7874 0.3082
vn -0.6165 0.7874 -0.0000
vn -0.0077 0.7944 -0.6073
vn 0.6073 0.7944 0.0077
vn -0.5339 0.7874 0.3082
vn -0.2290 0.8889 -0.3967
vn -0.3967 0.8889 -0.2290
vn 0.2290 0.8889 -0.3967
vn -0.0000 0.8889 -0.4581
vn 0.3967 0.8889 -0.2290
vn 0.4581 0.8889 -0.0000
vn 0.3967 0.8889 0.2290
vn 0.2290 0.8889 0.3967
vn 0.0177 0.9371 0.3485
vn -0.0599 0.9881 0.1419
vn -0.1420 0.9881 0.0599
vn -0.3485 0.9371 -0.0176
vn -0.4680 -0.3479 -0.8124
vn -0.4274 0.5246 -0.7362
vn -0.7383 0.5316 -0.4150
vn -0.8124 -0.3395 -0.4740
vn -0.8316 0.5553 0.0094
vn -0.9469 -0.3215 -0.0068
vn -0.6956 0.5835 0.4192
vn -0.8306 -0.2975 0.4707
vn -0.3887 0.5881 0.7093
vn -0.4865 -0.2737 0.8297
vn 0.0062 0.5894 0.8078
vn -0.0032 -0.2573 0.9663
vn 0.4014 0.5915 0.6993
vn 0.4846 -0.2536 0.8372
vn 0.6973 0.5853 0.4138
vn 0.8378 -0.2640 0.4779
vn 0.8201 0.5721 0.0148
vn 0.9585 -0.2849 -0.0073
vn 0.7283 0.5548 -0.4021
vn 0.8197 -0.3097 -0.4819
vn 0.4324 0.5382 -0.7234
vn 0.4688 -0.3318 -0.8186
vn 0.0062 0.5271 -0.8498
vn -0.0027 -0.3450 -0.9386
vn -0.4413 0.4701 -0.7644
vn -0.0000 0.4701 -0.8826
vn -0.0000 0.0397 -0.9992
vn -0.4996 0.0397 -0.8653
vn 0.0018 -0.3338 -0.9426
vn -0.4710 -0.3283 -0.8187
vn -0.8324 0.5539 -0.0179
vn -0.7644 0.4701 -0.4413
vn -0.8653 0.0398 -0.4996
vn -0.9992 0.0398 -0.0000
vn -0.8187 -0.3249 -0.4734
vn -0.9459 -0.3245 0.0004
vn -0.6431 0.6829 0.3465
vn -0.8653 0.0397 0.4996
vn -0.8177 -0.3272 0.4736
vn -0.3465 0.6828 0.6432
vn -0.4996 0.0397 0.8653
vn -0.4700 -0.3323 0.8177
vn 0.0179 0.5539 0.8324
vn -0.0000 0.0398 0.9992
vn 0.0018 -0.3383 0.9410
vn 0.4413 0.4701 0.7644
vn 0.4996 0.0397 0.8653
vn 0.4708 -0.3435 0.8126
vn 0.7644 0.4701 0.4413
vn 0.8653 0.0397 0.4996
vn 0.8126 -0.3468 0.4685
vn 0.8826 0.4701 -0.0000
vn 0.9992 0.0398 -0.0000
vn 0.9378 -0.3472 0.0004
vn 0.7644 0.4701 -0.4413
vn 0.8653 0.0398 -0.4996
vn 0.8136 -0.3446 -0.4683
vn 0.4413 0.4701 -0.7644
vn 0.4996 0.0397 -0.8653
vn 0.4718 -0.3398 -0.8136
vn -0.0049 0.1391 -0.9903
vn -0.4982 0.1410 -0.8555
vn -0.8580 0.1422 -0.4935
vn 0.4912 0.1370 -0.8602
vn -0.9898 0.1423 -0.0010
vn -0.8590 0.1414 0.4921
vn -0.4992 0.1397 0.8552
vn -0.0048 0.1375 0.9905
vn 0.4922 0.1356 0.8599
vn 0.8574 0.1344 0.4968
vn 0.9909 0.1343 -0.0009
vn 0.8564 0.1352 -0.4982
vn -0.4070 0.5788 -0.7067
vn 0.0011 0.5819 -0.8133
vn -0.0000 0.2951 -0.9555
vn -0.4777 0.2951 -0.8275
vn -0.0000 -0.1306 -0.9914
vn -0.4957 -0.1306 -0.8586
vn -0.7072 0.5769 -0.4088
vn -0.8275 0.2951 -0.4777
vn -0.8586 -0.1306 -0.4957
vn -0.8170 0.5766 0.0002
vn -0.9555 0.2951 -0.0000
vn -0.9914 -0.1306 -0.0000
vn -0.7062 0.5782 0.4086
vn -0.8275 0.2951 0.4777
vn -0.8586 -0.1306 0.4957
vn -0.4060 0.5810 0.7054
vn -0.4777 0.2951 0.8275
vn -0.4957 -0.1306 0.8586
vn 0.0011 0.5844 0.8114
vn -0.0000 0.2951 0.9555
vn -0.0000 -0.1306 0.9914
vn 0.4054 0.5874 0.7004
vn 0.4777 0.2951 0.8275
vn 0.4957 -0.1306 0.8586
vn 0.6999 0.5892 0.4037
vn 0.8275 0.2951 0.4777
vn 0.8586 -0.1306 0.4957
vn 0.8078 0.5894 0.0002
vn 0.9555 0.2951 -0.0000
vn 0.9914 -0.1306 -0.0000
vn 0.7009 0.5880 -0.4038
vn 0.8275 0.2951 -0.4777
vn 0.8586 -0.1306 -0.4957
vn 0.4064 0.5853 -0.7017
vn 0.4777 0.2951 -0.8275
vn 0.4957 -0.1306 -0.8586
vn -0.0026 0.6764 -0.7365
vn -0.3751 0.6659 -0.6449
vn -0.2800 0.8312 -0.4803
vn -0.0017 0.8347 -0.5507
vn -0.1650 0.9446 -0.2838
vn 0.0002 0.9447 -0.3279
vn -0.6563 0.6535 -0.3771
vn -0.4911 0.8246 -0.2808
vn -0.2904 0.9425 -0.1654
vn -0.8297 0.5582 0.0087
vn -0.6268 0.7792 0.0036
vn -0.3464 0.9381 -0.0031
vn -0.7662 0.4680 0.4405
vn -0.5876 0.7343 0.3399
vn -0.3102 0.9329 0.1829
vn -0.4271 0.5496 0.7180
vn -0.3237 0.7658 0.5557
vn -0.1774 0.9298 0.3224
vn -0.0145 0.6754 0.7374
vn -0.0082 0.8166 0.5772
vn -0.0017 0.9299 0.3678
vn 0.3291 0.7357 0.5920
vn 0.2616 0.8440 0.4682
vn 0.1755 0.9347 0.3092
vn 0.5820 0.7445 0.3269
vn 0.4583 0.8500 0.2599
vn 0.3020 0.9372 0.1744
vn 0.7080 0.7061 -0.0112
vn 0.5503 0.8350 -0.0046
vn 0.3495 0.9370 0.0006
vn 0.6323 0.6826 -0.3663
vn 0.4828 0.8303 -0.2783
vn 0.2984 0.9392 -0.1697
vn 0.3636 0.6825 -0.6340
vn 0.2749 0.8344 -0.4776
vn 0.1678 0.9428 -0.2879
vn 0.3962 0.6152 -0.6816
vn 0.0043 0.6054 -0.7959
vn -0.3987 0.5913 -0.7010
vn -0.7054 0.5762 -0.4128
vn -0.8831 0.4692 0.0068
vn -0.8080 0.3599 0.4665
vn -0.4480 0.4679 0.7618
vn -0.0085 0.6203 0.7843
vn 0.3545 0.6938 0.6268
vn 0.6222 0.7027 0.3451
vn 0.7571 0.6531 -0.0143
vn 0.6805 0.6184 -0.3931
vn 0.2505 -0.8655 0.4339
vn -0.0000 -0.8655 0.5010
vn -0.0000 -0.5624 0.8269
vn 0.4134 -0.5624 0.7161
vn -0.2505 -0.8655 0.4339
vn -0.4134 -0.5624 0.7161
vn 0.4339 -0.8655 0.2505
vn 0.7161 -0.5624 0.4134
vn 0.5010 -0.8655 -0.0000
vn 0.8269 -0.5624 -0.0000
vn 0.4339 -0.8655 -0.2505
vn 0.7161 -0.5624 -0.4134
vn 0.2505 -0.8655 -0.4339
vn 0.4134 -0.5624 -0.7161
vn -0.0000 -0.8655 -0.5010
vn -0.0000 -0.5624 -0.8269
vn -0.2505 -0.8655 -0.4339
vn -0.4134 -0.5624 -0.7161
vn -0.4339 -0.8655 -0.2505
vn -0.7161 -0.5624 -0.4134
vn -0.5010 -0.8655 -0.0000
vn -0.8269 -0.5624 -0.0000
vn -0.4339 -0.8655 0.2505
vn -0.7161 -0.5624 0.4134
vn -0.7598 0.6502 -0.0006
vn -0.6577 0.6504 0.3800
vn 0.0018 0.6434 -0.7656
vn -0.3801 0.6462 -0.6618
vn 0.7684 0.6400 -0.0007
vn 0.6658 0.6397 -0.3840
vn -0.3793 0.6493 0.6592
vn 0.0017 0.6471 0.7624
vn 0.3840 0.6443 0.6614
vn -0.6584 0.6487 -0.3817
vn 0.3849 0.6410 -0.6641
vn 0.6650 0.6417 0.3822
vn -0.0008 -0.9767 -0.2146
vn 0.1081 -0.9762 -0.1882
vn 0.1496 -0.9548 -0.2568
vn 0.0016 -0.9558 -0.2940
vn 0.1431 0.9587 0.2460
vn 0.0009 0.9604 0.2787
vn 0.0008 0.9367 0.3501
vn 0.1785 0.9347 0.3075
vn 0.0005 0.9059 0.4234
vn 0.2144 0.9038 0.3702
vn -0.0000 0.8681 0.4963
vn 0.2497 0.8665 0.4322
vn -0.0002 0.8297 0.5582
vn 0.2795 0.8290 0.4845
vn 0.2517 0.9570 0.1444
vn 0.3128 0.9327 0.1797
vn 0.3746 0.9018 0.2157
vn 0.4349 0.8648 0.2509
vn 0.4857 0.8279 0.2804
vn 0.2939 0.9558 -0.0004
vn 0.3643 0.9313 -0.0004
vn 0.4353 0.9003 -0.0003
vn 0.5044 0.8635 -0.0002
vn 0.5623 0.8269 -0.0001
vn 0.2551 0.9556 -0.1471
vn 0.3162 0.9310 -0.1825
vn 0.3777 0.8999 -0.2181
vn 0.4376 0.8629 -0.2528
vn 0.4878 0.8262 -0.2819
vn 0.1465 0.9564 -0.2525
vn 0.1819 0.9318 -0.3140
vn 0.2176 0.9006 -0.3763
vn 0.2523 0.8632 -0.4372
vn 0.2816 0.8260 -0.4883
vn 0.0009 0.9580 -0.2868
vn 0.0008 0.9336 -0.3583
vn 0.0005 0.9023 -0.4311
vn -0.0000 0.8644 -0.5028
vn -0.0002 0.8263 -0.5633
vn -0.1396 0.9597 -0.2437
vn -0.1757 0.9357 -0.3060
vn -0.2128 0.9044 -0.3698
vn -0.2499 0.8660 -0.4331
vn -0.2812 0.8270 -0.4868
vn -0.2383 0.9613 -0.1384
vn -0.3009 0.9376 -0.1745
vn -0.3656 0.9064 -0.2117
vn -0.4304 0.8677 -0.2487
vn -0.4856 0.8280 -0.2803
vn -0.2723 0.9622 -0.0003
vn -0.3446 0.9387 -0.0004
vn -0.4196 0.9077 -0.0003
vn -0.4949 0.8690 -0.0002
vn -0.5592 0.8290 -0.0001
vn -0.2353 0.9624 0.1360
vn -0.2978 0.9390 0.1720
vn -0.3626 0.9081 0.2093
vn -0.4278 0.8695 0.2468
vn -0.4835 0.8297 0.2789
vn -0.1365 0.9617 0.2376
vn -0.1725 0.9383 0.2998
vn -0.2098 0.9075 0.3640
vn -0.2473 0.8692 0.4282
vn -0.2791 0.8300 0.4830
vn -0.0001 -0.2669 0.9637
vn 0.4815 -0.2671 0.8347
vn -0.4816 -0.2670 0.8347
vn 0.8341 -0.2676 0.4823
vn 0.9634 -0.2682 0.0006
vn 0.8344 -0.2688 -0.4812
vn 0.4818 -0.2692 -0.8339
vn -0.0001 -0.2693 -0.9631
vn -0.4819 -0.2690 -0.8339
vn -0.8345 -0.2685 -0.4811
vn -0.9634 -0.2679 0.0006
vn -0.8342 -0.2674 0.4822
vn -0.1065 -0.9774 -0.1828
vn -0.1812 -0.9779 -0.1039
vn -0.2072 -0.9783 0.0003
vn -0.1792 -0.9784 0.1033
vn -0.1044 -0.9781 0.1799
vn -0.0008 -0.9776 0.2103
vn 0.1059 -0.9770 0.1851
vn 0.1868 -0.9764 0.1086
vn 0.2179 -0.9760 0.0003
vn 0.1890 -0.9759 -0.1092
vn -0.1436 -0.9570 -0.2521
vn -0.2475 -0.9581 -0.1444
vn 0.2570 -0.9552 0.1467
vn 0.2983 -0.9545 -0.0007
vn -0.1417 -0.9584 0.2476
vn 0.0016 -0.9575 0.2884
vn -0.2842 -0.9588 -0.0006
vn 0.2589 -0.9543 -0.1492
vn 0.1476 -0.9563 0.2522
vn -0.2456 -0.9589 0.1421
vn -0.0000 -1.0000 -0.0000
vn -0.6920 -0.6014 0.3993
vn -0.7998 -0.6003 -0.0010
vn -0.4005 -0.5949 -0.6969
vn 0.0014 -0.5920 -0.8059
vn 0.6993 -0.5897 -0.4040
vn 0.8067 -0.5909 -0.0011
vn -0.3991 -0.6010 0.6925
vn 0.4027 -0.5965 0.6943
vn 0.0013 -0.5992 0.8006
vn 0.3839 0.6443 0.6614
vn -0.6934 -0.5979 -0.4021
vn 0.4042 -0.5901 -0.6988
vn 0.6979 -0.5934 0.4011
vn 0.2795 0.8290 0.4844
vn 0.4857 0.8280 0.2804
vn 0.1819 0.9319 -0.3140
vn 0.0016 -0.9575 0.2883
vn 0.2174 -0.8991 0.3799
vn -0.0013 -0.9017 0.4325
vn -0.3775 -0.9004 -0.2161
vn -0.2218 -0.8976 -0.3808
vn 0.2244 -0.8931 -0.3900
vn 0.3904 -0.8927 -0.2251
vn -0.2151 -0.9033 0.3713
vn 0.3833 -0.8962 0.2232
vn -0.4305 -0.9026 0.0010
vn -0.0014 -0.8949 -0.4462
vn 0.4484 -0.8939 0.0011
vn -0.3708 -0.9036 0.2143
vt 0.262602 0.261549
vt 0.259741 0.213473
vt 0.272892 0.216141
vt 0.275682 0.257187
vt 0.425070 0.203337
vt 0.428103 0.243968
vt 0.410626 0.280676
vt 0.377455 0.304443
vt 0.336530 0.308695
vt 0.298878 0.291442
vt 0.290639 0.179443
vt 0.324034 0.156175
vt 0.364636 0.152302
vt 0.401827 0.169539
vt 0.382266 0.317001
vt 0.334325 0.322321
vt 0.366915 0.138872
vt 0.410880 0.158912
vt 0.437941 0.198940
vt 0.441152 0.246488
vt 0.280585 0.170784
vt 0.289726 0.302178
vt 0.420806 0.289189
vt 0.319433 0.143640
vt 0.450769 0.194604
vt 0.454058 0.248984
vt 0.369080 0.125474
vt 0.419956 0.148200
vt 0.314813 0.131275
vt 0.270648 0.162250
vt 0.246729 0.210792
vt 0.249556 0.265851
vt 0.280524 0.313006
vt 0.332420 0.335040
vt 0.386783 0.328560
vt 0.430878 0.297513
vt 0.489926 0.182168
vt 0.500016 0.179310
vt 0.501372 0.259368
vt 0.491872 0.256690
vt 0.466894 0.328593
vt 0.460116 0.321738
vt 0.404430 0.374399
vt 0.401657 0.365045
vt 0.325134 0.387033
vt 0.327088 0.376937
vt 0.243024 0.357069
vt 0.250538 0.348800
vt 0.199369 0.281421
vt 0.209136 0.278443
vt 0.198390 0.200764
vt 0.207926 0.202276
vt 0.233466 0.131379
vt 0.241284 0.136865
vt 0.296284 0.085853
vt 0.300809 0.094545
vt 0.375612 0.073942
vt 0.375153 0.084390
vt 0.456573 0.104537
vt 0.449543 0.113461
vt 0.452515 0.194018
vt 0.421396 0.146510
vt 0.423846 0.143627
vt 0.455730 0.192948
vt 0.426269 0.140771
vt 0.458913 0.191883
vt 0.432099 0.298516
vt 0.455663 0.249296
vt 0.458756 0.249903
vt 0.434483 0.300483
vt 0.461819 0.250501
vt 0.436841 0.302431
vt 0.387536 0.330314
vt 0.388726 0.333296
vt 0.389904 0.336249
vt 0.332082 0.337151
vt 0.331593 0.340583
vt 0.331109 0.343982
vt 0.279068 0.314745
vt 0.276588 0.317690
vt 0.274133 0.320606
vt 0.247754 0.266438
vt 0.244460 0.267507
vt 0.241199 0.268565
vt 0.245096 0.210432
vt 0.241963 0.209760
vt 0.238860 0.209096
vt 0.269441 0.161195
vt 0.267085 0.159155
vt 0.264750 0.157137
vt 0.314233 0.129725
vt 0.313117 0.126751
vt 0.312012 0.123806
vt 0.369381 0.123644
vt 0.369919 0.120283
vt 0.370453 0.116955
vt 0.431336 0.135136
vt 0.465713 0.189839
vt 0.468423 0.251897
vt 0.371749 0.109868
vt 0.441982 0.306659
vt 0.392571 0.342560
vt 0.330333 0.351195
vt 0.269332 0.326662
vt 0.234264 0.270960
vt 0.232007 0.207717
vt 0.259579 0.152635
vt 0.309700 0.117281
vt 0.475191 0.186709
vt 0.438153 0.126808
vt 0.442231 0.122034
vt 0.480513 0.185067
vt 0.445923 0.117709
vt 0.485277 0.183600
vt 0.477710 0.253746
vt 0.482837 0.254811
vt 0.487413 0.255762
vt 0.449143 0.312664
vt 0.453115 0.315952
vt 0.456660 0.318884
vt 0.396064 0.351506
vt 0.398083 0.356408
vt 0.399890 0.360783
vt 0.328890 0.361306
vt 0.328231 0.366950
vt 0.327648 0.372004
vt 0.262082 0.334995
vt 0.257952 0.339929
vt 0.254209 0.344403
vt 0.224266 0.273863
vt 0.218803 0.275517
vt 0.213911 0.276998
vt 0.222325 0.205517
vt 0.217113 0.204346
vt 0.212461 0.203298
vt 0.252181 0.146306
vt 0.248236 0.142888
vt 0.244716 0.139837
vt 0.306057 0.108175
vt 0.304159 0.103241
vt 0.302466 0.098836
vt 0.372989 0.099757
vt 0.373775 0.094207
vt 0.374476 0.089239
vt 0.471590 0.087296
vt 0.518044 0.174201
vt 0.513787 0.175448
vt 0.467876 0.091797
vt 0.509364 0.176688
vt 0.463985 0.096287
vt 0.518252 0.262400
vt 0.514272 0.261657
vt 0.510146 0.260914
vt 0.480141 0.338240
vt 0.477021 0.335862
vt 0.473770 0.333487
vt 0.412730 0.391064
vt 0.411342 0.388022
vt 0.409774 0.384901
vt 0.324624 0.403927
vt 0.324936 0.399652
vt 0.325057 0.395380
vt 0.229961 0.373056
vt 0.233655 0.368792
vt 0.237173 0.364514
vt 0.183104 0.285415
vt 0.187415 0.284400
vt 0.191609 0.283383
vt 0.183211 0.196263
vt 0.187192 0.197416
vt 0.191077 0.198572
vt 0.222188 0.120259
vt 0.225137 0.123005
vt 0.227977 0.125800
vt 0.290963 0.070044
vt 0.292450 0.073911
vt 0.293789 0.077845
vt 0.378176 0.055671
vt 0.377765 0.060147
vt 0.377160 0.064677
vt 0.378369 0.052515
vt 0.474369 0.083830
vt 0.520979 0.173323
vt 0.520979 0.262929
vt 0.482258 0.339912
vt 0.413384 0.392605
vt 0.324323 0.406899
vt 0.227074 0.376294
vt 0.177208 0.286748
vt 0.177775 0.194716
vt 0.220050 0.118343
vt 0.289832 0.067334
vt 0.735591 0.383797
vt 0.747470 0.383048
vt 0.748308 0.392748
vt 0.737707 0.393596
vt 0.758691 0.383042
vt 0.758997 0.392521
vt 0.723489 0.386862
vt 0.727772 0.395213
vt 0.782499 0.383498
vt 0.795730 0.386367
vt 0.791018 0.395662
vt 0.780700 0.393866
vt 0.770140 0.382875
vt 0.769939 0.392859
vt 0.758964 0.382767
vt 0.759056 0.392457
vt 0.747883 0.383134
vt 0.748251 0.392865
vt 0.735960 0.384007
vt 0.737724 0.393787
vt 0.723700 0.386728
vt 0.727758 0.395252
vt 0.782502 0.383093
vt 0.795644 0.386006
vt 0.790929 0.395227
vt 0.780634 0.393460
vt 0.770097 0.382339
vt 0.769836 0.392481
vt 0.774863 0.472241
vt 0.766489 0.471828
vt 0.749123 0.472210
vt 0.740626 0.472579
vt 0.774410 0.472768
vt 0.766006 0.472296
vt 0.758085 0.471702
vt 0.749645 0.471851
vt 0.741172 0.472272
vt 0.732079 0.473202
vt 0.757579 0.472110
vt 0.732658 0.472944
vt 0.783240 0.472944
vt 0.782803 0.473528
vt 0.200298 0.638572
vt 0.197246 0.566613
vt 0.224354 0.571436
vt 0.226860 0.630228
vt 0.584638 0.683766
vt 0.623060 0.633907
vt 0.639009 0.639968
vt 0.595765 0.696503
vt 0.657567 0.647235
vt 0.608689 0.711552
vt 0.676078 0.654664
vt 0.621560 0.726729
vt 0.691859 0.661187
vt 0.632488 0.739838
vt 0.526625 0.709265
vt 0.530135 0.726125
vt 0.534441 0.745835
vt 0.538927 0.765549
vt 0.542914 0.782421
vt 0.567325 0.472547
vt 0.506591 0.456938
vt 0.506163 0.439927
vt 0.575051 0.458154
vt 0.506141 0.419993
vt 0.584261 0.441199
vt 0.506543 0.400020
vt 0.593641 0.424142
vt 0.507291 0.382906
vt 0.601810 0.409463
vt 0.612885 0.514856
vt 0.626586 0.506139
vt 0.642737 0.495803
vt 0.659024 0.485331
vt 0.673081 0.476241
vt 0.633030 0.573479
vt 0.649324 0.572585
vt 0.668517 0.571373
vt 0.687862 0.570016
vt 0.704552 0.568709
vt 0.622958 0.634704
vt 0.637852 0.641901
vt 0.655427 0.650151
vt 0.673167 0.658268
vt 0.688499 0.665078
vt 0.584776 0.683991
vt 0.594696 0.697660
vt 0.606483 0.713485
vt 0.618455 0.729167
vt 0.628860 0.742435
vt 0.527058 0.709129
vt 0.529403 0.726657
vt 0.532604 0.746880
vt 0.536213 0.766880
vt 0.539687 0.783773
vt 0.564713 0.470834
vt 0.502751 0.456840
vt 0.502932 0.438998
vt 0.573061 0.455530
vt 0.503353 0.418351
vt 0.582748 0.437752
vt 0.503958 0.397872
vt 0.592394 0.420069
vt 0.504629 0.380510
vt 0.600584 0.405034
vt 0.611855 0.512678
vt 0.626196 0.502929
vt 0.642898 0.491649
vt 0.659574 0.480455
vt 0.673810 0.470962
vt 0.632930 0.571876
vt 0.650052 0.569820
vt 0.670002 0.567576
vt 0.689933 0.565465
vt 0.706962 0.563793
vt 0.712872 0.670051
vt 0.646960 0.757448
vt 0.518833 0.607520
vt 0.526640 0.597556
vt 0.729675 0.561660
vt 0.528719 0.584991
vt 0.507375 0.612517
vt 0.548313 0.804673
vt 0.523339 0.557638
vt 0.511133 0.554599
vt 0.508649 0.360308
vt 0.612798 0.389863
vt 0.532605 0.566236
vt 0.691877 0.464048
vt 0.536785 0.578141
vt 0.726852 0.566867
vt 0.534738 0.590632
vt 0.708995 0.674011
vt 0.526934 0.600587
vt 0.642829 0.759933
vt 0.515353 0.605492
vt 0.544625 0.805817
vt 0.514941 0.564673
vt 0.502751 0.561971
vt 0.505655 0.357784
vt 0.611409 0.385079
vt 0.524480 0.572959
vt 0.692758 0.458354
vt 0.235762 0.701276
vt 0.223038 0.713211
vt 0.183546 0.643375
vt 0.295696 0.740768
vt 0.290258 0.757278
vt 0.352667 0.442337
vt 0.282129 0.456001
vt 0.274884 0.440100
vt 0.353933 0.424986
vt 0.225428 0.500614
vt 0.211697 0.489818
vt 0.195351 0.566237
vt 0.178202 0.562906
vt 0.198585 0.638381
vt 0.181799 0.643250
vt 0.234402 0.701125
vt 0.221679 0.713137
vt 0.294661 0.740505
vt 0.289272 0.757080
vt 0.353821 0.442476
vt 0.283605 0.456516
vt 0.276305 0.440703
vt 0.354983 0.425184
vt 0.227188 0.501149
vt 0.213484 0.490413
vt 0.180151 0.563278
vt 0.255841 0.681472
vt 0.304976 0.713888
vt 0.352415 0.469939
vt 0.294866 0.481487
vt 0.223446 0.572193
vt 0.226100 0.631167
vt 0.352242 0.470801
vt 0.294362 0.482054
vt 0.248794 0.517952
vt 0.255373 0.682443
vt 0.248026 0.518546
vt 0.304797 0.714778
vt 0.716468 0.762650
vt 0.755644 0.801826
vt 0.662953 0.855341
vt 0.769983 0.855341
vt 0.755644 0.908856
vt 0.716468 0.948031
vt 0.662953 0.962371
vt 0.662953 0.748311
vt 0.662954 0.855341
vt 0.769983 0.855341
vt 0.928197 0.528189
vt 0.938887 0.529647
vt 0.933200 0.609607
vt 0.924718 0.609294
vt 0.894378 0.527507
vt 0.905633 0.526971
vt 0.906893 0.609108
vt 0.898207 0.609302
vt 0.927798 0.527876
vt 0.938725 0.528911
vt 0.933127 0.610269
vt 0.924356 0.609605
vt 0.917159 0.527651
vt 0.916202 0.609302
vt 0.895035 0.528606
vt 0.906063 0.527668
vt 0.907631 0.609629
vt 0.899044 0.609784
vt 0.883714 0.529129
vt 0.889545 0.609784
vt 0.916809 0.527176
vt 0.915608 0.609211
vt 0.884830 0.530447
vt 0.890481 0.610238
vt 0.948700 0.531677
vt 0.941667 0.610238
vt 0.948999 0.530810
vt 0.941965 0.611216
vt 0.921860 0.720210
vt 0.942097 0.794787
vt 0.912854 0.795377
vt 0.896643 0.735611
vt 0.425256 0.547170
vt 0.395919 0.590004
vt 0.382506 0.585749
vt 0.415505 0.537196
vt 0.366888 0.580622
vt 0.404167 0.525400
vt 0.351301 0.575359
vt 0.392867 0.513496
vt 0.338004 0.570716
vt 0.383262 0.503205
vt 0.471851 0.523492
vt 0.468183 0.509771
vt 0.463726 0.493739
vt 0.459121 0.477712
vt 0.455059 0.464002
vt 0.447357 0.715780
vt 0.498139 0.725586
vt 0.499344 0.739569
vt 0.441718 0.728017
vt 0.500362 0.755978
vt 0.434986 0.742437
vt 0.501032 0.772442
vt 0.428119 0.756950
vt 0.501274 0.786569
vt 0.422129 0.769444
vt 0.407728 0.683233
vt 0.396885 0.691097
vt 0.384107 0.700416
vt 0.371224 0.709853
vt 0.360108 0.718042
vt 0.388204 0.635981
vt 0.374834 0.637534
vt 0.359095 0.639495
vt 0.343237 0.641582
vt 0.329562 0.643494
vt 0.393427 0.585073
vt 0.380804 0.579895
vt 0.365922 0.573984
vt 0.350910 0.568191
vt 0.337947 0.563353
vt 0.422389 0.542583
vt 0.413537 0.531827
vt 0.403039 0.519390
vt 0.392397 0.507080
vt 0.383166 0.496678
vt 0.468645 0.518994
vt 0.465836 0.504681
vt 0.462187 0.488193
vt 0.458213 0.471909
vt 0.454506 0.458176
vt 0.451499 0.721597
vt 0.503171 0.730259
vt 0.503846 0.744960
vt 0.445332 0.734585
vt 0.504453 0.761982
vt 0.438176 0.749673
vt 0.504901 0.778874
vt 0.431049 0.764680
vt 0.505150 0.793202
vt 0.424999 0.777440
vt 0.410746 0.689317
vt 0.399387 0.698007
vt 0.386154 0.708067
vt 0.372938 0.718056
vt 0.361653 0.726531
vt 0.390657 0.641541
vt 0.376652 0.644025
vt 0.360327 0.646795
vt 0.344012 0.649454
vt 0.330065 0.651617
vt 0.320290 0.564388
vt 0.370532 0.489372
vt 0.482968 0.606919
vt 0.476999 0.615484
vt 0.311460 0.654423
vt 0.475868 0.625927
vt 0.492173 0.602274
vt 0.449585 0.445927
vt 0.479303 0.643523
vt 0.489503 0.645413
vt 0.501289 0.805240
vt 0.414066 0.786131
vt 0.471243 0.636910
vt 0.345244 0.729022
vt 0.467205 0.627318
vt 0.311296 0.646129
vt 0.468264 0.616933
vt 0.320625 0.557026
vt 0.474189 0.608346
vt 0.370789 0.482973
vt 0.483477 0.603726
vt 0.449336 0.440275
vt 0.488152 0.642023
vt 0.498315 0.643684
vt 0.505355 0.811965
vt 0.417007 0.794372
vt 0.479913 0.635640
vt 0.346632 0.737789
vt 0.867354 0.665589
vt 0.876833 0.649424
vt 0.938113 0.710803
vt 0.793426 0.644747
vt 0.793640 0.626042
vt 0.794753 0.946134
vt 0.868554 0.925377
vt 0.878022 0.941541
vt 0.794957 0.964777
vt 0.923052 0.870751
vt 0.939304 0.880164
vt 0.943346 0.796183
vt 0.962143 0.796279
vt 0.923827 0.721421
vt 0.940169 0.712171
vt 0.869844 0.666279
vt 0.879479 0.650221
vt 0.796209 0.644727
vt 0.796606 0.626045
vt 0.794842 0.946114
vt 0.868557 0.924636
vt 0.878180 0.940726
vt 0.795223 0.964781
vt 0.922583 0.869536
vt 0.938922 0.878792
vt 0.960893 0.794696
vt 0.852840 0.691747
vt 0.792721 0.675262
vt 0.793836 0.916564
vt 0.853779 0.899557
vt 0.912918 0.795574
vt 0.897272 0.735619
vt 0.792724 0.915698
vt 0.852865 0.899227
vt 0.897207 0.855311
vt 0.853863 0.691320
vt 0.896668 0.855346
vt 0.793868 0.674256
vt 0.792721 0.795933
vt 0.792724 0.794988
vt 0.793907 0.503057
vt 0.806948 0.501760
vt 0.807670 0.512564
vt 0.796068 0.513728
vt 0.819186 0.501854
vt 0.819554 0.512366
vt 0.780594 0.506225
vt 0.785157 0.515445
vt 0.845419 0.501761
vt 0.860234 0.505562
vt 0.854760 0.515531
vt 0.843494 0.513443
vt 0.831656 0.501761
vt 0.831499 0.512693
vt 0.819156 0.501853
vt 0.819666 0.512420
vt 0.806839 0.502040
vt 0.807857 0.512693
vt 0.793852 0.502905
vt 0.796196 0.513636
vt 0.780594 0.506250
vt 0.785277 0.515400
vt 0.845252 0.501760
vt 0.860069 0.505494
vt 0.854636 0.515481
vt 0.843367 0.513417
vt 0.831553 0.501819
vt 0.831382 0.512675
vt 0.836908 0.600254
vt 0.827679 0.599798
vt 0.809179 0.599764
vt 0.799838 0.600216
vt 0.836942 0.600243
vt 0.827719 0.599777
vt 0.818419 0.599652
vt 0.809127 0.599812
vt 0.799802 0.600271
vt 0.790467 0.600937
vt 0.818465 0.599617
vt 0.790422 0.601007
vt 0.846129 0.601032
vt 0.846158 0.601032
vt 0.524468 0.859052
vt 0.551079 0.843654
vt 0.554277 0.854842
vt 0.532986 0.867160
vt 0.256633 0.856240
vt 0.288605 0.888342
vt 0.282781 0.899154
vt 0.246498 0.862984
vt 0.275853 0.911715
vt 0.234545 0.870794
vt 0.268812 0.924228
vt 0.222505 0.878553
vt 0.262675 0.934877
vt 0.212123 0.885120
vt 0.243885 0.812445
vt 0.231524 0.813366
vt 0.217054 0.814588
vt 0.202564 0.815938
vt 0.190149 0.817198
vt 0.410370 0.861071
vt 0.427315 0.819237
vt 0.439492 0.820558
vt 0.419899 0.867960
vt 0.453714 0.822449
vt 0.431114 0.876152
vt 0.467925 0.824646
vt 0.442386 0.884475
vt 0.480063 0.826817
vt 0.452076 0.891707
vt 0.375829 0.889527
vt 0.380738 0.900135
vt 0.386567 0.912646
vt 0.392479 0.925267
vt 0.397620 0.936164
vt 0.332081 0.898291
vt 0.331160 0.910002
vt 0.330189 0.923809
vt 0.329307 0.937740
vt 0.328643 0.949771
vt 0.289366 0.885250
vt 0.282808 0.895187
vt 0.275241 0.906936
vt 0.267754 0.918815
vt 0.261429 0.929102
vt 0.257857 0.853297
vt 0.247157 0.859067
vt 0.234740 0.865962
vt 0.222407 0.873003
vt 0.211947 0.879157
vt 0.245444 0.809717
vt 0.232715 0.809713
vt 0.217983 0.810062
vt 0.203369 0.810724
vt 0.190985 0.811587
vt 0.410459 0.862022
vt 0.426265 0.819118
vt 0.438981 0.820923
vt 0.420596 0.869416
vt 0.453676 0.823163
vt 0.432373 0.877999
vt 0.468234 0.825518
vt 0.444086 0.886544
vt 0.480560 0.827628
vt 0.454047 0.893801
vt 0.376170 0.891733
vt 0.381780 0.902883
vt 0.388261 0.915861
vt 0.394683 0.928813
vt 0.400120 0.939865
vt 0.331945 0.901212
vt 0.331804 0.913624
vt 0.331531 0.928072
vt 0.331166 0.942493
vt 0.330759 0.954803
vt 0.254375 0.949040
vt 0.198197 0.893793
vt 0.317225 0.816441
vt 0.323603 0.822948
vt 0.330148 0.971212
vt 0.332374 0.825612
vt 0.314735 0.807795
vt 0.173762 0.818960
vt 0.353874 0.821553
vt 0.357209 0.813136
vt 0.496054 0.829948
vt 0.465008 0.901421
vt 0.346854 0.827341
vt 0.404521 0.950740
vt 0.337961 0.829184
vt 0.327825 0.965857
vt 0.329246 0.826529
vt 0.253095 0.942870
vt 0.322890 0.820010
vt 0.198128 0.887449
vt 0.320498 0.811279
vt 0.174787 0.813001
vt 0.348168 0.817688
vt 0.351241 0.809243
vt 0.496682 0.830495
vt 0.467270 0.903400
vt 0.341359 0.823718
vt 0.407338 0.954571
vt 0.509113 0.885682
vt 0.501886 0.883747
vt 0.519174 0.853765
vt 0.509117 0.916422
vt 0.501886 0.918359
vt 0.524495 0.943060
vt 0.519195 0.948370
vt 0.551165 0.958387
vt 0.549239 0.965621
vt 0.581904 0.958367
vt 0.583845 0.965591
vt 0.608506 0.942988
vt 0.613797 0.948275
vt 0.623869 0.916368
vt 0.631097 0.918306
vt 0.623875 0.885615
vt 0.631110 0.883680
vt 0.608490 0.858955
vt 0.613796 0.853644
vt 0.581825 0.843599
vt 0.583752 0.836363
vt 0.549132 0.836428
vt 0.520696 0.888469
vt 0.520702 0.913074
vt 0.612521 0.888415
vt 0.600215 0.867103
vt 0.578938 0.946636
vt 0.600233 0.934324
vt 0.533019 0.934384
vt 0.578887 0.854807
vt 0.612524 0.913017
vt 0.554345 0.946650
vt 0.559570 0.896840
vt 0.557334 0.900718
vt 0.557336 0.905192
vt 0.559573 0.909063
vt 0.563451 0.911298
vt 0.567927 0.911296
vt 0.571801 0.909055
vt 0.574037 0.905177
vt 0.574035 0.900701
vt 0.571796 0.896828
vt 0.567921 0.894596
vt 0.563445 0.894599
vt 0.893398 0.518040
vt 0.906298 0.516968
vt 0.878655 0.519708
vt 0.892271 0.516897
vt 0.916821 0.517545
vt 0.928553 0.518205
vt 0.918093 0.517648
vt 0.880355 0.522014
vt 0.940991 0.519741
vt 0.953102 0.523754
vt 0.905063 0.516913
vt 0.941123 0.518956
vt 0.953865 0.522400
vt 0.929244 0.518134
s 1
usemtl Material
f 8/1/1 9/2/2 21/3/3 20/4/4
f 13/5/5 15/6/6 16/7/7 17/8/8 18/9/9 19/10/10 20/4/4 21/3/3 22/11/11 23/12/12 24/13/13 14/14/14
f 5/15/15 6/16/16 18/9/9 17/8/8
f 12/17/17 1/18/18 14/14/14 24/13/13
f 2/19/19 3/20/20 15/6/6 13/5/5
f 9/2/2 10/21/21 22/11/11 21/3/3
f 6/16/16 7/22/22 19/10/10 18/9/9
f 3/20/20 4/23/23 16/7/7 15/6/6
f 10/21/21 11/24/24 23/12/12 22/11/11
f 7/22/22 8/1/1 20/4/4 19/10/10
f 4/23/23 5/15/15 17/8/8 16/7/7
f 11/24/24 12/17/17 24/13/13 23/12/12
f 1/18/18 2/19/19 13/5/5 14/14/14
f 3/20/20 2/19/19 37/25/25 39/26/26
f 1/18/18 12/17/17 48/27/27 38/28/28
f 12/17/17 11/24/24 47/29/29 48/27/27
f 11/24/24 10/21/21 46/30/30 47/29/29
f 10/21/21 9/2/2 45/31/31 46/30/30
f 9/2/2 8/1/1 44/32/32 45/31/31
f 8/1/1 7/22/22 43/33/33 44/32/32
f 7/22/22 6/16/16 42/34/34 43/33/33
f 6/16/16 5/15/15 41/35/35 42/34/34
f 5/15/15 4/23/23 40/36/36 41/35/35
f 4/23/23 3/20/20 39/26/26 40/36/36
f 2/19/19 1/18/18 38/28/28 37/25/25
f 52/37/37 146/38/38 147/39/39 54/40/40
f 54/40/40 147/39/39 148/41/41 56/42/42
f 56/42/42 148/41/41 149/43/43 58/44/44
f 58/44/44 149/43/43 150/45/45 60/46/46
f 60/46/46 150/45/45 151/47/47 62/48/48
f 62/48/48 151/47/47 152/49/49 64/50/50
f 64/50/50 152/49/49 153/51/51 66/52/52
f 66/52/52 153/51/51 154/53/53 68/54/54
f 68/54/54 154/53/53 155/55/55 70/56/56
f 70/56/56 155/55/55 156/57/57 72/58/58
f 72/58/58 156/57/57 145/59/59 50/60/60
f 50/60/60 145/59/59 146/38/38 52/37/37
f 74/61/61 76/62/62 78/63/63 75/64/64
f 75/64/64 78/63/63 77/65/65 73/66/66
f 83/67/67 79/68/68 81/69/69 84/70/70
f 84/70/70 81/69/69 80/71/71 82/72/72
f 86/73/73 83/67/67 84/70/70 87/74/74
f 87/74/74 84/70/70 82/72/72 85/75/75
f 89/76/76 86/73/73 87/74/74 90/77/77
f 90/77/77 87/74/74 85/75/75 88/78/78
f 92/79/79 89/76/76 90/77/77 93/80/80
f 93/80/80 90/77/77 88/78/78 91/81/81
f 95/82/82 92/79/79 93/80/80 96/83/83
f 96/83/83 93/80/80 91/81/81 94/84/84
f 98/85/85 95/82/82 96/83/83 99/86/86
f 99/86/86 96/83/83 94/84/84 97/87/87
f 101/88/88 98/85/85 99/86/86 102/89/89
f 102/89/89 99/86/86 97/87/87 100/90/90
f 104/91/91 101/88/88 102/89/89 105/92/92
f 105/92/92 102/89/89 100/90/90 103/93/93
f 107/94/94 104/91/91 105/92/92 108/95/95
f 108/95/95 105/92/92 103/93/93 106/96/96
f 76/62/62 107/94/94 108/95/95 78/63/63
f 78/63/63 108/95/95 106/96/96 77/65/65
f 73/66/66 80/71/71 81/69/69 75/64/64
f 75/64/64 81/69/69 79/68/68 74/61/61
f 25/97/97 26/98/98 73/66/66 77/65/65
f 39/26/26 37/25/25 74/61/61 79/68/68
f 73/66/66 26/98/98 27/99/99 80/71/71
f 37/25/25 38/28/28 76/62/62 74/61/61
f 36/100/100 25/97/97 77/65/65 106/96/96
f 38/28/28 48/27/27 107/94/94 76/62/62
f 27/99/99 28/101/101 82/72/72 80/71/71
f 40/36/36 39/26/26 79/68/68 83/67/67
f 41/35/35 40/36/36 83/67/67 86/73/73
f 28/101/101 29/102/102 85/75/75 82/72/72
f 42/34/34 41/35/35 86/73/73 89/76/76
f 29/102/102 30/103/103 88/78/78 85/75/75
f 43/33/33 42/34/34 89/76/76 92/79/79
f 30/103/103 31/104/104 91/81/81 88/78/78
f 44/32/32 43/33/33 92/79/79 95/82/82
f 31/104/104 32/105/105 94/84/84 91/81/81
f 45/31/31 44/32/32 95/82/82 98/85/85
f 32/105/105 33/106/106 97/87/87 94/84/84
f 46/30/30 45/31/31 98/85/85 101/88/88
f 33/106/106 34/107/107 100/90/90 97/87/87
f 47/29/29 46/30/30 101/88/88 104/91/91
f 34/107/107 35/108/108 103/93/93 100/90/90
f 48/27/27 47/29/29 104/91/91 107/94/94
f 35/108/108 36/100/100 106/96/96 103/93/93
f 113/109/109 109/110/110 111/111/111 114/112/112
f 114/112/112 111/111/111 110/113/113 112/114/114
f 116/115/115 113/109/109 114/112/112 117/116/116
f 117/116/116 114/112/112 112/114/114 115/117/117
f 119/118/118 116/115/115 117/116/116 120/119/119
f 120/119/119 117/116/116 115/117/117 118/120/120
f 122/121/121 119/118/118 120/119/119 123/122/122
f 123/122/122 120/119/119 118/120/120 121/123/123
f 125/124/124 122/121/121 123/122/122 126/125/125
f 126/125/125 123/122/122 121/123/123 124/126/126
f 128/127/127 125/124/124 126/125/125 129/128/128
f 129/128/128 126/125/125 124/126/126 127/129/129
f 131/130/130 128/127/127 129/128/128 132/131/131
f 132/131/131 129/128/128 127/129/129 130/132/132
f 134/133/133 131/130/130 132/131/131 135/134/134
f 135/134/134 132/131/131 130/132/132 133/135/135
f 137/136/136 134/133/133 135/134/134 138/137/137
f 138/137/137 135/134/134 133/135/135 136/138/138
f 140/139/139 137/136/136 138/137/137 141/140/140
f 141/140/140 138/137/137 136/138/138 139/141/141
f 143/142/142 140/139/139 141/140/140 144/143/143
f 144/143/143 141/140/140 139/141/141 142/144/144
f 109/110/110 143/142/142 144/143/143 111/111/111
f 111/111/111 144/143/143 142/144/144 110/113/113
f 72/58/58 50/60/60 110/113/113 142/144/144
f 25/97/97 36/100/100 143/142/142 109/110/110
f 50/60/60 52/37/37 112/114/114 110/113/113
f 26/98/98 25/97/97 109/110/110 113/109/109
f 52/37/37 54/40/40 115/117/117 112/114/114
f 27/99/99 26/98/98 113/109/109 116/115/115
f 54/40/40 56/42/42 118/120/120 115/117/117
f 28/101/101 27/99/99 116/115/115 119/118/118
f 56/42/42 58/44/44 121/123/123 118/120/120
f 29/102/102 28/101/101 119/118/118 122/121/121
f 58/44/44 60/46/46 124/126/126 121/123/123
f 30/103/103 29/102/102 122/121/121 125/124/124
f 60/46/46 62/48/48 127/129/129 124/126/126
f 31/104/104 30/103/103 125/124/124 128/127/127
f 62/48/48 64/50/50 130/132/132 127/129/129
f 32/105/105 31/104/104 128/127/127 131/130/130
f 64/50/50 66/52/52 133/135/135 130/132/132
f 33/106/106 32/105/105 131/130/130 134/133/133
f 66/52/52 68/54/54 136/138/138 133/135/135
f 34/107/107 33/106/106 134/133/133 137/136/136
f 68/54/54 70/56/56 139/141/141 136/138/138
f 35/108/108 34/107/107 137/136/136 140/139/139
f 70/56/56 72/58/58 142/144/144 139/141/141
f 36/100/100 35/108/108 140/139/139 143/142/142
f 158/145/145 160/146/146 162/147/147 159/148/148
f 159/148/148 162/147/147 161/149/149 157/150/150
f 160/146/146 163/151/151 165/152/152 162/147/147
f 162/147/147 165/152/152 164/153/153 161/149/149
f 163/151/151 166/154/154 168/155/155 165/152/152
f 165/152/152 168/155/155 167/156/156 164/153/153
f 166/154/154 169/157/157 171/158/158 168/155/155
f 168/155/155 171/158/158 170/159/159 167/156/156
f 169/157/157 172/160/160 174/161/161 171/158/158
f 171/158/158 174/161/161 173/162/162 170/159/159
f 172/160/160 175/163/163 177/164/164 174/161/161
f 174/161/161 177/164/164 176/165/165 173/162/162
f 175/163/163 178/166/166 180/167/167 177/164/164
f 177/164/164 180/167/167 179/168/168 176/165/165
f 178/166/166 181/169/169 183/170/170 180/167/167
f 180/167/167 183/170/170 182/171/171 179/168/168
f 181/169/169 184/172/172 186/173/173 183/170/170
f 183/170/170 186/173/173 185/174/174 182/171/171
f 184/172/172 187/175/175 189/176/176 186/173/173
f 186/173/173 189/176/176 188/177/177 185/174/174
f 187/175/175 190/178/178 192/179/179 189/176/176
f 189/176/176 192/179/179 191/180/180 188/177/177
f 190/178/178 158/145/145 159/148/148 192/179/179
f 192/179/179 159/148/148 157/150/150 191/180/180
f 161/149/149 146/38/38 145/59/59 157/150/150
f 158/145/145 190/178/178 49/181/181 71/182/182
f 160/146/146 158/145/145 71/182/182 69/183/183
f 157/150/150 145/59/59 156/57/57 191/180/180
f 164/153/153 147/39/39 146/38/38 161/149/149
f 163/151/151 160/146/146 69/183/183 67/184/184
f 167/156/156 148/41/41 147/39/39 164/153/153
f 166/154/154 163/151/151 67/184/184 65/185/185
f 170/159/159 149/43/43 148/41/41 167/156/156
f 169/157/157 166/154/154 65/185/185 63/186/186
f 173/162/162 150/45/45 149/43/43 170/159/159
f 172/160/160 169/157/157 63/186/186 61/187/187
f 176/165/165 151/47/47 150/45/45 173/162/162
f 175/163/163 172/160/160 61/187/187 59/188/188
f 179/168/168 152/49/49 151/47/47 176/165/165
f 178/166/166 175/163/163 59/188/188 57/189/189
f 182/171/171 153/51/51 152/49/49 179/168/168
f 181/169/169 178/166/166 57/189/189 55/190/190
f 185/174/174 154/53/53 153/51/51 182/171/171
f 184/172/172 181/169/169 55/190/190 53/191/191
f 188/177/177 155/55/55 154/53/53 185/174/174
f 187/175/175 184/172/172 53/191/191 51/192/192
f 191/180/180 156/57/57 155/55/55 188/177/177
f 190/178/178 187/175/175 51/192/192 49/181/181
f 313/193/193 314/194/194 193/195/195 194/196/196
f 314/194/194 315/197/197 204/198/198 193/195/195
f 316/199/199 313/193/193 194/196/196 195/200/200
f 317/201/201 316/202/199 195/203/200 196/204/202
f 318/205/203 317/201/201 196/204/202 197/206/204
f 319/207/205 318/205/203 197/206/204 198/208/206
f 320/209/207 319/207/205 198/208/206 199/210/208
f 321/211/209 320/209/207 199/210/208 200/212/210
f 322/213/211 321/211/209 200/212/210 201/214/212
f 323/215/213 322/216/211 201/217/212 202/218/214
f 324/219/215 323/215/213 202/218/214 203/220/216
f 315/197/197 324/219/215 203/220/216 204/198/198
f 203/220/216 202/218/214 214/221/217 215/222/218
f 200/212/210 199/210/208 211/223/219 212/224/220
f 197/206/204 196/204/202 208/225/221 209/226/222
f 204/198/198 203/220/216 215/222/218 216/227/223
f 194/196/196 193/195/195 205/228/224 206/229/225
f 201/214/212 200/212/210 212/224/220 213/230/226
f 198/208/206 197/206/204 209/226/222 210/231/227
f 193/195/195 204/198/198 216/227/223 205/228/224
f 195/200/200 194/196/196 206/229/225 207/232/228
f 202/218/214 201/217/212 213/233/226 214/221/217
f 199/210/208 198/208/206 210/231/227 211/223/219
f 196/204/202 195/203/200 207/234/228 208/225/221
f 217/235/229 228/236/230 312/237/231 302/238/232
f 235/239/233 229/240/234 231/241/235 238/242/236
f 238/242/236 231/241/235 232/243/237 237/244/238
f 237/244/238 232/243/237 233/245/239 236/246/240
f 236/246/240 233/245/239 230/247/241 234/248/242
f 240/249/243 235/239/233 238/242/236 243/250/244
f 243/250/244 238/242/236 237/244/238 242/251/245
f 242/251/245 237/244/238 236/246/240 241/252/246
f 241/252/246 236/246/240 234/248/242 239/253/247
f 245/254/248 240/255/243 243/256/244 248/257/249
f 248/257/249 243/256/244 242/258/245 247/259/250
f 247/259/250 242/258/245 241/260/246 246/261/251
f 246/261/251 241/260/246 239/262/247 244/263/252
f 250/264/253 245/254/248 248/257/249 253/265/254
f 253/265/254 248/257/249 247/259/250 252/266/255
f 252/266/255 247/259/250 246/261/251 251/267/256
f 251/267/256 246/261/251 244/263/252 249/268/257
f 255/269/258 250/264/253 253/265/254 258/270/259
f 258/270/259 253/265/254 252/266/255 257/271/260
f 257/271/260 252/266/255 251/267/256 256/272/261
f 256/272/261 251/267/256 249/268/257 254/273/262
f 260/274/263 255/269/258 258/270/259 263/275/264
f 263/275/264 258/270/259 257/271/260 262/276/265
f 262/276/265 257/271/260 256/272/261 261/277/266
f 261/277/266 256/272/261 254/273/262 259/278/267
f 265/279/268 260/274/263 263/275/264 268/280/269
f 268/280/269 263/275/264 262/276/265 267/281/270
f 267/281/270 262/276/265 261/277/266 266/282/271
f 266/282/271 261/277/266 259/278/267 264/283/272
f 270/284/273 265/279/268 268/280/269 273/285/274
f 273/285/274 268/280/269 267/281/270 272/286/275
f 272/286/275 267/281/270 266/282/271 271/287/276
f 271/287/276 266/282/271 264/283/272 269/288/277
f 275/289/278 270/290/273 273/291/274 278/292/279
f 278/292/279 273/291/274 272/293/275 277/294/280
f 277/294/280 272/293/275 271/295/276 276/296/281
f 276/296/281 271/295/276 269/297/277 274/298/282
f 280/299/283 275/289/278 278/292/279 283/300/284
f 283/300/284 278/292/279 277/294/280 282/301/285
f 282/301/285 277/294/280 276/296/281 281/302/286
f 281/302/286 276/296/281 274/298/282 279/303/287
f 285/304/288 280/299/283 283/300/284 288/305/289
f 288/305/289 283/300/284 282/301/285 287/306/290
f 287/306/290 282/301/285 281/302/286 286/307/291
f 286/307/291 281/302/286 279/303/287 284/308/292
f 229/240/234 285/304/288 288/305/289 231/241/235
f 231/241/235 288/305/289 287/306/290 232/243/237
f 232/243/237 287/306/290 286/307/291 233/245/239
f 233/245/239 286/307/291 284/308/292 230/247/241
f 234/248/242 230/247/241 290/309/293 289/310/294
f 206/311/225 205/312/224 229/240/234 235/239/233
f 230/247/241 284/308/292 300/313/295 290/309/293
f 205/312/224 216/314/223 285/304/288 229/240/234
f 207/315/228 206/311/225 235/239/233 240/249/243
f 239/253/247 234/248/242 289/310/294 291/316/296
f 208/317/221 207/318/228 240/255/243 245/254/248
f 244/263/252 239/262/247 291/319/296 292/320/297
f 209/321/222 208/317/221 245/254/248 250/264/253
f 249/268/257 244/263/252 292/320/297 293/322/298
f 210/323/227 209/321/222 250/264/253 255/269/258
f 254/273/262 249/268/257 293/322/298 294/324/299
f 211/325/219 210/323/227 255/269/258 260/274/263
f 259/278/267 254/273/262 294/324/299 295/326/300
f 212/327/220 211/325/219 260/274/263 265/279/268
f 264/283/272 259/278/267 295/326/300 296/328/301
f 213/329/226 212/327/220 265/279/268 270/284/273
f 269/288/277 264/283/272 296/328/301 297/330/302
f 214/331/217 213/332/226 270/290/273 275/289/278
f 274/298/282 269/297/277 297/333/302 298/334/303
f 215/335/218 214/331/217 275/289/278 280/299/283
f 279/303/287 274/298/282 298/334/303 299/336/304
f 216/314/223 215/335/218 280/299/283 285/304/288
f 284/308/292 279/303/287 299/336/304 300/313/295
f 217/235/229 218/337/305 289/338/294 290/339/293
f 218/337/305 219/340/306 291/341/296 289/338/294
f 219/342/306 220/343/307 292/344/297 291/345/296
f 220/343/307 221/346/308 293/347/298 292/344/297
f 221/346/308 222/348/309 294/349/299 293/347/298
f 222/348/309 223/350/310 295/351/300 294/349/299
f 223/350/310 224/352/311 296/353/301 295/351/300
f 224/352/311 225/354/312 297/355/302 296/353/301
f 225/356/312 226/357/313 298/358/303 297/359/302
f 226/357/313 227/360/314 299/361/304 298/358/303
f 227/360/314 228/236/230 300/362/295 299/361/304
f 228/236/230 217/235/229 290/339/293 300/362/295
f 219/340/306 218/337/305 301/363/315 303/364/316
f 226/357/313 225/356/312 309/365/317 310/366/318
f 223/350/310 222/348/309 306/367/319 307/368/320
f 220/343/307 219/342/306 303/369/316 304/370/321
f 227/360/314 226/357/313 310/366/318 311/371/322
f 224/352/311 223/350/310 307/368/320 308/372/323
f 221/346/308 220/343/307 304/370/321 305/373/324
f 228/236/230 227/360/314 311/371/322 312/237/231
f 218/337/305 217/235/229 302/238/232 301/363/315
f 225/354/312 224/352/311 308/372/323 309/374/317
f 222/348/309 221/346/308 305/373/324 306/367/319
f 301/375/315 302/376/232 325/377/325
f 302/376/232 312/378/231 325/377/325
f 312/378/231 311/379/322 325/377/325
f 311/379/322 310/380/318 325/377/325
f 310/380/318 309/381/317 325/377/325
f 309/382/317 308/375/323 325/383/325
f 308/375/323 307/376/320 325/383/325
f 307/376/320 306/384/319 325/383/325
f 306/384/319 305/379/324 325/383/325
f 305/379/324 304/380/321 325/383/325
f 304/380/321 303/381/316 325/383/325
f 303/382/316 301/375/315 325/377/325
f 348/385/326 347/386/327 395/387/217 396/388/218
f 345/389/328 344/390/329 392/391/219 393/392/220
f 342/393/330 341/394/331 389/395/221 390/396/222
f 349/397/332 348/385/326 396/388/218 397/398/223
f 339/399/333 338/400/334 386/401/224 387/402/335
f 346/403/336 345/389/328 393/392/220 394/404/226
f 343/405/337 342/393/330 390/396/222 391/406/227
f 338/400/334 349/397/332 397/398/223 386/401/224
f 340/407/338 339/399/333 387/402/335 388/408/228
f 347/386/327 346/409/336 394/410/226 395/387/217
f 344/390/329 343/405/337 391/406/227 392/391/219
f 341/394/331 340/411/338 388/412/228 389/395/221
f 398/413/229 409/414/230 493/415/231 483/416/232
f 416/417/233 410/418/234 412/419/235 419/420/236
f 419/420/236 412/419/235 413/421/237 418/422/238
f 418/422/238 413/421/237 414/423/239 417/424/240
f 417/424/240 414/423/239 411/425/241 415/426/339
f 421/427/243 416/417/233 419/420/236 424/428/244
f 424/428/244 419/420/236 418/422/238 423/429/245
f 423/429/245 418/422/238 417/424/240 422/430/246
f 422/430/246 417/424/240 415/426/339 420/431/340
f 426/432/248 421/433/243 424/434/244 429/435/249
f 429/435/249 424/434/244 423/436/245 428/437/250
f 428/437/250 423/436/245 422/438/246 427/439/251
f 427/439/251 422/438/246 420/440/340 425/441/252
f 431/442/253 426/432/248 429/435/249 434/443/254
f 434/443/254 429/435/249 428/437/250 433/444/255
f 433/444/255 428/437/250 427/439/251 432/445/256
f 432/445/256 427/439/251 425/441/252 430/446/257
f 436/447/258 431/442/253 434/443/254 439/448/259
f 439/448/259 434/443/254 433/444/255 438/449/260
f 438/449/260 433/444/255 432/445/256 437/450/261
f 437/450/261 432/445/256 430/446/257 435/451/262
f 441/452/263 436/447/258 439/448/259 444/453/264
f 444/453/264 439/448/259 438/449/260 443/454/265
f 443/454/265 438/449/260 437/450/261 442/455/266
f 442/455/266 437/450/261 435/451/262 440/456/267
f 446/457/268 441/452/263 444/453/264 449/458/269
f 449/458/269 444/453/264 443/454/265 448/459/270
f 448/459/270 443/454/265 442/455/266 447/460/271
f 447/460/271 442/455/266 440/456/267 445/461/272
f 451/462/273 446/457/268 449/458/269 454/463/274
f 454/463/274 449/458/269 448/459/270 453/464/275
f 453/464/275 448/459/270 447/460/271 452/465/276
f 452/465/276 447/460/271 445/461/272 450/466/277
f 456/467/278 451/468/273 454/469/274 459/470/279
f 459/470/279 454/469/274 453/471/275 458/472/280
f 458/472/280 453/471/275 452/473/276 457/474/281
f 457/474/281 452/473/276 450/475/277 455/476/282
f 461/477/283 456/467/278 459/470/279 464/478/284
f 464/478/284 459/470/279 458/472/280 463/479/285
f 463/479/285 458/472/280 457/474/281 462/480/286
f 462/480/286 457/474/281 455/476/282 460/481/287
f 466/482/288 461/477/283 464/478/284 469/483/289
f 469/483/289 464/478/284 463/479/285 468/484/290
f 468/484/290 463/479/285 462/480/286 467/485/291
f 467/485/291 462/480/286 460/481/287 465/486/292
f 410/418/234 466/482/288 469/483/289 412/419/235
f 412/419/235 469/483/289 468/484/290 413/421/237
f 413/421/237 468/484/290 467/485/291 414/423/239
f 414/423/239 467/485/291 465/486/292 411/425/241
f 415/426/339 411/425/241 471/487/293 470/488/294
f 387/489/335 386/490/224 410/418/234 416/417/233
f 411/425/241 465/486/292 481/491/295 471/487/293
f 386/490/224 397/492/223 466/482/288 410/418/234
f 388/493/228 387/489/335 416/417/233 421/427/243
f 420/431/340 415/426/339 470/488/294 472/494/296
f 389/495/221 388/496/228 421/433/243 426/432/248
f 425/441/252 420/440/340 472/497/296 473/498/297
f 390/499/222 389/495/221 426/432/248 431/442/253
f 430/446/257 425/441/252 473/498/297 474/500/298
f 391/501/227 390/499/222 431/442/253 436/447/258
f 435/451/262 430/446/257 474/500/298 475/502/299
f 392/503/219 391/501/227 436/447/258 441/452/263
f 440/456/267 435/451/262 475/502/299 476/504/300
f 393/505/220 392/503/219 441/452/263 446/457/268
f 445/461/272 440/456/267 476/504/300 477/506/301
f 394/507/226 393/505/220 446/457/268 451/462/273
f 450/466/277 445/461/272 477/506/301 478/508/302
f 395/509/217 394/510/226 451/468/273 456/467/278
f 455/476/282 450/475/277 478/511/302 479/512/303
f 396/513/218 395/509/217 456/467/278 461/477/283
f 460/481/287 455/476/282 479/512/303 480/514/304
f 397/492/223 396/513/218 461/477/283 466/482/288
f 465/486/292 460/481/287 480/514/304 481/491/295
f 398/413/229 399/515/305 470/516/294 471/517/293
f 399/515/305 400/518/306 472/519/296 470/516/294
f 400/520/306 401/521/307 473/522/297 472/523/296
f 401/521/307 402/524/308 474/525/298 473/522/297
f 402/524/308 403/526/309 475/527/299 474/525/298
f 403/526/309 404/528/310 476/529/300 475/527/299
f 404/528/310 405/530/311 477/531/301 476/529/300
f 405/530/311 406/532/312 478/533/302 477/531/301
f 406/534/312 407/535/313 479/536/303 478/537/302
f 407/535/313 408/538/314 480/539/304 479/536/303
f 408/538/314 409/414/230 481/540/295 480/539/304
f 409/414/230 398/413/229 471/517/293 481/540/295
f 400/518/306 399/515/305 482/541/315 484/542/316
f 407/535/313 406/534/312 490/543/317 491/544/318
f 404/528/310 403/526/309 487/545/319 488/546/320
f 401/521/307 400/520/306 484/547/316 485/548/321
f 408/538/314 407/535/313 491/544/318 492/549/322
f 405/530/311 404/528/310 488/546/320 489/550/323
f 402/524/308 401/521/307 485/548/321 486/551/324
f 409/414/230 408/538/314 492/549/322 493/415/231
f 399/515/305 398/413/229 483/416/232 482/541/315
f 406/532/312 405/530/311 489/550/323 490/552/317
f 403/526/309 402/524/308 486/551/324 487/545/319
f 482/541/315 483/416/232 494/553/325
f 483/416/232 493/415/231 494/553/325
f 493/415/231 492/549/322 494/553/325
f 492/549/322 491/544/318 494/553/325
f 491/544/318 490/543/317 494/553/325
f 490/552/317 489/550/323 494/554/325
f 489/550/323 488/546/320 494/554/325
f 488/546/320 487/545/319 494/554/325
f 487/545/319 486/551/324 494/554/325
f 486/551/324 485/548/321 494/554/325
f 485/548/321 484/547/316 494/554/325
f 484/542/316 482/541/315 494/553/325
f 651/555/193 652/556/194 507/557/195 508/558/196
f 652/556/194 653/559/197 518/560/198 507/557/195
f 654/561/199 651/555/193 508/558/196 509/562/200
f 655/563/201 654/564/199 509/565/200 510/566/202
f 656/567/203 655/563/201 510/566/202 511/568/204
f 657/569/205 656/567/203 511/568/204 512/570/206
f 658/571/207 657/569/205 512/570/206 513/572/208
f 659/573/209 658/571/207 513/572/208 514/574/210
f 660/575/211 659/573/209 514/574/210 515/576/212
f 661/577/213 660/578/211 515/579/212 516/580/214
f 662/581/215 661/577/213 516/580/214 517/582/216
f 653/559/197 662/581/215 517/582/216 518/560/198
f 517/582/216 516/580/214 552/583/217 553/584/218
f 514/574/210 513/572/208 549/585/219 550/586/220
f 511/568/204 510/566/202 546/587/221 547/588/222
f 518/560/198 517/582/216 553/584/218 554/589/223
f 508/558/196 507/557/195 543/590/224 544/591/225
f 515/576/212 514/574/210 550/586/220 551/592/226
f 512/570/206 511/568/204 547/588/222 548/593/227
f 507/557/195 518/560/198 554/589/223 543/590/224
f 509/562/200 508/558/196 544/591/225 545/594/228
f 516/580/214 515/579/212 551/595/226 552/583/217
f 513/572/208 512/570/206 548/593/227 549/585/219
f 510/566/202 509/565/200 545/596/228 546/587/221
f 555/597/229 566/598/230 674/599/231 664/600/232
f 573/601/233 567/602/234 569/603/235 576/604/236
f 576/604/236 569/603/235 570/605/237 575/606/238
f 575/606/238 570/605/237 571/607/239 574/608/240
f 574/608/240 571/607/239 568/609/241 572/610/242
f 578/611/243 573/601/233 576/604/236 581/612/244
f 581/612/244 576/604/236 575/606/238 580/613/245
f 580/613/245 575/606/238 574/608/240 579/614/246
f 579/614/246 574/608/240 572/610/242 577/615/247
f 583/616/248 578/617/243 581/618/244 586/619/249
f 586/619/249 581/618/244 580/620/245 585/621/250
f 585/621/250 580/620/245 579/622/246 584/623/251
f 584/623/251 579/622/246 577/624/247 582/625/252
f 588/626/253 583/616/248 586/619/249 591/627/254
f 591/627/254 586/619/249 585/621/250 590/628/255
f 590/628/255 585/621/250 584/623/251 589/629/256
f 589/629/256 584/623/251 582/625/252 587/630/257
f 593/631/258 588/626/253 591/627/254 596/632/341
f 596/632/341 591/627/254 590/628/255 595/633/260
f 595/633/260 590/628/255 589/629/256 594/634/261
f 594/634/261 589/629/256 587/630/257 592/635/262
f 598/636/263 593/631/258 596/632/341 601/637/264
f 601/637/264 596/632/341 595/633/260 600/638/265
f 600/638/265 595/633/260 594/634/261 599/639/266
f 599/639/266 594/634/261 592/635/262 597/640/267
f 603/641/268 598/636/263 601/637/264 606/642/269
f 606/642/269 601/637/264 600/638/265 605/643/270
f 605/643/270 600/638/265 599/639/266 604/644/271
f 604/644/271 599/639/266 597/640/267 602/645/272
f 608/646/273 603/641/268 606/642/269 611/647/274
f 611/647/274 606/642/269 605/643/270 610/648/275
f 610/648/275 605/643/270 604/644/271 609/649/276
f 609/649/276 604/644/271 602/645/272 607/650/277
f 613/651/278 608/652/273 611/653/274 616/654/279
f 616/654/279 611/653/274 610/655/275 615/656/280
f 615/656/280 610/655/275 609/657/276 614/658/281
f 614/658/281 609/657/276 607/659/277 612/660/282
f 618/661/283 613/651/278 616/654/279 621/662/284
f 621/662/284 616/654/279 615/656/280 620/663/285
f 620/663/285 615/656/280 614/658/281 619/664/286
f 619/664/286 614/658/281 612/660/282 617/665/287
f 623/666/288 618/661/283 621/662/284 626/667/289
f 626/667/289 621/662/284 620/663/285 625/668/290
f 625/668/290 620/663/285 619/664/286 624/669/291
f 624/669/291 619/664/286 617/665/287 622/670/292
f 567/602/234 623/666/288 626/667/289 569/603/235
f 569/603/235 626/667/289 625/668/290 570/605/237
f 570/605/237 625/668/290 624/669/291 571/607/239
f 571/607/239 624/669/291 622/670/292 568/609/241
f 572/610/242 568/609/241 628/671/293 627/672/294
f 544/673/225 543/674/224 567/602/234 573/601/233
f 568/609/241 622/670/292 638/675/295 628/671/293
f 543/674/224 554/676/223 623/666/288 567/602/234
f 545/677/228 544/673/225 573/601/233 578/611/243
f 577/615/247 572/610/242 627/672/294 629/678/296
f 546/679/221 545/680/228 578/617/243 583/616/248
f 582/625/252 577/624/247 629/681/296 630/682/297
f 547/683/222 546/679/221 583/616/248 588/626/253
f 587/630/257 582/625/252 630/682/297 631/684/298
f 548/685/227 547/683/222 588/626/253 593/631/258
f 592/635/262 587/630/257 631/684/298 632/686/299
f 549/687/219 548/685/227 593/631/258 598/636/263
f 597/640/267 592/635/262 632/686/299 633/688/300
f 550/689/220 549/687/219 598/636/263 603/641/268
f 602/645/272 597/640/267 633/688/300 634/690/301
f 551/691/226 550/689/220 603/641/268 608/646/273
f 607/650/277 602/645/272 634/690/301 635/692/302
f 552/693/217 551/694/226 608/652/273 613/651/278
f 612/660/282 607/659/277 635/695/302 636/696/303
f 553/697/218 552/693/217 613/651/278 618/661/283
f 617/665/287 612/660/282 636/696/303 637/698/304
f 554/676/223 553/697/218 618/661/283 623/666/288
f 622/670/292 617/665/287 637/698/304 638/675/295
f 555/597/229 556/699/305 627/700/294 628/701/293
f 556/699/305 557/702/306 629/703/296 627/700/294
f 557/702/306 558/704/307 630/705/297 629/703/296
f 558/704/307 559/706/308 631/707/298 630/705/297
f 559/706/308 560/708/309 632/709/299 631/707/298
f 560/708/309 561/710/310 633/711/300 632/709/299
f 561/710/310 562/712/311 634/713/301 633/711/300
f 562/712/311 563/714/312 635/715/302 634/713/301
f 563/714/312 564/716/313 636/717/303 635/715/302
f 564/716/313 565/718/314 637/719/304 636/717/303
f 565/718/314 566/598/230 638/720/295 637/719/304
f 566/598/230 555/597/229 628/701/293 638/720/295
f 557/702/306 556/699/305 663/721/315 665/722/316
f 564/716/313 563/714/312 671/723/317 672/724/318
f 561/710/310 560/708/309 668/725/319 669/726/342
f 558/704/307 557/702/306 665/722/316 666/727/321
f 565/718/314 564/716/313 672/724/318 673/728/322
f 562/712/311 561/710/310 669/726/342 670/729/323
f 559/706/308 558/704/307 666/727/321 667/730/324
f 566/598/230 565/718/314 673/728/322 674/599/231
f 556/699/305 555/597/229 664/600/232 663/721/315
f 563/714/312 562/712/311 670/729/323 671/723/317
f 560/708/309 559/706/308 667/730/324 668/725/319
f 640/731/325 639/732/325 663/721/315 664/600/232
f 639/732/325 641/733/325 665/722/316 663/721/315
f 641/733/325 642/734/325 666/727/321 665/722/316
f 642/734/325 643/735/325 667/730/324 666/727/321
f 643/735/325 644/736/325 668/725/319 667/730/324
f 644/736/325 645/737/325 669/726/342 668/725/319
f 645/737/325 646/738/325 670/729/323 669/726/342
f 646/738/325 647/739/325 671/723/317 670/729/323
f 647/739/325 648/740/325 672/724/318 671/723/317
f 648/740/325 649/741/325 673/728/322 672/724/318
f 649/741/325 650/742/325 674/599/231 673/728/322
f 650/742/325 640/731/325 664/600/232 674/599/231
f 338/400/334 339/399/333 676/743/343 675/744/344
f 345/389/328 346/403/336 683/745/345 682/746/346
f 342/393/330 343/405/337 680/747/347 679/748/348
f 349/397/332 338/400/334 675/744/344 686/749/349
f 339/399/333 340/407/338 677/750/350 676/743/343
f 346/409/336 347/386/327 684/751/351 683/752/345
f 343/405/337 344/390/329 681/753/352 680/747/347
f 340/411/338 341/394/331 678/754/353 677/755/350
f 347/386/327 348/385/326 685/756/354 684/751/351
f 344/390/329 345/389/328 682/746/346 681/753/352
f 341/394/331 342/393/330 679/748/348 678/754/353
f 348/385/326 349/397/332 686/749/349 685/756/354
