# Blender 5.0.1
# www.blender.org
mtllib hedge.mtl
o Plane.003
v -0.572068 -0.166632 -0.709416
v -0.572068 -0.166632 0.766288
v -0.572068 4.937930 -0.709416
v -0.572068 4.937930 0.766288
v -0.737852 -0.166632 0.600504
v 0.737852 -0.166632 0.600504
v -0.737852 4.937930 0.600504
v 0.737852 4.937930 0.600504
v 0.572068 -0.166632 0.766288
v 0.572068 -0.166632 -0.709416
v 0.572068 4.937930 0.766288
v 0.572068 4.937930 -0.709416
v 0.737852 -0.166632 -0.568760
v -0.737852 -0.166632 -0.568760
v 0.737852 4.937930 -0.568760
v -0.737852 4.937930 -0.568760
v -0.736957 4.637552 0.736939
v 0.736957 4.637552 0.736939
v -0.736957 4.637552 -0.736975
v 0.736957 4.637552 -0.736975
v -0.572068 1.914857 -0.709416
v -0.572068 -0.166632 0.028436
v -0.572068 1.914857 0.766288
v -0.572068 4.937930 0.028436
v -0.737852 1.914857 0.600504
v 0.000000 -0.166632 0.600504
v 0.737852 1.914857 0.600504
v 0.000000 4.937930 0.600504
v 0.572068 1.914857 0.766288
v 0.572068 -0.166632 0.028436
v 0.572068 1.914857 -0.709416
v 0.572068 4.937930 0.028436
v 0.737852 1.914857 -0.568760
v 0.000000 -0.166632 -0.568760
v -0.737852 1.914857 -0.568760
v 0.000000 4.937930 -0.568760
v -0.736957 4.637552 -0.000018
v 0.000000 4.637552 0.736939
v 0.736957 4.637552 -0.000018
v -0.000000 4.637552 -0.736975
v -0.733174 1.850198 0.030838
v 0.000000 1.850198 0.764012
v 0.733174 1.850198 0.030838
v 0.000000 1.850198 -0.734540
v 0.000000 4.875940 -0.002350
v -0.431896 0.019131 0.431896
v -0.431896 0.119131 0.531896
v -0.531896 0.119131 0.431896
v -0.431896 4.149272 0.531896
v -0.431896 4.249272 0.431896
v -0.531896 4.149272 0.431896
v -0.431896 0.019131 -0.431896
v -0.531896 0.119131 -0.431896
v -0.431896 0.119131 -0.531896
v -0.431896 4.249272 -0.431896
v -0.431896 4.149272 -0.531896
v -0.531896 4.149272 -0.431896
v 0.431896 0.019131 0.431896
v 0.531896 0.119131 0.431896
v 0.431896 0.119131 0.531896
v 0.431896 4.249272 0.431896
v 0.431896 4.149272 0.531896
v 0.531896 4.149272 0.431896
v 0.431896 0.019131 -0.431896
v 0.431896 0.119131 -0.531896
v 0.531896 0.119131 -0.431896
v 0.431896 4.249272 -0.431896
v 0.531896 4.149272 -0.431896
v 0.431896 4.149272 -0.531896
vn -0.9932 -0.0390 -0.1100
vn -0.9992 -0.0393 0.0001
vn -1.0000 -0.0082 0.0002
vn -0.9941 -0.0046 -0.1086
vn -0.9931 -0.0391 0.1103
vn -0.9940 -0.0046 0.1089
vn -0.9939 0.0262 0.1075
vn -0.9997 0.0264 0.0001
vn -0.9939 0.0262 -0.1072
vn -0.1118 -0.0396 0.9929
vn -0.0000 -0.0399 0.9992
vn -0.0000 -0.0083 1.0000
vn -0.1103 -0.0047 0.9939
vn 0.1118 -0.0396 0.9929
vn 0.1103 -0.0047 0.9939
vn 0.1089 0.0266 0.9937
vn -0.0000 0.0267 0.9996
vn -0.1089 0.0266 0.9937
vn 0.9931 -0.0391 0.1103
vn 0.9992 -0.0393 0.0001
vn 1.0000 -0.0082 0.0002
vn 0.9940 -0.0046 0.1089
vn 0.9932 -0.0390 -0.1100
vn 0.9941 -0.0046 -0.1086
vn 0.9939 0.0262 -0.1072
vn 0.9997 0.0264 0.0001
vn 0.9939 0.0262 0.1075
vn 0.1133 -0.0402 -0.9928
vn -0.0000 -0.0404 -0.9992
vn -0.0000 -0.0084 -1.0000
vn 0.1118 -0.0048 -0.9937
vn -0.1133 -0.0402 -0.9928
vn -0.1118 -0.0048 -0.9937
vn -0.1104 0.0270 -0.9935
vn -0.0000 0.0271 -0.9996
vn 0.1104 0.0270 -0.9935
vn -0.1574 0.9749 0.1574
vn 0.1574 0.9749 0.1574
vn 0.1579 0.9747 -0.1579
vn -0.1579 0.9747 -0.1579
vn -0.3420 -0.8767 0.3384
vn -0.3444 -0.3444 0.8734
vn -0.8767 -0.3420 0.3384
vn -0.3444 0.3444 0.8734
vn -0.3420 0.8767 0.3383
vn -0.8767 0.3420 0.3384
vn -0.3420 -0.8767 -0.3384
vn -0.8767 -0.3420 -0.3384
vn -0.3444 -0.3444 -0.8734
vn -0.3420 0.8767 -0.3384
vn -0.3444 0.3444 -0.8734
vn -0.8767 0.3420 -0.3384
vn 0.3420 -0.8767 0.3384
vn 0.8767 -0.3420 0.3384
vn 0.3444 -0.3444 0.8734
vn 0.3420 0.8767 0.3383
vn 0.3444 0.3444 0.8734
vn 0.8767 0.3420 0.3384
vn 0.3420 -0.8767 -0.3384
vn 0.3444 -0.3444 -0.8734
vn 0.8767 -0.3420 -0.3384
vn 0.3420 0.8767 -0.3384
vn 0.8767 0.3420 -0.3384
vn 0.3444 0.3444 -0.8734
vt 0.792749 0.082835
vt 0.882186 0.082835
vt 0.882186 0.402344
vt 0.792749 0.402344
vt 0.971624 0.082835
vt 0.971624 0.402344
vt 0.971624 0.721853
vt 0.882186 0.721853
vt 0.792749 0.721853
vt 0.586247 0.756041
vt 0.687020 0.756041
vt 0.687020 0.856814
vt 0.586247 0.856814
vt 0.787792 0.756041
vt 0.787792 0.856814
vt 0.787792 0.957586
vt 0.687020 0.957586
vt 0.586247 0.957586
vt 0.563828 0.920672
vt 0.580050 0.920672
vt 0.563827 0.936895
vt 0.064221 0.764320
vt 0.064221 0.780542
vt 0.047998 0.780542
vt 0.423698 0.920672
vt 0.423698 0.936895
vt 0.407475 0.920672
vt 0.064221 0.920672
vt 0.064221 0.936895
vt 0.047998 0.920672
vt 0.563827 0.780542
vt 0.563827 0.764320
vt 0.580050 0.780542
vt 0.204350 0.780542
vt 0.204350 0.764320
vt 0.220573 0.780542
vt 0.423698 0.780542
vt 0.407475 0.780542
vt 0.423698 0.764320
vt 0.204350 0.920672
vt 0.220573 0.920672
vt 0.204350 0.936894
vt 0.603437 0.087141
vt 0.603437 0.740933
vt 0.587214 0.740933
vt 0.587214 0.087141
vt 0.384089 0.740933
vt 0.384089 0.087141
vt 0.400311 0.087141
vt 0.400311 0.740933
vt 0.563828 0.740933
vt 0.563828 0.087141
vt 0.580050 0.087141
vt 0.580050 0.740933
vt 0.407475 0.740933
vt 0.407475 0.087141
vt 0.423698 0.087141
vt 0.423698 0.740933
vt 0.204350 0.087141
vt 0.204350 0.740933
vt 0.064221 0.740933
vt 0.064221 0.087141
vt 0.743566 0.087141
vt 0.743566 0.740933
vt 0.243959 0.740933
vt 0.243959 0.087141
s 1
usemtl hedge
f 1/1/1 22/2/2 41/3/3 21/4/4
f 22/2/2 2/5/5 23/6/6 41/3/3
f 41/3/3 23/6/6 4/7/7 24/8/8
f 21/4/4 41/3/3 24/8/8 3/9/9
f 5/1/10 26/2/11 42/3/12 25/4/13
f 26/2/11 6/5/14 27/6/15 42/3/12
f 42/3/12 27/6/15 8/7/16 28/8/17
f 25/4/13 42/3/12 28/8/17 7/9/18
f 9/1/19 30/2/20 43/3/21 29/4/22
f 30/2/20 10/5/23 31/6/24 43/3/21
f 43/3/21 31/6/24 12/7/25 32/8/26
f 29/4/22 43/3/21 32/8/26 11/9/27
f 13/1/28 34/2/29 44/3/30 33/4/31
f 34/2/29 14/5/32 35/6/33 44/3/30
f 44/3/30 35/6/33 16/7/34 36/8/35
f 33/4/31 44/3/30 36/8/35 15/9/36
s 0
f 17/10/37 38/11/37 45/12/37 37/13/37
f 38/11/38 18/14/38 39/15/38 45/12/38
f 45/12/39 39/15/39 20/16/39 40/17/39
f 37/13/40 45/12/40 40/17/40 19/18/40
s 1
f 46/19/41 47/20/42 48/21/43
f 49/22/44 50/23/45 51/24/46
f 52/25/47 53/26/48 54/27/49
f 55/28/50 56/29/51 57/30/52
f 58/31/53 59/32/54 60/33/55
f 61/34/56 62/35/57 63/36/58
f 64/37/59 65/38/60 66/39/61
f 67/40/62 68/41/63 69/42/64
f 52/25/47 46/19/41 48/21/43 53/26/48
f 47/43/42 49/44/44 51/45/46 48/46/43
f 50/23/45 55/28/50 57/30/52 51/24/46
f 56/47/51 54/48/49 53/49/48 57/50/52
f 64/37/59 52/25/47 54/27/49 65/38/60
f 55/28/50 67/40/62 69/42/64 56/29/51
f 68/51/63 66/52/61 65/53/60 69/54/64
f 58/31/53 64/37/59 66/39/61 59/32/54
f 67/40/62 61/34/56 63/36/58 68/41/63
f 62/55/57 60/56/55 59/57/54 63/58/58
f 46/19/41 58/31/53 60/33/55 47/20/42
f 61/34/56 50/23/45 49/22/44 62/35/57
f 52/25/47 64/37/59 58/31/53 46/19/41
f 48/59/43 51/60/46 57/61/52 53/62/48
f 60/63/55 62/64/57 49/44/44 47/43/42
f 67/40/62 55/28/50 50/23/45 61/34/56
f 54/48/49 56/47/51 69/65/64 65/66/60
f 66/52/61 68/51/63 63/58/58 59/57/54
