# Blender 5.1.0
# www.blender.org
mtllib lamp.mtl
o best1SoFar
v 0.262098 6.654213 0.018258
v 0.262303 6.654213 -0.015083
v 0.295439 6.654213 0.018463
v 0.295644 6.654213 -0.014878
v 0.225534 6.596321 0.054374
v 0.180000 6.145661 -0.073340
v 0.245509 6.622793 0.034643
v 0.254600 6.638207 0.025664
v 0.378658 6.145661 -0.072117
v 0.226187 6.596321 -0.051647
v 0.254897 6.638207 -0.022581
v 0.245918 6.622793 -0.031671
v 0.377768 6.145661 0.072428
v 0.331555 6.596321 0.055027
v 0.302845 6.638207 0.025961
v 0.311824 6.622793 0.035052
v 0.179110 6.145661 0.071205
v 0.332208 6.596321 -0.050994
v 0.303142 6.638207 -0.022283
v 0.312232 6.622793 -0.031263
v 0.069224 6.419758 -0.210554
v 0.066626 6.419758 0.211337
v 0.491116 6.419758 -0.207957
v 0.488518 6.419758 0.213935
v 0.095778 6.390975 -0.183671
v 0.093509 6.390975 0.184783
v 0.464232 6.390975 -0.181403
v 0.461964 6.390975 0.187052
v 0.121971 6.390975 -0.157154
v 0.120027 6.390975 0.158590
v 0.437715 6.390975 -0.155210
v 0.435771 6.390975 0.160534
v 0.371348 6.109820 0.095313
v 0.372494 6.109820 -0.090787
v 0.185248 6.109820 0.094167
v 0.186394 6.109820 -0.091933
v 0.420577 6.054920 0.145354
v 0.422334 6.054920 -0.140017
v 0.135406 6.054920 0.143598
v 0.137164 6.054920 -0.141773
v 0.301572 5.965072 0.024672
v 0.301853 5.965072 -0.021011
v 0.255889 5.965072 0.024391
v 0.256170 5.965072 -0.021292
v 0.113866 6.469098 -0.165359
v 0.077762 6.426922 -0.201911
v 0.097256 6.446760 -0.182175
v 0.075270 6.426922 0.202800
v 0.111821 6.469098 0.166695
v 0.095006 6.446760 0.183305
v 0.445920 6.469098 -0.163315
v 0.482472 6.426922 -0.199419
v 0.462736 6.446760 -0.179925
v 0.443876 6.469098 0.168740
v 0.479980 6.426922 0.205292
v 0.460486 6.446760 0.185555
v 0.290741 6.654213 -0.014908
v 0.290536 6.654213 0.018433
v 0.316616 6.596321 -0.051090
v 0.302480 6.622793 -0.031323
v 0.296047 6.638207 -0.022327
v 0.203839 6.145661 0.100561
v 0.315964 6.596321 0.054931
v 0.302072 6.622793 0.034992
v 0.295750 6.638207 0.025917
v 0.205062 6.145661 -0.098097
v 0.429073 6.419758 -0.208339
v 0.426475 6.419758 0.213553
v 0.410048 6.390975 -0.181736
v 0.407779 6.390975 0.186718
v 0.391282 6.390975 -0.155496
v 0.389338 6.390975 0.160249
v 0.345126 6.109820 -0.090955
v 0.343980 6.109820 0.095144
v 0.354078 6.181587 -0.103473
v 0.352778 6.181587 0.107772
v 0.359198 6.221495 -0.110632
v 0.364520 6.257760 -0.118073
v 0.371864 6.300148 -0.128343
v 0.380114 6.342207 -0.139879
v 0.388012 6.377533 -0.150923
v 0.357808 6.221495 0.114993
v 0.363038 6.257760 0.122499
v 0.370256 6.300148 0.132859
v 0.378363 6.342207 0.144495
v 0.386124 6.377533 0.155636
v 0.380568 6.054920 -0.140275
v 0.378811 6.054920 0.145096
v 0.295135 5.965072 -0.021052
v 0.294854 5.965072 0.024631
v 0.422956 6.426922 -0.199786
v 0.408989 6.446760 -0.180256
v 0.397089 6.469098 -0.163615
v 0.420464 6.426922 0.204925
v 0.406739 6.446760 0.185224
v 0.395044 6.469098 0.168439
v 0.266278 6.654213 0.018284
v 0.239480 6.596321 -0.051565
v 0.253824 6.622793 0.034694
v 0.260649 6.638207 0.025701
v 0.349597 6.145661 -0.097207
v 0.122122 6.419758 -0.210229
v 0.141976 6.390975 -0.183387
v 0.161560 6.390975 -0.156910
v 0.209728 6.109820 -0.091789
v 0.200385 6.181587 -0.104419
v 0.195043 6.221495 -0.111643
v 0.188008 6.257760 0.121421
v 0.180216 6.300148 0.131689
v 0.171464 6.342207 0.143221
v 0.163085 6.377533 0.154262
v 0.172944 6.054920 -0.141553
v 0.261898 5.965072 -0.021257
v 0.128505 6.426922 -0.201599
v 0.140830 6.446760 0.183587
v 0.153455 6.469098 0.166951
v 0.266483 6.654213 -0.015057
v 0.254232 6.622793 -0.031620
v 0.260946 6.638207 -0.022543
v 0.348374 6.145661 0.101451
v 0.238827 6.596321 0.054456
v 0.119524 6.419758 0.211663
v 0.139707 6.390975 0.185067
v 0.159616 6.390975 0.158834
v 0.208582 6.109820 0.094311
v 0.199084 6.181587 0.106825
v 0.189489 6.257760 -0.119151
v 0.181824 6.300148 -0.129514
v 0.173215 6.342207 -0.141153
v 0.164973 6.377533 -0.152296
v 0.193653 6.221495 0.113982
v 0.171187 6.054920 0.143818
v 0.261617 5.965072 0.024426
v 0.143081 6.446760 -0.181893
v 0.155500 6.469098 -0.165103
v 0.126013 6.426922 0.203112
v 0.262128 6.654213 0.013357
v 0.295469 6.654213 0.013562
v 0.225630 6.596321 0.038789
v 0.245569 6.622793 0.024895
v 0.254644 6.638207 0.018572
v 0.331651 6.596321 0.039442
v 0.311884 6.622793 0.025303
v 0.302888 6.638207 0.018869
v 0.067008 6.419758 0.149319
v 0.488900 6.419758 0.151917
v 0.093843 6.390975 0.130620
v 0.462297 6.390975 0.132889
v 0.120313 6.390975 0.112176
v 0.436057 6.390975 0.114120
v 0.172789 6.181587 0.075609
v 0.384034 6.181587 0.076910
v 0.185417 6.109820 0.066810
v 0.371516 6.109820 0.067956
v 0.165568 6.221495 0.080641
v 0.158062 6.257760 0.085871
v 0.147702 6.300148 0.093090
v 0.136066 6.342207 0.101198
v 0.124925 6.377533 0.108962
v 0.391193 6.221495 0.082030
v 0.398634 6.257760 0.087353
v 0.408904 6.300148 0.094699
v 0.420440 6.342207 0.102950
v 0.431484 6.377533 0.110849
v 0.135665 6.054920 0.101648
v 0.420835 6.054920 0.103404
v 0.255930 5.965072 0.017676
v 0.301613 5.965072 0.017957
v 0.075636 6.426922 0.143307
v 0.095337 6.446760 0.129579
v 0.112122 6.469098 0.117883
v 0.480346 6.426922 0.145799
v 0.460816 6.446760 0.131830
v 0.444176 6.469098 0.119928
v 0.290566 6.654213 0.013532
v 0.266308 6.654213 0.013383
v 0.262277 6.654213 -0.010902
v 0.245867 6.622793 -0.023356
v 0.254860 6.638207 -0.016531
v 0.332126 6.596321 -0.037700
v 0.490790 6.419758 -0.155055
v 0.463948 6.390975 -0.135202
v 0.437471 6.390975 -0.115618
v 0.384981 6.181587 -0.076794
v 0.372350 6.109820 -0.067451
v 0.159140 6.257760 -0.089171
v 0.148872 6.300148 -0.096963
v 0.137340 6.342207 -0.105714
v 0.126299 6.377533 -0.114093
v 0.392204 6.221495 -0.082136
v 0.422114 6.054920 -0.104234
v 0.301818 5.965072 -0.015282
v 0.096974 6.446760 -0.136347
v 0.113610 6.469098 -0.123723
v 0.482160 6.426922 -0.148672
v 0.295618 6.654213 -0.010697
v 0.226105 6.596321 -0.038353
v 0.312181 6.622793 -0.022948
v 0.303104 6.638207 -0.016234
v 0.068898 6.419758 -0.157653
v 0.095494 6.390975 -0.137470
v 0.121727 6.390975 -0.117563
v 0.173736 6.181587 -0.078094
v 0.186250 6.109820 -0.068597
v 0.166579 6.221495 -0.083526
v 0.399712 6.257760 -0.087690
v 0.410075 6.300148 -0.095354
v 0.421714 6.342207 -0.103963
v 0.432857 6.377533 -0.112206
v 0.136943 6.054920 -0.105990
v 0.256135 5.965072 -0.015564
v 0.077449 6.426922 -0.151164
v 0.462454 6.446760 -0.134097
v 0.445664 6.469098 -0.121678
v 0.290715 6.654213 -0.010727
v 0.266458 6.654213 -0.010876
v 0.204971 6.010293 -0.073112
v 0.353431 6.010293 -0.072197
v 0.352515 6.010293 0.076469
v 0.204056 6.010293 0.075555
v 0.330860 6.010293 0.076336
v 0.331775 6.010293 -0.072331
v 0.223611 6.010293 -0.072997
v 0.222696 6.010293 0.075670
v 0.204190 6.010293 0.053701
v 0.352650 6.010293 0.054615
v 0.353316 6.010293 -0.053556
v 0.204856 6.010293 -0.054470
v 0.393183 6.177205 0.086172
v 0.386916 6.141279 0.081690
v 0.386737 6.141279 0.110893
v 0.398486 6.386592 0.169510
v 0.444919 6.386592 0.169796
v 0.353129 6.105438 0.104406
v 0.380496 6.105438 0.104575
v 0.361926 6.177205 0.117034
v 0.392992 6.177205 0.117225
v 0.407565 6.253378 0.131979
v 0.400137 6.217113 0.124459
v 0.407783 6.253378 0.096615
v 0.417816 6.295766 0.142357
v 0.418053 6.295766 0.103961
v 0.429331 6.337825 0.154014
v 0.429588 6.337825 0.112211
v 0.440355 6.373152 0.165175
v 0.440632 6.373152 0.120111
v 0.366957 6.217113 0.124255
v 0.357522 6.141279 0.110712
v 0.372187 6.253378 0.131761
v 0.379404 6.295766 0.142121
v 0.387511 6.337825 0.153757
v 0.395273 6.373152 0.164898
v 0.445205 6.386592 0.123382
v 0.380665 6.105438 0.077218
v 0.400341 6.217113 0.091292
v 0.163527 6.177205 0.084758
v 0.169848 6.141279 0.080353
v 0.169669 6.141279 0.109556
v 0.194577 6.141279 0.109709
v 0.111051 6.386592 0.121324
v 0.110765 6.386592 0.167739
v 0.163336 6.177205 0.115811
v 0.176155 6.105438 0.075959
v 0.175986 6.105438 0.103316
v 0.156306 6.217113 0.089790
v 0.156102 6.217113 0.122956
v 0.148582 6.253378 0.130384
v 0.138204 6.295766 0.140636
v 0.126547 6.337825 0.152150
v 0.115386 6.373151 0.163174
v 0.178746 6.253378 0.130570
v 0.170954 6.295766 0.140837
v 0.162202 6.337825 0.152369
v 0.153823 6.373151 0.163411
v 0.189823 6.177205 0.115974
v 0.150354 6.386592 0.167982
v 0.199320 6.105438 0.103459
v 0.184391 6.217113 0.123131
v 0.148800 6.253378 0.095020
v 0.138440 6.295766 0.102239
v 0.126804 6.337825 0.110347
v 0.115663 6.373151 0.118110
v 0.394243 6.177205 -0.085942
v 0.387920 6.141279 -0.081266
v 0.388073 6.141279 -0.106175
v 0.358859 6.141279 -0.106355
v 0.446733 6.386592 -0.124767
v 0.446977 6.386592 -0.164358
v 0.394406 6.177205 -0.112430
v 0.381612 6.105438 -0.076600
v 0.381756 6.105438 -0.099935
v 0.409160 6.253378 -0.127004
v 0.401640 6.217113 -0.119576
v 0.373781 6.253378 -0.127222
v 0.419538 6.295766 -0.137255
v 0.381126 6.295766 -0.137492
v 0.431195 6.337825 -0.148770
v 0.389376 6.337825 -0.149027
v 0.442356 6.373152 -0.159794
v 0.397274 6.373152 -0.160071
v 0.401466 6.217113 -0.091285
v 0.400544 6.386592 -0.164644
v 0.354388 6.105438 -0.100104
v 0.363340 6.177205 -0.112622
v 0.368460 6.217113 -0.119780
v 0.408974 6.253378 -0.096838
v 0.419336 6.295766 -0.104503
v 0.430976 6.337825 -0.113111
v 0.442119 6.373152 -0.121354
v 0.164587 6.177205 -0.087356
v 0.170852 6.141279 -0.082602
v 0.171005 6.141279 -0.107512
v 0.152411 6.386592 -0.166172
v 0.112822 6.386592 -0.166416
v 0.177246 6.105438 -0.101194
v 0.200579 6.105438 -0.101051
v 0.191237 6.177205 -0.113682
v 0.164750 6.177205 -0.113845
v 0.150177 6.253378 -0.128599
v 0.157605 6.217113 -0.121079
v 0.149991 6.253378 -0.098433
v 0.139925 6.295766 -0.138977
v 0.139724 6.295766 -0.106225
v 0.128411 6.337825 -0.150634
v 0.128192 6.337825 -0.114976
v 0.117387 6.373151 -0.161795
v 0.117150 6.373151 -0.123355
v 0.185894 6.217113 -0.120904
v 0.195913 6.141279 -0.107359
v 0.180340 6.253378 -0.128413
v 0.172676 6.295766 -0.138775
v 0.164067 6.337825 -0.150415
v 0.155824 6.373151 -0.161558
v 0.112579 6.386592 -0.126824
v 0.177102 6.105438 -0.077859
v 0.157431 6.217113 -0.092787
v 0.289522 5.962636 0.012474
v 0.289656 5.962636 -0.009290
v 0.267758 5.962636 0.012340
v 0.267892 5.962636 -0.009424
v 0.272682 5.933311 -0.004575
v 0.284806 5.933311 -0.004500
v 0.284732 5.933311 0.007624
v 0.272608 5.933311 0.007550
v 0.278707 5.886872 0.001525
v 0.263290 5.922700 0.016753
v 0.293935 5.922700 0.016942
v 0.294124 5.922700 -0.013704
v 0.263478 5.922700 -0.013893
v 0.290566 6.662237 0.013532
v 0.266308 6.662237 0.013383
v 0.266458 6.662237 -0.010876
v 0.290715 6.662237 -0.010727
vn -0.3034 0.9045 0.2996
vn -0.0000 1.0000 -0.0000
vn -0.0007 0.6608 -0.7506
vn 0.0236 0.5730 -0.8192
vn -0.0127 0.5603 -0.8282
vn 0.0047 0.6502 -0.7597
vn -0.8435 0.5371 -0.0052
vn -0.8295 0.5578 -0.0281
vn -0.8796 0.4757 -0.0054
vn -0.8856 0.4644 -0.0055
vn 0.2996 0.9045 0.3034
vn 0.5738 0.5774 0.5809
vn -0.5809 0.5774 0.5738
vn 0.7506 0.6608 -0.0007
vn 0.8192 0.5730 0.0236
vn 0.8282 0.5603 -0.0127
vn 0.7597 0.6502 0.0047
vn 0.0054 0.4757 -0.8796
vn 0.0055 0.4644 -0.8856
vn -0.9065 0.4221 -0.0056
vn 0.0032 0.6571 0.7538
vn -0.0258 0.5603 0.8279
vn -0.0052 0.5371 0.8435
vn -0.0047 0.6504 0.7595
vn 0.8796 0.4757 0.0054
vn 0.8856 0.4644 0.0055
vn -0.0054 0.4757 0.8796
vn -0.0055 0.4644 0.8856
vn -0.0056 0.4221 0.9065
vn 0.0056 0.4221 -0.9065
vn 0.9065 0.4221 0.0056
vn 0.0239 0.6390 -0.7688
vn 0.0049 0.6147 -0.7888
vn 0.0271 0.6401 -0.7678
vn -0.0000 0.6039 -0.7970
vn 0.7688 0.6390 0.0239
vn 0.7888 0.6147 0.0049
vn 0.7651 0.6435 0.0238
vn 0.7934 0.6085 -0.0150
vn -0.0049 0.6158 0.7879
vn -0.0176 0.6500 0.7597
vn 0.0025 0.6016 0.7988
vn -0.7686 0.6393 -0.0237
vn -0.7595 0.6504 -0.0047
vn -0.7678 0.6401 -0.0271
vn -0.7970 0.6039 -0.0000
vn -0.0045 -0.6803 0.7329
vn -0.0000 -1.0000 -0.0000
vn 0.6542 -0.3651 0.6623
vn 0.6610 -0.6973 -0.2772
vn 0.0045 -0.6803 -0.7329
vn 0.7329 -0.6803 0.0045
vn -0.7329 -0.6803 -0.0045
vn 0.8442 -0.0796 0.5301
vn 0.9496 0.1986 0.2425
vn 0.4865 -0.7989 0.3537
vn 0.9129 -0.1095 0.3933
vn -0.6542 -0.3651 -0.6623
vn -0.6627 -0.6950 0.2789
vn -0.6623 -0.3651 0.6542
vn 0.2789 -0.6950 0.6627
vn 0.6623 -0.3651 -0.6542
vn -0.2772 -0.6973 -0.6610
vn 0.7094 -0.0293 0.7042
vn 0.7095 -0.0298 0.7040
vn 0.3858 -0.1198 0.9148
vn 0.3817 -0.1109 0.9176
vn 0.6697 0.3030 0.6780
vn 0.9044 0.3407 -0.2569
vn -0.7042 -0.0293 0.7094
vn -0.7040 -0.0302 0.7096
vn -0.9150 -0.1189 0.3856
vn -0.9173 -0.1108 0.3824
vn 0.2309 0.1997 0.9523
vn 0.5197 -0.0796 0.8506
vn 0.3820 -0.1095 0.9176
vn 0.3477 -0.7988 0.4908
vn -0.8437 -0.0834 -0.5302
vn -0.9495 0.1974 -0.2439
vn -0.4860 -0.7998 -0.3522
vn -0.9123 -0.1122 -0.3939
vn 0.7130 -0.0464 0.6996
vn 0.4880 -0.1641 0.8573
vn 0.3897 -0.1961 0.8998
vn 0.3899 -0.1769 0.9037
vn -0.6926 -0.0397 -0.7202
vn -0.6938 -0.0352 -0.7193
vn -0.9092 -0.1233 -0.3977
vn -0.9063 -0.1410 -0.3985
vn 0.7206 -0.0415 -0.6921
vn 0.7195 -0.0365 -0.6935
vn 0.3989 -0.1369 -0.9067
vn 0.3993 -0.1574 -0.9032
vn -0.7023 -0.0365 0.7110
vn -0.9115 -0.1369 0.3878
vn -0.8573 -0.1641 0.4880
vn -0.9046 0.3423 0.2540
vn -0.8998 -0.1961 0.3897
vn -0.8506 -0.0796 0.5197
vn -0.9176 -0.1095 0.3820
vn 0.6592 -0.6950 0.2871
vn 0.8512 -0.1641 0.4985
vn 0.8949 -0.1961 0.4008
vn 0.9014 0.3423 0.2651
vn 0.6935 -0.0365 0.7196
vn 0.6951 -0.0303 0.7183
vn 0.9099 -0.1199 0.3970
vn 0.9067 -0.1369 0.3989
vn 0.6780 0.3030 -0.6697
vn -0.2569 0.3407 -0.9044
vn 0.6954 -0.0293 0.7180
vn 0.9120 -0.1105 0.3951
vn -0.7192 -0.0350 0.6939
vn -0.7191 -0.0345 0.6940
vn -0.3946 -0.1124 0.9120
vn -0.3965 -0.1224 0.9098
vn -0.7202 -0.0397 0.6926
vn -0.3979 -0.1412 0.9065
vn 0.7028 -0.0345 -0.7105
vn 0.7027 -0.0351 -0.7107
vn 0.9141 -0.1230 -0.3864
vn 0.9171 -0.1138 -0.3821
vn -0.7220 -0.0488 0.6901
vn -0.4000 -0.1614 0.9022
vn 0.7216 -0.0464 -0.6908
vn 0.4010 -0.1769 -0.8988
vn 0.4985 -0.1641 -0.8512
vn 0.4008 -0.1961 -0.8950
vn 0.6921 -0.0415 0.7206
vn 0.9032 -0.1574 0.3993
vn 0.7120 -0.0415 0.7010
vn 0.3882 -0.1574 0.9081
vn -0.6940 -0.0345 -0.7191
vn -0.9120 -0.1122 -0.3946
vn 0.8548 -0.1697 -0.4904
vn 0.8984 -0.2011 -0.3905
vn 0.7014 -0.0397 -0.7116
vn 0.9104 -0.1419 -0.3887
vn -0.2322 0.1974 -0.9524
vn 0.0043 -0.7184 -0.6956
vn 0.0046 0.6699 -0.7424
vn 0.9524 0.1974 -0.2321
vn 0.6972 -0.7169 0.0043
vn 0.7424 0.6699 0.0046
vn -0.0043 -0.7189 0.6951
vn -0.0046 0.6714 0.7411
vn -0.9525 0.1986 0.2308
vn -0.6956 -0.7184 -0.0043
vn -0.7424 0.6699 -0.0046
vn 0.0037 -0.7962 -0.6050
vn 0.0036 -0.8138 -0.5812
vn 0.3055 -0.9035 -0.3005
vn 0.0028 -0.8910 -0.4540
vn 0.6053 -0.7960 0.0037
vn 0.5807 -0.8141 0.0036
vn 0.3015 -0.9036 0.3042
vn 0.4536 -0.8912 0.0028
vn -0.0037 -0.7966 0.6045
vn -0.0036 -0.8144 0.5803
vn -0.3044 -0.9038 0.3009
vn -0.0028 -0.8917 0.4527
vn -0.6050 -0.7962 -0.0037
vn -0.5811 -0.8138 -0.0036
vn -0.3009 -0.9037 -0.3047
vn -0.4539 -0.8911 -0.0027
vn 0.0007 0.7625 -0.6470
vn 0.0224 0.6928 -0.7208
vn 0.0209 0.6757 -0.7369
vn 0.0041 0.7502 -0.6612
vn 0.0256 0.6236 -0.7813
vn -0.0146 0.6387 -0.7693
vn 0.6470 0.7625 0.0007
vn 0.7208 0.6928 0.0224
vn 0.7369 0.6757 0.0209
vn 0.6612 0.7502 0.0041
vn 0.7813 0.6236 0.0256
vn 0.7693 0.6387 -0.0146
vn 0.0022 0.7594 0.6507
vn -0.0277 0.6748 0.7374
vn -0.0047 0.6526 0.7577
vn -0.0041 0.7504 0.6610
vn -0.0267 0.6109 0.7913
vn 0.0039 0.7680 -0.6404
vn -0.6692 0.7429 0.0140
vn -0.6404 0.7680 -0.0039
vn -0.6529 0.7574 0.0070
vn -0.0193 0.7536 0.6571
vn -0.0039 0.7680 0.6404
vn 0.6404 0.7680 0.0039
vn 0.0244 0.7471 -0.6642
vn 0.0043 0.7223 -0.6916
vn 0.0247 0.6496 -0.7598
vn 0.0184 0.6279 -0.7781
vn -0.0002 0.6537 0.7568
vn -0.0036 -0.8144 0.5804
vn -0.2440 0.1984 0.9493
vn 0.2425 0.1986 -0.9496
vn 0.8502 -0.0834 -0.5198
vn 0.9170 -0.1122 -0.3827
vn -0.7232 -0.0546 0.6885
vn -0.4017 -0.1815 0.8976
vn 0.2871 -0.6950 -0.6592
vn -0.4904 -0.1697 -0.8548
vn 0.6908 -0.0464 0.7216
vn 0.8988 -0.1769 0.4010
vn -0.7107 -0.0354 -0.7026
vn -0.7116 -0.0397 -0.7014
vn -0.3888 -0.1423 -0.9103
vn -0.3869 -0.1217 -0.9140
vn -0.7105 -0.0345 -0.7028
vn -0.3821 -0.1138 -0.9171
vn -0.5302 -0.0835 0.8437
vn -0.3522 -0.7998 0.4860
vn -0.3939 -0.1122 0.9123
vn -0.2853 -0.6973 0.6575
vn 0.5301 -0.0796 -0.8442
vn -0.5198 -0.0835 -0.8502
vn 0.6990 -0.0487 -0.7135
vn 0.9070 -0.1614 -0.3889
vn 0.0052 0.5374 -0.8433
vn 0.0001 0.5529 -0.8332
vn 0.0179 0.5578 0.8298
vn -0.5009 -0.1697 0.8487
vn -0.4016 -0.2011 0.8935
vn -0.4908 -0.7988 0.3477
vn 0.7181 -0.0293 -0.6954
vn 0.3933 -0.1095 -0.9129
vn 0.3951 -0.1105 -0.9120
vn -0.6901 -0.0487 -0.7220
vn -0.9022 -0.1614 -0.4000
vn -0.6971 -0.7169 -0.0043
vn -0.7890 -0.6143 -0.0049
vn 0.7110 -0.0365 0.7023
vn 0.3877 -0.1369 0.9115
vn -0.6575 -0.6973 -0.2853
vn -0.8487 -0.1697 -0.5009
vn -0.8935 -0.2011 -0.4016
vn -0.9012 0.3407 -0.2680
vn 0.3537 -0.7989 -0.4865
vn 0.0036 -0.8138 -0.5811
vn 0.7568 0.6537 0.0001
vn 0.7781 0.6279 0.0184
vn 0.6612 0.7500 0.0207
vn 0.6695 0.7425 0.0226
vn 0.2651 0.3423 -0.9014
vn 0.8433 0.5374 0.0052
vn 0.8296 0.5582 -0.0141
vn 0.3034 0.9045 -0.2996
vn -0.7779 0.6281 -0.0191
vn -0.7598 0.6496 -0.0247
vn -0.6692 0.7428 -0.0224
vn -0.6642 0.7471 -0.0244
vn -0.7598 0.6500 0.0082
vn -0.4539 -0.8910 -0.0028
vn -0.6885 -0.0546 -0.7232
vn -0.8976 -0.1815 -0.4017
vn -0.6780 0.3030 0.6697
vn 0.4903 -0.7998 -0.3462
vn 0.7890 -0.6143 0.0049
vn 0.6974 -0.0546 -0.7146
vn 0.9025 -0.1815 -0.3906
vn -0.0049 -0.6143 0.7890
vn 0.5459 -0.8378 0.0034
vn -0.7819 0.6227 -0.0293
vn -0.7613 0.6484 -0.0047
vn -0.8215 0.5701 -0.0051
vn -0.8332 0.5529 -0.0001
vn -0.2996 0.9045 -0.3034
vn -0.7135 -0.0488 -0.6990
vn -0.3889 -0.1614 -0.9070
vn -0.3905 -0.2011 -0.8984
vn -0.6996 -0.0464 0.7130
vn -0.9037 -0.1769 0.3899
vn 0.7182 -0.0302 -0.6952
vn 0.3956 -0.1195 -0.9106
vn -0.6697 0.3030 -0.6780
vn 0.0049 -0.6143 -0.7890
vn 0.6956 -0.7184 0.0043
vn -0.7146 -0.0546 -0.6974
vn -0.3906 -0.1815 -0.9025
vn 0.4537 -0.8912 0.0028
vn -0.7783 0.6279 0.0089
vn -0.5474 -0.8369 -0.0034
vn -0.7374 0.6749 -0.0276
vn -0.0034 -0.8377 0.5461
vn 0.0034 -0.8369 -0.5473
vn 0.9850 -0.1726 0.0061
vn -0.0060 -0.1910 0.9816
vn -0.0060 -0.2215 0.9751
vn -0.0060 -0.2533 0.9674
vn -0.0059 -0.2856 0.9583
vn -0.0058 -0.3138 0.9495
vn 0.9816 -0.1910 0.0060
vn 0.9846 -0.1748 0.0037
vn 0.9495 -0.3138 0.0058
vn -0.0083 -0.1748 0.9846
vn -0.2680 0.3407 0.9012
vn -0.0061 -0.1726 0.9850
vn 0.9583 -0.2856 0.0059
vn 0.9674 -0.2533 0.0060
vn 0.9751 -0.2215 0.0060
vn -0.9816 -0.1910 -0.0060
vn -0.9751 -0.2215 -0.0060
vn -0.9674 -0.2533 -0.0060
vn -0.9583 -0.2856 -0.0059
vn -0.9495 -0.3138 -0.0058
vn 0.2540 0.3423 0.9046
vn -0.0038 -0.1748 0.9846
vn -0.9846 -0.1748 -0.0083
vn -0.9850 -0.1726 -0.0061
vn -0.3827 -0.1122 -0.9170
vn 0.0061 -0.1726 -0.9850
vn -0.3462 -0.7998 -0.4903
vn 0.0060 -0.1910 -0.9816
vn 0.0039 -0.1748 -0.9846
vn 0.0058 -0.3138 -0.9495
vn 0.0059 -0.2856 -0.9583
vn 0.0060 -0.2533 -0.9674
vn 0.0060 -0.2215 -0.9751
vn 0.9846 -0.1748 0.0083
vn -0.9846 -0.1749 -0.0041
vn 0.0080 -0.1749 -0.9846
vn -0.9081 -0.1574 0.3882
vn -0.7009 -0.0415 0.7120
vn -0.8506 -0.4900 0.1906
vn -0.0486 -0.9988 -0.0076
vn 0.2411 -0.9705 -0.0003
vn 0.7114 -0.5607 -0.4236
vn 0.1563 -0.1155 0.9809
vn -0.0821 0.9881 -0.1303
vn 0.5043 0.7697 -0.3914
vn 0.9474 -0.2154 0.2367
vn 0.2340 -0.2160 -0.9479
vn -0.0813 0.0300 0.9962
vn -0.2079 0.9458 -0.2494
vn 0.3875 -0.0293 -0.9214
vn 0.5312 0.8241 0.1966
vn 0.5809 0.5774 -0.5738
vn -0.5738 0.5774 -0.5809
vt 0.223898 0.516488
vt 0.223830 0.518573
vt 0.221384 0.518493
vt 0.221453 0.516408
vt 0.162458 0.460414
vt 0.154395 0.478059
vt 0.150239 0.478525
vt 0.155821 0.461159
vt 0.126142 0.481257
vt 0.121270 0.481799
vt 0.126780 0.490230
vt 0.130326 0.489834
vt 0.224294 0.504387
vt 0.162426 0.460621
vt 0.154356 0.478262
vt 0.150200 0.478726
vt 0.155789 0.461363
vt 0.150879 0.487497
vt 0.147855 0.487835
vt 0.131490 0.498643
vt 0.133941 0.498369
vt 0.109417 0.466637
vt 0.121172 0.482058
vt 0.126046 0.481513
vt 0.117194 0.465767
vt 0.150836 0.487699
vt 0.147812 0.488036
vt 0.155747 0.461448
vt 0.150165 0.478814
vt 0.126685 0.490485
vt 0.130233 0.490089
vt 0.133851 0.498622
vt 0.145979 0.497263
vt 0.147781 0.488124
vt 0.126760 0.490194
vt 0.130306 0.489798
vt 0.133923 0.498330
vt 0.131471 0.498604
vt 0.146051 0.496975
vt 0.126716 0.490386
vt 0.130261 0.489991
vt 0.133874 0.498526
vt 0.131424 0.498798
vt 0.150805 0.487786
vt 0.148068 0.497029
vt 0.068005 0.385256
vt 0.117269 0.465478
vt 0.109492 0.466348
vt 0.043894 0.387872
vt 0.067994 0.385422
vt 0.117232 0.465666
vt 0.109458 0.466532
vt 0.043891 0.388027
vt 0.188478 0.371847
vt 0.162384 0.460704
vt 0.209137 0.369450
vt 0.188616 0.371617
vt 0.155851 0.461205
vt 0.162489 0.460463
vt 0.209277 0.369229
vt 0.201532 0.336810
vt 0.227068 0.334256
vt 0.212178 0.317218
vt 0.190695 0.318490
vt 0.054412 0.334055
vt 0.029461 0.338200
vt 0.039723 0.324672
vt 0.061412 0.320243
vt 0.048432 0.354007
vt 0.018764 0.357875
vt 0.029443 0.338053
vt 0.054402 0.333895
vt 0.048431 0.354164
vt 0.018774 0.358018
vt 0.201683 0.336587
vt 0.227221 0.334043
vt 0.212339 0.317000
vt 0.190855 0.318263
vt 0.142927 0.182944
vt 0.140072 0.162972
vt 0.147360 0.164286
vt 0.149388 0.181104
vt 0.199443 0.306060
vt 0.180617 0.305814
vt 0.199278 0.306284
vt 0.180453 0.306045
vt 0.039699 0.324520
vt 0.061395 0.320081
vt 0.146484 0.201342
vt 0.151111 0.221372
vt 0.157603 0.219134
vt 0.153016 0.199158
vt 0.034235 0.320365
vt 0.054867 0.317146
vt 0.146691 0.201100
vt 0.151310 0.221132
vt 0.157802 0.218896
vt 0.153224 0.198919
vt 0.139912 0.163063
vt 0.142775 0.183034
vt 0.149235 0.181191
vt 0.147200 0.164373
vt 0.067779 0.192547
vt 0.065415 0.173678
vt 0.058972 0.177020
vt 0.061432 0.192514
vt 0.169498 0.281582
vt 0.176886 0.299217
vt 0.182930 0.296321
vt 0.175919 0.279346
vt 0.069324 0.249224
vt 0.069546 0.230730
vt 0.062813 0.230121
vt 0.062560 0.248601
vt 0.162348 0.260301
vt 0.155947 0.239168
vt 0.162431 0.236955
vt 0.168844 0.258117
vt 0.156070 0.239213
vt 0.162555 0.237003
vt 0.177054 0.298985
vt 0.186181 0.301652
vt 0.183098 0.296092
vt 0.142990 0.182790
vt 0.149451 0.180950
vt 0.180556 0.305970
vt 0.176992 0.299141
vt 0.183036 0.296248
vt 0.186120 0.301809
vt 0.156007 0.239368
vt 0.151247 0.221287
vt 0.157740 0.219051
vt 0.162493 0.237158
vt 0.034209 0.320215
vt 0.054848 0.316987
vt 0.146628 0.201255
vt 0.153162 0.199073
vt 0.069355 0.231002
vt 0.068821 0.210829
vt 0.062147 0.210365
vt 0.062621 0.230396
vt 0.069140 0.249497
vt 0.062376 0.248877
vt 0.068957 0.210712
vt 0.069483 0.230886
vt 0.062749 0.230277
vt 0.062283 0.210246
vt 0.068041 0.271395
vt 0.061251 0.270793
vt 0.169567 0.281296
vt 0.175989 0.279060
vt 0.176956 0.298931
vt 0.182999 0.296035
vt 0.162400 0.260505
vt 0.168897 0.258323
vt 0.162279 0.260586
vt 0.168775 0.258402
vt 0.069020 0.210557
vt 0.062346 0.210091
vt 0.063396 0.312304
vt 0.056699 0.310891
vt 0.069261 0.249380
vt 0.062497 0.248757
vt 0.065269 0.173671
vt 0.051653 0.172404
vt 0.025814 0.142527
vt 0.044764 0.140019
vt 0.065352 0.173833
vt 0.051741 0.172560
vt 0.025823 0.142683
vt 0.044859 0.140173
vt 0.151313 0.157856
vt 0.164551 0.116725
vt 0.147603 0.121110
vt 0.140135 0.162818
vt 0.151539 0.157616
vt 0.164815 0.116557
vt 0.147864 0.120935
vt 0.061250 0.096977
vt 0.050873 0.098898
vt 0.069098 0.061103
vt 0.072337 0.060461
vt 0.061345 0.097042
vt 0.050873 0.098975
vt 0.069237 0.061259
vt 0.072475 0.060619
vt 0.113867 0.086937
vt 0.122902 0.085003
vt 0.091116 0.056866
vt 0.088337 0.057425
vt 0.114152 0.086839
vt 0.123190 0.084908
vt 0.091413 0.056738
vt 0.088634 0.057295
vt 0.223616 0.339737
vt 0.215763 0.354378
vt 0.193220 0.357014
vt 0.199012 0.342395
vt 0.209208 0.369162
vt 0.188549 0.371558
vt 0.223637 0.339967
vt 0.215778 0.354605
vt 0.193231 0.357231
vt 0.199030 0.342616
vt 0.209215 0.369386
vt 0.188554 0.371775
vt 0.023390 0.362939
vt 0.034220 0.375304
vt 0.060508 0.372405
vt 0.052012 0.359436
vt 0.043818 0.388157
vt 0.067930 0.385542
vt 0.198942 0.342683
vt 0.193149 0.357301
vt 0.201602 0.336523
vt 0.227138 0.333968
vt 0.052148 0.359154
vt 0.048494 0.354008
vt 0.018837 0.357862
vt 0.023536 0.362644
vt 0.223546 0.340025
vt 0.201622 0.336744
vt 0.227161 0.334200
vt 0.048357 0.354290
vt 0.018689 0.358159
vt 0.023465 0.362655
vt 0.052087 0.359151
vt 0.034296 0.375019
vt 0.060582 0.372120
vt 0.215693 0.354666
vt 0.050785 0.099026
vt 0.061161 0.097106
vt 0.072249 0.060605
vt 0.069010 0.061246
vt 0.113966 0.086806
vt 0.088428 0.057280
vt 0.051586 0.172682
vt 0.065202 0.173950
vt 0.044692 0.140232
vt 0.025740 0.142739
vt 0.139979 0.162780
vt 0.147688 0.120893
vt 0.067715 0.192703
vt 0.061369 0.192670
vt 0.066151 0.293449
vt 0.059360 0.292778
vt 0.180523 0.305758
vt 0.063375 0.312141
vt 0.169610 0.281503
vt 0.176033 0.279270
vt 0.069425 0.230722
vt 0.069211 0.249216
vt 0.062447 0.248596
vt 0.062691 0.230115
vt 0.068890 0.210549
vt 0.062216 0.210085
vt 0.067572 0.192820
vt 0.058760 0.177295
vt 0.061226 0.192789
vt 0.190766 0.318204
vt 0.029368 0.338336
vt 0.054328 0.334179
vt 0.061322 0.320365
vt 0.039625 0.324803
vt 0.142842 0.182751
vt 0.067640 0.192540
vt 0.131399 0.498897
vt 0.068152 0.271277
vt 0.061362 0.270673
vt 0.148141 0.496742
vt 0.126121 0.481223
vt 0.121247 0.481767
vt 0.199382 0.306217
vt 0.203837 0.300930
vt 0.154320 0.478348
vt 0.224374 0.501941
vt 0.221849 0.504307
vt 0.221929 0.501861
vt 0.063302 0.312425
vt 0.056604 0.311014
vt 0.147423 0.164131
vt 0.212248 0.316931
vt 0.146551 0.201059
vt 0.149302 0.180907
vt 0.153083 0.198874
vt 0.199348 0.305997
vt 0.068215 0.271122
vt 0.061425 0.270517
vt 0.051804 0.172405
vt 0.047320 0.177787
vt 0.155878 0.239452
vt 0.162363 0.237239
vt 0.061475 0.320087
vt 0.063459 0.312148
vt 0.056762 0.310735
vt 0.054930 0.316990
vt 0.157979 0.161744
vt 0.147267 0.164090
vt 0.151380 0.157573
vt 0.164637 0.116507
vt 0.123003 0.084870
vt 0.091208 0.056722
vt 0.034298 0.375170
vt 0.060576 0.372283
vt 0.023472 0.362800
vt 0.052085 0.359310
vt 0.186085 0.301594
vt 0.126078 0.481415
vt 0.121206 0.481957
vt 0.236476 0.502337
vt 0.236396 0.504783
vt 0.193293 0.357074
vt 0.215839 0.354448
vt 0.199091 0.342459
vt 0.223698 0.339811
vt 0.109521 0.466375
vt 0.117295 0.465508
vt 0.146069 0.497015
vt 0.147875 0.487877
vt 0.050955 0.098920
vt 0.061428 0.096986
vt 0.072540 0.060469
vt 0.069302 0.061109
vt 0.147799 0.121090
vt 0.044923 0.140017
vt 0.025886 0.142528
vt 0.190793 0.318419
vt 0.066316 0.293174
vt 0.059525 0.292500
vt 0.039786 0.324516
vt 0.034298 0.320209
vt 0.058908 0.177176
vt 0.047256 0.177943
vt 0.066253 0.293330
vt 0.059462 0.292656
vt 0.047103 0.178067
vt 0.114066 0.086893
vt 0.029525 0.338044
vt 0.054475 0.333899
vt 0.043954 0.387870
vt 0.068057 0.385265
vt 0.150263 0.478567
vt 0.154419 0.478103
vt 0.148094 0.496942
vt 0.146004 0.497175
vt 0.236000 0.516884
vt 0.235931 0.518970
vt 0.238085 0.516952
vt 0.238017 0.519038
vt 0.150900 0.487539
vt 0.068112 0.271113
vt 0.061322 0.270512
vt 0.212278 0.317156
vt 0.056677 0.310731
vt 0.169672 0.281347
vt 0.176095 0.279114
vt 0.151178 0.221089
vt 0.157670 0.218850
vt 0.203898 0.300774
vt 0.157821 0.161698
vt 0.151476 0.157770
vt 0.157915 0.161898
vt 0.066224 0.293166
vt 0.059432 0.292495
vt 0.164750 0.116711
vt 0.123104 0.084962
vt 0.088568 0.057445
vt 0.091347 0.056888
vt 0.238562 0.502405
vt 0.238481 0.504851
vt 0.060639 0.372126
vt 0.157754 0.161981
vt 0.034361 0.375013
vt 0.148160 0.496781
vt 0.047712 0.195194
vt 0.046578 0.232535
vt 0.045106 0.250928
vt 0.042432 0.272798
vt 0.038940 0.294624
vt 0.035405 0.312929
vt 0.046712 0.232409
vt 0.047546 0.212591
vt 0.035508 0.312797
vt 0.047404 0.212717
vt 0.034135 0.320498
vt 0.054775 0.317270
vt 0.047565 0.195318
vt 0.039050 0.294494
vt 0.042551 0.272669
vt 0.045233 0.250801
vt 0.161804 0.180334
vt 0.046776 0.232253
vt 0.045297 0.250645
vt 0.042614 0.272513
vt 0.039114 0.294338
vt 0.035571 0.312640
vt 0.186015 0.301881
vt 0.203731 0.300995
vt 0.200878 0.293890
vt 0.171601 0.217723
vt 0.166174 0.198085
vt 0.177255 0.235558
vt 0.184853 0.256390
vt 0.193241 0.276880
vt 0.047610 0.212436
vt 0.047776 0.195039
vt 0.061294 0.192510
vt 0.047634 0.195040
vt 0.047171 0.177789
vt 0.058827 0.177017
vt 0.171740 0.217645
vt 0.177387 0.235482
vt 0.184977 0.256318
vt 0.193356 0.276810
vt 0.200986 0.293824
vt 0.046649 0.232255
vt 0.047474 0.212438
vt 0.035479 0.312647
vt 0.039014 0.294343
vt 0.042505 0.272516
vt 0.045178 0.250648
vt 0.166321 0.198005
vt 0.161958 0.180252
vt 0.162021 0.180098
vt 0.171669 0.217438
vt 0.177323 0.235273
vt 0.184922 0.256105
vt 0.193309 0.276593
vt 0.200947 0.293603
vt 0.171802 0.217490
vt 0.166383 0.197851
vt 0.201048 0.293667
vt 0.166241 0.197802
vt 0.161871 0.180050
vt 0.203800 0.300708
vt 0.177448 0.235327
vt 0.168959 0.258168
vt 0.185039 0.256163
vt 0.193417 0.276654
vt 0.162462 0.260349
vt 0.084199 0.052020
vt 0.073674 0.054109
vt 0.084529 0.052044
vt 0.073794 0.054121
vt 0.084321 0.052030
vt 0.073904 0.054124
vt 0.084432 0.052038
vt 0.074001 0.054130
vt 0.067634 0.033346
vt 0.082494 0.030406
vt 0.071327 0.012980
vt 0.067299 0.033332
vt 0.082155 0.030387
vt 0.070982 0.012969
vt 0.082395 0.030401
vt 0.067536 0.033342
vt 0.071226 0.012977
vt 0.082274 0.030393
vt 0.067416 0.033340
vt 0.071097 0.012973
vt 0.073479 0.039285
vt 0.079352 0.038123
vt 0.079254 0.038118
vt 0.073382 0.039281
vt 0.073146 0.039268
vt 0.079017 0.038103
vt 0.079137 0.038112
vt 0.073265 0.039277
s 1
usemtl Material.001
f 176/1/1 137/2/2 1/3/2 97/4/2
f 10/5/3 12/6/4 118/7/5 98/8/6
f 140/9/7 7/10/8 8/11/9 141/12/10
f 176/1/1 175/13/11 350/13/12 351/1/13
f 18/14/14 20/15/15 198/16/16 180/17/17
f 118/7/5 12/6/4 11/18/18 119/19/19
f 8/11/9 1/20/20 137/21/20 141/12/10
f 14/22/21 16/23/22 64/24/23 63/25/24
f 198/16/16 20/15/15 19/26/25 199/27/26
f 121/28/24 63/25/24 64/24/23 99/29/23
f 64/24/23 16/23/22 15/30/27 65/31/28
f 58/32/29 97/33/29 100/34/28 65/31/28
f 19/35/18 61/36/19 57/37/30 4/38/30
f 61/36/19 119/19/19 117/39/30 57/37/30
f 15/40/25 144/41/26 138/42/31 3/43/31
f 8/44/27 100/34/28 97/33/29 1/45/29
f 93/46/32 59/47/33 18/48/34 51/49/35
f 174/50/36 142/51/37 14/52/38 54/53/39
f 116/54/40 121/28/24 5/55/41 49/56/42
f 194/57/43 197/58/44 10/59/45 45/60/46
f 122/61/47 22/62/47 26/63/47 123/64/47
f 148/65/48 28/66/48 32/67/49 150/68/50
f 67/69/51 23/70/51 27/71/51 69/72/51
f 146/73/52 24/74/52 28/66/52 148/65/52
f 200/75/53 21/76/53 25/77/53 201/78/53
f 9/79/54 185/80/55 290/81/56 284/82/57
f 201/78/48 25/77/48 29/83/58 202/84/59
f 123/64/48 26/63/48 30/85/60 124/86/61
f 69/72/48 27/71/48 31/87/62 71/88/63
f 126/89/64 131/90/65 278/91/66 275/92/67
f 150/68/50 32/67/49 233/93/68 253/94/69
f 203/95/70 205/96/71 336/97/72 310/98/73
f 125/99/74 62/100/75 259/101/76 277/102/77
f 17/103/78 153/104/79 263/105/80 257/106/81
f 110/107/82 111/108/83 274/109/84 273/110/85
f 156/111/86 155/112/87 265/113/88 279/114/89
f 128/115/90 127/116/91 330/117/92 331/118/93
f 205/96/71 186/119/94 321/120/95 336/97/72
f 189/121/96 202/84/59 334/122/97 327/123/98
f 6/124/99 203/95/70 310/98/73 311/125/100
f 183/126/101 209/127/102 309/128/103 287/129/104
f 206/130/105 190/131/106 301/132/107 306/133/108
f 71/88/63 31/87/62 288/134/109 302/135/110
f 184/136/111 9/79/54 284/82/57 283/137/112
f 82/138/113 76/139/114 236/140/115 247/141/116
f 83/142/117 82/138/113 247/141/116 249/143/118
f 152/144/119 160/145/120 255/146/121 229/147/122
f 84/148/123 83/142/117 249/143/118 250/149/124
f 129/150/125 128/115/90 331/118/93 332/151/126
f 130/152/127 129/150/125 332/151/126 333/153/128
f 190/131/106 184/136/111 283/137/112 301/132/107
f 207/154/129 206/130/105 306/133/108 307/155/130
f 109/156/131 110/107/82 273/110/85 272/157/132
f 155/112/87 151/158/133 256/159/134 265/113/88
f 164/160/135 150/68/50 253/94/69 246/161/136
f 160/145/120 161/162/137 240/163/138 255/146/121
f 73/164/139 34/165/140 38/166/141 87/167/141
f 154/168/142 33/169/143 37/170/144 166/171/144
f 125/99/74 35/172/145 39/173/146 132/174/146
f 204/175/147 36/176/148 40/177/149 210/178/149
f 222/179/150 218/180/151 42/181/152 89/182/153
f 226/183/154 219/184/155 41/185/156 168/186/157
f 224/187/158 220/188/159 43/189/160 133/190/161
f 228/191/162 217/192/163 44/193/164 211/194/165
f 46/195/166 47/196/167 134/197/168 114/198/169
f 47/196/167 45/199/170 135/200/171 134/197/168
f 52/201/172 53/202/173 213/203/174 195/204/175
f 53/202/173 51/205/176 214/206/177 213/203/174
f 55/207/178 56/208/179 95/209/180 94/210/181
f 56/208/179 54/211/182 96/212/40 95/209/180
f 136/213/181 94/210/181 95/209/180 115/214/180
f 115/214/180 95/209/180 96/212/40 116/54/40
f 114/198/169 102/215/183 21/216/183 46/195/166
f 169/217/184 145/218/185 22/219/185 48/220/186
f 136/213/181 48/221/187 22/62/188 122/61/188
f 195/204/175 181/222/189 23/223/189 52/201/172
f 55/207/178 94/210/181 68/224/188 24/225/188
f 52/226/190 23/70/183 67/69/183 91/227/191
f 53/228/192 92/229/193 93/46/32 51/49/35
f 52/226/190 91/227/191 92/229/193 53/228/192
f 116/54/40 49/56/42 50/230/194 115/214/180
f 115/214/180 50/230/194 48/221/187 136/213/181
f 219/231/195 221/232/158 90/233/161 41/234/156
f 223/235/150 222/179/150 89/182/153 113/236/153
f 33/237/145 74/238/196 88/239/146 37/240/146
f 105/241/197 73/164/139 87/167/141 112/242/141
f 13/243/198 152/144/119 229/147/122 230/244/199
f 85/245/200 84/148/123 250/149/124 251/246/201
f 104/247/202 71/88/63 81/248/203 130/152/127
f 208/249/204 207/154/129 307/155/130 308/250/205
f 77/251/206 78/252/207 294/253/208 305/254/209
f 75/255/210 77/251/206 305/254/209 304/256/211
f 209/127/102 208/249/204 308/250/205 309/128/103
f 120/257/212 74/238/196 234/258/213 248/259/214
f 103/260/48 69/72/48 71/88/63 104/247/202
f 28/261/48 70/262/48 72/263/215 32/264/49
f 66/265/216 101/266/217 73/164/139 105/241/197
f 102/215/51 67/69/51 69/72/51 103/260/51
f 24/225/47 68/224/47 70/262/47 28/261/47
f 54/211/182 14/22/21 63/25/24 96/212/40
f 135/200/171 98/8/6 59/47/33 93/46/32
f 15/30/27 3/267/29 58/32/29 65/31/28
f 161/162/137 162/268/218 242/269/219 240/163/138
f 11/18/18 2/270/30 117/39/30 119/19/19
f 99/29/23 64/24/23 65/31/28 100/34/28
f 18/48/34 59/47/33 60/271/220 20/272/221
f 31/273/62 183/126/101 287/129/104 288/274/109
f 20/272/221 60/271/220 61/36/19 19/35/18
f 99/29/23 7/275/222 5/55/41 121/28/24
f 138/276/2 175/13/11 58/277/2 3/278/2
f 59/47/33 98/8/6 118/7/5 60/271/220
f 7/275/222 99/29/23 100/34/28 8/44/27
f 86/279/223 85/245/200 251/246/201 252/280/224
f 204/175/147 6/124/99 311/125/100 335/281/225
f 45/199/170 10/5/3 98/8/6 135/200/171
f 21/216/51 102/215/51 103/260/51 25/282/51
f 106/283/226 66/265/216 329/284/227 317/285/228
f 25/282/48 103/260/48 104/247/202 29/286/58
f 157/287/229 156/111/86 279/114/89 280/288/230
f 153/104/79 35/289/231 264/290/232 263/105/80
f 108/291/233 109/156/131 272/157/132 271/292/234
f 149/293/235 159/294/236 282/295/237 260/296/238
f 36/176/148 204/175/147 335/281/225 315/297/232
f 66/265/216 105/241/197 316/298/239 329/284/227
f 36/299/140 105/241/197 112/242/141 40/300/141
f 217/301/240 223/235/150 113/236/153 44/302/164
f 91/227/191 114/198/169 134/197/168 92/229/193
f 92/229/193 134/197/168 135/200/171 93/46/32
f 94/210/181 136/213/181 122/61/188 68/224/188
f 91/227/191 67/69/183 102/215/183 114/198/169
f 56/303/241 173/304/242 174/50/36 54/53/39
f 55/305/243 172/306/244 173/304/242 56/303/241
f 221/232/158 224/187/158 133/190/161 90/233/161
f 74/238/196 125/99/74 132/174/146 88/239/146
f 72/263/215 124/86/61 111/108/83 86/279/223
f 120/257/212 62/100/75 125/99/74 74/238/196
f 70/262/48 123/64/48 124/86/61 72/263/215
f 68/224/47 122/61/47 123/64/47 70/262/47
f 96/212/40 63/25/24 121/28/24 116/54/40
f 104/247/202 130/152/127 333/153/128 313/307/245
f 60/271/220 118/7/5 119/19/19 61/36/19
f 14/52/38 142/51/37 143/308/246 16/309/247
f 175/13/11 176/1/1 97/4/2 58/277/2
f 196/310/2 215/311/248 175/13/11 138/276/2
f 183/126/101 150/68/50 164/160/135 209/127/102
f 55/305/243 24/74/189 146/73/189 172/306/244
f 193/312/249 194/57/43 45/60/46 47/313/250
f 212/314/251 193/312/249 47/313/250 46/315/252
f 5/316/253 7/10/8 140/9/7 139/317/44
f 137/21/20 177/318/20 179/319/10 141/12/10
f 220/320/163 225/321/162 167/322/254 43/323/160
f 185/80/55 154/168/142 166/171/144 191/324/144
f 35/289/231 153/104/79 165/325/149 39/326/149
f 9/79/54 13/243/198 154/168/142 185/80/55
f 181/222/52 146/73/52 148/65/52 182/327/52
f 158/328/255 157/287/229 280/288/230 281/329/256
f 30/330/60 149/293/235 260/296/238 261/331/257
f 154/168/142 13/243/198 230/244/199 254/332/258
f 33/169/143 154/168/142 254/332/258 235/333/259
f 162/268/218 163/334/260 244/335/261 242/269/219
f 74/238/196 33/237/145 235/336/262 234/258/213
f 131/90/65 108/291/233 271/292/234 278/91/66
f 191/324/263 166/171/263 226/183/154 227/337/154
f 26/338/48 147/339/48 149/293/235 30/330/60
f 22/219/53 145/218/53 147/339/53 26/338/53
f 182/327/48 148/65/48 150/68/50 183/126/101
f 214/206/177 180/17/17 142/51/37 174/50/36
f 49/340/264 5/316/253 139/317/44 171/341/265
f 172/306/244 146/73/189 181/222/189 195/204/175
f 178/342/266 140/9/7 141/12/10 179/319/10
f 159/294/236 158/328/255 281/329/256 282/295/237
f 16/309/247 143/308/246 144/41/26 15/40/25
f 197/58/44 178/342/266 12/343/267 10/59/45
f 19/26/25 4/344/31 196/345/31 199/27/26
f 216/346/268 177/347/2 137/2/2 176/1/1
f 149/293/235 202/84/59 189/121/96 159/294/236
f 117/348/2 2/349/2 177/347/2 216/346/268
f 142/51/37 180/17/17 198/16/16 143/308/246
f 12/343/267 178/342/266 179/319/10 11/350/9
f 78/252/207 79/351/269 296/352/270 294/253/208
f 51/205/176 18/14/14 180/17/17 214/206/177
f 27/353/48 182/327/48 183/126/101 31/273/62
f 23/223/52 181/222/52 182/327/52 27/353/52
f 81/248/203 71/88/63 302/135/110 300/354/271
f 188/355/272 189/121/96 327/123/98 325/356/273
f 107/357/274 106/283/226 317/285/228 328/358/275
f 202/84/59 29/83/58 314/359/276 334/122/97
f 105/241/197 36/299/140 315/360/277 316/298/239
f 185/80/55 34/361/278 291/362/259 290/81/56
f 79/351/269 80/363/279 298/364/280 296/352/270
f 34/361/278 185/80/55 191/324/144 38/365/144
f 218/366/155 227/337/154 192/367/281 42/368/152
f 172/306/244 195/204/175 213/203/174 173/304/242
f 173/304/242 213/203/174 214/206/177 174/50/36
f 46/315/252 21/76/185 200/75/185 212/314/251
f 4/369/2 57/370/2 215/311/248 196/310/2
f 57/370/2 117/348/2 216/346/268 215/311/248
f 193/312/249 170/371/282 171/341/265 194/57/43
f 212/314/251 169/217/184 170/371/282 193/312/249
f 143/308/246 198/16/16 199/27/26 144/41/26
f 153/104/79 204/175/147 210/178/149 165/325/149
f 17/103/78 6/124/99 204/175/147 153/104/79
f 147/339/48 201/78/48 202/84/59 149/293/235
f 165/325/283 210/178/283 228/191/162 225/321/162
f 145/218/53 200/75/53 201/78/53 147/339/53
f 171/341/265 139/317/44 197/58/44 194/57/43
f 225/321/162 228/191/162 211/194/165 167/322/254
f 35/172/145 125/99/74 277/102/77 264/372/262
f 197/58/44 139/317/44 140/9/7 178/342/266
f 212/314/251 200/75/185 145/218/185 169/217/184
f 227/337/154 226/183/154 168/186/157 192/367/281
f 38/365/263 191/324/263 227/337/154 218/366/155
f 50/373/284 49/340/264 171/341/265 170/371/282
f 39/326/283 165/325/283 225/321/162 220/320/163
f 88/239/285 132/174/285 224/187/158 221/232/158
f 40/300/286 112/242/286 223/235/150 217/301/240
f 112/242/286 87/167/286 222/179/150 223/235/150
f 37/240/285 88/239/285 221/232/158 219/231/195
f 210/178/283 40/177/283 217/192/163 228/191/162
f 132/174/285 39/173/285 220/188/159 224/187/158
f 166/171/263 37/170/263 219/184/155 226/183/154
f 87/167/286 38/166/286 218/180/151 222/179/150
f 11/350/9 179/319/10 177/318/20 2/374/20
f 230/244/199 231/375/287 235/333/259 254/332/258
f 247/141/116 239/376/288 238/377/289 249/143/118
f 249/143/118 238/377/289 241/378/290 250/149/124
f 250/149/124 241/378/290 243/379/291 251/246/201
f 251/246/201 243/379/291 245/380/292 252/280/224
f 255/146/121 239/381/293 237/382/294 229/147/122
f 253/94/69 233/93/68 245/383/295 246/161/136
f 239/376/288 247/141/116 236/140/115 237/384/296
f 233/385/68 232/386/297 252/280/224 245/380/292
f 231/387/298 248/259/214 234/258/213 235/336/262
f 237/384/296 236/140/115 248/259/214 231/387/298
f 229/147/122 237/382/294 231/375/287 230/244/199
f 243/388/299 244/335/261 246/161/136 245/383/295
f 241/389/300 242/269/219 244/335/261 243/388/299
f 238/390/301 240/163/138 242/269/219 241/389/300
f 239/381/293 255/146/121 240/163/138 238/390/301
f 72/263/215 86/279/223 252/280/224 232/386/297
f 32/264/49 72/263/215 232/386/297 233/385/68
f 76/139/114 120/257/212 248/259/214 236/140/115
f 163/334/260 164/160/135 246/161/136 244/335/261
f 259/101/76 258/391/298 264/372/262 277/102/77
f 265/113/88 266/392/302 267/393/303 279/114/89
f 279/114/89 267/393/303 268/394/304 280/288/230
f 280/288/230 268/394/304 269/395/305 281/329/256
f 281/329/256 269/395/305 270/396/306 282/295/237
f 276/397/307 261/398/257 270/399/292 274/109/84
f 278/91/66 266/400/288 262/401/308 275/92/67
f 266/400/288 278/91/66 271/292/234 267/402/289
f 267/402/289 271/292/234 272/157/132 268/403/290
f 268/403/290 272/157/132 273/110/85 269/404/291
f 269/404/291 273/110/85 274/109/84 270/399/292
f 261/331/257 260/296/238 282/295/237 270/396/306
f 266/392/302 265/113/88 256/159/134 262/405/309
f 258/406/310 257/106/81 263/105/80 264/290/232
f 275/92/67 262/401/308 258/391/298 259/101/76
f 262/405/309 256/159/134 257/106/81 258/406/310
f 62/100/75 126/89/64 275/92/67 259/101/76
f 124/86/61 30/85/60 261/398/257 276/397/307
f 151/158/133 17/103/78 257/106/81 256/159/134
f 111/108/83 124/86/61 276/397/307 274/109/84
f 286/407/311 285/408/312 291/409/277 303/410/313
f 301/132/107 293/411/293 292/412/301 306/133/108
f 306/133/108 292/412/301 295/413/300 307/155/130
f 307/155/130 295/413/300 297/414/299 308/250/205
f 308/250/205 297/414/299 299/415/295 309/128/103
f 305/254/209 293/416/314 289/417/315 304/256/211
f 302/135/110 288/134/109 299/418/316 300/354/271
f 297/419/317 298/364/280 300/354/271 299/418/316
f 295/420/318 296/352/270 298/364/280 297/419/317
f 292/421/319 294/253/208 296/352/270 295/420/318
f 293/416/314 305/254/209 294/253/208 292/421/319
f 304/256/211 289/417/315 285/408/312 286/407/311
f 289/422/320 283/137/112 284/82/57 285/423/287
f 285/423/287 284/82/57 290/81/56 291/362/259
f 293/411/293 301/132/107 283/137/112 289/422/320
f 288/274/109 287/129/104 309/128/103 299/415/295
f 34/165/140 73/164/139 303/410/313 291/409/277
f 73/164/139 101/266/217 286/407/311 303/410/313
f 80/363/279 81/248/203 300/354/271 298/364/280
f 101/266/217 75/255/210 304/256/211 286/407/311
f 311/125/100 312/424/310 315/297/232 335/281/225
f 328/358/275 320/425/314 319/426/319 330/117/92
f 330/117/92 319/426/319 322/427/318 331/118/93
f 331/118/93 322/427/318 324/428/317 332/151/126
f 332/151/126 324/428/317 326/429/316 333/153/128
f 336/97/72 320/430/302 318/431/321 310/98/73
f 334/122/97 314/359/276 326/432/306 327/123/98
f 318/433/322 317/285/228 329/284/227 312/434/312
f 312/434/312 329/284/227 316/298/239 315/360/277
f 320/425/314 328/358/275 317/285/228 318/433/322
f 314/435/276 313/307/245 333/153/128 326/429/316
f 310/98/73 318/431/321 312/424/310 311/125/100
f 320/430/302 336/97/72 321/120/95 319/436/303
f 319/436/303 321/120/95 323/437/323 322/438/304
f 322/438/304 323/437/323 325/356/273 324/439/305
f 324/439/305 325/356/273 327/123/98 326/432/306
f 186/119/94 187/440/324 323/437/323 321/120/95
f 127/116/91 107/357/274 328/358/275 330/117/92
f 29/286/58 104/247/202 313/307/245 314/435/276
f 187/440/324 188/355/272 325/356/273 323/437/323
f 144/41/26 199/27/26 196/345/31 138/42/31
f 48/220/186 50/373/284 170/371/282 169/217/184
f 90/233/161 133/190/161 339/441/325 337/442/326
f 211/194/165 44/193/164 340/443/327
f 113/236/153 89/182/153 338/444/328 340/445/327
f 192/367/281 168/186/157 337/446/326 338/447/328
f 42/368/152 192/367/281 338/447/328
f 43/323/160 167/322/254 339/448/325
f 44/302/164 113/236/153 340/445/327
f 89/182/153 42/181/152 338/444/328
f 41/234/156 90/233/161 337/442/326
f 167/322/254 211/194/165 340/443/327 339/448/325
f 168/186/157 41/185/156 337/446/326
f 133/190/161 43/189/160 339/441/325
f 346/449/329 349/450/330 345/451/331
f 347/452/332 346/453/329 345/454/331
f 348/455/333 347/456/332 345/457/331
f 349/458/330 348/459/333 345/460/331
f 344/461/334 341/462/335 349/450/330 346/449/329
f 342/463/336 343/464/337 347/456/332 348/455/333
f 343/465/337 344/466/334 346/453/329 347/452/332
f 341/467/335 342/468/336 348/459/333 349/458/330
f 339/448/325 340/443/327 341/462/335 344/461/334
f 340/445/327 338/444/328 342/468/336 341/467/335
f 337/442/326 339/441/325 344/466/334 343/465/337
f 338/447/328 337/446/326 343/464/337 342/463/336
f 353/311/338 352/346/339 351/1/13 350/13/12
f 216/346/268 176/1/1 351/1/13 352/346/339
f 215/311/248 216/346/268 352/346/339 353/311/338
f 175/13/11 215/311/248 353/311/338 350/13/12
o Cylinder.001
v 2.182953 0.158595 -0.124303
v 2.182953 1.452724 -0.124303
v 2.270849 0.158595 -0.087896
v 2.270849 1.452724 -0.087896
v 2.307256 0.158595 0.000000
v 2.307256 1.452724 0.000000
v 2.270849 0.158595 0.087896
v 2.270849 1.452724 0.087896
v 2.182953 0.158595 0.124303
v 2.182953 1.452724 0.124303
v 2.095057 0.158595 0.087896
v 2.095057 1.452724 0.087896
v 2.058650 0.158595 0.000000
v 2.058650 1.452724 0.000000
v 2.095057 0.158595 -0.087896
v 2.095057 1.452724 -0.087896
v 2.182953 0.093250 -0.182451
v 2.311965 0.093250 -0.129012
v 2.365403 0.093250 -0.000000
v 2.311965 0.093250 0.129012
v 2.182953 0.093250 0.182451
v 2.053941 0.093250 0.129012
v 2.000502 0.093250 -0.000000
v 2.053941 0.093250 -0.129012
v 2.182953 0.001767 -0.182451
v 2.311965 0.001767 -0.129012
v 2.365403 0.001767 -0.000000
v 2.311965 0.001767 0.129012
v 2.182953 0.001767 0.182451
v 2.053941 0.001767 0.129012
v 2.000502 0.001767 -0.000000
v 2.053941 0.001767 -0.129012
v 2.182953 2.409974 -0.049638
v 2.218052 2.409974 -0.035100
v 2.232591 2.409974 0.000000
v 2.218052 2.409974 0.035100
v 2.182953 2.409974 0.049638
v 2.147853 2.409974 0.035100
v 2.133315 2.409974 0.000000
v 2.147853 2.409974 -0.035100
v 2.182953 6.657526 -0.049638
v 2.218052 6.657526 -0.035100
v 2.232591 6.657526 0.000000
v 2.218052 6.657526 0.035100
v 2.182953 6.657526 0.049638
v 2.147853 6.657526 0.035100
v 2.133315 6.657526 0.000000
v 2.147853 6.657526 -0.035100
v 2.182953 6.672649 -0.025882
v 2.201254 6.672649 -0.018301
v 2.208835 6.672649 0.000000
v 2.201254 6.672649 0.018301
v 2.182953 6.672649 0.025882
v 2.164652 6.672649 0.018301
v 2.157071 6.672649 0.000000
v 2.164652 6.672649 -0.018301
v 2.182953 6.690893 -0.025882
v 2.201254 6.690893 -0.018301
v 2.208835 6.690893 0.000000
v 2.201254 6.690893 0.018301
v 2.182953 6.690893 0.025882
v 2.164652 6.690893 0.018301
v 2.157071 6.690893 0.000000
v 2.164652 6.690893 -0.018301
v 2.182953 6.690894 -0.012765
v 2.191979 6.690894 -0.009026
v 2.195718 6.690894 0.000000
v 2.191979 6.690894 0.009026
v 2.182953 6.690894 0.012765
v 2.173927 6.690894 0.009026
v 2.170188 6.690894 0.000000
v 2.173927 6.690894 -0.009026
v 2.182953 6.721957 -0.012765
v 2.191979 6.721957 -0.009026
v 2.195718 6.721957 0.000000
v 2.191979 6.721957 0.009026
v 2.182953 6.721957 0.012765
v 2.173927 6.721957 0.009026
v 2.170188 6.721957 0.000000
v 2.173927 6.721957 -0.009026
v 2.182953 6.732053 -0.029234
v 2.203625 6.732053 -0.020672
v 2.212188 6.732053 0.000000
v 2.203625 6.732053 0.020672
v 2.182953 6.732053 0.029234
v 2.162281 6.732053 0.020672
v 2.153718 6.732053 0.000000
v 2.162281 6.732053 -0.020672
v 2.182953 6.806790 0.000000
vn 0.3827 -0.0000 -0.9239
vn 0.9239 -0.0000 -0.3827
vn 0.9239 -0.0000 0.3827
vn 0.3827 -0.0000 0.9239
vn -0.3827 -0.0000 0.9239
vn -0.9239 -0.0000 0.3827
vn -0.7137 0.6351 -0.2956
vn -0.9239 -0.0000 -0.3827
vn -0.3827 -0.0000 -0.9239
vn 0.2956 0.6351 0.7137
vn 0.7137 0.6351 -0.2956
vn -0.2956 0.6351 0.7137
vn -0.2956 0.6351 -0.7137
vn 0.2956 0.6351 -0.7137
vn 0.7137 0.6351 0.2956
vn -0.7137 0.6351 0.2956
vn -0.3817 0.0719 -0.9215
vn 0.3817 0.0719 -0.9215
vn 0.9215 0.0719 0.3817
vn -0.9215 0.0719 0.3817
vn 0.3817 0.0719 0.9215
vn -0.9215 0.0719 -0.3817
vn 0.9215 0.0719 -0.3817
vn -0.3817 0.0719 0.9215
vn -0.5242 0.8234 -0.2171
vn -0.2171 0.8234 0.5242
vn 0.5242 0.8234 0.2171
vn 0.2171 0.8234 -0.5242
vn -0.2171 0.8234 -0.5242
vn -0.5242 0.8234 0.2171
vn 0.2171 0.8234 0.5242
vn 0.5242 0.8234 -0.2171
vn -0.0000 1.0000 -0.0000
vn -0.5108 -0.8333 -0.2116
vn -0.2115 -0.8333 0.5108
vn 0.5108 -0.8333 0.2116
vn 0.2115 -0.8333 -0.5108
vn -0.2115 -0.8333 -0.5108
vn -0.5108 -0.8333 0.2116
vn 0.2115 -0.8333 0.5108
vn 0.5108 -0.8333 -0.2116
vn 0.3599 0.3399 0.8689
vn 0.8689 0.3399 -0.3599
vn -0.8689 0.3399 -0.3599
vn -0.3599 0.3399 0.8689
vn 0.8689 0.3399 0.3599
vn 0.3599 0.3399 -0.8689
vn -0.3599 0.3399 -0.8689
vn -0.8689 0.3399 0.3599
vt 0.956541 0.056332
vt 0.961278 0.234970
vt 0.942511 0.234745
vt 0.936052 0.054494
vt 0.923835 0.234918
vt 0.914944 0.053230
vt 0.905193 0.235487
vt 0.894304 0.055282
vt 0.885732 0.236481
vt 0.874443 0.057733
vt 0.874736 0.058243
vt 0.886317 0.236553
vt 0.905012 0.235594
vt 0.894957 0.055486
vt 0.923654 0.235036
vt 0.915908 0.053160
vt 0.936906 0.054084
vt 0.938599 0.042618
vt 0.915110 0.042426
vt 0.942301 0.234876
vt 0.961799 0.235109
vt 0.956950 0.056412
vt 0.866580 0.048301
vt 0.890837 0.043927
vt 0.914367 0.042474
vt 0.938407 0.042794
vt 0.891259 0.043967
vt 0.866267 0.048697
vt 0.964598 0.045599
vt 0.964020 0.046333
vt 0.940467 0.031964
vt 0.914905 0.031475
vt 0.888783 0.032816
vt 0.861709 0.036804
vt 0.887597 0.033576
vt 0.913141 0.031526
vt 0.939570 0.031475
vt 0.967253 0.034150
vt 0.966876 0.034246
vt 0.862606 0.037557
vt 0.937410 0.361377
vt 0.944783 0.361451
vt 0.945020 0.361440
vt 0.937213 0.361377
vt 0.929385 0.361458
vt 0.921570 0.361685
vt 0.921780 0.361680
vt 0.929595 0.361456
vt 0.914210 0.362048
vt 0.914000 0.362048
vt 0.967253 0.687124
vt 0.959720 0.685607
vt 0.959586 0.685049
vt 0.966876 0.686556
vt 0.946328 0.685324
vt 0.952991 0.684816
vt 0.946553 0.685847
vt 0.939326 0.687571
vt 0.953072 0.685229
vt 0.938970 0.687248
vt 0.953206 0.688563
vt 0.958107 0.689061
vt 0.943571 0.690565
vt 0.948305 0.689296
vt 0.953187 0.689296
vt 0.948290 0.689561
vt 0.962834 0.690810
vt 0.958198 0.689417
vt 0.962748 0.689994
vt 0.943936 0.690952
vt 0.956986 0.692264
vt 0.953284 0.691915
vt 0.953372 0.691434
vt 0.957191 0.691584
vt 0.945519 0.693462
vt 0.949617 0.691969
vt 0.949512 0.692160
vt 0.961076 0.693623
vt 0.961618 0.692644
vt 0.945372 0.693377
vt 0.956575 0.693814
vt 0.959249 0.694378
vt 0.950708 0.694050
vt 0.953574 0.693515
vt 0.950316 0.694324
vt 0.947765 0.694948
vt 0.956085 0.694353
vt 0.953243 0.693943
vt 0.948352 0.694844
vt 0.958445 0.695032
vt 0.952615 0.700162
vt 0.950089 0.700159
vt 0.957802 0.700012
vt 0.955203 0.700139
vt 0.956983 0.699595
vt 0.959247 0.699393
vt 0.952153 0.699862
vt 0.954548 0.699573
vt 0.947953 0.699755
vt 0.949683 0.699951
vt 0.954911 0.702198
vt 0.957777 0.701993
vt 0.948176 0.702512
vt 0.952008 0.702359
vt 0.952027 0.702724
vt 0.949273 0.702496
vt 0.959433 0.703255
vt 0.955020 0.703004
vt 0.961433 0.701674
vt 0.945395 0.702076
vt 0.950287 0.710830
vt 0.956092 0.709879
s 0
usemtl Material.002
f 354/469/340 355/470/340 357/471/340 356/472/340
f 356/472/341 357/471/341 359/473/341 358/474/341
f 358/474/342 359/473/342 361/475/342 360/476/342
f 360/476/343 361/475/343 363/477/343 362/478/343
f 362/479/344 363/480/344 365/481/344 364/482/344
f 364/482/345 365/481/345 367/483/345 366/484/345
f 366/484/346 368/485/346 377/486/346 376/487/346
f 366/484/347 367/483/347 369/488/347 368/485/347
f 368/485/348 369/488/348 355/489/348 354/490/348
f 360/476/349 362/478/349 374/491/349 373/492/349
f 356/472/350 358/474/350 372/493/350 371/494/350
f 362/479/351 364/482/351 375/495/351 374/496/351
f 368/485/352 354/490/352 370/497/352 377/486/352
f 354/469/353 356/472/353 371/494/353 370/498/353
f 358/474/354 360/476/354 373/492/354 372/493/354
f 364/482/355 366/484/355 376/487/355 375/495/355
f 376/487/347 377/486/347 385/499/347 384/500/347
f 374/496/344 375/495/344 383/501/344 382/502/344
f 372/493/342 373/492/342 381/503/342 380/504/342
f 370/498/340 371/494/340 379/505/340 378/506/340
f 377/486/348 370/497/348 378/507/348 385/499/348
f 375/495/345 376/487/345 384/500/345 383/501/345
f 373/492/343 374/491/343 382/508/343 381/503/343
f 371/494/341 372/493/341 380/504/341 379/505/341
f 355/489/356 369/488/356 393/509/356 386/510/356
f 357/471/357 355/470/357 386/511/357 387/512/357
f 361/475/358 359/473/358 388/513/358 389/514/358
f 367/483/359 365/481/359 391/515/359 392/516/359
f 363/477/360 361/475/360 389/514/360 390/517/360
f 369/488/361 367/483/361 392/516/361 393/509/361
f 359/473/362 357/471/362 387/512/362 388/513/362
f 365/481/363 363/480/363 390/518/363 391/515/363
f 387/512/340 386/511/340 394/519/340 395/520/340
f 386/510/348 393/509/348 401/521/348 394/522/348
f 392/516/345 391/515/345 399/523/345 400/524/345
f 390/517/343 389/514/343 397/525/343 398/526/343
f 388/513/341 387/512/341 395/520/341 396/527/341
f 393/509/347 392/516/347 400/524/347 401/521/347
f 391/515/344 390/518/344 398/528/344 399/523/344
f 389/514/342 388/513/342 396/527/342 397/525/342
f 401/521/364 400/524/364 408/529/364 409/530/364
f 399/523/365 398/528/365 406/531/365 407/532/365
f 397/525/366 396/527/366 404/533/366 405/534/366
f 395/520/367 394/519/367 402/535/367 403/536/367
f 394/522/368 401/521/368 409/530/368 402/537/368
f 400/524/369 399/523/369 407/532/369 408/529/369
f 398/526/370 397/525/370 405/534/370 406/538/370
f 396/527/371 395/520/371 403/536/371 404/533/371
f 404/533/341 403/536/341 411/539/341 412/540/341
f 409/530/347 408/529/347 416/541/347 417/542/347
f 407/532/344 406/531/344 414/543/344 415/544/344
f 405/534/342 404/533/342 412/540/342 413/545/342
f 403/536/340 402/535/340 410/546/340 411/539/340
f 402/537/348 409/530/348 417/542/348 410/547/348
f 408/529/345 407/532/345 415/544/345 416/541/345
f 406/538/343 405/534/343 413/545/343 414/548/343
f 410/547/372 417/542/372 425/549/372 418/550/372
f 416/541/372 415/544/372 423/551/372 424/552/372
f 414/548/372 413/545/372 421/553/372 422/554/372
f 412/540/372 411/539/372 419/555/372 420/556/372
f 417/542/372 416/541/372 424/552/372 425/549/372
f 415/544/372 414/543/372 422/557/372 423/551/372
f 413/545/372 412/540/372 420/556/372 421/553/372
f 411/539/372 410/546/372 418/558/372 419/555/372
f 421/553/342 420/556/342 428/559/342 429/560/342
f 419/555/340 418/558/340 426/561/340 427/562/340
f 418/550/348 425/549/348 433/563/348 426/564/348
f 424/552/345 423/551/345 431/565/345 432/566/345
f 422/554/343 421/553/343 429/560/343 430/567/343
f 420/556/341 419/555/341 427/562/341 428/559/341
f 425/549/347 424/552/347 432/566/347 433/563/347
f 423/551/344 422/557/344 430/568/344 431/565/344
f 433/563/373 432/566/373 440/569/373 441/570/373
f 431/565/374 430/568/374 438/571/374 439/572/374
f 429/560/375 428/559/375 436/573/375 437/574/375
f 427/562/376 426/561/376 434/575/376 435/576/376
f 426/564/377 433/563/377 441/570/377 434/577/377
f 432/566/378 431/565/378 439/572/378 440/569/378
f 430/567/379 429/560/379 437/574/379 438/578/379
f 428/559/380 427/562/380 435/576/380 436/573/380
f 438/578/381 437/574/381 442/579/381
f 436/573/382 435/576/382 442/579/382
f 441/570/383 440/569/383 442/580/383
f 439/572/384 438/571/384 442/580/384
f 437/574/385 436/573/385 442/579/385
f 435/576/386 434/575/386 442/579/386
f 434/577/387 441/570/387 442/580/387
f 440/569/388 439/572/388 442/580/388
o Plane
v 0.097644 5.270964 -0.000000
v 2.619474 5.270964 -0.000000
v 0.097644 7.064031 0.000000
v 2.619474 7.064031 0.000000
vn -0.0000 -0.0000 1.0000
vt 0.460693 0.022447
vt 0.844563 0.022447
vt 0.844563 0.295217
vt 0.460693 0.295217
s 0
usemtl Material.003
f 443/581/389 444/582/389 446/583/389 445/584/389
