# Blender 5.1.0
# www.blender.org
o LIGHTS!!.006
v -0.044912 -0.739589 0.752236
v -0.042550 -0.721131 -0.867613
v 0.325530 -0.665744 0.753619
v 0.327893 -0.647286 -0.866232
v 0.609415 -0.416582 0.756872
v 0.611777 -0.398124 -0.862978
v 0.730675 -0.058866 0.761124
v 0.733038 -0.040409 -0.858725
v 0.656819 0.311554 0.765237
v 0.659182 0.330011 -0.854611
v 0.407637 0.595425 0.768109
v 0.410000 0.613882 -0.851742
v 0.049896 0.716683 0.768970
v 0.052259 0.735141 -0.850881
v -0.320546 0.642838 0.767587
v -0.318184 0.661295 -0.852262
v -0.604431 0.393676 0.764334
v -0.602068 0.412134 -0.855517
v -0.725693 0.035961 0.760081
v -0.723328 0.054418 -0.859769
v -0.651836 -0.334460 0.755968
v -0.649472 -0.316001 -0.863882
v -0.402653 -0.618330 0.753096
v -0.400291 -0.599873 -0.866753
v -0.036308 -0.628192 -1.133816
v 0.288401 -0.563464 -1.132605
v 0.537238 -0.345064 -1.129752
v 0.643529 -0.031511 -1.126026
v 0.578790 0.293178 -1.122420
v 0.360371 0.542003 -1.119903
v 0.046797 0.648291 -1.119150
v -0.277912 0.583563 -1.120361
v -0.526748 0.365162 -1.123213
v -0.633038 0.051609 -1.126941
v -0.568300 -0.273079 -1.130546
v -0.349882 -0.521904 -1.133063
v -0.036930 -0.257734 -1.518360
v 0.110932 -0.228259 -1.517808
v 0.224246 -0.128805 -1.516510
v 0.272645 0.013976 -1.514812
v 0.243167 0.161830 -1.513170
v 0.143705 0.275137 -1.512024
v 0.000913 0.323538 -1.511681
v -0.146949 0.294062 -1.512233
v -0.260262 0.194610 -1.513531
v -0.308663 0.051827 -1.515228
v -0.279184 -0.096027 -1.516871
v -0.179722 -0.209334 -1.518017
v -0.052988 -0.862526 0.851143
v 0.379418 -0.776330 0.852756
v 0.710789 -0.485490 0.856553
v 0.852332 -0.067939 0.861517
v 0.766122 0.364441 0.866319
v 0.475259 0.695796 0.869671
v 0.057679 0.837337 0.870674
v -0.374728 0.751141 0.869061
v -0.706098 0.460301 0.865264
v -0.847642 0.042749 0.860300
v -0.761432 -0.389631 0.855498
v -0.470568 -0.720985 0.852146
v -0.060012 -0.968732 1.001298
v 0.425551 -0.871939 1.003109
v 0.797657 -0.545347 1.007373
v 0.956601 -0.076467 1.012947
v 0.859793 0.409066 1.018338
v 0.533173 0.781153 1.022102
v 0.064260 0.940094 1.023230
v -0.421301 0.843301 1.021418
v -0.793407 0.516709 1.017154
v -0.952351 0.047828 1.011579
v -0.855543 -0.437704 1.006188
v -0.528924 -0.809792 1.002424
v -0.048517 -0.793237 0.907851
v 0.348314 -0.714131 0.909332
v 0.652422 -0.447220 0.912816
v 0.782320 -0.064022 0.917371
v 0.703202 0.332785 0.921778
v 0.436270 0.636877 0.924854
v 0.053046 0.766774 0.925775
v -0.343785 0.687668 0.924294
v -0.647894 0.420758 0.920810
v -0.777792 0.037560 0.916254
v -0.698674 -0.359248 0.911848
v -0.431742 -0.663340 0.908772
v 0.002263 -0.013232 0.916813
v -0.018008 0.032902 -1.515020
vn -0.0650 -0.9978 -0.0115
vn 0.4427 -0.8966 -0.0096
vn 0.8317 -0.5552 -0.0051
vn 0.9979 -0.0650 0.0007
vn 0.8967 0.4426 0.0064
vn 0.5552 0.8317 0.0103
vn 0.0650 0.9978 0.0115
vn -0.4427 0.8966 0.0096
vn -0.8317 0.5552 0.0051
vn -0.9979 0.0650 -0.0007
vn -0.8967 -0.4426 -0.0064
vn -0.0611 -0.9419 -0.3303
vn -0.5256 -0.7844 -0.3292
vn -0.4806 -0.7204 -0.5000
vn -0.0533 -0.8592 -0.5089
vn -0.5552 -0.8317 -0.0103
vn 0.8502 0.4231 -0.3134
vn 0.9461 -0.0579 -0.3187
vn 0.8630 -0.0519 -0.5026
vn 0.7799 0.3875 -0.4916
vn 0.4200 -0.8460 -0.3285
vn 0.3841 -0.7680 -0.5125
vn 0.7886 -0.5225 -0.3243
vn 0.7181 -0.4733 -0.5102
vn -0.8492 -0.4158 -0.3254
vn -0.7836 -0.3846 -0.4879
vn -0.9451 0.0652 -0.3201
vn -0.8774 0.0609 -0.4760
vn -0.7877 0.5297 -0.3146
vn -0.7326 0.4946 -0.4677
vn -0.4190 0.8533 -0.3103
vn -0.3879 0.7955 -0.4656
vn 0.0620 0.9492 -0.3086
vn 0.0602 0.8805 -0.4701
vn 0.5266 0.7917 -0.3097
vn 0.4875 0.7295 -0.4797
vn 0.5973 -0.3894 -0.7011
vn 0.7211 -0.0345 -0.6919
vn -0.7660 0.0622 -0.6399
vn -0.6818 -0.3209 -0.6573
vn 0.0431 0.7673 -0.6398
vn -0.3438 0.6967 -0.6296
vn 0.6545 0.3386 -0.6760
vn -0.4185 -0.6057 -0.6768
vn -0.0531 -0.7192 -0.6928
vn 0.3163 -0.6386 -0.7015
vn -0.6422 0.4373 -0.6295
vn 0.4087 0.6335 -0.6570
vn 0.2822 -0.5605 -0.7786
vn 0.5292 -0.3437 -0.7758
vn 0.6214 -0.4065 -0.6698
vn 0.3312 -0.6612 -0.6731
vn -0.6325 0.0501 -0.7730
vn -0.5682 -0.2722 -0.7766
vn -0.6679 -0.3226 -0.6707
vn -0.7434 0.0561 -0.6665
vn -0.5269 0.3613 -0.7693
vn -0.6194 0.4217 -0.6622
vn -0.2799 0.5781 -0.7665
vn -0.3292 0.6764 -0.6589
vn 0.0424 0.6423 -0.7653
vn 0.0494 0.7519 -0.6574
vn 0.3536 0.5368 -0.7660
vn 0.4151 0.6279 -0.6583
vn 0.5704 0.2898 -0.7685
vn 0.6698 0.3378 -0.6613
vn 0.6347 -0.0325 -0.7721
vn 0.7453 -0.0409 -0.6655
vn -0.3514 -0.5192 -0.7791
vn -0.0401 -0.6247 -0.7798
vn -0.0475 -0.7367 -0.6745
vn -0.4132 -0.6128 -0.6737
vn 0.0543 0.8271 -0.5594
vn 0.4574 0.6904 -0.5604
vn 0.8215 -0.0470 -0.5683
vn 0.6848 -0.4501 -0.5731
vn -0.7366 -0.3575 -0.5741
vn -0.8198 0.0599 -0.5695
vn -0.3632 0.7439 -0.5610
vn 0.7383 0.3705 -0.5637
vn -0.4558 -0.6775 -0.5773
vn 0.3649 -0.7309 -0.5767
vn -0.0526 -0.8141 -0.5783
vn -0.6832 0.4631 -0.5647
vn -0.2674 -0.4086 0.8727
vn -0.0324 -0.4883 0.8721
vn -0.3999 0.2561 0.8800
vn -0.4796 0.0211 0.8772
vn 0.4770 -0.0411 0.8779
vn 0.4285 0.2022 0.8806
vn 0.2109 -0.4398 0.8730
vn -0.4311 -0.2222 0.8745
vn 0.2648 0.3886 0.8825
vn 0.0299 0.4683 0.8831
vn -0.2135 0.4198 0.8822
vn 0.3974 -0.2761 0.8751
vn -0.0015 -0.0114 0.9999
vn 0.0015 0.0114 -0.9999
vt 0.923873 0.713876
vt 0.909746 0.826062
vt 0.931726 0.833314
vt 0.953178 0.718574
vt 0.955964 0.845087
vt 0.982220 0.725607
vt 0.982222 0.725529
vt 0.955884 0.845070
vt 0.931714 0.833140
vt 0.953175 0.718554
vt 0.909577 0.826208
vt 0.923986 0.713644
vt 0.888230 0.822860
vt 0.894659 0.712201
vt 0.866370 0.823030
vt 0.866464 0.711906
vt 0.843421 0.827190
vt 0.837568 0.713192
vt 0.817788 0.835849
vt 0.809413 0.715659
vt 0.809260 0.715515
vt 0.817683 0.835567
vt 0.843679 0.827245
vt 0.837422 0.713395
vt 0.866513 0.822907
vt 0.866264 0.711917
vt 0.888257 0.822563
vt 0.887427 0.838143
vt 0.905338 0.841668
vt 0.894782 0.712295
vt 0.923715 0.849649
vt 0.905309 0.841873
vt 0.923580 0.849536
vt 0.942778 0.864002
vt 0.869015 0.838981
vt 0.942855 0.863898
vt 0.849710 0.844560
vt 0.827866 0.856702
vt 0.849582 0.844486
vt 0.828036 0.856898
vt 0.869024 0.839053
vt 0.887123 0.837756
vt 0.914997 0.884203
vt 0.908794 0.874619
vt 0.874874 0.874347
vt 0.882716 0.869010
vt 0.883013 0.868964
vt 0.874903 0.874128
vt 0.900716 0.869195
vt 0.892210 0.867305
vt 0.900569 0.869481
vt 0.908823 0.874636
vt 0.868694 0.883212
vt 0.891877 0.867364
vt 0.914956 0.884524
vt 0.868917 0.883105
vt 0.986095 0.711987
vt 0.955412 0.705944
vt 0.866450 0.700973
vt 0.836365 0.701515
vt 0.805874 0.703932
vt 0.806024 0.703696
vt 0.836510 0.701922
vt 0.866297 0.701064
vt 0.895187 0.701250
vt 0.925854 0.702845
vt 0.955228 0.705905
vt 0.925836 0.702856
vt 0.895370 0.701389
vt 0.986102 0.712336
vt 0.866346 0.689659
vt 0.895754 0.689285
vt 0.956568 0.694000
vt 0.991018 0.699107
vt 0.866355 0.689638
vt 0.836185 0.689337
vt 0.836109 0.689672
vt 0.926565 0.690716
vt 0.895833 0.689266
vt 0.956494 0.694232
vt 0.926459 0.690906
vt 0.803547 0.689277
vt 0.990955 0.699037
vt 0.803497 0.689260
vt 0.866028 0.676136
vt 0.895857 0.675153
vt 0.958063 0.679666
vt 0.989624 0.682442
vt 0.866150 0.676093
vt 0.837176 0.676449
vt 0.836886 0.676331
vt 0.927616 0.676771
vt 0.895881 0.675153
vt 0.957945 0.679925
vt 0.927677 0.676681
vt 0.807603 0.675280
vt 0.989590 0.682585
vt 0.807443 0.675153
vt 0.990479 0.992750
vt 0.977890 0.945765
vt 0.896510 0.992750
vt 0.896510 0.898305
vt 0.943495 0.910895
vt 0.896510 0.992275
vt 0.802540 0.992275
vt 0.815130 0.945290
vt 0.943495 0.911370
vt 0.977890 0.945290
vt 0.849525 0.910895
vt 0.896510 0.898780
vt 0.849525 0.911370
vt 0.815130 0.945765
vt 0.990479 0.992275
vt 0.802540 0.992750
vt 0.891549 0.887732
vt 0.891453 0.887762
s 1
f 1/1/1 2/2/1 4/3/2 3/4/2
f 3/4/2 4/3/2 6/5/3 5/6/3
f 5/7/3 6/8/3 8/9/4 7/10/4
f 7/10/4 8/9/4 10/11/5 9/12/5
f 9/12/5 10/11/5 12/13/6 11/14/6
f 11/14/6 12/13/6 14/15/7 13/16/7
f 13/16/7 14/15/7 16/17/8 15/18/8
f 15/18/8 16/17/8 18/19/9 17/20/9
f 17/21/9 18/22/9 20/23/10 19/24/10
f 19/24/10 20/23/10 22/25/11 21/26/11
f 2/2/12 24/27/13 36/28/14 25/29/15
f 21/26/11 22/25/11 24/27/16 23/30/16
f 23/30/16 24/27/16 2/2/1 1/1/1
f 10/11/17 8/9/18 28/31/19 29/32/20
f 4/3/21 2/2/12 25/29/15 26/33/22
f 8/9/18 6/8/23 27/34/24 28/31/19
f 24/27/13 22/25/25 35/35/26 36/28/14
f 6/5/23 4/3/21 26/33/22 27/36/24
f 22/25/25 20/23/27 34/37/28 35/35/26
f 20/23/27 18/22/29 33/38/30 34/37/28
f 18/19/29 16/17/31 32/39/32 33/40/30
f 16/17/31 14/15/33 31/41/34 32/39/32
f 14/15/33 12/13/35 30/42/36 31/41/34
f 12/13/35 10/11/17 29/32/20 30/42/36
f 28/31/19 27/34/24 39/43/37 40/44/38
f 35/35/26 34/37/28 46/45/39 47/46/40
f 32/39/32 31/41/34 43/47/41 44/48/42
f 29/32/20 28/31/19 40/44/38 41/49/43
f 36/28/14 35/35/26 47/46/40 48/50/44
f 26/33/22 25/29/15 37/51/45 38/52/46
f 33/40/30 32/39/32 44/48/42 45/53/47
f 30/42/36 29/32/20 41/49/43 42/54/48
f 25/29/15 36/28/14 48/50/44 37/51/45
f 27/36/24 26/33/22 38/52/46 39/55/37
f 34/37/28 33/38/30 45/56/47 46/45/39
f 31/41/34 30/42/36 42/54/48 43/47/41
f 3/4/49 5/6/50 51/57/51 50/58/52
f 19/24/53 21/26/54 59/59/55 58/60/56
f 17/21/57 19/24/53 58/60/56 57/61/58
f 15/18/59 17/20/57 57/62/58 56/63/60
f 13/16/61 15/18/59 56/63/60 55/64/62
f 11/14/63 13/16/61 55/64/62 54/65/64
f 9/12/65 11/14/63 54/65/64 53/66/66
f 7/10/67 9/12/65 53/66/66 52/67/68
f 23/30/69 1/1/70 49/68/71 60/69/72
f 1/1/70 3/4/49 50/58/52 49/68/71
f 5/7/50 7/10/67 52/67/68 51/70/51
f 21/26/54 23/30/69 60/69/72 59/59/55
f 54/65/64 55/64/62 67/71/73 66/72/74
f 51/70/51 52/67/68 64/73/75 63/74/76
f 58/60/56 59/59/55 71/75/77 70/76/78
f 55/64/62 56/63/60 68/77/79 67/71/73
f 52/67/68 53/66/66 65/78/80 64/73/75
f 59/59/55 60/69/72 72/79/81 71/75/77
f 49/68/71 50/58/52 62/80/82 61/81/83
f 56/63/60 57/62/58 69/82/84 68/77/79
f 53/66/66 54/65/64 66/72/74 65/78/80
f 60/69/72 49/68/71 61/81/83 72/79/81
f 50/58/52 51/57/51 63/83/76 62/80/82
f 57/61/58 58/60/56 70/76/78 69/84/84
f 66/72/85 67/71/86 79/85/86 78/86/85
f 63/74/87 64/73/88 76/87/88 75/88/87
f 70/76/89 71/75/90 83/89/90 82/90/89
f 67/71/86 68/77/91 80/91/91 79/85/86
f 64/73/88 65/78/92 77/92/92 76/87/88
f 71/75/90 72/79/93 84/93/93 83/89/90
f 61/81/94 62/80/95 74/94/95 73/95/94
f 68/77/91 69/82/96 81/96/96 80/91/91
f 65/78/92 66/72/85 78/86/85 77/92/92
f 72/79/93 61/81/94 73/95/94 84/93/93
f 62/80/95 63/83/87 75/97/87 74/94/95
f 69/84/96 70/76/89 82/90/89 81/98/96
f 81/99/97 82/100/97 85/101/97
f 78/102/97 79/103/97 85/104/97
f 75/105/97 76/106/97 85/104/97
f 82/100/97 83/107/97 85/101/97
f 79/103/97 80/108/97 85/104/97
f 76/106/97 77/109/97 85/104/97
f 83/107/97 84/110/97 85/101/97
f 73/111/97 74/112/97 85/101/97
f 80/108/97 81/113/97 85/104/97
f 77/109/97 78/102/97 85/104/97
f 84/110/97 73/111/97 85/101/97
f 74/112/97 75/114/97 85/101/97
f 40/44/98 39/43/98 86/115/98
f 47/46/98 46/45/98 86/116/98
f 44/48/98 43/47/98 86/115/98
f 41/49/98 40/44/98 86/115/98
f 48/50/98 47/46/98 86/116/98
f 38/52/98 37/51/98 86/116/98
f 45/53/98 44/48/98 86/115/98
f 42/54/98 41/49/98 86/115/98
f 37/51/98 48/50/98 86/116/98
f 39/55/98 38/52/98 86/116/98
f 46/45/98 45/56/98 86/116/98
f 43/47/98 42/54/98 86/115/98
