# Blender 5.1.0
# www.blender.org
mtllib photoshoot backdrop.mtl
o Cylinder
v -8.985174 1.935568 3.122849
v -8.985174 4.547190 3.122849
v -8.982621 1.935568 3.141708
v -8.982621 4.547190 3.141708
v -8.989841 1.935568 3.159317
v -8.989841 4.547190 3.159317
v -9.004896 1.935568 3.170957
v -9.004896 4.547190 3.170957
v -9.023755 1.935568 3.173510
v -9.023755 4.547190 3.173510
v -9.041364 1.935568 3.166291
v -9.041364 4.547190 3.166291
v -9.053004 1.935568 3.151235
v -9.053004 4.547190 3.151235
v -9.055556 1.935568 3.132376
v -9.055556 4.547190 3.132376
v -9.048338 1.935568 3.114768
v -9.048338 4.547190 3.114768
v -9.033282 1.935568 3.103127
v -9.033282 4.547190 3.103127
v -9.014423 1.935568 3.100575
v -9.014423 4.547190 3.100575
v -8.996815 1.935568 3.107793
v -8.996815 4.547190 3.107793
v -8.985174 0.613327 3.122849
v -8.985174 1.882874 3.122849
v -8.982621 1.882874 3.141708
v -8.989841 1.882874 3.159317
v -9.004896 1.882874 3.170957
v -9.023755 1.882874 3.173510
v -9.041364 1.882874 3.166291
v -9.053004 1.882874 3.151235
v -9.055556 1.882874 3.132376
v -9.048338 1.882874 3.114768
v -9.033282 1.882874 3.103127
v -9.014423 1.882874 3.100575
v -8.996815 1.882874 3.107793
v -8.924109 1.935966 3.097294
v -8.982621 0.613327 3.141708
v -8.989841 0.613327 3.159317
v -9.004896 0.613327 3.170957
v -9.023755 0.613327 3.173510
v -9.041364 0.613327 3.166291
v -9.053004 0.613327 3.151235
v -9.055556 0.613327 3.132376
v -9.048338 0.613327 3.114768
v -9.033282 0.613327 3.103127
v -9.014423 0.613327 3.100575
v -8.996815 0.613327 3.107793
v -8.545691 0.989692 3.731412
v -8.916959 1.935966 3.150110
v -8.937175 1.935966 3.199424
v -8.979341 1.935966 3.232023
v -9.032156 1.935966 3.239173
v -9.081470 1.935966 3.218956
v -9.114070 1.935966 3.176791
v -9.121219 1.935966 3.123976
v -9.101003 1.935966 3.074661
v -9.058837 1.935966 3.042062
v -9.006021 1.935966 3.034913
v -8.956707 1.935966 3.055129
v -8.924109 1.880906 3.097294
v -8.979341 1.880906 3.232023
v -9.032156 1.880906 3.239173
v -9.081470 1.880906 3.218956
v -9.114070 1.880906 3.176791
v -9.121219 1.880906 3.123976
v -9.101003 1.880906 3.074661
v -9.058837 1.880906 3.042062
v -8.916959 1.880906 3.150110
v -8.937175 1.880906 3.199424
v -9.006021 1.880906 3.034913
v -8.956707 1.880906 3.055129
v -8.985174 0.570261 3.122849
v -8.982621 0.570261 3.141708
v -8.989841 0.570261 3.159317
v -9.004896 0.570261 3.170957
v -9.023755 0.570261 3.173510
v -9.041364 0.570261 3.166291
v -9.053004 0.570261 3.151235
v -9.055556 0.570261 3.132376
v -9.048338 0.570261 3.114768
v -9.033282 0.570261 3.103127
v -9.014423 0.570261 3.100575
v -8.996815 0.570261 3.107793
v -9.019089 0.570261 3.137043
v -8.563053 0.989692 3.744835
v -9.770529 0.991229 3.249831
v -9.773472 0.991229 3.228084
v -8.741051 0.991229 2.429881
v -8.720744 0.991229 2.438205
v -8.545691 0.940029 3.731412
v -8.741051 0.938493 2.429881
v -8.720744 0.938493 2.438205
v -8.563053 0.940029 3.744835
v -9.770529 0.938493 3.249831
v -9.773472 0.938493 3.228084
v -8.401910 -0.033103 1.692636
v -8.410308 -0.032345 1.718250
v -8.077555 -0.033138 4.395858
v -8.097369 -0.032311 4.374081
v -8.053960 -0.032311 4.340520
v -8.037873 -0.033138 4.365179
v -8.444819 -0.033103 1.675045
v -8.456818 -0.032345 1.699184
v -10.536976 -0.032153 3.380731
v -10.547141 -0.032153 3.305634
v -10.577995 -0.033295 3.379862
v -10.586453 -0.033295 3.317378
v -8.948182 4.547192 3.107369
v -8.942844 4.547192 3.146797
v -8.957937 4.547192 3.183612
v -8.989414 4.547192 3.207948
v -9.028843 4.547192 3.213285
v -9.065657 4.547192 3.198193
v -9.089993 4.547192 3.166716
v -9.095330 4.547192 3.127287
v -9.080238 4.547192 3.090473
v -9.048761 4.547192 3.066137
v -9.009333 4.547192 3.060800
v -8.972518 4.547192 3.075892
v -8.948182 4.671377 3.107369
v -8.942844 4.671377 3.146797
v -8.957937 4.671377 3.183612
v -8.989414 4.671377 3.207948
v -9.028843 4.671377 3.213285
v -9.065657 4.671377 3.198193
v -9.089993 4.671377 3.166716
v -9.095330 4.671377 3.127287
v -9.080238 4.671377 3.090473
v -9.048761 4.671377 3.066137
v -9.009333 4.671377 3.060800
v -8.972518 4.671377 3.075892
v -9.019088 4.671377 3.137042
vn 0.9910 -0.0000 -0.1341
vn 0.9253 -0.0000 0.3793
vn 0.6116 -0.0000 0.7911
vn 0.1341 -0.0000 0.9910
vn -0.3793 -0.0000 0.9253
vn -0.7911 -0.0000 0.6117
vn -0.9910 -0.0000 0.1341
vn -0.9253 -0.0000 -0.3793
vn -0.6117 -0.0000 -0.7911
vn -0.1341 -0.0000 -0.9910
vn 0.3793 -0.0000 -0.9253
vn 0.7911 -0.0000 -0.6116
vn 0.0243 -0.9995 -0.0188
vn 0.0117 -0.9995 -0.0285
vn -0.0062 1.0000 0.0008
vn 0.0058 1.0000 0.0024
vn -0.0243 -0.9995 0.0188
vn -0.0038 1.0000 -0.0049
vn -0.0041 -0.9995 -0.0305
vn 0.4848 0.6097 0.6271
vn 0.0008 1.0000 0.0062
vn 0.0024 1.0000 -0.0058
vn 0.7799 -0.6170 -0.1056
vn 0.0041 -0.9995 0.0305
vn -0.6116 -0.0000 -0.7911
vn 0.4584 0.8866 -0.0620
vn -0.1321 -0.0000 -0.9912
vn 0.2781 -0.8906 0.3597
vn -0.7911 -0.0000 0.6116
vn 0.0049 1.0000 -0.0038
vn -0.0024 1.0000 0.0058
vn -0.4807 -0.6184 -0.6217
vn -0.0008 1.0000 -0.0062
vn 0.0038 1.0000 0.0049
vn 0.0285 -0.9995 0.0117
vn -0.0305 -0.9995 0.0041
vn -0.0058 1.0000 -0.0024
vn 0.0188 -0.9995 0.0243
vn 0.0062 1.0000 -0.0008
vn -0.0049 1.0000 0.0038
vn -0.0285 -0.9995 -0.0117
vn -0.0000 -1.0000 -0.0000
vn 0.7899 -0.0000 -0.6132
vn -0.7924 -0.0000 0.6101
vn -0.4491 -0.8914 0.0608
vn -0.1755 0.8866 0.4280
vn 0.1719 -0.8914 -0.4193
vn -0.9260 -0.0000 -0.3774
vn 0.1361 -0.0000 0.9907
vn 0.9245 -0.0000 0.3812
vn -0.2820 0.8873 -0.3648
vn -0.0107 -0.9996 0.0261
vn -0.0172 -0.9996 -0.0223
vn 0.0279 -0.9996 -0.0038
vn -0.8725 -0.1194 0.4738
vn -0.2980 -0.6187 0.7269
vn -0.7844 0.6111 0.1062
vn 0.3007 0.6094 -0.7336
vn 0.6782 -0.1194 -0.7251
vn -0.0296 -0.0726 -0.9969
vn 0.8412 -0.1271 0.5256
vn -0.9681 -0.1270 -0.2161
vn 0.2365 -0.0726 0.9689
vn -0.0000 1.0000 -0.0000
vt 0.681718 0.000268
vt 0.681718 0.820935
vt 0.675738 0.820935
vt 0.675738 0.000268
vt 0.669758 0.820935
vt 0.669758 0.000268
vt 0.663777 0.820935
vt 0.663778 0.000268
vt 0.657797 0.820935
vt 0.657797 0.000268
vt 0.651817 0.820935
vt 0.651817 0.000268
vt 0.723580 0.000268
vt 0.723579 0.820935
vt 0.717599 0.820935
vt 0.717599 0.000268
vt 0.711619 0.820935
vt 0.711619 0.000268
vt 0.705639 0.820935
vt 0.705639 0.000268
vt 0.699659 0.820935
vt 0.699659 0.000268
vt 0.693678 0.820935
vt 0.693678 0.000268
vt 0.687698 0.820935
vt 0.687698 0.000268
vt 0.848700 0.987303
vt 0.840782 0.989450
vt 0.826438 0.964768
vt 0.848611 0.958756
vt 0.844865 0.806785
vt 0.850768 0.810232
vt 0.843671 0.830732
vt 0.827960 0.823524
vt 0.856153 0.886065
vt 0.852846 0.880004
vt 0.870818 0.869687
vt 0.875678 0.880279
vt 0.844933 0.914010
vt 0.850877 0.910406
vt 0.865077 0.924975
vt 0.855452 0.933656
vt 0.904250 0.864424
vt 0.908733 0.869725
vt 0.894952 0.889567
vt 0.887110 0.875047
vt 0.848129 0.874749
vt 0.841961 0.870811
vt 0.852841 0.850537
vt 0.863612 0.859086
vt 0.857753 0.810873
vt 0.860852 0.835304
vt 0.418266 0.672859
vt 0.408894 0.672821
vt 0.422065 0.246775
vt 0.422703 0.246826
vt 0.855505 0.905648
vt 0.857576 0.899428
vt 0.877179 0.904414
vt 0.871959 0.915490
vt 0.835198 0.867734
vt 0.827815 0.867624
vt 0.821539 0.842720
vt 0.839446 0.845534
vt 0.396478 0.681451
vt 0.393071 0.681988
vt 0.420828 0.252160
vt 0.425224 0.252409
vt 0.904126 0.931753
vt 0.898457 0.935639
vt 0.883323 0.921738
vt 0.893574 0.908834
vt 0.961373 0.763645
vt 0.955393 0.763645
vt 0.955393 0.517064
vt 0.961373 0.517064
vt 0.931472 0.763645
vt 0.925492 0.763645
vt 0.925492 0.517064
vt 0.931472 0.517064
vt 0.985294 0.763645
vt 0.979314 0.763645
vt 0.979314 0.517064
vt 0.985294 0.517064
vt 0.967353 0.763645
vt 0.967353 0.517064
vt 0.937452 0.763645
vt 0.937452 0.517064
vt 0.991274 0.763645
vt 0.991274 0.517064
vt 0.973333 0.763645
vt 0.973333 0.517064
vt 0.943432 0.763645
vt 0.943432 0.517064
vt 0.949413 0.763645
vt 0.949413 0.517064
vt 0.919512 0.763645
vt 0.919512 0.517064
vt 0.924311 0.794219
vt 0.928221 0.801678
vt 0.911780 0.809555
vt 0.909977 0.802433
vt 0.651281 0.837167
vt 0.631786 0.837773
vt 0.630664 0.803337
vt 0.626786 0.000268
vt 0.877555 0.778830
vt 0.884728 0.775112
vt 0.893142 0.791343
vt 0.885970 0.795061
vt 0.919790 0.787359
vt 0.906661 0.796776
vt 0.896800 0.836956
vt 0.888421 0.837580
vt 0.887721 0.819406
vt 0.894956 0.820577
vt 0.912349 0.833721
vt 0.904872 0.835533
vt 0.901450 0.819781
vt 0.908248 0.816800
vt 0.864800 0.805107
vt 0.865313 0.796709
vt 0.883416 0.798262
vt 0.881888 0.805671
vt 0.915147 0.781201
vt 0.901213 0.791709
vt 0.629781 0.838855
vt 0.629443 0.806067
vt 0.864659 0.812985
vt 0.882486 0.813302
vt 0.728546 0.784517
vt 0.727115 0.784543
vt 0.726517 0.735496
vt 0.727918 0.735925
vt 0.876500 0.847415
vt 0.881965 0.863228
vt 0.878481 0.891909
vt 0.821539 0.941599
vt 0.841089 0.939746
vt 0.867092 0.947799
vt 0.875795 0.932483
vt 0.829949 0.915110
vt 0.837753 0.915890
vt 0.857840 0.892698
vt 0.399305 0.679883
vt 0.395920 0.680009
vt 0.420902 0.248843
vt 0.423795 0.249095
vt 0.895086 0.941676
vt 0.893573 0.948694
vt 0.902094 0.858004
vt 0.901906 0.851035
vt 0.896494 0.806586
vt 0.724115 0.000268
vt 0.729677 0.732214
vt 0.626250 0.841207
vt 0.622462 0.034900
vt 0.623654 0.032229
vt 0.624587 0.032499
vt 0.628493 0.805790
vt 0.724115 0.783048
vt 0.731505 0.782906
vt 0.628814 0.838871
vt 0.601823 0.001943
vt 0.621374 0.001339
vt 0.623327 0.000283
vt 0.624275 0.000268
vt 0.626250 0.001252
vt 0.626786 0.837859
vt 0.749737 0.782276
vt 0.433414 0.248895
vt 0.436449 0.248769
vt 0.429404 0.246775
vt 0.428781 0.246999
vt 0.423298 0.249142
vt 0.423134 0.249048
vt 0.431122 0.674854
vt 0.427796 0.674832
vt 0.415435 0.674306
vt 0.406126 0.674276
vt 0.449447 0.667685
vt 0.440174 0.667767
vt 0.427551 0.680009
vt 0.459049 0.674599
vt 0.424649 0.681493
vt 0.914680 0.863982
vt 0.917713 0.853975
vt 0.934507 0.857120
vt 0.932612 0.866383
vt 0.920926 0.844538
vt 0.936912 0.847743
vt 0.923833 0.835393
vt 0.939556 0.837645
vt 0.923437 0.825623
vt 0.942190 0.825351
vt 0.921237 0.815180
vt 0.943394 0.806785
vt 0.920512 0.941386
vt 0.921005 0.931457
vt 0.939344 0.930763
vt 0.940452 0.947802
vt 0.918357 0.921274
vt 0.936703 0.917850
vt 0.910282 0.886331
vt 0.912134 0.874725
vt 0.931430 0.875847
vt 0.931157 0.885690
vt 0.909269 0.898960
vt 0.932008 0.895999
vt 0.914159 0.910745
vt 0.933999 0.906633
vt 0.955926 0.883064
vt 0.957442 0.890036
vt 0.967564 0.849402
vt 0.962139 0.856461
vt 0.974416 0.914213
vt 0.991999 0.925605
vt 0.955675 0.876321
vt 0.960479 0.897340
vt 0.958666 0.863152
vt 0.991999 0.833025
vt 0.976394 0.841600
vt 0.965622 0.905214
vt 0.956580 0.869719
vt 0.987344 0.877657
s 0
usemtl Material.006
f 1/1/1 2/2/1 4/3/1 3/4/1
f 3/4/2 4/3/2 6/5/2 5/6/2
f 5/6/3 6/5/3 8/7/3 7/8/3
f 7/8/4 8/7/4 10/9/4 9/10/4
f 9/10/5 10/9/5 12/11/5 11/12/5
f 11/13/6 12/14/6 14/15/6 13/16/6
f 13/16/7 14/15/7 16/17/7 15/18/7
f 15/18/8 16/17/8 18/19/8 17/20/8
f 17/20/9 18/19/9 20/21/9 19/22/9
f 19/22/10 20/21/10 22/23/10 21/24/10
f 21/24/11 22/23/11 24/25/11 23/26/11
f 23/26/12 24/25/12 2/2/12 1/1/12
f 32/27/13 31/28/13 65/29/13 66/30/13
f 31/31/14 30/32/14 64/33/14 65/34/14
f 1/35/15 3/36/15 51/37/15 38/38/15
f 15/39/16 17/40/16 58/41/16 57/42/16
f 26/43/17 37/44/17 73/45/17 62/46/17
f 5/47/18 7/48/18 53/49/18 52/50/18
f 30/32/19 29/51/19 63/52/19 64/33/19
f 71/53/20 63/54/20 100/55/20 103/56/20
f 19/57/21 21/58/21 60/59/21 59/60/21
f 9/61/22 11/62/22 55/63/22 54/64/22
f 33/65/23 32/66/23 106/67/23 107/68/23
f 36/69/24 35/70/24 69/71/24 72/72/24
f 36/73/11 37/74/11 49/75/11 48/76/11
f 29/77/4 30/78/4 42/79/4 41/80/4
f 32/81/7 33/82/7 45/83/7 44/84/7
f 35/85/10 36/73/10 48/76/10 47/86/10
f 28/87/3 29/77/3 41/80/3 40/88/3
f 31/89/6 32/81/6 44/84/6 43/90/6
f 34/91/25 35/85/25 47/86/25 46/92/25
f 27/93/2 28/87/2 40/88/2 39/94/2
f 37/74/12 26/95/12 25/96/12 49/75/12
f 30/78/5 31/97/5 43/98/5 42/79/5
f 33/82/8 34/91/8 46/92/8 45/83/8
f 26/95/1 27/93/1 39/94/1 25/96/1
f 47/99/10 48/100/10 84/101/10 83/102/10
f 44/103/26 45/104/26 89/105/26 88/106/26
f 43/107/6 44/108/6 80/109/6 79/110/6
f 46/111/25 47/99/25 83/102/25 82/112/25
f 39/113/2 40/114/2 76/115/2 75/116/2
f 49/117/12 25/118/12 74/119/12 85/120/12
f 42/121/5 43/122/5 79/123/5 78/124/5
f 45/125/8 46/111/8 82/112/8 81/126/8
f 25/118/1 39/113/1 75/116/1 74/119/1
f 45/104/27 81/127/27 97/128/27 89/105/27
f 41/129/4 42/121/4 78/124/4 77/130/4
f 77/131/28 76/132/28 92/133/28 95/134/28
f 52/50/3 53/49/3 63/52/3 71/135/3
f 38/38/1 51/37/1 70/136/1 62/46/1
f 61/137/12 38/38/12 62/46/12 73/45/12
f 53/49/4 54/64/4 64/33/4 63/52/4
f 54/64/5 55/63/5 65/34/5 64/33/5
f 55/138/29 56/139/29 66/30/29 65/29/29
f 56/139/7 57/42/7 67/140/7 66/30/7
f 57/42/8 58/41/8 68/141/8 67/140/8
f 58/41/25 59/60/25 69/71/25 68/141/25
f 59/60/10 60/59/10 72/72/10 69/71/10
f 51/37/2 52/50/2 71/135/2 70/136/2
f 60/59/11 61/137/11 73/45/11 72/72/11
f 11/142/30 13/143/30 56/139/30 55/138/30
f 21/58/31 23/144/31 61/137/31 60/59/31
f 29/145/32 28/146/32 102/147/32 101/148/32
f 7/48/33 9/61/33 54/64/33 53/49/33
f 17/40/34 19/57/34 59/60/34 58/41/34
f 34/149/35 33/150/35 67/140/35 68/141/35
f 27/151/36 26/43/36 62/46/36 70/136/36
f 3/36/37 5/47/37 52/50/37 51/37/37
f 35/70/38 34/149/38 68/141/38 69/71/38
f 13/143/39 15/39/39 57/42/39 56/139/39
f 23/144/40 1/35/40 38/38/40 61/137/40
f 28/152/41 27/151/41 70/136/41 71/135/41
f 80/109/42 81/126/42 86/153/42
f 79/110/42 80/109/42 86/153/42
f 78/124/42 79/123/42 86/153/42
f 77/130/42 78/124/42 86/153/42
f 85/120/42 74/119/42 86/153/42
f 74/119/42 75/116/42 86/153/42
f 76/115/42 77/130/42 86/153/42
f 84/101/42 85/120/42 86/153/42
f 75/116/42 76/115/42 86/153/42
f 83/102/42 84/101/42 86/153/42
f 82/112/42 83/102/42 86/153/42
f 81/126/42 82/112/42 86/153/42
f 50/154/3 87/155/3 95/134/3 92/133/3
f 90/156/11 91/157/11 94/158/11 93/159/11
f 88/106/7 89/105/7 97/128/7 96/160/7
f 76/132/43 40/161/43 50/154/43 92/133/43
f 41/162/44 77/131/44 95/134/44 87/155/44
f 81/127/45 80/163/45 96/160/45 97/128/45
f 48/164/46 49/165/46 91/157/46 90/156/46
f 85/166/47 84/167/47 93/159/47 94/158/47
f 84/167/48 48/168/48 90/156/48 93/159/48
f 80/163/49 44/169/49 88/106/49 96/160/49
f 49/165/50 85/166/50 94/158/50 91/157/50
f 40/170/51 41/162/51 87/155/51 50/154/51
f 99/171/52 105/172/52 104/173/52 98/174/52
f 101/148/53 102/147/53 103/56/53 100/55/53
f 107/68/54 106/67/54 108/175/54 109/176/54
f 63/54/55 29/145/55 101/148/55 100/55/55
f 37/177/56 36/178/56 105/172/56 99/171/56
f 66/179/57 67/180/57 109/176/57 108/175/57
f 72/181/58 73/182/58 98/174/58 104/173/58
f 28/183/59 71/53/59 103/56/59 102/147/59
f 67/180/60 33/65/60 107/68/60 109/176/60
f 73/182/61 37/177/61 99/171/61 98/174/61
f 36/184/62 72/181/62 104/173/62 105/172/62
f 32/185/63 66/179/63 108/175/63 106/67/63
f 22/186/42 20/187/42 119/188/42 120/189/42
f 20/187/42 18/190/42 118/191/42 119/188/42
f 18/190/42 16/192/42 117/193/42 118/191/42
f 16/192/42 14/194/42 116/195/42 117/193/42
f 14/194/42 12/196/42 115/197/42 116/195/42
f 12/198/42 10/199/42 114/200/42 115/201/42
f 10/199/42 8/202/42 113/203/42 114/200/42
f 2/204/42 24/205/42 121/206/42 110/207/42
f 4/208/42 2/204/42 110/207/42 111/209/42
f 8/202/42 6/210/42 112/211/42 113/203/42
f 24/205/42 22/186/42 120/189/42 121/206/42
f 6/210/42 4/208/42 111/209/42 112/211/42
f 111/209/1 110/207/1 122/212/1 123/213/1
f 118/191/8 117/193/8 129/214/8 130/215/8
f 115/201/5 114/200/5 126/216/5 127/217/5
f 110/207/12 121/206/12 133/218/12 122/212/12
f 112/211/2 111/209/2 123/213/2 124/219/2
f 119/188/9 118/191/9 130/215/9 131/220/9
f 116/195/6 115/197/6 127/221/6 128/222/6
f 113/203/3 112/211/3 124/219/3 125/223/3
f 120/189/10 119/188/10 131/220/10 132/224/10
f 117/193/7 116/195/7 128/222/7 129/214/7
f 114/200/4 113/203/4 125/223/4 126/216/4
f 121/206/11 120/189/11 132/224/11 133/218/11
f 133/218/64 132/224/64 134/225/64
f 123/213/64 122/212/64 134/225/64
f 130/215/64 129/214/64 134/225/64
f 127/217/64 126/216/64 134/225/64
f 122/212/64 133/218/64 134/225/64
f 124/219/64 123/213/64 134/225/64
f 131/220/64 130/215/64 134/225/64
f 128/222/64 127/221/64 134/225/64
f 125/223/64 124/219/64 134/225/64
f 132/224/64 131/220/64 134/225/64
f 129/214/64 128/222/64 134/225/64
f 126/216/64 125/223/64 134/225/64
o photo_packdrop
v -9.091121 0.632230 2.814746
v -9.091032 4.599968 2.816054
v -9.091121 0.632230 -2.433379
v -9.091032 4.599968 -2.434350
v -9.139751 0.408530 2.814746
v -9.139751 0.408530 -2.433379
v -9.227286 0.233460 2.814746
v -9.227286 0.233460 -2.433379
v -9.373178 0.087568 2.814746
v -9.373178 0.087568 -2.433379
v -9.538522 0.009760 2.814746
v -9.538522 0.009760 -2.433379
v -11.535883 0.009760 2.814746
v -11.535883 0.009760 -2.433379
v -9.023957 4.575815 2.817361
v -9.023957 4.575815 -2.435322
v -9.008384 4.579988 2.817361
v -9.008384 4.579988 -2.435322
v -8.996984 4.591388 2.817361
v -8.996984 4.591388 -2.435322
v -8.992810 4.606961 2.817361
v -8.992810 4.606961 -2.435322
v -8.996984 4.622535 2.817361
v -8.996984 4.622534 -2.435322
v -9.008384 4.633935 2.817361
v -9.008384 4.633934 -2.435322
v -9.023957 4.638108 2.817361
v -9.023957 4.638108 -2.435322
v -9.039530 4.633935 2.817361
v -9.039530 4.633934 -2.435322
v -9.050931 4.622535 2.817361
v -9.050931 4.622534 -2.435322
v -9.055103 4.606961 2.817361
v -9.055103 4.606961 -2.435322
v -9.050931 4.591388 2.817361
v -9.050931 4.591388 -2.435322
v -9.039530 4.579988 2.817361
v -9.039530 4.579988 -2.435322
v -9.023957 4.575815 3.104739
v -9.008384 4.579988 3.104739
v -9.008384 4.579988 -2.722700
v -9.023957 4.575815 -2.722700
v -8.996984 4.591388 3.104739
v -8.996984 4.591388 -2.722700
v -8.992810 4.606961 3.104739
v -8.992810 4.606961 -2.722700
v -8.996984 4.622535 3.104739
v -8.996984 4.622534 -2.722700
v -9.008384 4.633935 3.104739
v -9.008384 4.633934 -2.722700
v -9.023957 4.638108 3.104739
v -9.023957 4.638108 -2.722700
v -9.039530 4.633935 3.104739
v -9.039530 4.633934 -2.722700
v -9.050931 4.622535 3.104739
v -9.050931 4.622534 -2.722700
v -9.055103 4.606961 3.104739
v -9.055103 4.606961 -2.722700
v -9.050931 4.591388 3.104739
v -9.050931 4.591388 -2.722700
v -9.039530 4.579988 3.104739
v -9.039530 4.579988 -2.722700
v -9.023957 4.539974 2.817361
v -8.990463 4.548949 2.817361
v -8.990463 4.548949 -2.435322
v -9.023957 4.539974 -2.435322
v -8.965944 4.573468 2.817361
v -8.965944 4.573468 -2.435322
v -8.956970 4.606961 2.817361
v -8.956970 4.606961 -2.435322
v -8.965944 4.640455 2.817361
v -8.965944 4.640455 -2.435322
v -8.990463 4.664974 2.817361
v -8.990463 4.664974 -2.435322
v -9.023957 4.673949 2.817361
v -9.023957 4.673949 -2.435322
v -9.057450 4.664974 2.817361
v -9.057450 4.664974 -2.435322
v -9.081970 4.640455 2.817361
v -9.081970 4.640455 -2.435322
v -9.081970 4.573468 2.817361
v -9.081970 4.573468 -2.435322
v -9.057450 4.548949 2.817361
v -9.057450 4.548948 -2.435322
vn -0.9943 0.1068 -0.0000
vn -0.8769 -0.0301 0.4798
vn -0.8752 -0.0304 -0.4829
vn -0.9431 0.3324 -0.0000
vn -0.8112 0.5847 -0.0000
vn -0.5750 0.8181 -0.0000
vn -0.2182 0.9759 -0.0000
vn -0.0000 1.0000 -0.0000
vn -0.0000 -0.6377 0.7703
vn -0.0000 -0.6377 -0.7703
vn 0.3189 -0.5523 0.7703
vn 0.3189 -0.5523 -0.7703
vn 0.5523 -0.3189 0.7703
vn 0.5523 -0.3189 -0.7703
vn 0.6377 -0.0000 0.7703
vn 0.6377 -0.0000 -0.7703
vn 0.5523 0.3189 0.7703
vn 0.5523 0.3189 -0.7703
vn 0.3189 0.5523 0.7703
vn 0.3189 0.5523 -0.7703
vn -0.0000 0.6377 0.7703
vn -0.0000 0.6377 -0.7703
vn -0.3189 0.5523 0.7703
vn -0.3189 0.5523 -0.7703
vn -0.5595 0.3111 0.7682
vn -0.5577 0.3131 -0.7687
vn -0.6491 -0.0000 0.7607
vn -0.6462 -0.0000 -0.7632
vn -0.5613 -0.3093 0.7677
vn -0.5590 -0.3118 -0.7684
vn -0.3189 -0.5523 0.7703
vn -0.3189 -0.5523 -0.7703
vn -0.0000 -1.0000 -0.0000
vn 0.5000 -0.8660 -0.0000
vn 0.8660 -0.5000 -0.0000
vn 1.0000 -0.0000 -0.0000
vn 0.8660 0.5000 -0.0000
vn 0.5000 0.8660 -0.0000
vn -0.5000 0.8660 -0.0000
vn -0.8660 0.5000 -0.0000
vn -1.0000 -0.0000 -0.0000
vn -0.8660 -0.5000 -0.0000
vn -0.5000 -0.8660 -0.0000
vn -0.0000 -0.7572 0.6532
vn 0.3786 -0.6557 0.6532
vn 0.3786 -0.6557 -0.6532
vn -0.0000 -0.7572 -0.6532
vn 0.6557 -0.3786 0.6532
vn 0.6557 -0.3786 -0.6532
vn 0.7572 -0.0000 0.6532
vn 0.7572 -0.0000 -0.6532
vn 0.6557 0.3786 0.6532
vn 0.6557 0.3786 -0.6532
vn 0.3786 0.6557 0.6532
vn 0.3786 0.6557 -0.6532
vn -0.0000 0.7572 0.6532
vn -0.0000 0.7572 -0.6532
vn -0.3786 0.6557 0.6532
vn -0.3786 0.6557 -0.6532
vn -0.6679 0.3601 0.6514
vn -0.6675 0.3617 -0.6509
vn -0.6399 -0.3885 0.6630
vn -0.6393 -0.3908 -0.6622
vn -0.3786 -0.6557 0.6532
vn -0.3786 -0.6557 -0.6532
vt 0.014252 0.784458
vt 0.014160 0.506036
vt 0.382588 0.506036
vt 0.382520 0.784458
vt 0.382520 0.800522
vt 0.014252 0.800522
vt 0.382520 0.814257
vt 0.014252 0.814257
vt 0.382520 0.828735
vt 0.014252 0.828735
vt 0.382520 0.841558
vt 0.014252 0.841558
vt 0.382520 0.981715
vt 0.014252 0.981715
vt 0.490465 0.980322
vt 0.483738 0.979884
vt 0.486677 0.973941
vt 0.495276 0.975008
vt 0.438005 0.978602
vt 0.431067 0.979245
vt 0.429487 0.973126
vt 0.437459 0.972870
vt 0.484825 0.726276
vt 0.490792 0.725229
vt 0.496086 0.730801
vt 0.487447 0.731819
vt 0.431847 0.726199
vt 0.438918 0.726799
vt 0.438465 0.732715
vt 0.430348 0.732459
vt 0.477171 0.979168
vt 0.469733 0.979662
vt 0.470184 0.973123
vt 0.478330 0.973403
vt 0.423920 0.979103
vt 0.418049 0.980096
vt 0.412854 0.974736
vt 0.421418 0.973697
vt 0.461416 0.980368
vt 0.453108 0.979702
vt 0.453466 0.972846
vt 0.461844 0.972957
vt 0.470554 0.726774
vt 0.477599 0.726156
vt 0.479220 0.732411
vt 0.471081 0.732687
vt 0.418619 0.725378
vt 0.424607 0.726371
vt 0.422167 0.731898
vt 0.413572 0.730913
vt 0.454735 0.725493
vt 0.463005 0.726190
vt 0.463042 0.732803
vt 0.454766 0.732836
vt 0.403391 0.691636
vt 0.403391 0.689258
vt 0.445775 0.689258
vt 0.445775 0.691636
vt 0.495645 0.981547
vt 0.502363 0.976221
vt 0.445303 0.979105
vt 0.445334 0.972791
vt 0.445775 0.672601
vt 0.445775 0.674978
vt 0.403391 0.674978
vt 0.403391 0.672601
vt 0.403391 0.674991
vt 0.403391 0.672613
vt 0.445775 0.672613
vt 0.445775 0.674991
vt 0.445775 0.684490
vt 0.445775 0.686867
vt 0.403391 0.686867
vt 0.403391 0.684490
vt 0.445775 0.696379
vt 0.445775 0.698757
vt 0.403391 0.698757
vt 0.403391 0.696379
vt 0.403391 0.686880
vt 0.403391 0.684502
vt 0.445775 0.684502
vt 0.445775 0.686880
vt 0.403391 0.698769
vt 0.403391 0.696391
vt 0.445775 0.696391
vt 0.445775 0.698769
vt 0.445775 0.679734
vt 0.445775 0.682112
vt 0.403391 0.682112
vt 0.403391 0.679734
vt 0.445775 0.691623
vt 0.445775 0.694001
vt 0.403391 0.694001
vt 0.403391 0.691623
vt 0.445775 0.677356
vt 0.403391 0.677356
vt 0.403391 0.682124
vt 0.403391 0.679747
vt 0.445775 0.679747
vt 0.445775 0.682124
vt 0.403391 0.694013
vt 0.445775 0.694013
vt 0.403391 0.677369
vt 0.445775 0.677369
vt 0.445775 0.689245
vt 0.403391 0.689245
vt 0.445775 0.670223
vt 0.403391 0.670223
vt 0.403391 0.670235
vt 0.445775 0.670235
vt 0.446492 0.732817
vt 0.402072 0.977115
vt 0.402072 0.728506
vt 0.503638 0.729485
vt 0.446470 0.726200
vt 0.413131 0.723747
vt 0.412780 0.981717
vt 0.496255 0.723875
s 1
usemtl Material.005
f 135/226/65 136/227/66 138/228/67 137/229/65
f 135/226/65 137/229/65 140/230/68 139/231/68
f 139/231/68 140/230/68 142/232/69 141/233/69
f 141/233/69 142/232/69 144/234/70 143/235/70
f 143/235/70 144/234/70 146/236/71 145/237/71
f 145/237/71 146/236/71 148/238/72 147/239/72
f 170/240/94 172/241/96 218/242/129 216/243/127
f 160/244/84 162/245/86 210/246/121 208/247/119
f 171/248/95 169/249/93 215/250/126 217/251/128
f 161/252/85 159/253/83 207/254/118 209/255/120
f 150/256/74 152/257/76 199/258/110 200/259/111
f 164/260/88 166/261/90 214/262/125 212/263/123
f 154/264/78 156/265/80 204/266/115 202/267/113
f 151/268/75 149/269/73 197/270/108 198/271/109
f 165/272/89 163/273/87 211/274/122 213/275/124
f 155/276/79 153/277/77 201/278/112 203/279/114
f 162/280/86 160/281/84 184/282/102 186/283/72
f 168/284/92 170/240/94 216/243/127 138/285/67
f 158/286/82 160/244/84 208/247/119 206/287/117
f 169/288/93 171/289/95 195/290/107 193/291/106
f 172/292/96 170/293/94 194/294/106 196/295/107
f 155/296/79 157/297/81 181/298/101 179/299/100
f 165/300/89 167/301/91 191/302/105 189/303/104
f 158/304/82 156/305/80 180/306/100 182/307/101
f 168/308/92 166/309/90 190/310/104 192/311/105
f 151/312/75 153/313/77 177/314/99 174/315/98
f 161/316/85 163/317/87 187/318/103 185/319/72
f 171/289/95 149/320/73 173/321/97 195/290/107
f 154/322/78 152/323/76 175/324/98 178/325/99
f 164/326/88 162/280/86 186/283/72 188/327/103
f 150/328/74 172/292/96 196/295/107 176/329/97
f 157/297/81 159/330/83 183/331/102 181/298/101
f 167/332/91 169/288/93 193/291/106 191/333/105
f 160/281/84 158/304/82 182/307/101 184/282/102
f 170/293/94 168/334/92 192/335/105 194/294/106
f 153/313/77 155/296/79 179/299/100 177/314/99
f 163/317/87 165/300/89 189/303/104 187/318/103
f 149/320/73 151/312/75 174/315/98 173/321/97
f 156/305/80 154/322/78 178/325/99 180/306/100
f 166/309/90 164/326/88 188/327/103 190/310/104
f 152/323/76 150/328/74 176/329/97 175/324/98
f 159/330/83 161/316/85 185/319/72 183/331/102
f 197/270/108 200/259/111 199/258/110 198/271/109
f 198/271/109 199/258/110 202/267/113 201/278/112
f 201/278/112 202/267/113 204/266/115 203/279/114
f 203/279/114 204/266/115 206/287/117 205/336/116
f 205/336/116 206/287/117 208/247/119 207/254/118
f 207/254/118 208/247/119 210/246/121 209/255/120
f 209/255/120 210/246/121 212/263/123 211/274/122
f 211/274/122 212/263/123 214/262/125 213/275/124
f 213/275/124 214/262/125 138/337/67 136/338/66
f 136/339/66 138/285/67 216/243/127 215/250/126
f 215/250/126 216/243/127 218/242/129 217/251/128
f 217/251/128 218/242/129 200/259/111 197/270/108
f 157/340/81 155/276/79 203/279/114 205/336/116
f 167/341/91 165/272/89 213/275/124 136/338/66
f 156/265/80 158/286/82 206/287/117 204/266/115
f 166/261/90 168/342/92 138/337/67 214/262/125
f 153/277/77 151/268/75 198/271/109 201/278/112
f 163/273/87 161/252/85 209/255/120 211/274/122
f 149/269/73 171/248/95 217/251/128 197/270/108
f 152/257/76 154/264/78 202/267/113 199/258/110
f 162/245/86 164/260/88 212/263/123 210/246/121
f 172/241/96 150/256/74 200/259/111 218/242/129
f 159/253/83 157/340/81 205/336/116 207/254/118
f 169/249/93 167/343/91 136/339/66 215/250/126
o Cylinder.001
v -8.985174 1.935568 -2.738296
v -8.985174 4.547190 -2.738296
v -8.982621 1.935568 -2.757155
v -8.982621 4.547190 -2.757155
v -8.989841 1.935568 -2.774764
v -8.989841 4.547190 -2.774764
v -9.004896 1.935568 -2.786404
v -9.004896 4.547190 -2.786404
v -9.023755 1.935568 -2.788957
v -9.023755 4.547190 -2.788957
v -9.041364 1.935568 -2.781738
v -9.041364 4.547190 -2.781738
v -9.053004 1.935568 -2.766682
v -9.053004 4.547190 -2.766682
v -9.055556 1.935568 -2.747823
v -9.055556 4.547190 -2.747823
v -9.048338 1.935568 -2.730215
v -9.048338 4.547190 -2.730215
v -9.033282 1.935568 -2.718575
v -9.033282 4.547190 -2.718575
v -9.014423 1.935568 -2.716022
v -9.014423 4.547190 -2.716022
v -8.996815 1.935568 -2.723240
v -8.996815 4.547190 -2.723240
v -8.985174 0.613327 -2.738296
v -8.985174 1.882874 -2.738296
v -8.982621 1.882874 -2.757155
v -8.989841 1.882874 -2.774764
v -9.004896 1.882874 -2.786404
v -9.023755 1.882874 -2.788957
v -9.041364 1.882874 -2.781738
v -9.053004 1.882874 -2.766682
v -9.055556 1.882874 -2.747823
v -9.048338 1.882874 -2.730215
v -9.033282 1.882874 -2.718575
v -9.014423 1.882874 -2.716022
v -8.996815 1.882874 -2.723240
v -8.924109 1.935966 -2.712741
v -8.982621 0.613327 -2.757155
v -8.989841 0.613327 -2.774764
v -9.004896 0.613327 -2.786404
v -9.023755 0.613327 -2.788957
v -9.041364 0.613327 -2.781738
v -9.053004 0.613327 -2.766682
v -9.055556 0.613327 -2.747823
v -9.048338 0.613327 -2.730215
v -9.033282 0.613327 -2.718575
v -9.014423 0.613327 -2.716022
v -8.996815 0.613327 -2.723240
v -8.545691 0.989692 -3.346859
v -8.916959 1.935966 -2.765557
v -8.937175 1.935966 -2.814871
v -8.979341 1.935966 -2.847470
v -9.032156 1.935966 -2.854620
v -9.081470 1.935966 -2.834403
v -9.114070 1.935966 -2.792238
v -9.121219 1.935966 -2.739423
v -9.101003 1.935966 -2.690108
v -9.058837 1.935966 -2.657509
v -9.006021 1.935966 -2.650360
v -8.956707 1.935966 -2.670576
v -8.924109 1.880906 -2.712741
v -8.979341 1.880906 -2.847470
v -9.032156 1.880906 -2.854620
v -9.081470 1.880906 -2.834403
v -9.114070 1.880906 -2.792238
v -9.121219 1.880906 -2.739423
v -9.101003 1.880906 -2.690108
v -9.058837 1.880906 -2.657509
v -8.916959 1.880906 -2.765557
v -8.937175 1.880906 -2.814871
v -9.006021 1.880906 -2.650360
v -8.956707 1.880906 -2.670576
v -8.985174 0.570261 -2.738296
v -8.982621 0.570261 -2.757155
v -8.989841 0.570261 -2.774764
v -9.004896 0.570261 -2.786404
v -9.023755 0.570261 -2.788957
v -9.041364 0.570261 -2.781738
v -9.053004 0.570261 -2.766682
v -9.055556 0.570261 -2.747823
v -9.048338 0.570261 -2.730215
v -9.033282 0.570261 -2.718575
v -9.014423 0.570261 -2.716022
v -8.996815 0.570261 -2.723240
v -9.019089 0.570261 -2.752490
v -8.563053 0.989692 -3.360282
v -9.770529 0.991229 -2.865278
v -9.773472 0.991229 -2.843530
v -8.741051 0.991229 -2.045328
v -8.720744 0.991229 -2.053652
v -8.545691 0.940029 -3.346859
v -8.741051 0.938493 -2.045328
v -8.720744 0.938493 -2.053652
v -8.563053 0.940029 -3.360282
v -9.770529 0.938493 -2.865278
v -9.773472 0.938493 -2.843530
v -8.401910 -0.033103 -1.308082
v -8.410308 -0.032345 -1.333697
v -8.077555 -0.033138 -4.011305
v -8.097369 -0.032311 -3.989528
v -8.053960 -0.032311 -3.955967
v -8.037873 -0.033138 -3.980626
v -8.444819 -0.033103 -1.290492
v -8.456818 -0.032345 -1.314630
v -10.536976 -0.032153 -2.996178
v -10.547141 -0.032153 -2.921081
v -10.577995 -0.033295 -2.995309
v -10.586453 -0.033295 -2.932825
v -8.948182 4.547192 -2.722816
v -8.942844 4.547192 -2.762244
v -8.957937 4.547192 -2.799058
v -8.989414 4.547192 -2.823395
v -9.028843 4.547192 -2.828732
v -9.065657 4.547192 -2.813640
v -9.089993 4.547192 -2.782163
v -9.095330 4.547192 -2.742734
v -9.080238 4.547192 -2.705920
v -9.048761 4.547192 -2.681584
v -9.009333 4.547192 -2.676247
v -8.972518 4.547192 -2.691339
v -8.948182 4.671377 -2.722816
v -8.942844 4.671377 -2.762244
v -8.957937 4.671377 -2.799058
v -8.989414 4.671377 -2.823395
v -9.028843 4.671377 -2.828732
v -9.065657 4.671377 -2.813640
v -9.089993 4.671377 -2.782163
v -9.095330 4.671377 -2.742734
v -9.080238 4.671377 -2.705920
v -9.048761 4.671377 -2.681584
v -9.009333 4.671377 -2.676247
v -8.972518 4.671377 -2.691339
v -9.019088 4.671377 -2.752489
vn 0.9910 -0.0000 0.1341
vn 0.9253 -0.0000 -0.3793
vn 0.6116 -0.0000 -0.7911
vn 0.1341 -0.0000 -0.9910
vn -0.3793 -0.0000 -0.9253
vn -0.7911 -0.0000 -0.6117
vn -0.9910 -0.0000 -0.1341
vn -0.9253 -0.0000 0.3793
vn -0.6117 -0.0000 0.7911
vn -0.1341 -0.0000 0.9910
vn 0.3793 -0.0000 0.9253
vn 0.7911 -0.0000 0.6116
vn 0.0243 -0.9995 0.0188
vn 0.0117 -0.9995 0.0285
vn -0.0062 1.0000 -0.0008
vn 0.0058 1.0000 -0.0024
vn -0.0243 -0.9995 -0.0188
vn -0.0038 1.0000 0.0049
vn -0.0041 -0.9995 0.0305
vn 0.4848 0.6097 -0.6271
vn 0.0008 1.0000 -0.0062
vn 0.0024 1.0000 0.0058
vn 0.7799 -0.6170 0.1056
vn 0.0041 -0.9995 -0.0305
vn -0.6116 -0.0000 0.7911
vn 0.4584 0.8866 0.0620
vn -0.1321 -0.0000 0.9912
vn 0.2781 -0.8906 -0.3597
vn -0.7911 -0.0000 -0.6116
vn 0.0049 1.0000 0.0038
vn -0.0024 1.0000 -0.0058
vn -0.4807 -0.6184 0.6217
vn -0.0008 1.0000 0.0062
vn 0.0038 1.0000 -0.0049
vn 0.0285 -0.9995 -0.0117
vn -0.0305 -0.9995 -0.0041
vn -0.0058 1.0000 0.0024
vn 0.0188 -0.9995 -0.0243
vn 0.0062 1.0000 0.0008
vn -0.0049 1.0000 -0.0038
vn -0.0285 -0.9995 0.0117
vn -0.0000 -1.0000 -0.0000
vn 0.7899 -0.0000 0.6132
vn -0.7924 -0.0000 -0.6101
vn -0.4491 -0.8914 -0.0608
vn -0.1755 0.8866 -0.4280
vn 0.1719 -0.8914 0.4193
vn -0.9260 -0.0000 0.3774
vn 0.1361 -0.0000 -0.9907
vn 0.9245 -0.0000 -0.3812
vn -0.2820 0.8873 0.3648
vn -0.0107 -0.9996 -0.0261
vn -0.0172 -0.9996 0.0223
vn 0.0279 -0.9996 0.0038
vn -0.8725 -0.1194 -0.4738
vn -0.2980 -0.6187 -0.7269
vn -0.7844 0.6111 -0.1062
vn 0.3007 0.6094 0.7336
vn 0.6782 -0.1194 0.7251
vn -0.0296 -0.0726 0.9969
vn 0.8412 -0.1271 -0.5256
vn -0.9681 -0.1270 0.2161
vn 0.2365 -0.0726 -0.9689
vn -0.0000 1.0000 -0.0000
vt 0.943929 0.000268
vt 0.943929 0.336506
vt 0.941479 0.336506
vt 0.941479 0.000268
vt 0.939028 0.336506
vt 0.939028 0.000268
vt 0.936578 0.336506
vt 0.936578 0.000268
vt 0.934128 0.336506
vt 0.934128 0.000268
vt 0.931678 0.336506
vt 0.931678 0.000268
vt 0.961080 0.000268
vt 0.961080 0.336506
vt 0.958630 0.336506
vt 0.958630 0.000268
vt 0.956179 0.336506
vt 0.956180 0.000268
vt 0.953729 0.336506
vt 0.953729 0.000268
vt 0.951279 0.336506
vt 0.951279 0.000268
vt 0.948829 0.336506
vt 0.948829 0.000268
vt 0.946379 0.336506
vt 0.946379 0.000268
vt 0.848669 0.987700
vt 0.840705 0.989859
vt 0.826275 0.965032
vt 0.848579 0.958984
vt 0.844811 0.806120
vt 0.850749 0.809588
vt 0.843610 0.830209
vt 0.827807 0.822958
vt 0.856166 0.885866
vt 0.852839 0.879770
vt 0.870916 0.869392
vt 0.875806 0.880046
vt 0.844880 0.913975
vt 0.850859 0.910350
vt 0.865142 0.925005
vt 0.855460 0.933737
vt 0.904546 0.864098
vt 0.909055 0.869430
vt 0.895193 0.889389
vt 0.887304 0.874784
vt 0.848094 0.874484
vt 0.841890 0.870523
vt 0.852834 0.850129
vt 0.863668 0.858728
vt 0.857775 0.810232
vt 0.860892 0.834807
vt 0.869475 0.379985
vt 0.861173 0.380053
vt 0.856121 0.002556
vt 0.856700 0.002748
vt 0.855514 0.905564
vt 0.857597 0.899308
vt 0.877315 0.904324
vt 0.872065 0.915465
vt 0.835087 0.867428
vt 0.827661 0.867317
vt 0.821348 0.842266
vt 0.839361 0.845097
vt 0.779964 0.406948
vt 0.776813 0.407382
vt 0.750273 0.003730
vt 0.754383 0.003153
vt 0.904421 0.931823
vt 0.898718 0.935732
vt 0.883496 0.921749
vt 0.893806 0.908770
vt 0.961333 0.763164
vt 0.955326 0.763164
vt 0.955326 0.517430
vt 0.961333 0.517430
vt 0.931301 0.763164
vt 0.925295 0.763164
vt 0.925295 0.517430
vt 0.931301 0.517430
vt 0.985358 0.763164
vt 0.979351 0.763164
vt 0.979351 0.517430
vt 0.985358 0.517430
vt 0.967339 0.763164
vt 0.967339 0.517430
vt 0.937307 0.763164
vt 0.937307 0.517430
vt 0.991364 0.763164
vt 0.991364 0.517430
vt 0.973345 0.763164
vt 0.973345 0.517430
vt 0.943314 0.763164
vt 0.943314 0.517430
vt 0.949320 0.763164
vt 0.949320 0.517430
vt 0.919289 0.763164
vt 0.919289 0.517430
vt 0.924347 0.793998
vt 0.928267 0.801476
vt 0.911783 0.809374
vt 0.909976 0.802233
vt 0.912179 0.336244
vt 0.910190 0.336253
vt 0.910190 0.000268
vt 0.911694 0.279545
vt 0.877470 0.778569
vt 0.884661 0.774841
vt 0.893097 0.791114
vt 0.885906 0.794842
vt 0.919815 0.787120
vt 0.906651 0.796561
vt 0.896764 0.836846
vt 0.888364 0.837472
vt 0.887662 0.819250
vt 0.894916 0.820424
vt 0.912354 0.833602
vt 0.904857 0.835420
vt 0.901427 0.819627
vt 0.908242 0.816637
vt 0.864681 0.804914
vt 0.865196 0.796494
vt 0.883346 0.798052
vt 0.881813 0.805479
vt 0.915159 0.780946
vt 0.901189 0.791482
vt 0.920394 0.336078
vt 0.917122 0.337848
vt 0.915943 0.283193
vt 0.864541 0.812812
vt 0.882414 0.813131
vt 0.969009 0.309867
vt 0.967299 0.309906
vt 0.966096 0.251586
vt 0.967604 0.251355
vt 0.876633 0.846989
vt 0.882129 0.862895
vt 0.878625 0.891745
vt 0.821348 0.941727
vt 0.841013 0.939863
vt 0.867169 0.947963
vt 0.875923 0.932557
vt 0.829807 0.915082
vt 0.837657 0.915867
vt 0.857862 0.892539
vt 0.880992 0.386409
vt 0.877988 0.386217
vt 0.855263 0.004707
vt 0.857817 0.004428
vt 0.895328 0.941805
vt 0.893805 0.948863
vt 0.902377 0.857640
vt 0.902187 0.850630
vt 0.896458 0.806397
vt 0.963213 0.247961
vt 0.961616 0.000268
vt 0.929637 0.058660
vt 0.931142 0.337613
vt 0.925389 0.055013
vt 0.926793 0.054811
vt 0.914534 0.283390
vt 0.963728 0.308161
vt 0.972495 0.307963
vt 0.915521 0.337881
vt 0.929152 0.001906
vt 0.931142 0.001898
vt 0.924207 0.000299
vt 0.925807 0.000268
vt 0.920930 0.002070
vt 0.961616 0.308171
vt 0.884000 0.001916
vt 0.881695 0.002142
vt 0.883093 0.000268
vt 0.882518 0.000308
vt 0.752324 0.000593
vt 0.752137 0.000268
vt 0.852965 0.386409
vt 0.909655 0.382871
vt 0.906686 0.383161
vt 0.767763 0.401382
vt 0.758991 0.402119
vt 0.898164 0.377368
vt 0.889865 0.377833
vt 0.750273 0.409675
vt 0.881695 0.384593
vt 0.914910 0.863953
vt 0.917942 0.853952
vt 0.934725 0.857095
vt 0.932831 0.866352
vt 0.921152 0.844522
vt 0.937128 0.847725
vt 0.924057 0.835383
vt 0.939771 0.837633
vt 0.923662 0.825619
vt 0.942403 0.825347
vt 0.921463 0.815182
vt 0.943606 0.806793
vt 0.920739 0.941307
vt 0.921231 0.931384
vt 0.939558 0.930690
vt 0.940666 0.947719
vt 0.918585 0.921208
vt 0.936919 0.917786
vt 0.910515 0.886287
vt 0.912366 0.874689
vt 0.931650 0.875810
vt 0.931377 0.885646
vt 0.909503 0.898908
vt 0.932228 0.895949
vt 0.914390 0.910686
vt 0.934217 0.906576
vt 0.956130 0.883022
vt 0.957645 0.889990
vt 0.967760 0.849382
vt 0.962338 0.856437
vt 0.974608 0.914151
vt 0.992179 0.925536
vt 0.955879 0.876284
vt 0.960680 0.897289
vt 0.958868 0.863123
vt 0.992180 0.833016
vt 0.976584 0.841585
vt 0.965820 0.905158
vt 0.956783 0.869686
vt 0.987527 0.877619
s 0
f 219/344/130 221/347/130 222/346/130 220/345/130
f 221/347/131 223/349/131 224/348/131 222/346/131
f 223/349/132 225/351/132 226/350/132 224/348/132
f 225/351/133 227/353/133 228/352/133 226/350/133
f 227/353/134 229/355/134 230/354/134 228/352/134
f 229/356/135 231/359/135 232/358/135 230/357/135
f 231/359/136 233/361/136 234/360/136 232/358/136
f 233/361/137 235/363/137 236/362/137 234/360/137
f 235/363/138 237/365/138 238/364/138 236/362/138
f 237/365/139 239/367/139 240/366/139 238/364/139
f 239/367/140 241/369/140 242/368/140 240/366/140
f 241/369/141 219/344/141 220/345/141 242/368/141
f 250/370/142 284/373/142 283/372/142 249/371/142
f 249/374/143 283/377/143 282/376/143 248/375/143
f 219/378/144 256/381/144 269/380/144 221/379/144
f 233/382/145 275/385/145 276/384/145 235/383/145
f 244/386/146 280/389/146 291/388/146 255/387/146
f 223/390/147 270/393/147 271/392/147 225/391/147
f 248/375/148 282/376/148 281/395/148 247/394/148
f 289/396/149 321/399/149 318/398/149 281/397/149
f 237/400/150 277/403/150 278/402/150 239/401/150
f 227/404/151 272/407/151 273/406/151 229/405/151
f 251/408/152 325/411/152 324/410/152 250/409/152
f 254/412/153 290/415/153 287/414/153 253/413/153
f 254/416/140 266/419/140 267/418/140 255/417/140
f 247/420/133 259/423/133 260/422/133 248/421/133
f 250/424/136 262/427/136 263/426/136 251/425/136
f 253/428/139 265/429/139 266/419/139 254/416/139
f 246/430/132 258/431/132 259/423/132 247/420/132
f 249/432/135 261/433/135 262/427/135 250/424/135
f 252/434/154 264/435/154 265/429/154 253/428/154
f 245/436/131 257/437/131 258/431/131 246/430/131
f 255/417/141 267/418/141 243/439/141 244/438/141
f 248/421/134 260/422/134 261/441/134 249/440/134
f 251/425/137 263/426/137 264/435/137 252/434/137
f 244/438/130 243/439/130 257/437/130 245/436/130
f 265/442/139 301/445/139 302/444/139 266/443/139
f 262/446/155 306/449/155 307/448/155 263/447/155
f 261/450/135 297/453/135 298/452/135 262/451/135
f 264/454/154 300/455/154 301/445/154 265/442/154
f 257/456/131 293/459/131 294/458/131 258/457/131
f 267/460/141 303/463/141 292/462/141 243/461/141
f 260/464/134 296/467/134 297/466/134 261/465/134
f 263/468/137 299/469/137 300/455/137 264/454/137
f 243/461/130 292/462/130 293/459/130 257/456/130
f 263/470/156 307/448/156 315/472/156 299/471/156
f 259/473/133 295/474/133 296/467/133 260/464/133
f 295/475/157 313/478/157 310/477/157 294/476/157
f 270/393/132 289/479/132 281/395/132 271/392/132
f 256/381/130 280/389/130 288/480/130 269/380/130
f 279/481/141 291/388/141 280/389/141 256/381/141
f 271/392/133 281/395/133 282/376/133 272/407/133
f 272/407/134 282/376/134 283/377/134 273/406/134
f 273/482/158 283/372/158 284/373/158 274/483/158
f 274/483/136 284/373/136 285/484/136 275/385/136
f 275/385/137 285/484/137 286/485/137 276/384/137
f 276/384/154 286/485/154 287/414/154 277/403/154
f 277/403/139 287/414/139 290/415/139 278/402/139
f 269/380/131 288/480/131 289/479/131 270/393/131
f 278/402/140 290/415/140 291/388/140 279/481/140
f 229/486/159 273/482/159 274/483/159 231/487/159
f 239/401/160 278/402/160 279/481/160 241/488/160
f 247/489/161 319/492/161 320/491/161 246/490/161
f 225/391/162 271/392/162 272/407/162 227/404/162
f 235/383/163 276/384/163 277/403/163 237/400/163
f 252/493/164 286/485/164 285/484/164 251/494/164
f 245/495/165 288/480/165 280/389/165 244/386/165
f 221/379/166 269/380/166 270/393/166 223/390/166
f 253/413/167 287/414/167 286/485/167 252/493/167
f 231/487/168 274/483/168 275/385/168 233/382/168
f 241/488/169 279/481/169 256/381/169 219/378/169
f 246/496/170 289/479/170 288/480/170 245/495/170
f 298/452/171 304/497/171 299/469/171
f 297/453/171 304/497/171 298/452/171
f 296/467/171 304/497/171 297/466/171
f 295/474/171 304/497/171 296/467/171
f 303/463/171 304/497/171 292/462/171
f 292/462/171 304/497/171 293/459/171
f 294/458/171 304/497/171 295/474/171
f 302/444/171 304/497/171 303/463/171
f 293/459/171 304/497/171 294/458/171
f 301/445/171 304/497/171 302/444/171
f 300/455/171 304/497/171 301/445/171
f 299/469/171 304/497/171 300/455/171
f 268/498/132 310/477/132 313/478/132 305/499/132
f 308/500/140 311/503/140 312/502/140 309/501/140
f 306/449/136 314/504/136 315/472/136 307/448/136
f 294/476/172 310/477/172 268/498/172 258/505/172
f 259/506/173 305/499/173 313/478/173 295/475/173
f 299/471/174 315/472/174 314/504/174 298/507/174
f 266/508/175 308/500/175 309/501/175 267/509/175
f 303/510/176 312/502/176 311/503/176 302/511/176
f 302/511/177 311/503/177 308/500/177 266/508/177
f 298/507/178 314/504/178 306/449/178 262/446/178
f 267/512/179 309/501/179 312/502/179 303/510/179
f 258/505/180 268/498/180 305/499/180 259/513/180
f 317/514/181 316/517/181 322/516/181 323/515/181
f 319/492/182 318/398/182 321/399/182 320/491/182
f 325/411/183 327/519/183 326/518/183 324/410/183
f 281/397/184 318/398/184 319/492/184 247/520/184
f 255/521/185 317/514/185 323/515/185 254/522/185
f 284/523/186 326/518/186 327/519/186 285/524/186
f 290/525/187 322/516/187 316/517/187 291/526/187
f 246/490/188 320/491/188 321/399/188 289/396/188
f 285/524/189 327/519/189 325/411/189 251/527/189
f 291/526/190 316/517/190 317/514/190 255/528/190
f 254/522/191 323/515/191 322/516/191 290/525/191
f 250/409/192 324/410/192 326/518/192 284/523/192
f 240/529/171 338/532/171 337/531/171 238/530/171
f 238/530/171 337/531/171 336/534/171 236/533/171
f 236/533/171 336/534/171 335/536/171 234/535/171
f 234/535/171 335/536/171 334/538/171 232/537/171
f 232/537/171 334/538/171 333/540/171 230/539/171
f 230/541/171 333/544/171 332/543/171 228/542/171
f 228/542/171 332/543/171 331/546/171 226/545/171
f 220/547/171 328/550/171 339/549/171 242/548/171
f 222/551/171 329/552/171 328/550/171 220/547/171
f 226/545/171 331/546/171 330/554/171 224/553/171
f 242/548/171 339/549/171 338/532/171 240/529/171
f 224/553/171 330/554/171 329/552/171 222/551/171
f 329/552/130 341/556/130 340/555/130 328/550/130
f 336/534/137 348/558/137 347/557/137 335/536/137
f 333/544/134 345/560/134 344/559/134 332/543/134
f 328/550/141 340/555/141 351/561/141 339/549/141
f 330/554/131 342/562/131 341/556/131 329/552/131
f 337/531/138 349/563/138 348/558/138 336/534/138
f 334/538/135 346/565/135 345/564/135 333/540/135
f 331/546/132 343/566/132 342/562/132 330/554/132
f 338/532/139 350/567/139 349/563/139 337/531/139
f 335/536/136 347/557/136 346/565/136 334/538/136
f 332/543/133 344/559/133 343/566/133 331/546/133
f 339/549/140 351/561/140 350/567/140 338/532/140
f 351/561/193 352/568/193 350/567/193
f 341/556/193 352/568/193 340/555/193
f 348/558/193 352/568/193 347/557/193
f 345/560/193 352/568/193 344/559/193
f 340/555/193 352/568/193 351/561/193
f 342/562/193 352/568/193 341/556/193
f 349/563/193 352/568/193 348/558/193
f 346/565/193 352/568/193 345/564/193
f 343/566/193 352/568/193 342/562/193
f 350/567/193 352/568/193 349/563/193
f 347/557/193 352/568/193 346/565/193
f 344/559/193 352/568/193 343/566/193
