# Blender 5.0.1
# www.blender.org
mtllib stone bench.mtl
o stone_bench
v -5.556783 0.568422 -3.181669
v -5.556783 0.691240 -3.181669
v -5.556783 0.568422 -4.348702
v -5.556783 0.691240 -4.348702
v -4.629494 0.568422 -3.181669
v -4.629494 0.691240 -3.181669
v -4.629494 0.568422 -4.348702
v -4.629494 0.691240 -4.348702
v -5.428416 0.568422 -3.867026
v -5.428416 0.568422 -3.278658
v -4.757859 0.568422 -3.867026
v -4.757859 0.568422 -3.278658
v -5.401163 0.517590 -3.843113
v -5.401163 0.517590 -3.302571
v -4.785113 0.517590 -3.843113
v -4.785113 0.517590 -3.302571
v -5.324773 0.517590 -3.776085
v -5.324773 0.517590 -3.369599
v -4.861504 0.517590 -3.776085
v -4.861504 0.517590 -3.369599
v -5.324773 0.486352 -3.776085
v -5.324773 0.486352 -3.369599
v -4.861504 0.486352 -3.776085
v -4.861504 0.486352 -3.369599
v -5.268125 0.404877 -3.726381
v -5.268125 0.404877 -3.419303
v -4.918152 0.404877 -3.726381
v -4.918152 0.404877 -3.419303
v -5.268125 0.153433 -3.726381
v -5.268125 0.153433 -3.419303
v -4.918152 0.153433 -3.726381
v -4.918152 0.153433 -3.419303
v -5.309044 0.153433 -3.762285
v -5.309044 0.153433 -3.383399
v -4.877232 0.153433 -3.762285
v -4.877232 0.153433 -3.383399
v -5.323056 0.120537 -3.774580
v -5.323056 0.120537 -3.371104
v -4.863219 0.120537 -3.774580
v -4.863219 0.120537 -3.371104
v -5.365230 0.120537 -3.811584
v -5.365230 0.120537 -3.334100
v -4.821047 0.120537 -3.811584
v -4.821047 0.120537 -3.334100
v -5.404969 0.073815 -3.846453
v -5.404969 0.073815 -3.299231
v -4.781306 0.073815 -3.846453
v -4.781306 0.073815 -3.299231
v -5.404969 0.000511 -3.846453
v -5.404969 0.000511 -3.299231
v -4.781306 0.000511 -3.846453
v -4.781306 0.000511 -3.299231
v -5.556783 0.568422 -5.515738
v -5.556783 0.691240 -5.515738
v -4.629494 0.568422 -5.515738
v -4.629494 0.691240 -5.515738
v -5.428416 0.568422 -4.830380
v -5.428416 0.568422 -5.418748
v -4.757859 0.568422 -4.830380
v -4.757859 0.568422 -5.418748
v -5.401163 0.517590 -4.854293
v -5.401163 0.517590 -5.394835
v -4.785113 0.517590 -4.854293
v -4.785113 0.517590 -5.394835
v -5.324773 0.517590 -4.921320
v -5.324773 0.517590 -5.327807
v -4.861504 0.517590 -4.921320
v -4.861504 0.517590 -5.327807
v -5.324773 0.486352 -4.921320
v -5.324773 0.486352 -5.327807
v -4.861504 0.486352 -4.921320
v -4.861504 0.486352 -5.327807
v -5.268125 0.404877 -4.971025
v -5.268125 0.404877 -5.278102
v -4.918152 0.404877 -4.971025
v -4.918152 0.404877 -5.278102
v -5.268125 0.153433 -4.971025
v -5.268125 0.153433 -5.278102
v -4.918152 0.153433 -4.971025
v -4.918152 0.153433 -5.278102
v -5.309044 0.153433 -4.935121
v -5.309044 0.153433 -5.314007
v -4.877232 0.153433 -4.935121
v -4.877232 0.153433 -5.314007
v -5.323056 0.120537 -4.922826
v -5.323056 0.120537 -5.326302
v -4.863219 0.120537 -4.922826
v -4.863219 0.120537 -5.326302
v -5.365230 0.120537 -4.885822
v -5.365230 0.120537 -5.363305
v -4.821047 0.120537 -4.885822
v -4.821047 0.120537 -5.363305
v -5.404969 0.073815 -4.850953
v -5.404969 0.073815 -5.398174
v -4.781306 0.073815 -4.850953
v -4.781306 0.073815 -5.398174
v -5.404969 0.000511 -4.850953
v -5.404969 0.000511 -5.398174
v -4.781306 0.000511 -4.850953
v -4.781306 0.000511 -5.398174
vn -1.0000 -0.0000 -0.0000
vn 0.8813 -0.4725 -0.0000
vn 1.0000 -0.0000 -0.0000
vn -0.0000 -0.0000 1.0000
vn -0.0000 -1.0000 -0.0000
vn -0.0000 1.0000 -0.0000
vn -0.8813 -0.4725 -0.0000
vn -0.0000 -0.4257 0.9049
vn -0.0000 -0.4257 -0.9049
vn 0.8210 -0.5709 -0.0000
vn -0.0000 -0.0000 -1.0000
vn -0.8210 -0.5709 -0.0000
vn -0.0000 -0.5208 0.8537
vn -0.0000 -0.5208 -0.8537
vn 0.9200 0.3919 -0.0000
vn -0.9200 0.3919 -0.0000
vn -0.0000 0.3501 0.9367
vn -0.0000 0.3501 -0.9367
vn 0.7617 0.6479 -0.0000
vn -0.7617 0.6479 -0.0000
vn -0.0000 0.5981 0.8014
vn -0.0000 0.5981 -0.8014
vt 0.653313 0.324899
vt 0.619146 0.324899
vt 0.619146 0.000238
vt 0.653313 0.000238
vt 0.759458 0.411886
vt 0.759458 0.561775
vt 0.745068 0.557095
vt 0.743026 0.418729
vt 0.327013 0.000238
vt 0.361181 0.000238
vt 0.361181 0.324899
vt 0.327013 0.324899
vt 0.361181 0.359066
vt 0.619146 0.359066
vt 0.258679 0.684203
vt 0.258679 0.359542
vt 0.294390 0.386524
vt 0.294390 0.550203
vt 0.516644 0.359542
vt 0.480934 0.386524
vt 0.516644 0.684203
vt 0.480934 0.550203
vt 0.668585 0.264094
vt 0.668188 0.124128
vt 0.689151 0.130377
vt 0.690183 0.245151
vt 0.653789 0.270228
vt 0.653789 0.119295
vt 0.654793 0.682444
vt 0.648263 0.667090
vt 0.761684 0.000238
vt 0.767273 0.014116
vt 0.724236 0.551148
vt 0.648052 0.647500
vt 0.640901 0.641728
vt 0.715331 0.548314
vt 0.767261 0.033926
vt 0.721921 0.437675
vt 0.715450 0.437700
vt 0.683978 0.539310
vt 0.688633 0.449994
vt 0.774421 0.039845
vt 0.698114 0.133344
vt 0.696733 0.245199
vt 0.589611 0.502491
vt 0.654185 0.437198
vt 0.729648 0.142784
vt 0.724048 0.233035
vt 0.632270 0.620761
vt 0.782903 0.061177
vt 0.599084 0.613695
vt 0.588060 0.628141
vt 0.577402 0.495938
vt 0.823943 0.180596
vt 0.759160 0.246369
vt 0.816899 0.069064
vt 0.828276 0.054838
vt 0.836009 0.187278
vt 0.653841 0.425261
vt 0.759532 0.258413
vt 0.566350 0.491775
vt 0.649163 0.414437
vt 0.846921 0.191523
vt 0.764271 0.269306
vt 0.579176 0.632541
vt 0.837294 0.050628
vt 0.568431 0.646927
vt 0.554965 0.486091
vt 0.848370 0.036505
vt 0.858222 0.197845
vt 0.648713 0.397713
vt 0.764469 0.283061
vt 0.538341 0.479304
vt 0.643624 0.376978
vt 0.874572 0.204870
vt 0.769075 0.303579
vt 0.548368 0.662214
vt 0.868785 0.021709
vt 0.525901 0.663246
vt 0.517120 0.472103
vt 0.891255 0.021215
vt 0.895453 0.212384
vt 0.626382 0.359542
vt 0.785694 0.321074
vt 0.326538 0.034405
vt 0.326538 0.359066
vt 0.292370 0.359066
vt 0.292370 0.034405
vt 0.000238 0.901877
vt 0.014046 0.896571
vt 0.094836 0.987098
vt 0.088842 0.999762
vt 0.000238 0.359066
vt 0.000238 0.034405
vt 0.034405 0.034405
vt 0.034405 0.359066
vt 0.034405 0.000238
vt 0.292370 0.000238
vt 0.258203 0.684203
vt 0.222493 0.550203
vt 0.222493 0.386524
vt 0.258203 0.359542
vt 0.035949 0.386524
vt 0.000238 0.359542
vt 0.000238 0.684203
vt 0.035949 0.550203
vt 0.750345 0.788082
vt 0.731289 0.798766
vt 0.667692 0.715391
vt 0.670364 0.697065
vt 0.764257 0.782838
vt 0.677326 0.682920
vt 0.764257 0.959838
vt 0.747669 0.951771
vt 0.000238 0.725243
vt 0.015035 0.732422
vt 0.728527 0.929574
vt 0.721897 0.929529
vt 0.722478 0.801411
vt 0.034472 0.754509
vt 0.033025 0.885696
vt 0.097376 0.968718
vt 0.041826 0.882968
vt 0.072111 0.871841
vt 0.114397 0.943971
vt 0.104339 0.963192
vt 0.041123 0.754488
vt 0.660702 0.720853
vt 0.169221 0.842991
vt 0.147873 0.939829
vt 0.692149 0.812242
vt 0.650522 0.739948
vt 0.694973 0.914501
vt 0.068287 0.769306
vt 0.657812 0.925353
vt 0.657147 0.937800
vt 0.581384 0.841938
vt 0.595046 0.840146
vt 0.617149 0.743795
vt 0.105504 0.758063
vt 0.106061 0.745570
vt 0.182910 0.841074
vt 0.158855 0.954196
vt 0.606325 0.729382
vt 0.194612 0.838890
vt 0.167323 0.959303
vt 0.569701 0.844014
vt 0.597928 0.724218
vt 0.651087 0.948388
vt 0.112048 0.734895
vt 0.650472 0.962465
vt 0.556874 0.845735
vt 0.112542 0.720767
vt 0.207465 0.837052
vt 0.178019 0.973612
vt 0.587389 0.709865
vt 0.225195 0.833753
vt 0.197210 0.989631
vt 0.539173 0.848870
vt 0.568396 0.693735
vt 0.644087 0.983074
vt 0.118767 0.700035
vt 0.624344 0.998209
vt 0.517121 0.853306
vt 0.138441 0.684679
vt 0.247281 0.829112
vt 0.219216 0.993390
vt 0.546493 0.689800
s 0
usemtl stone_bench
f 1/1/1 2/2/1 4/3/1 3/4/1
f 11/5/2 12/6/2 16/7/2 15/8/2
f 7/9/3 8/10/3 6/11/3 5/12/3
f 5/13/4 6/11/4 2/2/4 1/14/4
f 7/15/5 5/16/5 12/17/5 11/18/5
f 8/10/6 4/3/6 2/2/6 6/11/6
f 5/16/5 1/19/5 10/20/5 12/17/5
f 3/21/5 7/15/5 11/18/5 9/22/5
f 1/19/5 3/21/5 9/22/5 10/20/5
f 14/23/5 13/24/5 17/25/5 18/26/5
f 10/27/7 9/28/7 13/24/7 14/23/7
f 12/6/8 10/29/8 14/30/8 16/7/8
f 9/28/9 11/31/9 15/32/9 13/24/9
f 20/33/4 18/34/4 22/35/4 24/36/4
f 16/7/5 14/30/5 18/34/5 20/33/5
f 13/24/5 15/32/5 19/37/5 17/25/5
f 15/8/5 16/7/5 20/33/5 19/38/5
f 23/39/10 24/36/10 28/40/10 27/41/10
f 17/25/11 19/37/11 23/42/11 21/43/11
f 19/38/3 20/33/3 24/36/3 23/39/3
f 18/26/1 17/25/1 21/43/1 22/44/1
f 27/41/3 28/40/3 32/45/3 31/46/3
f 22/44/12 21/43/12 25/47/12 26/48/12
f 24/36/13 22/35/13 26/49/13 28/40/13
f 21/43/14 23/42/14 27/50/14 25/47/14
f 32/45/6 30/51/6 34/52/6 36/53/6
f 26/48/1 25/47/1 29/54/1 30/55/1
f 28/40/4 26/49/4 30/51/4 32/45/4
f 25/47/11 27/50/11 31/56/11 29/54/11
f 29/54/6 31/56/6 35/57/6 33/58/6
f 31/46/6 32/45/6 36/53/6 35/59/6
f 30/55/6 29/54/6 33/58/6 34/60/6
f 35/59/15 36/53/15 40/61/15 39/62/15
f 34/60/16 33/58/16 37/63/16 38/64/16
f 36/53/17 34/52/17 38/65/17 40/61/17
f 33/58/18 35/57/18 39/66/18 37/63/18
f 40/61/6 38/65/6 42/67/6 44/68/6
f 37/63/6 39/66/6 43/69/6 41/70/6
f 39/62/6 40/61/6 44/68/6 43/71/6
f 38/64/6 37/63/6 41/70/6 42/72/6
f 43/71/19 44/68/19 48/73/19 47/74/19
f 42/72/20 41/70/20 45/75/20 46/76/20
f 44/68/21 42/67/21 46/77/21 48/73/21
f 41/70/22 43/69/22 47/78/22 45/75/22
f 48/73/4 46/77/4 50/79/4 52/80/4
f 45/75/11 47/78/11 51/81/11 49/82/11
f 47/74/3 48/73/3 52/80/3 51/83/3
f 46/76/1 45/75/1 49/82/1 50/84/1
f 53/85/1 3/86/1 4/87/1 54/88/1
f 59/89/2 63/90/2 64/91/2 60/92/2
f 7/93/3 55/94/3 56/95/3 8/96/3
f 55/97/11 53/98/11 54/88/11 56/95/11
f 7/99/5 59/100/5 60/101/5 55/102/5
f 8/96/6 56/95/6 54/88/6 4/87/6
f 55/102/5 60/101/5 58/103/5 53/104/5
f 3/105/5 57/106/5 59/100/5 7/99/5
f 53/104/5 58/103/5 57/106/5 3/105/5
f 62/107/5 66/108/5 65/109/5 61/110/5
f 58/111/7 62/107/7 61/110/7 57/112/7
f 60/113/9 64/114/9 62/107/9 58/111/9
f 57/115/8 61/116/8 63/90/8 59/89/8
f 68/117/11 72/118/11 70/119/11 66/108/11
f 64/114/5 68/117/5 66/108/5 62/107/5
f 61/116/5 65/120/5 67/121/5 63/90/5
f 63/90/5 67/121/5 68/122/5 64/91/5
f 71/123/10 75/124/10 76/125/10 72/126/10
f 65/120/4 69/127/4 71/123/4 67/121/4
f 67/121/3 71/123/3 72/126/3 68/122/3
f 66/108/1 70/119/1 69/128/1 65/109/1
f 75/124/3 79/129/3 80/130/3 76/125/3
f 70/119/12 74/131/12 73/132/12 69/128/12
f 72/118/14 76/133/14 74/131/14 70/119/14
f 69/127/13 73/134/13 75/124/13 71/123/13
f 80/135/6 84/136/6 82/137/6 78/138/6
f 74/131/1 78/138/1 77/139/1 73/132/1
f 76/133/11 80/135/11 78/138/11 74/131/11
f 73/134/4 77/140/4 79/129/4 75/124/4
f 77/140/6 81/141/6 83/142/6 79/129/6
f 79/129/6 83/142/6 84/143/6 80/130/6
f 78/138/6 82/137/6 81/144/6 77/139/6
f 83/142/15 87/145/15 88/146/15 84/143/15
f 82/137/16 86/147/16 85/148/16 81/144/16
f 84/136/18 88/149/18 86/147/18 82/137/18
f 81/141/17 85/150/17 87/145/17 83/142/17
f 88/149/6 92/151/6 90/152/6 86/147/6
f 85/150/6 89/153/6 91/154/6 87/145/6
f 87/145/6 91/154/6 92/155/6 88/146/6
f 86/147/6 90/152/6 89/156/6 85/148/6
f 91/154/19 95/157/19 96/158/19 92/155/19
f 90/152/20 94/159/20 93/160/20 89/156/20
f 92/151/22 96/161/22 94/159/22 90/152/22
f 89/153/21 93/162/21 95/157/21 91/154/21
f 96/161/11 100/163/11 98/164/11 94/159/11
f 93/162/4 97/165/4 99/166/4 95/157/4
f 95/157/3 99/166/3 100/167/3 96/158/3
f 94/159/1 98/164/1 97/168/1 93/160/1
