# Blender 5.1.0
# www.blender.org
mtllib table1.mtl
o Table
v -1.022909 0.035703 -6.737720
v -0.969293 0.123680 -6.791336
v -1.022909 0.035703 -8.336538
v -0.969293 0.123680 -8.282922
v 0.575909 0.035703 -6.737720
v 0.522293 0.123680 -6.791336
v 0.575909 0.035703 -8.336538
v 0.522293 0.123680 -8.282922
v -0.367187 0.123680 -7.393442
v -0.367187 0.123680 -7.680816
v -0.079813 0.123680 -7.680816
v -0.079813 0.123680 -7.393442
v -0.401863 1.814977 -7.358767
v -0.401863 1.814977 -7.715491
v -0.045138 1.814977 -7.715491
v -0.045138 1.814977 -7.358767
v -1.385789 1.814978 -6.374840
v -1.385789 1.814978 -8.699417
v 0.938789 1.814978 -8.699417
v 0.938789 1.814978 -6.374840
v -1.322132 1.874685 -6.438497
v -1.322132 1.874685 -8.635761
v 0.875132 1.874685 -8.635761
v 0.875132 1.874685 -6.438497
v -1.303161 1.874685 -6.457468
v -1.303161 1.874685 -8.616790
v 0.856161 1.874685 -8.616790
v 0.856161 1.874685 -6.457468
vn -0.8539 0.5204 -0.0000
vn -0.0000 0.5204 -0.8539
vn 0.8539 0.5204 -0.0000
vn -0.0000 0.5204 0.8539
vn -0.0000 1.0000 -0.0000
vn 0.9998 -0.0205 -0.0000
vn -0.0000 -1.0000 -0.0000
vn -0.9998 -0.0205 -0.0000
vn -0.0000 -0.0205 0.9998
vn -0.0000 -0.0205 -0.9998
vn 0.6841 0.7294 -0.0000
vn -0.6841 0.7294 -0.0000
vn -0.0000 0.7294 0.6841
vn -0.0000 0.7294 -0.6841
vt 0.352136 0.778954
vt 0.334295 0.733491
vt 0.394563 0.712866
vt 0.424245 0.746020
vt 0.407735 0.665781
vt 0.460547 0.665222
vt 0.373366 0.622897
vt 0.410960 0.573054
vt 0.287160 0.629379
vt 0.289766 0.548582
vt 0.370875 0.673008
vt 0.356980 0.662429
vt 0.358619 0.790506
vt 0.388445 0.787623
vt 0.406637 0.975462
vt 0.369613 0.979041
vt 0.355410 0.693262
vt 0.370050 0.688701
vt 0.338372 0.668860
vt 0.112890 0.536142
vt 0.140962 0.542978
vt 0.137103 0.591685
vt 0.016607 0.574358
vt 0.418270 0.784729
vt 0.448093 0.781825
vt 0.480679 0.968265
vt 0.443659 0.971870
vt 0.328792 0.793379
vt 0.332589 0.982607
vt 0.112890 0.535737
vt 0.140962 0.542572
vt 0.137103 0.591279
vt 0.016607 0.573952
vt 0.162230 0.526714
vt 0.266926 0.575559
vt 0.162230 0.526308
vt 0.266926 0.575154
vt 0.260348 0.652007
vt 0.140024 0.637501
vt 0.260348 0.651601
vt 0.140024 0.637095
vt 0.018850 0.651741
vt 0.018850 0.651335
vt 0.259175 0.669797
vt 0.140018 0.655429
vt 0.019461 0.689192
vt 0.309021 0.689192
vt 0.309022 0.978752
vt 0.019461 0.978752
vt 0.259175 0.669887
vt 0.140018 0.655520
vt 0.020355 0.669797
vt 0.020355 0.669887
s 0
usemtl table
f 1/1/1 2/2/1 4/3/1 3/4/1
f 3/4/2 4/3/2 8/5/2 7/6/2
f 7/6/3 8/5/3 6/7/3 5/8/3
f 5/8/4 6/7/4 2/9/4 1/10/4
f 6/7/5 8/5/5 11/11/5 12/12/5
f 12/13/6 11/14/6 15/15/6 16/16/6
f 4/3/5 2/2/5 9/17/5 10/18/5
f 2/9/5 6/7/5 12/12/5 9/19/5
f 8/5/5 4/3/5 10/18/5 11/11/5
f 13/20/7 16/21/7 20/22/7 17/23/7
f 10/24/8 9/25/8 13/26/8 14/27/8
f 9/28/9 12/13/9 16/16/9 13/29/9
f 11/14/10 10/24/10 14/27/10 15/15/10
f 15/30/7 14/31/7 18/32/7 19/33/7
f 16/21/7 15/34/7 19/35/7 20/22/7
f 14/31/7 13/36/7 17/37/7 18/32/7
f 20/22/11 19/35/11 23/38/11 24/39/11
f 18/32/12 17/37/12 21/40/12 22/41/12
f 17/23/13 20/22/13 24/39/13 21/42/13
f 19/33/14 18/32/14 22/41/14 23/43/14
f 24/39/5 23/38/5 27/44/5 28/45/5
f 25/46/5 28/47/5 27/48/5 26/49/5
f 22/41/5 21/40/5 25/50/5 26/51/5
f 21/42/5 24/39/5 28/45/5 25/52/5
f 23/43/5 22/41/5 26/51/5 27/53/5
