# Blender 5.1.0
# www.blender.org
mtllib wood bench.mtl
o bench
v 5.700769 1.924602 -5.428763
v 5.656686 1.943133 -5.428763
v 5.700769 1.924602 -9.126151
v 5.656686 1.943133 -9.126151
v 5.861580 2.307153 -5.428763
v 5.817497 2.325684 -5.428763
v 5.861580 2.307153 -9.126151
v 5.817497 2.325684 -9.126151
v 4.272675 1.301901 -5.428763
v 4.272675 1.349721 -5.428763
v 4.272675 1.301901 -9.126151
v 4.272675 1.349721 -9.126151
v 4.572327 1.301901 -5.428763
v 4.572327 1.349720 -5.428763
v 4.572327 1.301901 -9.126151
v 4.572327 1.349720 -9.126151
v 4.589184 1.297631 -5.428763
v 4.594884 1.345110 -5.428763
v 4.589184 1.297631 -9.126151
v 4.594884 1.345110 -9.126151
v 4.886700 1.261911 -5.428763
v 4.892400 1.309389 -5.428763
v 4.886700 1.261911 -9.126151
v 4.892400 1.309389 -9.126151
v 4.908489 1.256425 -5.428763
v 4.914189 1.303904 -5.428763
v 4.908489 1.256425 -9.126151
v 4.914189 1.303904 -9.126151
v 5.206005 1.220704 -5.428763
v 5.211705 1.268183 -5.428763
v 5.206005 1.220704 -9.126151
v 5.211705 1.268183 -9.126151
v 5.227056 1.216055 -5.428763
v 5.234386 1.263245 -5.428763
v 5.227056 1.216055 -9.126151
v 5.234386 1.263245 -9.126151
v 5.494283 1.174545 -5.428763
v 5.501613 1.221735 -5.428763
v 5.494283 1.174545 -9.126151
v 5.501613 1.221735 -9.126151
v 5.604579 1.625649 -5.428763
v 5.558988 1.639863 -5.428763
v 5.604579 1.625649 -9.126151
v 5.558988 1.639863 -9.126151
v 5.685074 1.883822 -5.428763
v 5.639483 1.898037 -5.428763
v 5.685074 1.883822 -9.126151
v 5.639483 1.898037 -9.126151
v 4.549397 1.105497 -5.518139
v 4.393089 0.766183 -5.518150
v 4.549397 1.105497 -5.460611
v 4.393089 0.766183 -5.460599
v 4.463304 1.151168 -5.517821
v 4.324146 0.767241 -5.517812
v 4.463304 1.151168 -5.460927
v 4.324146 0.767241 -5.460938
v 4.648322 1.171261 -5.516977
v 4.648322 1.171261 -5.461773
v 4.460973 1.224064 -5.517285
v 4.460973 1.224064 -5.461465
v 4.265725 0.340747 -5.517108
v 4.265725 0.340747 -5.461641
v 4.210258 0.340747 -5.461641
v 4.210258 0.340747 -5.517108
v 4.712093 1.281835 -5.461773
v 4.712093 1.281835 -5.516979
v 4.559941 1.305589 -5.461465
v 4.490805 1.305589 -5.517285
v 5.016093 1.179427 -5.461773
v 5.016093 1.179427 -5.516977
v 5.084370 1.235375 -5.461773
v 5.084370 1.235375 -5.516979
v 5.234312 1.151269 -5.461773
v 5.234312 1.151269 -5.516977
v 5.219524 1.210034 -5.461773
v 5.219524 1.210034 -5.516979
v 5.456271 1.061538 -5.461773
v 5.456271 1.061538 -5.516977
v 5.481412 1.173801 -5.461773
v 5.481412 1.173801 -5.516979
v 5.564649 1.061538 -5.461773
v 5.564649 1.061538 -5.516977
v 5.578827 1.173801 -5.461773
v 5.578827 1.173801 -5.516979
v 5.490850 0.996663 -5.461773
v 5.490850 0.996663 -5.516977
v 5.563044 0.996663 -5.461773
v 5.563044 0.996663 -5.516977
v 5.587931 0.716234 -5.461773
v 5.587931 0.716234 -5.516977
v 5.641822 0.716234 -5.461773
v 5.641822 0.716234 -5.516977
v 5.757314 0.354435 -5.461773
v 5.757314 0.354435 -5.516977
v 5.811205 0.354435 -5.461773
v 5.811205 0.354435 -5.516977
v 4.265725 0.310338 -5.517108
v 4.265725 0.310338 -5.461641
v 4.210258 0.310338 -5.461641
v 4.210258 0.310338 -5.517108
v 5.757314 0.307806 -5.516977
v 5.811205 0.307807 -5.461773
v 5.811205 0.307807 -5.516977
v 5.853203 2.272754 -5.461773
v 5.853203 2.272754 -5.516979
v 5.915421 2.238730 -5.461773
v 5.870801 2.310297 -5.461773
v 5.870801 2.310297 -5.516979
v 5.942405 2.269234 -5.461773
v 4.549397 1.148679 -5.558595
v 4.491201 1.194349 -5.558277
v 4.619591 1.197947 -5.591652
v 4.583671 1.224064 -5.591959
v 4.654409 1.281835 -5.591654
v 4.559941 1.294192 -5.591959
v 5.482415 1.087042 -5.590045
v 5.481412 1.173801 -5.591654
v 5.548156 1.087042 -5.590045
v 5.578827 1.173801 -5.591654
v 5.490850 1.032308 -5.546589
v 5.563044 1.032308 -5.546589
v 4.463304 1.151168 -5.517821
v 4.712093 1.281835 -5.516979
v 4.490805 1.305589 -5.517285
v 4.371126 1.216415 -5.517285
v 4.371126 1.216415 -5.461465
v 4.371816 1.304744 -5.517285
v 4.371816 1.304744 -5.461465
v 5.757314 0.307806 -5.461773
v 5.562505 1.469453 -5.461773
v 5.562505 1.469453 -5.516979
v 5.631537 1.469453 -5.461773
v 5.631537 1.469453 -5.516979
v 5.697660 1.907017 -5.461773
v 5.697660 1.907017 -5.516979
v 5.764665 1.907017 -5.461773
v 5.764665 1.907017 -5.516979
v 5.915421 2.238730 -5.516979
v 5.942405 2.269234 -5.516979
v 5.896345 2.253875 -5.586962
v 5.853203 2.280673 -5.586962
v 5.942405 2.269234 -5.586962
v 5.870801 2.310297 -5.586962
v 4.619591 1.222845 -6.126983
v 4.583671 1.248963 -6.127290
v 4.654409 1.281835 -6.126984
v 4.559941 1.294192 -6.127290
v 5.482415 1.107644 -6.125376
v 5.481412 1.173801 -6.126984
v 5.537938 1.107644 -6.125376
v 5.578827 1.173801 -6.126984
v 5.896345 2.253875 -6.122292
v 5.853203 2.280673 -6.122293
v 5.942405 2.269234 -6.122293
v 5.870801 2.310297 -6.122293
v 4.619591 1.234553 -6.869252
v 4.583671 1.260671 -6.869559
v 4.654409 1.281835 -6.869254
v 4.559941 1.294192 -6.869559
v 5.482415 1.138236 -6.867645
v 5.481412 1.173801 -6.869254
v 5.548156 1.138236 -6.867645
v 5.578827 1.173801 -6.869254
v 5.896345 2.253875 -6.864562
v 5.853203 2.280673 -6.864562
v 5.942405 2.269234 -6.864562
v 5.870801 2.310297 -6.864562
v 4.549397 1.105497 -9.073559
v 4.393089 0.766183 -9.073547
v 4.549397 1.105497 -9.131086
v 4.393089 0.766183 -9.131098
v 4.463304 1.151168 -9.073876
v 4.324146 0.767241 -9.073885
v 4.463304 1.151168 -9.130770
v 4.324146 0.767241 -9.130760
v 4.648322 1.171261 -9.074720
v 4.648322 1.171261 -9.129925
v 4.460973 1.224064 -9.074413
v 4.460973 1.224064 -9.130232
v 4.265725 0.340747 -9.074589
v 4.265725 0.340747 -9.130056
v 4.210258 0.340747 -9.130056
v 4.210258 0.340747 -9.074589
v 4.712093 1.281835 -9.129925
v 4.712093 1.281835 -9.074718
v 4.559941 1.305589 -9.130232
v 4.490805 1.305589 -9.074413
v 4.371126 1.216415 -9.074413
v 4.371126 1.216415 -9.130232
v 5.456271 1.061531 -9.074720
v 5.481412 1.173801 -9.074718
v 5.564649 1.061538 -9.074720
v 5.578827 1.173801 -9.129925
v 5.578827 1.173801 -9.074718
v 5.490850 0.996657 -9.074720
v 5.563044 0.996663 -9.129925
v 5.563044 0.996663 -9.074720
v 4.265725 0.310338 -9.074589
v 4.265725 0.310338 -9.130056
v 4.210258 0.310338 -9.130056
v 4.210258 0.310338 -9.074589
v 5.562505 1.469453 -9.074718
v 5.631537 1.469453 -9.129925
v 5.631537 1.469453 -9.074718
v 5.853203 2.272754 -9.129925
v 5.915421 2.238730 -9.129925
v 5.870801 2.310297 -9.129925
v 5.942405 2.269234 -9.129925
v 4.549397 1.148679 -9.033103
v 4.491201 1.194349 -9.033421
v 4.619591 1.197947 -9.000045
v 4.583671 1.224064 -8.999738
v 4.654409 1.281835 -9.000044
v 4.559941 1.294192 -8.999738
v 5.482415 1.087036 -9.001653
v 5.481412 1.173801 -9.000044
v 5.548156 1.087042 -9.001653
v 5.578827 1.173801 -9.000044
v 5.490850 1.032301 -9.045109
v 5.563044 1.032308 -9.045109
v 4.549397 1.105497 -9.073559
v 4.648322 1.171261 -9.074720
v 4.371816 1.304744 -9.074413
v 4.371816 1.304744 -9.130232
v 5.016093 1.179427 -9.129925
v 5.016093 1.179427 -9.074720
v 5.084370 1.235375 -9.129925
v 5.084370 1.235375 -9.074718
v 5.234312 1.151269 -9.129925
v 5.234312 1.151269 -9.074720
v 5.219524 1.210034 -9.129925
v 5.219524 1.210034 -9.074718
v 5.456271 1.061538 -9.129925
v 5.481412 1.173801 -9.129925
v 5.564649 1.061538 -9.129925
v 5.490850 0.996663 -9.129925
v 5.587931 0.716234 -9.129925
v 5.587931 0.716234 -9.074720
v 5.641822 0.716234 -9.129925
v 5.641822 0.716234 -9.074720
v 5.757314 0.354435 -9.129925
v 5.757314 0.354435 -9.074720
v 5.811205 0.354435 -9.129925
v 5.811205 0.354435 -9.074720
v 5.757314 0.307806 -9.129925
v 5.757314 0.307806 -9.074720
v 5.811205 0.307807 -9.129925
v 5.811205 0.307807 -9.074720
v 5.562505 1.469453 -9.129925
v 5.697660 1.907017 -9.129925
v 5.697660 1.907017 -9.074718
v 5.764665 1.907017 -9.129925
v 5.764665 1.907017 -9.074718
v 5.853203 2.272754 -9.074718
v 5.915421 2.238730 -9.074718
v 5.870801 2.310297 -9.074718
v 5.942405 2.269234 -9.074718
v 5.896345 2.253875 -9.004736
v 5.853203 2.280673 -9.004736
v 5.942405 2.269234 -9.004736
v 5.870801 2.310297 -9.004736
v 4.619591 1.222845 -8.464715
v 4.583671 1.248963 -8.464407
v 4.654409 1.281835 -8.464713
v 4.559941 1.294192 -8.464407
v 5.482415 1.107644 -8.466322
v 5.481412 1.173801 -8.464713
v 5.537938 1.107644 -8.466322
v 5.578827 1.173801 -8.464713
v 5.896345 2.253875 -8.469405
v 5.853203 2.280673 -8.469405
v 5.942405 2.269234 -8.469405
v 5.870801 2.310297 -8.469405
v 4.619591 1.234553 -7.722445
v 4.583671 1.260671 -7.722138
v 4.654409 1.281835 -7.722444
v 4.559941 1.294192 -7.722138
v 5.482415 1.138236 -7.724053
v 5.481412 1.173801 -7.722444
v 5.548156 1.138236 -7.724053
v 5.578827 1.173801 -7.722444
v 5.896345 2.253875 -7.727136
v 5.853203 2.280673 -7.727136
v 5.942405 2.269234 -7.727136
v 5.870801 2.310297 -7.727136
v 4.298838 0.318784 -5.517108
v 4.298838 0.318784 -5.461641
v 5.724201 0.332472 -5.461773
v 5.724201 0.332472 -5.516977
v 4.298838 0.310338 -5.517108
v 4.298838 0.310338 -5.461641
v 5.724201 0.307806 -5.461773
v 5.724201 0.307806 -5.516977
v 4.298838 0.318784 -9.074589
v 4.298838 0.318784 -9.130056
v 5.724201 0.332472 -9.129925
v 5.724201 0.332472 -9.074720
v 4.298838 0.310338 -9.074589
v 4.298838 0.310338 -9.130056
v 5.724201 0.307806 -9.129925
v 5.724201 0.307806 -9.074720
vn -0.3875 -0.9219 -0.0000
vn -0.0000 -0.0000 -1.0000
vn 0.3875 0.9219 -0.0000
vn -0.0000 -0.0000 1.0000
vn 0.9219 -0.3875 -0.0000
vn -0.9219 0.3875 -0.0000
vn -1.0000 -0.0000 -0.0000
vn 1.0000 -0.0000 -0.0000
vn -0.0000 -1.0000 -0.0000
vn -0.0000 1.0000 -0.0000
vn -0.9929 0.1192 -0.0000
vn 0.9929 -0.1192 -0.0000
vn -0.1192 -0.9929 -0.0000
vn 0.1192 0.9929 -0.0000
vn -0.9881 0.1535 -0.0000
vn 0.9881 -0.1535 -0.0000
vn -0.1535 -0.9881 -0.0000
vn 0.1535 0.9881 -0.0000
vn -0.2977 -0.9547 -0.0000
vn 0.2977 0.9547 -0.0000
vn 0.9547 -0.2977 -0.0000
vn -0.9547 0.2977 -0.0000
vn 0.9083 -0.4184 -0.0000
vn -0.0038 0.0015 1.0000
vn 0.0035 0.0098 0.9999
vn -0.9661 0.2580 -0.0000
vn -0.6313 0.3275 -0.7030
vn 0.5536 -0.8328 -0.0000
vn 0.9649 -0.2186 -0.1455
vn 0.9580 -0.2868 -0.0000
vn -0.0027 -0.0013 -1.0000
vn -0.0027 -0.0013 1.0000
vn 0.0015 -0.0013 1.0000
vn 0.0222 -0.9998 -0.0000
vn -0.1280 -0.9918 -0.0000
vn 0.1843 0.9829 -0.0000
vn 0.9906 0.0666 -0.1194
vn 0.1370 0.9906 -0.0000
vn -0.3748 -0.9271 -0.0000
vn 0.9921 -0.1253 -0.0000
vn 0.9997 -0.0247 -0.0000
vn -0.8825 -0.4704 -0.0000
vn 0.9627 0.2705 -0.0000
vn -0.9450 -0.3271 -0.0000
vn -0.9057 -0.4240 -0.0000
vn 0.9057 0.4240 -0.0000
vn -0.9055 0.4244 -0.0000
vn -0.2317 -0.3037 -0.9242
vn -0.0000 -0.6218 -0.7832
vn -0.6132 0.0247 -0.7895
vn -0.0000 -0.6390 -0.7692
vn -0.3648 -0.5711 -0.7354
vn 0.1135 0.9913 -0.0669
vn -0.9811 0.1178 -0.1533
vn 0.3981 -0.7368 -0.5465
vn -0.7691 -0.4437 -0.4601
vn 0.7659 -0.3883 -0.5125
vn -0.9401 0.3408 -0.0000
vn -0.0038 0.0015 -1.0000
vn -0.9995 -0.0319 -0.0000
vn 0.1258 0.9890 -0.0783
vn -1.0000 0.0078 -0.0000
vn 0.0848 -0.9964 -0.0000
vn -0.0055 1.0000 0.0034
vn 0.1238 0.9923 -0.0000
vn -0.9644 0.2645 -0.0000
vn 0.9845 -0.1755 -0.0000
vn -0.9555 0.2951 -0.0000
vn 0.9567 -0.2911 -0.0000
vn 0.5247 -0.8357 -0.1619
vn 0.9104 -0.4138 -0.0000
vn -0.9202 0.3914 -0.0000
vn 0.4975 0.8675 -0.0000
vn 0.7490 -0.6626 -0.0000
vn -0.4986 -0.8637 -0.0744
vn -0.8855 0.4640 0.0263
vn -0.9999 -0.0131 -0.0003
vn 0.1297 0.9916 -0.0000
vn -0.5875 -0.8084 -0.0376
vn 0.8989 -0.4381 -0.0102
vn 0.3163 -0.9487 -0.0000
vn -0.0000 -0.9993 -0.0385
vn -0.9248 -0.3805 -0.0088
vn -0.8597 0.5107 -0.0000
vn -0.5276 -0.8495 -0.0000
vn -0.9998 -0.0197 -0.0004
vn -0.0000 -0.9992 -0.0412
vn 0.8364 -0.5481 -0.0043
vn -0.8565 -0.5162 -0.0041
vn -0.5880 -0.8088 -0.0128
vn -0.8162 -0.5778 -0.0000
vn -0.9996 -0.0282 -0.0000
vn 0.7573 -0.6531 -0.0000
vn 0.8052 -0.5930 -0.0000
vn 0.9055 -0.4241 -0.0168
vn 0.8178 -0.5755 -0.0062
vn 0.0035 0.0098 -0.9999
vn -0.6313 0.3275 0.7030
vn -0.9995 -0.0320 -0.0000
vn 0.9649 -0.2186 0.1455
vn 0.1258 0.9890 0.0783
vn 0.9906 0.0666 0.1194
vn -0.2317 -0.3037 0.9242
vn 0.0001 -0.6218 0.7832
vn -0.6132 0.0247 0.7895
vn 0.0001 -0.6390 0.7692
vn -0.3648 -0.5711 0.7354
vn 0.1135 0.9913 0.0669
vn -0.9811 0.1177 0.1533
vn 0.3981 -0.7368 0.5465
vn -0.7691 -0.4437 0.4601
vn 0.7659 -0.3883 0.5125
vn 0.0015 -0.0013 -1.0000
vn -0.0055 1.0000 -0.0034
vn -0.3748 -0.9271 -0.0001
vn -0.8825 -0.4704 -0.0001
vn 0.9627 0.2704 -0.0000
vn 0.5247 -0.8357 0.1619
vn -0.4986 -0.8637 0.0744
vn -0.8855 0.4640 -0.0263
vn -0.9999 -0.0131 0.0003
vn -0.5875 -0.8084 0.0376
vn 0.8989 -0.4381 0.0102
vn 0.0001 -0.9993 0.0385
vn -0.9248 -0.3805 0.0088
vn -0.9998 -0.0197 0.0004
vn -0.0000 -0.9992 0.0412
vn 0.8364 -0.5481 0.0043
vn -0.8565 -0.5162 0.0041
vn -0.5880 -0.8088 0.0128
vn 0.9055 -0.4241 0.0168
vn 0.8178 -0.5755 0.0062
vn -0.5881 -0.8088 -0.0000
vn -0.5527 0.8334 -0.0000
vn 0.5527 0.8334 -0.0000
vt 0.806644 0.020381
vt 0.808191 0.084631
vt 0.743940 0.086178
vt 0.742393 0.021928
vt 0.679689 0.087725
vt 0.745487 0.150429
vt 0.681236 0.151975
vt 0.747033 0.214679
vt 0.809357 0.148890
vt 0.811284 0.213133
vt 0.873988 0.147335
vt 0.872441 0.083085
vt 0.748580 0.278930
vt 0.812831 0.277383
vt 0.960621 0.024161
vt 0.960527 0.036659
vt 0.901702 0.037166
vt 0.901659 0.024946
vt 0.888145 0.037347
vt 0.904833 0.288807
vt 0.891295 0.288723
vt 0.904770 0.306028
vt 0.963796 0.288160
vt 0.963871 0.305242
vt 0.980852 0.287945
vt 0.977025 0.036618
vt 0.909392 0.552125
vt 0.968494 0.551477
vt 0.960658 0.024223
vt 0.960814 0.036587
vt 0.901712 0.037163
vt 0.901555 0.024798
vt 0.888232 0.037219
vt 0.904902 0.288712
vt 0.891422 0.288753
vt 0.905094 0.306227
vt 0.964004 0.288064
vt 0.964196 0.305580
vt 0.980950 0.287840
vt 0.977761 0.036395
vt 0.908249 0.552541
vt 0.967351 0.551965
vt 0.960474 0.024192
vt 0.960631 0.036557
vt 0.901528 0.037132
vt 0.901371 0.024768
vt 0.888048 0.037188
vt 0.904718 0.288668
vt 0.891238 0.288709
vt 0.904910 0.306183
vt 0.963820 0.288020
vt 0.964012 0.305536
vt 0.980766 0.287796
vt 0.977577 0.036364
vt 0.908065 0.552510
vt 0.967167 0.551934
vt 0.960443 0.024324
vt 0.960598 0.036491
vt 0.901463 0.037084
vt 0.901410 0.024916
vt 0.888105 0.037239
vt 0.904651 0.288453
vt 0.891290 0.288147
vt 0.904840 0.305689
vt 0.963785 0.287782
vt 0.963974 0.305018
vt 0.980360 0.287763
vt 0.977171 0.036398
vt 0.907994 0.552058
vt 0.967129 0.551466
vt 0.806598 0.020485
vt 0.808187 0.084542
vt 0.744111 0.086180
vt 0.742333 0.022049
vt 0.679762 0.087576
vt 0.745651 0.150286
vt 0.681432 0.151774
vt 0.747100 0.214822
vt 0.809206 0.148736
vt 0.811463 0.213256
vt 0.874017 0.147305
vt 0.872499 0.083121
vt 0.748408 0.278787
vt 0.812786 0.277220
vt 0.222412 0.292189
vt 0.214463 0.291526
vt 0.210027 0.344055
vt 0.218422 0.345020
vt 0.480049 0.339602
vt 0.474986 0.352721
vt 0.530455 0.353619
vt 0.527941 0.345268
vt 0.472993 0.327185
vt 0.461753 0.355875
vt 0.530521 0.361001
vt 0.587202 0.359123
vt 0.586518 0.351960
vt 0.335628 0.410831
vt 0.314416 0.408547
vt 0.328104 0.415315
vt 0.335460 0.421663
vt 0.223621 0.275761
vt 0.215993 0.275125
vt 0.348260 0.405899
vt 0.359497 0.402454
vt 0.359359 0.388784
vt 0.348271 0.389091
vt 0.200284 0.410557
vt 0.208087 0.413938
vt 0.216647 0.415445
vt 0.226796 0.349086
vt 0.584919 0.345045
vt 0.460397 0.316052
vt 0.453448 0.335995
vt 0.482258 0.279144
vt 0.476807 0.268794
vt 0.236916 0.214492
vt 0.236059 0.194777
vt 0.227843 0.191008
vt 0.228022 0.223477
vt 0.220194 0.223235
vt 0.239466 0.267998
vt 0.491630 0.251364
vt 0.513864 0.223497
vt 0.498760 0.209385
vt 0.483478 0.251709
vt 0.219696 0.191605
vt 0.476514 0.249197
vt 0.469951 0.266252
vt 0.347871 0.415530
vt 0.352481 0.410419
vt 0.488837 0.209335
vt 0.239613 0.155799
vt 0.223228 0.155487
vt 0.215142 0.156538
vt 0.530416 0.205599
vt 0.520259 0.192382
vt 0.512573 0.197134
vt 0.524402 0.211202
vt 0.531652 0.218423
vt 0.537105 0.212030
vt 0.523938 0.226025
vt 0.562162 0.249278
vt 0.568487 0.244558
vt 0.221829 0.144720
vt 0.213743 0.145770
vt 0.223135 0.098375
vt 0.219945 0.026943
vt 0.210681 0.029401
vt 0.216210 0.102030
vt 0.573107 0.237398
vt 0.231352 0.139931
vt 0.208249 0.102892
vt 0.200998 0.033542
vt 0.612797 0.278236
vt 0.618419 0.273384
vt 0.623094 0.267119
vt 0.623331 0.277660
vt 0.628389 0.271391
vt 0.208240 0.418723
vt 0.216086 0.419747
vt 0.590382 0.351267
vt 0.588805 0.344180
vt 0.219202 0.020664
vt 0.211790 0.020969
vt 0.591330 0.358650
vt 0.444814 0.031159
vt 0.445212 0.027039
vt 0.439688 0.020341
vt 0.435179 0.028806
vt 0.453425 0.029303
vt 0.450715 0.024920
vt 0.308699 0.411840
vt 0.318750 0.421080
vt 0.379415 0.392862
vt 0.383616 0.402576
vt 0.392393 0.396379
vt 0.387336 0.387200
vt 0.333750 0.398074
vt 0.318541 0.398353
vt 0.396326 0.402047
vt 0.387561 0.408188
vt 0.230928 0.302681
vt 0.237607 0.296545
vt 0.230160 0.289491
vt 0.310757 0.374320
vt 0.308699 0.388184
vt 0.398183 0.374320
vt 0.387097 0.374320
vt 0.398716 0.391390
vt 0.235144 0.277761
vt 0.229744 0.285684
vt 0.241354 0.280904
vt 0.476535 0.360416
vt 0.235833 0.292509
vt 0.467498 0.363995
vt 0.617627 0.283356
vt 0.453325 0.313513
vt 0.442156 0.342334
vt 0.411102 0.406942
vt 0.412143 0.393589
vt 0.399024 0.393784
vt 0.399024 0.411459
vt 0.451801 0.368134
vt 0.442838 0.361933
vt 0.438919 0.367597
vt 0.447883 0.373798
vt 0.458002 0.374012
vt 0.435179 0.358660
vt 0.483465 0.157762
vt 0.474774 0.160440
vt 0.358959 0.374320
vt 0.347871 0.374626
vt 0.611437 0.284078
vt 0.613992 0.286786
vt 0.273510 0.501107
vt 0.273955 0.433083
vt 0.264465 0.430084
vt 0.263732 0.498017
vt 0.492690 0.151443
vt 0.271760 0.546611
vt 0.257963 0.542250
vt 0.500968 0.148224
vt 0.468831 0.081582
vt 0.460413 0.088085
vt 0.452015 0.090643
vt 0.477162 0.078873
vt 0.035957 0.018154
vt 0.033766 0.028938
vt 0.041105 0.028994
vt 0.041826 0.018604
vt 0.460214 0.023510
vt 0.268298 0.374320
vt 0.257963 0.376354
vt 0.454611 0.018154
vt 0.053466 0.029372
vt 0.053796 0.019129
vt 0.025878 0.019231
vt 0.026193 0.029366
vt 0.058549 0.029472
vt 0.059845 0.019277
vt 0.060153 0.019177
vt 0.064207 0.098310
vt 0.073975 0.097605
vt 0.072971 0.018280
vt 0.110963 0.018827
vt 0.112842 0.098134
vt 0.126993 0.097952
vt 0.125079 0.018538
vt 0.041046 0.109053
vt 0.053302 0.109052
vt 0.136031 0.018261
vt 0.134588 0.097827
vt 0.141187 0.097738
vt 0.142572 0.018154
vt 0.151350 0.098128
vt 0.155913 0.018952
vt 0.033867 0.109055
vt 0.096246 0.018870
vt 0.093716 0.098106
vt 0.108166 0.098506
vt 0.110655 0.019324
vt 0.082198 0.097539
vt 0.082677 0.018154
vt 0.058419 0.109056
vt 0.026319 0.109060
vt 0.069039 0.208651
vt 0.074322 0.208296
vt 0.113684 0.208401
vt 0.127850 0.208392
vt 0.033859 0.219180
vt 0.041062 0.219180
vt 0.084104 0.208280
vt 0.140554 0.208311
vt 0.149291 0.208394
vt 0.053308 0.219181
vt 0.058420 0.219181
vt 0.026325 0.219180
vt 0.133960 0.208368
vt 0.091109 0.208604
vt 0.105624 0.208774
vt 0.053308 0.347149
vt 0.058420 0.347149
vt 0.091096 0.335918
vt 0.105602 0.335749
vt 0.127851 0.335271
vt 0.133963 0.335295
vt 0.041062 0.347149
vt 0.069034 0.335860
vt 0.074336 0.336217
vt 0.084108 0.336240
vt 0.113689 0.335261
vt 0.033859 0.347149
vt 0.140567 0.335353
vt 0.149286 0.335272
vt 0.026325 0.347149
vt 0.390002 0.339602
vt 0.342110 0.345268
vt 0.339595 0.353619
vt 0.395065 0.352721
vt 0.339529 0.361001
vt 0.393515 0.360416
vt 0.182158 0.139029
vt 0.180720 0.089368
vt 0.172873 0.092334
vt 0.170374 0.137715
vt 0.408297 0.355875
vt 0.397057 0.327185
vt 0.283532 0.351960
vt 0.282848 0.359123
vt 0.290413 0.415439
vt 0.299457 0.421404
vt 0.298357 0.411750
vt 0.300479 0.396628
vt 0.402553 0.363995
vt 0.347174 0.405899
vt 0.347163 0.389091
vt 0.336075 0.388784
vt 0.335937 0.402454
vt 0.174634 0.025301
vt 0.166292 0.026001
vt 0.285131 0.345045
vt 0.409654 0.316052
vt 0.416603 0.335995
vt 0.427895 0.342334
vt 0.416726 0.313513
vt 0.412049 0.374012
vt 0.418249 0.368134
vt 0.347563 0.415530
vt 0.342953 0.410419
vt 0.174488 0.021184
vt 0.166979 0.021449
vt 0.281246 0.344180
vt 0.279669 0.351268
vt 0.278721 0.358650
vt 0.243857 0.546611
vt 0.257654 0.542250
vt 0.251885 0.498017
vt 0.242108 0.501107
vt 0.349791 0.192382
vt 0.357478 0.197134
vt 0.377361 0.151443
vt 0.369082 0.148224
vt 0.416626 0.029303
vt 0.425237 0.031159
vt 0.424838 0.027039
vt 0.419336 0.024920
vt 0.308391 0.407270
vt 0.306420 0.393761
vt 0.379107 0.392863
vt 0.371185 0.387201
vt 0.366128 0.396380
vt 0.374906 0.402577
vt 0.280933 0.406699
vt 0.289733 0.394293
vt 0.362196 0.402048
vt 0.370961 0.408189
vt 0.172054 0.144715
vt 0.180793 0.146870
vt 0.274264 0.374320
vt 0.286877 0.380432
vt 0.360339 0.374320
vt 0.359806 0.391391
vt 0.371424 0.374320
vt 0.158818 0.146394
vt 0.165756 0.153954
vt 0.412371 0.393280
vt 0.412371 0.374320
vt 0.399024 0.378601
vt 0.399901 0.392063
vt 0.178095 0.146117
vt 0.164588 0.093138
vt 0.169813 0.146922
vt 0.171641 0.164007
vt 0.179588 0.163235
vt 0.257253 0.278236
vt 0.251631 0.273384
vt 0.246720 0.277660
vt 0.252423 0.283356
vt 0.158529 0.029190
vt 0.274264 0.423068
vt 0.286340 0.428199
vt 0.393244 0.268794
vt 0.387792 0.279144
vt 0.422168 0.373798
vt 0.431131 0.367597
vt 0.427213 0.361933
vt 0.434871 0.358660
vt 0.194324 0.226958
vt 0.184918 0.217708
vt 0.185210 0.251539
vt 0.193698 0.247528
vt 0.176759 0.218073
vt 0.196226 0.171108
vt 0.400099 0.266252
vt 0.378421 0.251364
vt 0.386572 0.251709
vt 0.371291 0.209385
vt 0.356187 0.223497
vt 0.176699 0.251060
vt 0.393537 0.249197
vt 0.381213 0.209335
vt 0.180708 0.288350
vt 0.197698 0.287906
vt 0.172599 0.287389
vt 0.339635 0.205599
vt 0.345648 0.211202
vt 0.332946 0.212030
vt 0.338398 0.218423
vt 0.395276 0.160440
vt 0.386585 0.157762
vt 0.346113 0.226024
vt 0.301563 0.244558
vt 0.307889 0.249278
vt 0.171320 0.298188
vt 0.179429 0.299148
vt 0.347563 0.374627
vt 0.336475 0.374320
vt 0.181357 0.346215
vt 0.174276 0.342581
vt 0.169402 0.416164
vt 0.178807 0.418893
vt 0.296943 0.237398
vt 0.189167 0.303888
vt 0.166160 0.341779
vt 0.159580 0.412513
vt 0.246956 0.267119
vt 0.241662 0.271391
vt 0.170047 0.424842
vt 0.177810 0.425468
vt 0.256059 0.286786
vt 0.258614 0.284078
vt 0.251152 0.430084
vt 0.241662 0.433083
vt 0.401219 0.081582
vt 0.409637 0.088085
vt 0.418036 0.090643
vt 0.392888 0.078873
vt 0.035957 0.548175
vt 0.041826 0.547726
vt 0.041106 0.537335
vt 0.033766 0.537392
vt 0.409837 0.023510
vt 0.257654 0.376354
vt 0.247319 0.374320
vt 0.434871 0.028806
vt 0.430363 0.020341
vt 0.415440 0.018154
vt 0.053796 0.547200
vt 0.053466 0.536957
vt 0.025878 0.547098
vt 0.026193 0.536963
vt 0.059845 0.547053
vt 0.058550 0.536857
vt 0.060153 0.525309
vt 0.072969 0.526203
vt 0.073964 0.446894
vt 0.064198 0.446190
vt 0.110963 0.524808
vt 0.125077 0.525097
vt 0.126990 0.445695
vt 0.112842 0.445512
vt 0.053302 0.457277
vt 0.041046 0.457276
vt 0.136027 0.525374
vt 0.142567 0.525481
vt 0.141182 0.445909
vt 0.134584 0.445820
vt 0.155906 0.524683
vt 0.151344 0.445518
vt 0.033867 0.457275
vt 0.096240 0.525610
vt 0.110646 0.525155
vt 0.108148 0.445989
vt 0.093701 0.446390
vt 0.082674 0.526329
vt 0.082186 0.446959
vt 0.058419 0.457273
vt 0.026319 0.457269
vt 0.206342 0.023386
vt 0.207128 0.019914
vt 0.199356 0.018154
vt 0.198570 0.021626
vt 0.156626 0.019111
vt 0.162912 0.021175
vt 0.163226 0.020217
vt 0.156940 0.018154
vt 0.164490 0.421950
vt 0.156221 0.423288
vt 0.156819 0.426983
vt 0.165087 0.425645
vt 0.157051 0.417702
vt 0.198006 0.027542
vt 0.203890 0.418441
vt 0.204089 0.419500
vt 0.283266 0.340190
vt 0.282187 0.339949
vt 0.587863 0.339949
vt 0.586784 0.340189
vt 0.156221 0.024397
vt 0.198006 0.414686
s 0
usemtl bench
f 1/1/1 2/2/1 4/3/1 3/4/1
f 3/5/2 4/3/2 8/6/2 7/7/2
f 7/8/3 8/6/3 6/9/3 5/10/3
f 5/11/4 6/9/4 2/2/4 1/12/4
f 3/13/5 7/8/5 5/10/5 1/14/5
f 8/6/6 4/3/6 2/2/6 6/9/6
f 9/15/7 10/16/7 12/17/7 11/18/7
f 11/19/2 12/17/2 16/20/2 15/21/2
f 15/22/8 16/20/8 14/23/8 13/24/8
f 13/25/4 14/23/4 10/16/4 9/26/4
f 11/27/9 15/22/9 13/24/9 9/28/9
f 16/20/10 12/17/10 10/16/10 14/23/10
f 17/29/11 18/30/11 20/31/11 19/32/11
f 19/33/2 20/31/2 24/34/2 23/35/2
f 23/36/12 24/34/12 22/37/12 21/38/12
f 21/39/4 22/37/4 18/30/4 17/40/4
f 19/41/13 23/36/13 21/38/13 17/42/13
f 24/34/14 20/31/14 18/30/14 22/37/14
f 25/43/11 26/44/11 28/45/11 27/46/11
f 27/47/2 28/45/2 32/48/2 31/49/2
f 31/50/12 32/48/12 30/51/12 29/52/12
f 29/53/4 30/51/4 26/44/4 25/54/4
f 27/55/13 31/50/13 29/52/13 25/56/13
f 32/48/14 28/45/14 26/44/14 30/51/14
f 33/57/15 34/58/15 36/59/15 35/60/15
f 35/61/2 36/59/2 40/62/2 39/63/2
f 39/64/16 40/62/16 38/65/16 37/66/16
f 37/67/4 38/65/4 34/58/4 33/68/4
f 35/69/17 39/64/17 37/66/17 33/70/17
f 40/62/18 36/59/18 34/58/18 38/65/18
f 41/71/19 42/72/19 44/73/19 43/74/19
f 43/75/2 44/73/2 48/76/2 47/77/2
f 47/78/20 48/76/20 46/79/20 45/80/20
f 45/81/4 46/79/4 42/72/4 41/82/4
f 43/83/21 47/78/21 45/80/21 41/84/21
f 48/76/22 44/73/22 42/72/22 46/79/22
f 49/85/23 51/86/23 52/87/23 50/88/23
f 51/89/24 55/90/24 56/91/24 52/92/24
f 51/89/25 58/93/25 60/94/25 55/90/25
f 54/95/26 64/96/26 63/97/26 56/91/26
f 59/98/27 113/99/27 111/100/27 53/101/27
f 49/85/28 57/102/28 58/103/28 51/86/28
f 82/104/29 118/105/29 119/106/29 84/107/29
f 52/87/30 62/108/30 61/109/30 50/88/30
f 50/88/31 61/109/31 64/110/31 54/111/31
f 56/91/32 63/97/32 62/112/32 52/92/32
f 58/93/33 65/113/33 67/114/33 60/94/33
f 58/93/4 69/115/4 71/116/4 65/113/4
f 72/117/2 76/118/2 74/119/2 70/120/2
f 57/102/34 70/120/34 69/121/34 58/103/34
f 66/122/2 72/117/2 70/120/2 57/102/2
f 73/123/4 77/124/4 79/125/4 75/126/4
f 70/120/35 74/119/35 73/127/35 69/121/35
f 69/115/4 73/123/4 75/126/4 71/116/4
f 71/116/36 75/126/36 76/128/36 72/129/36
f 88/130/37 121/131/37 118/105/37 82/104/37
f 75/126/38 79/125/38 80/132/38 76/128/38
f 76/118/2 80/133/2 78/134/2 74/119/2
f 74/119/39 78/134/39 77/135/39 73/127/39
f 82/136/40 84/137/40 83/138/40 81/139/40
f 81/139/41 87/140/41 88/141/41 82/136/41
f 77/124/4 81/139/4 83/138/4 79/125/4
f 85/142/4 89/143/4 91/144/4 87/140/4
f 78/134/42 86/145/42 85/146/42 77/135/42
f 77/124/4 85/142/4 87/140/4 81/139/4
f 92/147/2 96/148/2 94/149/2 90/150/2
f 87/140/43 91/144/43 92/151/43 88/141/43
f 88/152/2 92/147/2 90/150/2 86/145/2
f 86/145/44 90/150/44 89/153/44 85/146/44
f 90/150/45 94/149/45 93/154/45 89/153/45
f 89/143/4 93/155/4 95/156/4 91/144/4
f 91/144/46 95/156/46 96/157/46 92/151/46
f 95/156/8 102/158/8 103/159/8 96/157/8
f 61/109/2 97/160/2 100/161/2 64/110/2
f 63/97/4 99/162/4 98/163/4 62/112/4
f 96/148/2 103/164/2 101/165/2 94/149/2
f 64/96/7 100/166/7 99/162/7 63/97/7
f 104/167/47 107/168/47 108/169/47 105/170/47
f 106/171/4 109/172/4 107/168/4 104/167/4
f 111/100/48 113/99/48 112/173/48 110/174/48
f 118/175/49 121/176/49 120/177/49 116/178/49
f 68/179/50 115/180/50 113/99/50 59/98/50
f 86/181/51 120/177/51 121/176/51 88/182/51
f 53/183/52 111/184/52 110/185/52 49/85/52
f 66/186/53 114/187/53 115/180/53 68/179/53
f 80/188/54 117/189/54 116/178/54 78/190/54
f 49/85/55 110/185/55 112/191/55 57/102/55
f 78/190/56 116/178/56 120/177/56 86/181/56
f 57/102/57 112/192/57 114/193/57 66/122/57
f 55/90/58 122/194/58 54/95/58 56/91/58
f 122/195/59 49/85/59 50/88/59 54/111/59
f 55/90/60 60/94/60 59/196/60 122/194/60
f 93/155/4 129/197/4 102/158/4 95/156/4
f 65/113/61 123/198/61 124/199/61 67/114/61
f 59/200/2 125/201/2 127/202/2 124/203/2
f 126/204/62 128/205/62 127/206/62 125/207/62
f 60/94/63 126/204/63 125/208/63 59/196/63
f 67/114/4 128/205/4 126/204/4 60/94/4
f 124/199/64 127/209/64 128/205/64 67/114/64
f 65/113/65 71/116/65 72/129/65 123/198/65
f 79/125/66 130/210/66 131/211/66 80/132/66
f 84/107/10 119/106/10 117/212/10 80/213/10
f 93/155/4 288/214/4 292/215/4 129/197/4
f 131/216/2 135/217/2 137/218/2 133/219/2
f 83/138/4 132/220/4 130/210/4 79/125/4
f 80/221/2 131/216/2 133/219/2 84/222/2
f 84/137/67 133/223/67 132/220/67 83/138/67
f 136/224/4 106/171/4 104/167/4 134/225/4
f 130/210/68 134/225/68 135/226/68 131/211/68
f 132/220/4 136/224/4 134/225/4 130/210/4
f 133/223/69 137/227/69 136/224/69 132/220/69
f 138/228/70 140/229/70 142/230/70 139/231/70
f 137/227/71 138/232/71 106/171/71 136/224/71
f 135/217/2 105/233/2 138/234/2 137/218/2
f 134/225/72 104/167/72 105/170/72 135/226/72
f 107/168/73 109/172/73 139/235/73 108/169/73
f 138/232/74 139/235/74 109/172/74 106/171/74
f 139/231/73 142/230/73 143/236/73 108/237/73
f 105/238/75 141/239/75 140/229/75 138/228/75
f 108/237/76 143/236/76 141/240/76 105/241/76
f 117/242/77 149/243/77 148/244/77 116/245/77
f 114/246/78 146/247/78 147/248/78 115/249/78
f 142/230/73 154/250/73 155/251/73 143/236/73
f 113/252/79 145/253/79 144/254/79 112/255/79
f 112/255/80 144/254/80 146/256/80 114/257/80
f 140/229/81 152/258/81 154/250/81 142/230/81
f 119/259/10 151/260/10 149/261/10 117/262/10
f 116/245/82 148/244/82 150/263/82 118/264/82
f 115/249/83 147/248/83 145/253/83 113/252/83
f 143/236/84 155/251/84 153/265/84 141/240/84
f 141/239/85 153/266/85 152/258/85 140/229/85
f 149/243/86 161/267/86 160/268/86 148/244/86
f 146/247/78 158/269/78 159/270/78 147/248/78
f 152/258/81 164/271/81 166/272/81 154/250/81
f 148/244/87 160/268/87 162/273/87 150/263/87
f 144/254/88 156/274/88 158/275/88 146/256/88
f 155/251/84 167/276/84 165/277/84 153/265/84
f 153/266/85 165/278/85 164/271/85 152/258/85
f 147/248/89 159/270/89 157/279/89 145/253/89
f 151/260/10 163/280/10 161/281/10 149/261/10
f 145/253/90 157/279/90 156/274/90 144/254/90
f 154/250/73 166/272/73 167/276/73 155/251/73
f 285/282/84 283/283/84 165/277/84 167/276/84
f 281/284/10 279/285/10 161/281/10 163/280/10
f 277/286/91 275/287/91 157/279/91 159/270/91
f 284/288/73 285/282/73 167/276/73 166/272/73
f 279/289/92 278/290/92 160/268/92 161/267/92
f 280/291/93 281/284/93 163/280/93 162/273/93
f 276/292/78 277/286/78 159/270/78 158/269/78
f 282/293/81 284/288/81 166/272/81 164/271/81
f 278/290/9 280/291/9 162/273/9 160/268/9
f 274/294/94 276/295/94 158/275/94 156/274/94
f 151/260/95 119/259/95 118/264/95 150/263/95
f 150/263/96 162/273/96 163/280/96 151/260/96
f 283/296/85 282/293/85 164/271/85 165/278/85
f 170/297/59 171/298/59 175/299/59 174/300/59
f 174/300/58 175/299/58 173/301/58 172/302/58
f 172/303/24 173/304/24 169/305/24 168/306/24
f 170/297/97 174/300/97 179/307/97 177/308/97
f 173/301/26 175/299/26 182/309/26 183/310/26
f 178/311/98 172/312/98 210/313/98 212/314/98
f 174/300/99 172/302/99 178/315/99 179/307/99
f 192/316/100 194/317/100 218/318/100 217/319/100
f 169/305/32 173/304/32 183/320/32 180/321/32
f 175/299/31 171/298/31 181/322/31 182/309/31
f 184/323/101 186/324/101 187/325/101 185/326/101
f 179/307/63 178/315/63 188/327/63 189/328/63
f 197/329/102 192/316/102 217/319/102 220/330/102
f 180/321/4 183/320/4 201/331/4 198/332/4
f 182/309/2 181/322/2 199/333/2 200/334/2
f 183/310/7 182/309/7 200/334/7 201/335/7
f 191/336/4 194/337/4 204/338/4 202/339/4
f 194/340/67 193/341/67 203/342/67 204/343/67
f 206/344/2 205/345/2 207/346/2 208/347/2
f 210/313/103 209/348/103 211/349/103 212/314/103
f 217/350/104 215/351/104 219/352/104 220/353/104
f 187/354/105 178/311/105 212/314/105 214/355/105
f 195/356/106 197/357/106 220/353/106 219/352/106
f 172/303/107 168/306/107 209/358/107 210/359/107
f 185/360/108 187/354/108 214/355/108 213/361/108
f 191/362/109 190/363/109 215/351/109 216/364/109
f 168/306/110 176/365/110 211/366/110 209/358/110
f 190/363/111 195/356/111 219/352/111 215/351/111
f 176/367/112 185/368/112 213/369/112 211/370/112
f 221/371/23 169/305/23 171/372/23 170/373/23
f 221/371/28 170/373/28 177/374/28 222/375/28
f 241/376/2 243/377/2 247/378/2 245/379/2
f 171/372/30 169/305/30 180/321/30 181/380/30
f 177/308/113 179/307/113 186/324/113 184/323/113
f 178/311/4 187/354/4 223/381/4 188/382/4
f 177/308/2 184/323/2 227/383/2 225/384/2
f 189/328/62 188/385/62 223/386/62 224/387/62
f 186/324/2 179/307/2 189/328/2 224/387/2
f 187/325/114 186/324/114 224/387/114 223/388/114
f 228/389/4 226/390/4 230/391/4 232/392/4
f 222/375/34 177/374/34 225/393/34 226/390/34
f 185/394/4 222/375/4 226/390/4 228/389/4
f 184/323/65 185/326/65 228/395/65 227/383/65
f 229/396/2 231/397/2 234/398/2 233/399/2
f 226/390/35 225/393/35 229/400/35 230/391/35
f 225/384/2 227/383/2 231/397/2 229/396/2
f 227/383/36 228/395/36 232/401/36 231/397/36
f 231/397/38 232/401/38 191/402/38 234/398/38
f 232/392/4 230/391/4 190/403/4 191/404/4
f 230/391/115 229/400/115 233/405/115 190/403/115
f 192/406/40 235/407/40 193/341/40 194/340/40
f 235/407/41 192/406/41 197/408/41 196/409/41
f 233/399/2 234/398/2 193/341/2 235/407/2
f 234/398/66 191/402/66 202/410/66 249/411/66
f 236/412/2 196/409/2 239/413/2 237/414/2
f 190/403/116 233/405/116 236/415/116 195/416/116
f 233/399/2 235/407/2 196/409/2 236/412/2
f 194/317/10 191/417/10 216/418/10 218/318/10
f 240/419/4 238/420/4 242/421/4 244/422/4
f 196/409/117 197/408/117 240/423/117 239/413/117
f 197/424/4 195/416/4 238/420/4 240/419/4
f 195/416/44 236/415/44 237/425/44 238/420/44
f 238/420/45 237/425/45 241/426/45 242/421/45
f 237/414/2 239/413/2 243/377/2 241/376/2
f 239/413/46 240/423/46 244/427/46 243/377/46
f 243/377/8 244/427/8 248/428/8 247/378/8
f 244/422/4 242/421/4 246/429/4 248/430/4
f 245/379/2 300/431/2 296/432/2 241/376/2
f 202/339/4 204/338/4 253/433/4 251/434/4
f 193/341/2 234/398/2 249/411/2 203/342/2
f 252/435/2 250/436/2 205/345/2 206/344/2
f 249/411/68 202/410/68 251/437/68 250/436/68
f 203/342/2 249/411/2 250/436/2 252/435/2
f 204/343/69 203/342/69 252/435/69 253/438/69
f 255/439/118 257/440/118 260/441/118 258/442/118
f 253/438/71 252/435/71 206/344/71 255/443/71
f 251/434/4 253/433/4 255/444/4 254/445/4
f 250/436/72 251/437/72 254/446/72 205/345/72
f 207/346/73 256/447/73 257/448/73 208/347/73
f 205/345/47 254/446/47 256/447/47 207/346/47
f 255/443/74 206/344/74 208/347/74 257/448/74
f 257/440/73 256/449/73 261/450/73 260/441/73
f 254/451/119 255/439/119 258/442/119 259/452/119
f 256/449/120 254/453/120 259/454/120 261/450/120
f 216/455/121 215/456/121 266/457/121 267/458/121
f 213/459/78 214/460/78 265/461/78 264/462/78
f 260/441/73 261/450/73 273/463/73 272/464/73
f 212/465/122 211/466/122 262/467/122 263/468/122
f 211/466/123 213/469/123 264/470/123 262/467/123
f 258/442/81 260/441/81 272/464/81 270/471/81
f 218/472/10 216/473/10 267/474/10 269/475/10
f 215/456/124 217/476/124 268/477/124 266/457/124
f 214/460/125 212/465/125 263/468/125 265/461/125
f 261/450/84 259/454/84 271/478/84 273/463/84
f 259/452/85 258/442/85 270/471/85 271/479/85
f 267/458/126 266/457/126 278/290/126 279/289/126
f 264/462/78 265/461/78 277/286/78 276/292/78
f 270/471/81 272/464/81 284/288/81 282/293/81
f 266/457/127 268/477/127 280/291/127 278/290/127
f 262/467/128 264/470/128 276/295/128 274/294/128
f 273/463/84 271/478/84 283/283/84 285/282/84
f 271/479/85 270/471/85 282/293/85 283/296/85
f 265/461/129 263/468/129 275/287/129 277/286/129
f 269/475/10 267/474/10 279/285/10 281/284/10
f 263/468/130 262/467/130 274/294/130 275/287/130
f 272/464/73 273/463/73 285/282/73 284/288/73
f 269/475/131 268/477/131 217/476/131 218/472/131
f 268/477/132 269/475/132 281/284/132 280/291/132
f 275/287/133 274/294/133 156/274/133 157/279/133
f 289/480/7 293/481/7 292/482/7 288/483/7
f 295/484/8 294/485/8 298/486/8 299/487/8
f 297/488/7 296/489/7 300/490/7 301/491/7
f 241/426/134 296/492/134 297/488/134 242/421/134
f 94/149/134 289/480/134 288/493/134 93/154/134
f 242/421/4 297/488/4 301/491/4 246/429/4
f 101/165/2 293/481/2 289/480/2 94/149/2
f 198/332/4 298/486/4 294/485/4 180/321/4
f 61/109/2 286/494/2 290/495/2 97/160/2
f 181/322/2 295/496/2 299/497/2 199/333/2
f 98/163/4 291/498/4 287/499/4 62/112/4
f 180/321/135 294/485/135 295/500/135 181/380/135
f 62/108/135 287/501/135 286/494/135 61/109/135
